<?xml version="1.0" encoding="UTF-8" standalone="no"?>
<!-- Created with Inkscape (http://www.inkscape.org/) -->

<svg
   xmlns:dc="http://purl.org/dc/elements/1.1/"
   xmlns:cc="http://creativecommons.org/ns#"
   xmlns:rdf="http://www.w3.org/1999/02/22-rdf-syntax-ns#"
   xmlns:svg="http://www.w3.org/2000/svg"
   xmlns="http://www.w3.org/2000/svg"
   xmlns:sodipodi="http://sodipodi.sourceforge.net/DTD/sodipodi-0.dtd"
   xmlns:inkscape="http://www.inkscape.org/namespaces/inkscape"
   width="32px"
   height="32px"
   id="svg2985"
   version="1.1"
   inkscape:version="0.48.3.1 r9886"
   sodipodi:docname="interpolation.svg"
   inkscape:export-filename="/home/florian/Dropbox/QGIS_Plugin_transfer/icons/interpolation.png"
   inkscape:export-xdpi="90"
   inkscape:export-ydpi="90">
  <defs
     id="defs2987">
    <inkscape:perspective
       sodipodi:type="inkscape:persp3d"
       inkscape:vp_x="1.7677054 : 13.144476 : 1"
       inkscape:vp_y="0 : 1000 : 0"
       inkscape:vp_z="32 : 16 : 1"
       inkscape:persp3d-origin="16 : 10.666667 : 1"
       id="perspective3708" />
  </defs>
  <sodipodi:namedview
     id="base"
     pagecolor="#ffffff"
     bordercolor="#666666"
     borderopacity="1.0"
     inkscape:pageopacity="0.0"
     inkscape:pageshadow="2"
     inkscape:zoom="11.03125"
     inkscape:cx="10.418235"
     inkscape:cy="11.761527"
     inkscape:current-layer="layer1"
     showgrid="true"
     inkscape:grid-bbox="true"
     inkscape:document-units="px"
     inkscape:window-width="1280"
     inkscape:window-height="948"
     inkscape:window-x="0"
     inkscape:window-y="24"
     inkscape:window-maximized="1"
     inkscape:snap-center="false"
     inkscape:snap-object-midpoints="true"
     inkscape:object-nodes="true" />
  <metadata
     id="metadata2990">
    <rdf:RDF>
      <cc:Work
         rdf:about="">
        <dc:format>image/svg+xml</dc:format>
        <dc:type
           rdf:resource="http://purl.org/dc/dcmitype/StillImage" />
        <dc:title></dc:title>
      </cc:Work>
    </rdf:RDF>
  </metadata>
  <g
     inkscape:groupmode="layer"
     id="layer2"
     inkscape:label="Linien"
     style="display:inline">
    <g
       id="g4568"
       transform="translate(14.614876,-0.25640132)">
      <path
         inkscape:connector-curvature="0"
         id="path3788"
         d="m 4.6685553,23.84136 0,-14.096318"
         style="fill:none;stroke:#000000;stroke-width:1px;stroke-linecap:butt;stroke-linejoin:miter;stroke-opacity:1" />
      <path
         inkscape:connector-curvature="0"
         id="path3790"
         d="m 4.6685553,9.745042 -1.9456959,3.370044 3.9400303,0 z"
         style="fill:none;stroke:#000000;stroke-width:1px;stroke-linecap:butt;stroke-linejoin:miter;stroke-opacity:1" />
      <path
         inkscape:connector-curvature="0"
         id="path4564"
         d="m 3.7129578,12.461277 c 0.035722,-0.06856 0.1484266,-0.267099 0.2504558,-0.441207 l 0.1855076,-0.316562 0,0.441207 0,0.441207 -0.2504558,0 -0.2504557,0 0.064948,-0.124645 z"
         style="fill:#000000;fill-opacity:1;stroke:#000000;stroke-width:1;stroke-miterlimit:4;stroke-opacity:1;stroke-dasharray:none" />
      <path
         inkscape:connector-curvature="0"
         id="path4566"
         d="m 5.1914141,12.122053 0,-0.46387 0.1848015,0.316561 c 0.1016408,0.174108 0.2256839,0.38285 0.2756514,0.46387 l 0.09085,0.147308 -0.2756514,0 -0.2756515,0 0,-0.463869 z"
         style="fill:#000000;fill-opacity:1;fill-rule:nonzero;stroke:#000000;stroke-width:1;stroke-miterlimit:4;stroke-opacity:1;stroke-dasharray:none" />
    </g>
    <text
       xml:space="preserve"
       style="font-size:13.93835068px;font-style:normal;font-weight:normal;line-height:125%;letter-spacing:0px;word-spacing:0px;fill:#000000;fill-opacity:1;stroke:none;font-family:Sans"
       x="6.491066"
       y="22.833651"
       id="text4574"
       sodipodi:linespacing="125%"><tspan
         sodipodi:role="line"
         id="tspan4576"
         x="6.491066"
         y="22.833651">Z</tspan></text>
  </g>
  <g
     id="layer1"
     inkscape:label="Kreise"
     inkscape:groupmode="layer"
     style="display:inline">
    <path
       style="fill:none;stroke:#000000;stroke-width:1px;stroke-linecap:butt;stroke-linejoin:miter;stroke-opacity:1;display:inline"
       d="M 4.1441104,29.84018 27.066446,25.798777"
       id="path3466"
       inkscape:connector-curvature="0"
       sodipodi:nodetypes="cc" />
    <path
       sodipodi:type="arc"
       style="fill:#38364c;fill-opacity:1;fill-rule:evenodd;stroke:#000000;stroke-width:0.25418329000000001;stroke-linecap:butt;stroke-linejoin:miter;stroke-miterlimit:4;stroke-opacity:1;stroke-dasharray:none"
       id="path3787-6-4"
       sodipodi:cx="2.8416116"
       sodipodi:cy="10.403751"
       sodipodi:rx="0.82091004"
       sodipodi:ry="0.82091004"
       d="m 3.6625217,10.403751 a 0.82091004,0.82091004 0 1 1 -1.6418201,0 0.82091004,0.82091004 0 1 1 1.6418201,0 z"
       transform="matrix(1.8459883,0,0,1.8459883,-1.1014714,10.634977)"
       inkscape:transform-center-x="0.5185208" />
    <g
       id="g4579"
       transform="translate(0.12820066,-0.192301)">
      <path
         inkscape:connector-curvature="0"
         id="path3706"
         d="m 3.6791648,3.5335226 8.9291782,4.577904 7.025497,-5.983003 8.566571,3.263456"
         style="fill:none;stroke:#000000;stroke-width:1px;stroke-linecap:butt;stroke-linejoin:miter;stroke-opacity:1;display:inline" />
      <path
         transform="matrix(1.8459883,0,0,1.8459883,-1.566417,-15.671681)"
         d="m 3.6625217,10.403751 c 0,0.453376 -0.367534,0.82091 -0.8209101,0.82091 -0.4533761,0 -0.82091,-0.367534 -0.82091,-0.82091 0,-0.4533757 0.3675339,-0.8209097 0.82091,-0.8209097 0.4533761,0 0.8209101,0.367534 0.8209101,0.8209097 z"
         sodipodi:ry="0.82091004"
         sodipodi:rx="0.82091004"
         sodipodi:cy="10.403751"
         sodipodi:cx="2.8416116"
         id="path3787-5-7"
         style="fill:#fb6907;fill-opacity:1;fill-rule:evenodd;stroke:#070101;stroke-width:0.25418329000000001;stroke-linecap:butt;stroke-linejoin:miter;stroke-miterlimit:4;stroke-opacity:1;stroke-dasharray:none;display:inline"
         sodipodi:type="arc" />
      <path
         transform="matrix(1.8459883,0,0,1.8459883,7.3627617,-11.093777)"
         d="m 3.6625217,10.403751 c 0,0.453376 -0.367534,0.82091 -0.8209101,0.82091 -0.4533761,0 -0.82091,-0.367534 -0.82091,-0.82091 0,-0.4533757 0.3675339,-0.8209097 0.82091,-0.8209097 0.4533761,0 0.8209101,0.367534 0.8209101,0.8209097 z"
         sodipodi:ry="0.82091004"
         sodipodi:rx="0.82091004"
         sodipodi:cy="10.403751"
         sodipodi:cx="2.8416116"
         id="path3787-5-7-3"
         style="fill:#ff6c00;fill-opacity:1;fill-rule:evenodd;stroke:#000000;stroke-width:0.25418329000000001;stroke-linecap:butt;stroke-linejoin:miter;stroke-miterlimit:4;stroke-opacity:1;stroke-dasharray:none;display:inline"
         sodipodi:type="arc" />
      <path
         transform="matrix(1.8459883,0,0,1.8459883,14.388258,-17.07678)"
         d="m 3.6625217,10.403751 c 0,0.453376 -0.367534,0.82091 -0.8209101,0.82091 -0.4533761,0 -0.82091,-0.367534 -0.82091,-0.82091 0,-0.4533757 0.3675339,-0.8209097 0.82091,-0.8209097 0.4533761,0 0.8209101,0.367534 0.8209101,0.8209097 z"
         sodipodi:ry="0.82091004"
         sodipodi:rx="0.82091004"
         sodipodi:cy="10.403751"
         sodipodi:cx="2.8416116"
         id="path3787-5-7-1"
         style="fill:#ff6c00;fill-opacity:1;fill-rule:evenodd;stroke:#000000;stroke-width:0.25418329000000001;stroke-linecap:butt;stroke-linejoin:miter;stroke-miterlimit:4;stroke-opacity:1;stroke-dasharray:none;display:inline"
         sodipodi:type="arc" />
      <path
         transform="matrix(1.8459883,0,0,1.8459883,22.954829,-13.813324)"
         d="m 3.6625217,10.403751 c 0,0.453376 -0.367534,0.82091 -0.8209101,0.82091 -0.4533761,0 -0.82091,-0.367534 -0.82091,-0.82091 0,-0.4533757 0.3675339,-0.8209097 0.82091,-0.8209097 0.4533761,0 0.8209101,0.367534 0.8209101,0.8209097 z"
         sodipodi:ry="0.82091004"
         sodipodi:rx="0.82091004"
         sodipodi:cy="10.403751"
         sodipodi:cx="2.8416116"
         id="path3787-5-7-0"
         style="fill:#ff7a00;fill-opacity:1;fill-rule:evenodd;stroke:#000000;stroke-width:0.25418329000000001;stroke-linecap:butt;stroke-linejoin:miter;stroke-miterlimit:4;stroke-opacity:1;stroke-dasharray:none;display:inline"
         sodipodi:type="arc" />
    </g>
    <path
       sodipodi:type="arc"
       style="fill:#38364c;fill-opacity:1;fill-rule:evenodd;stroke:#000000;stroke-width:0.25418329;stroke-linecap:butt;stroke-linejoin:miter;stroke-miterlimit:4;stroke-opacity:1;stroke-dasharray:none;display:inline"
       id="path3787-6-4-5"
       sodipodi:cx="2.8416116"
       sodipodi:cy="10.403751"
       sodipodi:rx="0.82091004"
       sodipodi:ry="0.82091004"
       d="m 3.6625217,10.403751 a 0.82091004,0.82091004 0 1 1 -1.6418201,0 0.82091004,0.82091004 0 1 1 1.6418201,0 z"
       transform="matrix(1.8459883,0,0,1.8459883,21.820864,6.5935737)"
       inkscape:transform-center-x="0.5185208" />
  </g>
</svg>
