<?xml version="1.0" encoding="UTF-8" standalone="no"?>
<!DOCTYPE svg PUBLIC "-//W3C//DTD SVG 1.1//EN"
 "http://www.w3.org/Graphics/SVG/1.1/DTD/svg11.dtd">
<!-- Generated by graphviz version 2.40.1 (20161225.0304)
 -->
<!-- Title: Mercurial graph Pages: 1 -->
<svg width="512pt" height="44pt"
 viewBox="0.00 0.00 512.00 44.00" xmlns="http://www.w3.org/2000/svg" xmlns:xlink="http://www.w3.org/1999/xlink">
<g id="graph0" class="graph" transform="scale(1 1) rotate(0) translate(4 40)">
<title>Mercurial graph</title>
<!-- 0 -->
<g id="node1" class="node">
<title>0</title>
<polygon fill="none" stroke="#000000" stroke-width="4" points="72,-36 0,-36 0,0 72,0 72,-36"/>
<text text-anchor="middle" x="36" y="-14.3" font-family="mono" font-size="14.00" fill="#000000">0:0dc9</text>
</g>
<!-- 1 -->
<g id="node2" class="node">
<title>1</title>
<polygon fill="none" stroke="#000000" stroke-width="4" points="216,-36 144,-36 144,0 216,0 216,-36"/>
<text text-anchor="middle" x="180" y="-14.3" font-family="mono" font-size="14.00" fill="#000000">1:7b49</text>
</g>
<!-- 0&#45;&gt;1 -->
<g id="edge1" class="edge">
<title>0&#45;&gt;1</title>
<path fill="none" stroke="#000000" stroke-width="2" d="M72.3373,-18C90.9973,-18 113.9327,-18 133.8329,-18"/>
<polygon fill="#000000" stroke="#000000" stroke-width="2" points="133.9241,-21.5001 143.924,-18 133.924,-14.5001 133.9241,-21.5001"/>
</g>
<!-- 2 -->
<g id="node3" class="node">
<title>2</title>
<polygon fill="none" stroke="#000000" stroke-width="4" points="360,-36 288,-36 288,0 360,0 360,-36"/>
<text text-anchor="middle" x="324" y="-14.3" font-family="mono" font-size="14.00" fill="#000000">2:9d21</text>
</g>
<!-- 1&#45;&gt;2 -->
<g id="edge2" class="edge">
<title>1&#45;&gt;2</title>
<path fill="none" stroke="#000000" stroke-width="2" d="M216.3373,-18C234.9973,-18 257.9327,-18 277.8329,-18"/>
<polygon fill="#000000" stroke="#000000" stroke-width="2" points="277.9241,-21.5001 287.924,-18 277.924,-14.5001 277.9241,-21.5001"/>
</g>
<!-- 3 -->
<g id="node4" class="node">
<title>3</title>
<polygon fill="none" stroke="#000000" stroke-width="4" points="504,-36 432,-36 432,0 504,0 504,-36"/>
<text text-anchor="middle" x="468" y="-14.3" font-family="mono" font-size="14.00" fill="#000000">3:dd15</text>
</g>
<!-- 2&#45;&gt;3 -->
<g id="edge3" class="edge">
<title>2&#45;&gt;3</title>
<path fill="none" stroke="#000000" stroke-width="2" d="M360.3373,-18C378.9973,-18 401.9327,-18 421.8329,-18"/>
<polygon fill="#000000" stroke="#000000" stroke-width="2" points="421.9241,-21.5001 431.924,-18 421.924,-14.5001 421.9241,-21.5001"/>
</g>
</g>
</svg>
