<?xml version="1.0" encoding="UTF-8" standalone="no"?>
<svg
   xmlns:dc="http://purl.org/dc/elements/1.1/"
   xmlns:cc="http://creativecommons.org/ns#"
   xmlns:rdf="http://www.w3.org/1999/02/22-rdf-syntax-ns#"
   xmlns:svg="http://www.w3.org/2000/svg"
   xmlns="http://www.w3.org/2000/svg"
   xmlns:sodipodi="http://sodipodi.sourceforge.net/DTD/sodipodi-0.dtd"
   xmlns:inkscape="http://www.inkscape.org/namespaces/inkscape"
   width="38.130562mm"
   height="18.617535mm"
   viewBox="0 0 38.130562 18.617535"
   version="1.1"
   id="svg2352"
   inkscape:version="1.0.1 (3bc2e813f5, 2020-09-07)"
   sodipodi:docname="tuxmake_icon.svg">
  <defs
     id="defs2346" />
  <sodipodi:namedview
     id="base"
     pagecolor="#ffffff"
     bordercolor="#666666"
     borderopacity="1.0"
     inkscape:pageopacity="0.0"
     inkscape:pageshadow="2"
     inkscape:zoom="0.35"
     inkscape:cx="-62.228028"
     inkscape:cy="-193.3883"
     inkscape:document-units="mm"
     inkscape:current-layer="layer1"
     inkscape:document-rotation="0"
     showgrid="false"
     fit-margin-top="0"
     fit-margin-left="0"
     fit-margin-right="0"
     fit-margin-bottom="0"
     inkscape:window-width="1452"
     inkscape:window-height="1199"
     inkscape:window-x="103"
     inkscape:window-y="127"
     inkscape:window-maximized="0" />
  <metadata
     id="metadata2349">
    <rdf:RDF>
      <cc:Work
         rdf:about="">
        <dc:format>image/svg+xml</dc:format>
        <dc:type
           rdf:resource="http://purl.org/dc/dcmitype/StillImage" />
        <dc:title></dc:title>
      </cc:Work>
    </rdf:RDF>
  </metadata>
  <g
     inkscape:label="Layer 1"
     inkscape:groupmode="layer"
     id="layer1"
     transform="translate(-122.29783,-199.33399)">
    <path
       class="cls-1"
       d="m 126.03126,212.08948 a 9.1387083,9.1387083 0 0 1 -1.05833,0.92604 c -0.0794,0.0476 -0.15346,0.0926 -0.23019,0.14288 -0.24871,0.15875 -0.48683,0.32544 -0.70908,0.48948 -1.21179,0.90752 -1.9394,1.83621 -1.6854,2.23044 a 0.17197917,0.17197917 0 0 0 0.0582,0.0661 c 0.21167,-0.0794 0.43656,-0.17727 0.67469,-0.2884 a 12.988396,12.988396 0 0 0 1.20385,-0.6641 11.572875,11.572875 0 0 0 1.08215,-0.79375 c -0.52917,0.54504 -0.83608,1.02923 -0.74613,1.32291 a 0.22489583,0.22489583 0 0 0 0.0344,0.082 0.31485417,0.31485417 0 0 0 0.0582,0.0608 0.5635625,0.5635625 0 0 0 0.42333,0.11642 2.4156458,2.4156458 0 0 0 0.6694,-0.10054 c 0.0529,0 0.10318,-0.0291 0.16139,-0.045 a 0.8175625,0.8175625 0 0 1 0.21696,0 0.41010417,0.41010417 0 0 1 0.26458,0.16404 0.04233333,0.04233333 0 0 1 0,0.0318 0.45508333,0.45508333 0 0 1 0,0.36513 1.8520833,1.8520833 0 0 1 -0.0979,0.21695 3.3522708,3.3522708 0 0 0 -0.46567,0.65088 0.68527083,0.68527083 0 0 0 -0.0979,0.58208 0.04497917,0.04497917 0 0 0 0.0159,0.0265 0.14022917,0.14022917 0 0 0 0.0609,0.0635 0.67997917,0.67997917 0 0 0 0.48419,0.12171 3.0929792,3.0929792 0 0 0 0.65617,-0.12171 18.608146,18.608146 0 0 1 2.78342,-1.49754 2.6458333,2.6458333 0 0 1 0.26458,-0.11113 v 0 c 0.26458,-0.10847 0.52917,-0.21166 0.76464,-0.30691 v 0 c 0.0635,-0.0212 0.12436,-0.0476 0.18257,-0.0688 0.0582,-0.0212 0.12964,-0.0476 0.1905,-0.0741 0.11377,-0.0397 0.21696,-0.0741 0.32543,-0.10584 0.10848,-0.0318 0.15082,-0.0529 0.22755,-0.0741 a 11.945937,11.945937 0 0 1 1.50018,-0.38364 h 0.14023 a 33.414229,33.414229 0 0 0 8.04598,-0.39952 c 1.61661,-0.30163 3.42106,-1.05834 4.98475,-1.85209 v 0 c 0,0 1.89971,0.26459 2.81517,1.11125 a 8.35025,8.35025 0 0 1 1.89177,2.76225 c 0.26458,0.70644 0.39687,1.3679 0.81756,1.18534 0.42069,-0.18257 0.82021,-1.32292 0.74613,-2.30982 -0.0741,-0.98689 -0.67205,-2.93952 -1.39965,-3.91583 a 2.7913542,2.7913542 0 0 0 -1.25942,-0.93133 3.3152292,3.3152292 0 0 0 0.32015,-0.24342 c 0.34131,-0.34925 1.30704,-1.47902 2.33892,-2.60614 1.03187,-1.12713 1.6801,-2.6723 2.20133,-3.28348 0.52123,-0.61119 2.38125,-2.03465 2.9501,-2.50032 a 4.7016458,4.7016458 0 0 1 1.05834,-0.6932 7.1860833,7.1860833 0 0 0 1.30175,-0.67469 c 0.26458,-0.21168 0.26458,-0.81493 0.18521,-1.11391 -0.0661,-0.23283 -0.28046,-0.26458 -0.55827,-0.30956 -0.27782,-0.045 -0.94986,0.21696 -1.397,0.37571 a 3.683,3.683 0 0 1 -1.61132,0.082 5.7493958,5.7493958 0 0 0 -1.3626,-0.2196 c -0.50271,0 -1.91823,0.59002 -2.79136,1.03716 -0.87312,0.44715 -1.87325,1.37848 -2.59291,1.85209 -0.71967,0.4736 -2.38125,1.11389 -3.42106,1.14035 a 3.4395833,3.4395833 0 0 1 -1.37584,-0.28575 l -0.5715,-0.23812 a 0.46302083,0.46302083 0 0 0 -0.0847,-0.0317 25.299458,25.299458 0 0 0 -3.41048,-1.06892 c -4.76249,-1.1721 -9.14664,-0.889 -11.14953,0.52917 a 0.35454167,0.35454167 0 0 0 -0.0741,0.0476 c 0,0 0,0 0,0 a 0.34925,0.34925 0 0 0 -0.10583,0.23813 0.3571875,0.3571875 0 0 0 0.33602,0.3757 0.32279167,0.32279167 0 0 0 0.0714,0 26.281062,26.281062 0 0 1 3.86292,-0.045 c 0.63764,0.0397 1.26206,0.10318 1.85208,0.18256 v 0 a 10.773833,10.773833 0 0 1 1.30439,0.20637 v 0 c 0.19315,0.0423 0.38894,0.0767 0.57944,0.11907 a 0.0635,0.0635 0 0 1 0.0344,0 h 0.0212 a 3.5480625,3.5480625 0 0 1 1.12977,0.46302 c 0.0397,0.0344 0.0714,0.0556 0.10584,0.0899 a 0.54504167,0.54504167 0 0 1 0.20902,0.39688 c 0,0.29369 -0.37307,0.55033 -0.96309,0.74083 l 0.0609,-0.0265 c -0.39158,0.11378 -0.79375,0.23019 -1.18269,0.36248 -0.38893,0.1323 -0.79375,0.26459 -1.16416,0.42069 -1.16152,0.41275 -2.53736,0.95779 -3.93965,1.5875 -0.0265,0.0132 -2.49502,1.21973 -2.86808,1.4605 a 7.5697292,7.5697292 0 0 0 -1.778,1.54252"
       id="path2314"
       style="fill:#7f3179;stroke-width:0.264583" />
  </g>
</svg>
