<svg xmlns="http://www.w3.org/2000/svg" viewBox="0 0 244.01 117.59"><defs><style>.cls-1{fill:#7f3179;}</style></defs><g id="Layer_2" data-name="Layer 2"><path class="cls-1" d="M70.8,48.2a34.54,34.54,0,0,1-4,3.5c-.3.18-.58.35-.87.54-.94.6-1.84,1.23-2.68,1.85-4.58,3.43-7.33,6.94-6.37,8.43a.65.65,0,0,0,.22.25c.8-.3,1.65-.67,2.55-1.09a49.09,49.09,0,0,0,4.55-2.51,43.74,43.74,0,0,0,4.09-3c-2,2.06-3.16,3.89-2.82,5a.85.85,0,0,0,.13.31,1.19,1.19,0,0,0,.22.23,2.13,2.13,0,0,0,1.6.44,9.13,9.13,0,0,0,2.53-.38c.2,0,.39-.11.61-.17a3.09,3.09,0,0,1,.82,0,1.55,1.55,0,0,1,1,.62.16.16,0,0,1,0,.12,1.72,1.72,0,0,1,0,1.38,7,7,0,0,1-.37.82A12.67,12.67,0,0,0,70.25,67a2.59,2.59,0,0,0-.37,2.2.17.17,0,0,0,.06.1.53.53,0,0,0,.23.24A2.57,2.57,0,0,0,72,70a11.69,11.69,0,0,0,2.48-.46A70.33,70.33,0,0,1,85,63.88a10,10,0,0,1,1-.42v0c1-.41,2-.8,2.89-1.16h0c.24-.08.47-.18.69-.26s.49-.18.72-.28c.43-.15.82-.28,1.23-.4s.57-.2.86-.28a45.15,45.15,0,0,1,5.67-1.45l.53,0A126.29,126.29,0,0,0,129,58.12c6.11-1.14,12.93-4,18.84-7v0s7.18,1,10.64,4.2a31.56,31.56,0,0,1,7.15,10.44c1,2.67,1.5,5.17,3.09,4.48s3.1-5,2.82-8.73S169,50.4,166.25,46.71a10.55,10.55,0,0,0-4.76-3.52,12.53,12.53,0,0,0,1.21-.92c1.29-1.32,4.94-5.59,8.84-9.85s6.35-10.1,8.32-12.41,9-7.69,11.15-9.45a17.77,17.77,0,0,1,4-2.62,27.16,27.16,0,0,0,4.92-2.55c1-.8,1-3.08.7-4.21-.25-.88-1.06-1-2.11-1.17s-3.59.82-5.28,1.42a13.92,13.92,0,0,1-6.09.31A21.73,21.73,0,0,0,182,.91c-1.9,0-7.25,2.23-10.55,3.92s-7.08,5.21-9.8,7-9,4.21-12.93,4.31a13,13,0,0,1-5.2-1.08l-2.16-.9a1.75,1.75,0,0,0-.32-.12A95.62,95.62,0,0,0,128.15,10c-18-4.43-34.57-3.36-42.14,2a1.34,1.34,0,0,0-.28.18s0,0,0,0a1.32,1.32,0,0,0-.4.9,1.35,1.35,0,0,0,1.27,1.42,1.22,1.22,0,0,0,.27,0,99.33,99.33,0,0,1,14.6-.17c2.41.15,4.77.39,7,.69h0a40.72,40.72,0,0,1,4.93.78h0c.73.16,1.47.29,2.19.45a.24.24,0,0,1,.13,0l.08,0A13.41,13.41,0,0,1,120.07,18c.15.13.27.21.4.34a2.06,2.06,0,0,1,.79,1.5c0,1.11-1.41,2.08-3.64,2.8l.23-.1c-1.48.43-3,.87-4.47,1.37s-3,1-4.4,1.59c-4.39,1.56-9.59,3.62-14.89,6-.1.05-9.43,4.61-10.84,5.52a28.61,28.61,0,0,0-6.72,5.83"/><path d="M18.59,116.75A10.89,10.89,0,0,1,7.41,105.5V85.68H1.69a1.69,1.69,0,0,1,0-3.38H7.41V73.65a1.76,1.76,0,0,1,3.51,0V82.3h12a1.69,1.69,0,1,1,0,3.38h-12V105.5c0,4.68,3.12,7.87,7.67,7.87h4.29a1.69,1.69,0,1,1,0,3.38Z"/><path d="M53.17,83.66a1.76,1.76,0,0,1,3.51,0V104a13.59,13.59,0,0,1-27.17,0V83.66a1.76,1.76,0,0,1,3.51,0V104a10.08,10.08,0,1,0,20.15,0Z"/><path d="M77.8,102.19l-12,14.3a1.77,1.77,0,0,1-2.47.26,1.7,1.7,0,0,1-.2-2.47L75.59,99.52,63.11,84.77a1.76,1.76,0,0,1,2.67-2.28l12,14.43,12-14.43a1.76,1.76,0,0,1,2.67,2.28L80,99.52,92.5,114.28a1.7,1.7,0,0,1-.2,2.47,1.77,1.77,0,0,1-2.47-.26Z"/><path d="M139.62,95.36a9.56,9.56,0,0,0-9.56-9.68h-7.34v29.7a1.76,1.76,0,1,1-3.51,0V85.68H102.57v29.7a1.76,1.76,0,1,1-3.51,0V84.25a1.87,1.87,0,0,1,2-2h29.05a13,13,0,0,1,13.07,13.06v20a1.76,1.76,0,1,1-3.51,0Z"/><path d="M159.31,116.75a10,10,0,1,1,0-20.09h9.23a1.69,1.69,0,1,1,0,3.38h-9.23a6.67,6.67,0,0,0,0,13.33h14.5V94.45c0-5.33-3.32-8.77-8.65-8.77H154.31a1.69,1.69,0,1,1,0-3.38h10.85c7.22,0,12.16,4.94,12.16,12.15V114.8a1.84,1.84,0,0,1-1.95,2Z"/><path d="M188.76,99.91v15.47a1.76,1.76,0,1,1-3.51,0V69.88a1.76,1.76,0,0,1,3.51,0V99.26l18.59-16.83a1.71,1.71,0,1,1,2.34,2.47L193.37,99.52l16.32,14.69a1.68,1.68,0,0,1,.19,2.41,1.71,1.71,0,0,1-2.53,0Z"/><path d="M230.16,116.75c-10.14,0-17.87-7.35-17.87-17.23S220,82.3,230.16,82.3h3.45c6.24,0,10.4,4.42,10.4,9.68s-4.16,9.62-10.4,9.62H223.14a1.69,1.69,0,0,1,0-3.38h10.47c4.16,0,6.89-2.79,6.89-6.24s-2.73-6.3-6.89-6.3h-3.45c-8.12,0-14.36,5.85-14.36,13.84s6.24,13.85,14.36,13.85h9.3a1.69,1.69,0,0,1,0,3.38Z"/></g></svg>