<?xml version="1.0" encoding="UTF-8"?>
<svg width="40px" height="36px" viewBox="0 0 40 36" version="1.1" xmlns="http://www.w3.org/2000/svg" xmlns:xlink="http://www.w3.org/1999/xlink">
    <!-- Generator: Sketch 63.1 (92452) - https://sketch.com -->
    <title>icon/image/photo_camera_24px</title>
    <desc>Created with Sketch.</desc>
    <g id="Dashboard-Launch-Version-v2" stroke="none" stroke-width="1" fill="none" fill-rule="evenodd">
        <g id="cam-off" transform="translate(-229.000000, -215.000000)" fill="#FFFFFF" fill-rule="nonzero">
            <g id="cam-on" transform="translate(192.000000, 198.000000)">
                <path d="M57,31 C53.6862915,31 51,33.6862915 51,37 C51,40.3137085 53.6862915,43 57,43 C60.3137085,43 63,40.3137085 63,37 C63,33.6862915 60.3137085,31 57,31 Z M73,21 L66.66,21 L64.18,18.3 C63.44,17.48 62.36,17 61.24,17 L52.76,17 C51.64,17 50.56,17.48 49.8,18.3 L47.34,21 L41,21 C38.8,21 37,22.8 37,25 L37,49 C37,51.2 38.8,53 41,53 L73,53 C75.2,53 77,51.2 77,49 L77,25 C77,22.8 75.2,21 73,21 Z M57,47 C51.48,47 47,42.52 47,37 C47,31.48 51.48,27 57,27 C62.52,27 67,31.48 67,37 C67,42.52 62.52,47 57,47 Z" id="icon/image/photo_camera_24px"></path>
            </g>
        </g>
    </g>
</svg>