<?xml version="1.0" encoding="UTF-8"?>
<svg width="91px" height="82px" viewBox="0 0 91 82" version="1.1" xmlns="http://www.w3.org/2000/svg" xmlns:xlink="http://www.w3.org/1999/xlink">
    <!-- Generator: sketchtool 63.1 (101010) - https://sketch.com -->
    <title>674E1F4E-7466-41FF-9CDF-06FD6B5D84C5</title>
    <desc>Created with sketchtool.</desc>
    <g id="Dashboard-Launch-Version-v2" stroke="none" stroke-width="1" fill="none" fill-rule="evenodd">
        <g id="KNN-model-is-ready" transform="translate(-153.000000, -78.000000)" fill-rule="nonzero">
            <g id="cluster5" transform="translate(153.000000, 78.000000)">
                <path d="M72.29,50.28 C71.29,49.99 70.15,50.74 69.21,51.14 C68.27,51.54 67.13,52.14 66.1,52.59 L59.75,55.59 L61.66,56.68 C61.3569733,54.7443545 60.7352144,52.8723196 59.82,51.14 C58.9727711,49.4273767 57.9684667,47.7970559 56.82,46.27 L56.02,48.27 C60.3348182,46.5698168 64.4145597,44.3249508 68.16,41.59 L65.61,40.13 C65.6723614,41.8471992 66.2859711,43.4986857 67.36,44.84 C67.8287389,45.4746873 68.2498879,46.1431778 68.62,46.84 C68.85,47.33 69.02,48.36 69.32,49.01 C69.98,50.44 72.11,49.92 72.51,48.59 C73,46.83 71.7,45 70.77,43.7 C70,42.54 69,41.35 69,40.13 C68.9816935,39.4568029 68.5699666,38.8570396 67.9483242,38.5980219 C67.3266818,38.3390042 66.6109001,38.4689723 66.12,38.93 C62.774287,41.7637074 59.0268649,44.0856264 55,45.82 C54.3631663,46.1935924 54.1485199,47.0119319 54.52,47.65 C55.5828723,49.1247379 56.5068212,50.6947815 57.28,52.34 C58.1,53.96 58.53,55.73 59.28,57.34 C59.6391414,57.9336013 60.4034605,58.1368307 61.01,57.8 L67.26,54.61 C68.26,54.09 69.26,53.61 70.26,53.03 C71.26,52.45 72.26,52.13 72.7,51.1 C72.7961748,50.7414202 72.5869727,50.3719782 72.23,50.27 L72.29,50.28 Z" id="Path" fill="#FFFFFF"></path>
                <path d="M60.94,52.66 C60.7044726,52.8268284 60.5068278,53.0415116 60.36,53.29 C60.0907547,53.6869394 60.0275699,54.1887015 60.19,54.64 C60.5107482,55.5508305 61.2583266,56.2460784 62.19,56.5 C62.8659541,56.6888632 63.5759971,56.3402966 63.84,55.69 C64.075674,55.0627897 63.8374069,54.3563487 63.27,54 C62.2823321,53.3853302 61.245455,52.8535126 60.17,52.41 L59.41,55.21 C60.66619,55.2904674 61.9273094,55.1791922 63.15,54.88 C63.8227265,54.6829336 64.288839,54.0709077 64.3,53.37 C64.2794732,52.6723713 63.817076,52.0652236 63.15,51.86 C61.94,51.36 60.71,50.95 59.48,50.51 L59.07,53.51 C60.9035874,53.4522051 62.7379659,53.5964067 64.54,53.94 C65.3792864,54.1600021 66.253692,53.7355334 66.6,52.94 C66.9479377,52.1383095 66.6433258,51.2030222 65.89,50.76 C64.0246615,49.8634321 61.950893,49.4901538 59.89,49.68 C59.0673442,49.6960718 58.3773877,50.3056039 58.26,51.12 C58.1349203,51.9412732 58.6475012,52.7252205 59.45,52.94 C62.45,53.38 65.36,53.83 68.34,54.09 C69.2209871,54.098034 69.9705851,53.4498847 70.0898495,52.5769707 C70.2091139,51.7040568 69.6608538,50.8785838 68.81,50.65 C66.23,49.99 63.64,49.38 61.07,48.65 L60.65,51.78 C63.49,52.11 66.31,52.62 69.15,52.94 C69.9978503,52.941603 70.71402,52.3112021 70.82,51.47 C70.9238412,50.6325432 70.4083191,49.8423576 69.6,49.6 C66.6233629,48.4792278 63.5360163,47.6780597 60.39,47.21 L59.53,50.32 C62.894955,50.8631433 66.2864087,51.2269902 69.69,51.41 C70.5404238,51.3976013 71.2540958,50.765503 71.3691231,49.9228031 C71.4841504,49.0801033 70.9659906,48.2798618 70.15,48.04 C68.1166749,47.6642348 66.0632026,47.4071334 64,47.27 C62,47.14 60,47.13 58,47.1 L58,50.3 C61.74,50.03 65.44,50.1 69.18,50.14 L69.18,46.5 C66.1164795,46.5533242 63.0604592,46.1797358 60.1,45.39 L59.65,48.7 C62.65,48.54 65.65,48.44 68.57,48.13 C69.5751582,48.13 70.39,47.3151582 70.39,46.31 C70.39,45.3048418 69.5751582,44.49 68.57,44.49 C66.5,44.33 64.43,44.26 62.36,44.07 L62.78,47.19 C63.5510472,46.9870835 64.3582815,46.9631401 65.14,47.12 C65.7391263,47.2771987 66.3741254,47.0601499 66.7516784,46.5691127 C67.1292314,46.0780756 67.1758499,45.4086275 66.87,44.87 C66.3848391,44.1929106 65.7736857,43.6157102 65.07,43.17 L64.7,46 C65.48,45.75 66.23,45.43 66.99,45.1 C67.6416591,44.6974357 67.901546,43.8792304 67.6016246,43.1744151 C67.3017032,42.4695997 66.5319211,42.0895515 65.79,42.28 C65.02,42.56 64.27,42.86 63.52,43.21 C63.056653,43.4884369 62.7732213,43.9894285 62.7732213,44.53 C62.7732213,45.0705715 63.056653,45.5715631 63.52,45.85 C63.8094973,45.9781086 64.0535036,46.1907427 64.22,46.46 L66,44.17 C64.6868542,43.8418737 63.3131458,43.8418737 62,44.17 C61.2379376,44.3827544 60.7507366,45.126377 60.86,45.91 C60.9799846,46.6855625 61.6355929,47.2655237 62.42,47.29 C64.5,47.53 66.56,47.9 68.63,48.17 L68.63,44.49 C65.63,44.65 62.68,45.02 59.71,45.32 C58.8518947,45.3115119 58.1203997,45.9403408 58,46.79 C57.8781336,47.620631 58.3918557,48.4126192 59.2,48.64 C62.4724408,49.4847214 65.8237386,49.9874161 69.2,50.14 C70.1928242,50.1184679 70.9894394,49.3130015 71,48.32 C70.9787962,47.3237568 70.1762432,46.5212038 69.18,46.5 C65.4433401,46.4047303 61.7050009,46.6053567 58,47.1 C57.1273693,47.1260659 56.4260659,47.8273693 56.4,48.7 C56.4054576,49.5813851 57.1186149,50.2945424 58,50.3 C61.7563752,50.2711051 65.5058649,50.6262846 69.19,51.36 L69.65,48 C66.4,47.83 63.15,47.58 59.92,47.18 C59.0291894,47.179983 58.3054988,47.8992064 58.3,48.79 C58.3263285,49.6719073 59.0379465,50.3791327 59.92,50.4 C62.9294331,50.8507324 65.8674284,51.69112 68.66,52.9 L69.56,49.62 C66.56,49.22 63.56,49 60.56,48.62 C59.7674929,48.623658 59.10031,49.2138583 59,50 C58.8996758,50.7815917 59.3833697,51.5198613 60.14,51.74 C62.7,52.46 65.25,53.26 67.8,54.02 L68.26,50.58 C65.577671,50.4711481 62.9053159,50.1872103 60.26,49.73 L59.85,53 C61.3171497,52.9200805 62.7826999,53.1837426 64.13,53.77 L65,50.51 C63.0301762,50.2518252 61.0373979,50.2182768 59.06,50.41 C58.3475207,50.487084 57.7792052,51.039676 57.6821668,51.7497128 C57.5851285,52.4597496 57.9843311,53.1445691 58.65,53.41 C59.87,53.88 61.07,54.41 62.3,54.79 L62.3,51.79 C61.3649981,52.0924806 60.3796109,52.2080087 59.4,52.13 C58.6890733,52.1050498 58.0559298,52.5765057 57.876073,53.2647578 C57.6962162,53.9530098 58.0177584,54.673948 58.65,55 C59.790712,55.5992957 60.9738937,56.1140132 62.19,56.54 L62.56,53.79 C62.38,53.79 62.37,53.79 62.19,53.6 C62.0022458,53.3809634 61.7705779,53.2038056 61.51,53.08 C61.82,53.24 61.51,53.08 61.51,52.92 C61.51,52.76 61.18,52.54 60.96,52.7 L60.94,52.66 Z" id="Path" fill="#FFFFFF"></path>
                <path d="M13,14.89 C12.27,15.75 12.47,16.97 12.43,18.03 C12.39,19.09 12.43,20.34 12.43,21.5 C12.43,23.8066667 12.4533333,26.1166667 12.5,28.43 L14.1,27.21 C13.1730525,26.934706 12.2159839,26.7735155 11.25,26.73 C10.2827277,26.6397065 9.31142245,26.5996527 8.34,26.61 C6.40188155,26.6787281 4.47398766,26.9230619 2.58,27.34 L4.28,28.63 C4.53773112,23.9763217 4.20169404,19.3087665 3.28,14.74 L0.84,16.64 C2.53830373,17.38095 4.4357026,17.5323195 6.23,17.07 C6.91202498,16.9104007 7.60958086,16.8265598 8.31,16.82 C8.49319829,16.8100486 8.67680171,16.8100486 8.86,16.82 C9.03855063,16.8556703 9.21877665,16.8823705 9.4,16.9 C9.03,16.83 9.53,16.95 9.61,16.97 C10.0247894,17.0902816 10.4652106,17.0902816 10.88,16.97 C11.3822247,16.8194437 11.7883537,16.4480364 11.9830761,15.9612304 C12.1777984,15.4744245 12.139848,14.9253853 11.88,14.47 C10.83,12.64 8.02,13.21 6.33,13.47 L5.19,13.68 L4.62,13.77 C4.88,13.77 4.38,13.77 4.33,13.77 C3.96375905,13.7949877 3.59624095,13.7949877 3.23,13.77 L3.17,13.77 L2.9,13.72 C2.84,13.72 2.36,13.54 2.54,13.62 C1.94323692,13.2856364 1.20506158,13.3366804 0.66,13.75 C0.122282536,14.1656764 -0.114107494,14.863027 0.06,15.52 C1.22725598,19.7513967 1.76303909,24.1320134 1.65,28.52 C1.65890666,28.9336435 1.85562481,29.3207385 2.18450275,29.5717755 C2.51338068,29.8228125 2.93864936,29.9104885 3.34,29.81 C5.04712832,29.4821207 6.78167088,29.3180423 8.52,29.32 C9.36,29.32 10.21,29.32 11.05,29.37 C11.89,29.42 12.9,29.6 13.82,29.59 C14.5152273,29.5791563 15.0746524,29.0152913 15.08,28.32 L14.84,21.39 C14.84,20.23 14.78,19.08 14.69,17.92 C14.6,16.76 14.76,15.59 13.99,14.78 C13.8612564,14.6403251 13.6799579,14.5608687 13.49,14.5608687 C13.3000421,14.5608687 13.1187436,14.6403251 12.99,14.78 L13,14.89 Z" id="Path" fill="#FFFFFF"></path>
                <path d="M10.39,26.29 C10.5261899,27.08948 11.1910513,27.6923978 12,27.75 C12.884972,27.7857685 13.738348,27.417934 14.32,26.75 C14.8257602,26.2530438 14.8801291,25.4564351 14.4465792,24.8953706 C14.0130294,24.3343061 13.2284689,24.185961 12.62,24.55 C11.5621601,25.2675636 10.5593728,26.0631082 9.62,26.93 L11.98,28.75 C12.5933016,27.6608436 13.0351504,26.4837043 13.29,25.26 C13.460556,24.5785158 13.1606755,23.866268 12.5540365,23.5120094 C11.9473975,23.1577507 11.1797156,23.2465746 10.67,23.73 C9.67,24.62 8.82,25.56 7.9,26.49 L10.33,28.36 C11.1223236,26.5396466 12.1079829,24.809714 13.27,23.2 C13.6747373,22.444516 13.4615145,21.5063358 12.77,21 C12.0731617,20.4870446 11.1091629,20.545979 10.48,21.14 C8.91223501,22.4862161 7.74325577,24.2362264 7.1,26.2 C6.86699482,27.02486 7.30030892,27.8914882 8.1,28.2 C8.86613152,28.5178926 9.74960456,28.2290648 10.18,27.52 C11.74,25.15 13.3,22.79 14.72,20.33 C15.1967965,19.5456637 14.9823293,18.5258506 14.23,18 C13.5424885,17.4563943 12.5561719,17.5166932 11.94,18.14 C10.25,20.2 8.59,22.29 6.87,24.33 L9.37,26.26 C10.87,23.83 12.52,21.49 14.01,19.05 C14.3902453,18.3146067 14.1890719,17.4124434 13.5324153,16.9082688 C12.8757587,16.4040943 11.9522457,16.4427343 11.34,17 C8.95423137,19.3296585 6.82844264,21.9114523 5,24.7 L7.78,26.33 C9.5928871,23.6265464 11.2618736,20.8293251 12.78,17.95 C13.2604877,17.1215729 12.9784271,16.0604877 12.15,15.58 C11.3215729,15.0995123 10.2604877,15.3815729 9.78,16.21 C7.5921086,19.4462437 5.67557816,22.8578686 4.05,26.41 L6.98,27.64 C8.25,24.28 9.82,21.09 11.38,17.84 L8.34,16 C7.09889537,18.8119503 5.47703989,21.4398945 3.52,23.81 L6.34,25.46 C7.45,22.68 8.62,19.93 9.59,17.11 C9.83906985,16.2258748 9.39029867,15.294726 8.54354967,14.9387354 C7.69680066,14.5827449 6.7174983,14.9135024 6.26,15.71 C5.26,17.52 4.26,19.38 3.26,21.18 L6.16,22.4 C6.3162947,21.4733674 6.70124654,20.6003516 7.28,19.86 C7.59415663,19.3227513 7.54651229,18.6477897 7.16,18.16 C6.7777909,17.6765709 6.1480995,17.461459 5.55,17.61 C4.85939082,17.7595696 4.20192601,18.0340781 3.61,18.42 L5.91,19.74 C5.99,19.05 6.02,18.37 6.05,17.68 C6.03921977,16.8284639 5.35153607,16.1407802 4.5,16.13 C3.67024612,16.1719361 3.01471587,16.8493174 3,17.68 C2.95,18.37 2.9,19.04 2.91,19.74 C2.91335503,20.3508087 3.28436884,20.8994355 3.85,21.13 C4.41792237,21.3610361 5.0686568,21.2355933 5.51,20.81 C5.78873967,20.6648899 6.09601739,20.5829491 6.41,20.57 L4.87,18 C3.99022398,19.0165905 3.378365,20.236871 3.09,21.55 C2.90315712,22.312884 3.29768134,23.0985822 4.02114074,23.4043744 C4.74460014,23.7101665 5.58304258,23.4456191 6,22.78 C7.09,21 8.29,19.3 9.4,17.54 L6.08,16.14 C4.97,18.91 4.08,21.75 3.08,24.56 C2.87451329,25.3013398 3.19562857,26.0879141 3.86123262,26.4736352 C4.52683668,26.8593562 5.36895525,26.7468822 5.91,26.2 C7,24.85 8.05,23.55 9,22.1 C9.90794078,20.7307701 10.7327614,19.3082051 11.47,17.84 C11.8941152,16.9844523 11.5848981,15.9466007 10.7617012,15.4626767 C9.93850442,14.9787527 8.881279,15.2133282 8.34,16 C6.61641297,19.4789922 5.16539067,23.0864877 4,26.79 C3.83339332,27.5521742 4.23721955,28.324125 4.95832072,28.6219176 C5.67942188,28.9197102 6.51026672,28.6576407 6.93,28 C8.55910091,24.4745295 10.5426468,21.1239452 12.85,18 L9.85,16.26 C8.36,19.1 6.77,21.94 5,24.7 C4.54988793,25.4676758 4.8073242,26.4548879 5.575,26.905 C6.3426758,27.3551121 7.32988793,27.0976758 7.78,26.33 C9.44876681,23.7764155 11.4458632,21.453194 13.72,19.42 L11.05,17.36 C9.51,19.77 8.13,22.27 6.6,24.68 C5.6,26.19 7.9,28 9.09,26.61 C10.83,24.61 12.62,22.61 14.38,20.61 L11.63,18.49 C10.3239018,21.0112862 8.85756337,23.4462765 7.24,25.78 L10.24,27.06 C10.32,26.87 10.33,26.83 10.24,26.95 L10.4,26.62 C10.48,26.45 10.57,26.29 10.66,26.13 C10.84827,25.7812747 11.0621923,25.4470211 11.3,25.13 C11.37,25.03 11.37,25.03 11.3,25.13 L11.53,24.85 L11.9,24.44 C12.2,24.14 12.52,23.86 12.84,23.58 L10.1,21.46 C8.97714841,23.2654805 8.05182272,25.1865371 7.34,27.19 C6.91,28.73 9,29.73 10,28.72 C11,27.71 11.89,26.93 12.79,25.99 L10.17,24.46 C10.0604084,25.4446066 9.76159815,26.398762 9.29,27.27 C8.91913336,27.9236179 9.08535805,28.7504792 9.68,29.21 C10.2837905,29.6727792 11.1358755,29.6216541 11.68,29.09 C12.6072061,28.3908003 13.4797363,27.6219039 14.29,26.79 L12.09,25.1 C11.96,25.4 11.98,25.39 11.66,25.48 C11.16,25.62 11.18,25.84 10.73,25.81 C10.6127269,25.8120342 10.5029649,25.8681102 10.4325905,25.9619428 C10.362216,26.0557755 10.3391164,26.1768482 10.37,26.29 L10.39,26.29 Z" id="Path" fill="#FFFFFF"></path>
                <path d="M29,16.75 L35.39,16.6 C36.39,16.6 37.48,16.53 38.53,16.49 C39.58,16.45 41.02,16.62 41.94,15.94 C42.3181623,15.7044812 42.5480359,15.2905063 42.5480359,14.845 C42.5480359,14.3994937 42.3181623,13.9855188 41.94,13.75 C40.94,13.17 39.75,13.43 38.65,13.51 C37.55,13.59 36.48,13.66 35.39,13.76 L29,14.34 C28.3423076,14.3610422 27.8155835,14.8921556 27.8,15.55 C27.8054363,16.2104768 28.3395232,16.7445637 29,16.75 L29,16.75 Z" id="Path" fill="#FFFFFF"></path>
                <path d="M30.21,16.17 C30.6098666,15.090197 30.7834603,13.9397132 30.72,12.79 C30.72,11.66 30.72,10.53 30.72,9.4 C30.72,8.27 30.67,7.23 30.62,6.15 L30.53,4.53 L30.53,3.64 L30.53,3.35 C30.53,2.92 30.53,2.95 30.39,3.44 L29.69,4.14 C29.13,4.25333333 29.01,4.29333333 29.33,4.26 L29.78,4.26 L30.66,4.21 L32.14,4.12 L35.54,3.92 C37.76,3.79 39.98,3.57 42.2,3.5 L40.41,1.74 C40.6,3.74 40.79,5.74 40.99,7.66 L41.29,10.55 C41.34,11.03 41.38,11.55 41.44,12 C41.5313922,12.6383801 41.7202593,13.2589434 42,13.84 C42.54,15.11 44.76,14.77 45,13.44 C45.35,11.51 44.86,9.44 44.62,7.52 C44.38,5.6 44.14,3.66 43.89,1.74 C43.8739588,0.785748005 43.104252,0.0160412286 42.15,0 C39.69,0.15 37.22,0.14 34.75,0.22 L31.06,0.33 C29.84,0.33 28.23,0.15 27.29,1.09 C26.35,2.03 26.57,3.57 26.6,4.82 C26.63,6.07 26.68,7.38 26.74,8.66 C26.8,9.94 26.87,11 27,12.2 C26.981496,13.5718657 27.2435227,14.9330432 27.77,16.2 C28.0313095,16.6292349 28.4974811,16.891201 29,16.891201 C29.5025189,16.891201 29.9686905,16.6292349 30.23,16.2 L30.21,16.17 Z" id="Path" fill="#FFFFFF"></path>
                <path d="M31.57,15 C33.2110414,15.1775517 34.8710424,15.0210762 36.45,14.54 C38.0646266,14.0962736 39.6070721,13.4227166 41.03,12.54 C41.6147066,12.1865719 41.8990423,11.4919803 41.73,10.83 C41.5425688,10.1734436 40.9427858,9.72054628 40.26,9.72 C38.0595104,9.96855667 35.8971493,10.4822853 33.82,11.25 C33.0210519,11.487407 32.549847,12.3109148 32.75,13.12 C32.982857,13.926804 33.8191435,14.3983272 34.63,14.18 C37.2773264,13.5793618 39.8449238,12.6697946 42.28,11.47 C42.9746566,11.0673199 43.2785937,10.2230502 43,9.47 C42.6841865,8.67698097 41.8239034,8.24683942 41,8.47 C37.79,9.09 34.6,9.85 31.41,10.55 L32.63,13.44 C34.9393129,11.9423897 37.4515841,10.7839161 40.09,10 C40.9226035,9.75736021 41.4519103,8.9415238 41.334176,8.08231408 C41.2164417,7.22310435 40.487184,6.57972429 39.62,6.57 C36.6446044,6.40217406 33.6622979,6.74030405 30.8,7.57 L32,10.53 C33.3148591,9.70673037 34.688576,8.98143457 36.11,8.36 C36.59,8.15 37.33,7.86 37.99,7.62 C38.65,7.38 39.49,7.15 40.24,6.9 C41.2267045,6.61362502 41.8070171,5.59475559 41.55,4.6 C41.2549081,3.62020542 40.2432589,3.04400522 39.25,3.29 L32.25,4.82 L33.59,8 C35.04,7.34 36.59,6.72 38.12,6.08 C39.0670705,5.79026371 39.6239932,4.81236004 39.39,3.85 C39.1047014,2.89575603 38.1119157,2.34174616 37.15,2.6 C35.48,3.19 33.85,3.91 32.21,4.6 L33.84,7.41 C35.26,6.02 37.06,5.41 38.79,4.48 C39.4760008,4.06962581 39.7570145,3.21806925 39.45,2.48 C39.1248264,1.7513899 38.324887,1.35984061 37.55,1.55 C35.23,1.96 33.12,3.62 31.47,5.04 C30.9762418,5.58716936 30.8940149,6.39121705 31.2667965,7.02700419 C31.6395782,7.66279133 32.3813899,7.98367966 33.1,7.82 C34.77,7.26 36.48,6.75 38.1,6.1 L36.7,2.78 C35.21,3.47 33.7,4.21 32.22,4.78 C31.7636448,4.91232935 31.378628,5.22067347 31.1497866,5.63708992 C30.9209451,6.05350637 30.8670583,6.54382285 31,7 C31.2970003,7.91189515 32.2506642,8.43684771 33.18,8.2 L40.28,6.9 L39.28,3.29 C36.1101755,4.30827388 33.1178156,5.81288777 30.41,7.75 C29.732917,8.16996636 29.4617291,9.0199282 29.7704689,9.75443003 C30.0792086,10.4889319 30.8762081,10.8898929 31.65,10.7 C34.2774449,10.1390225 36.9664571,9.92054027 39.65,10.05 L39.19,6.62 C36.3144194,7.68669225 33.5673081,9.07198772 31,10.75 C30.3429759,11.1657468 30.0829838,11.9956698 30.3853678,12.7119728 C30.6877517,13.4282758 31.4638091,13.8208353 32.22,13.64 C35.43,13.01 38.66,12.43 41.85,11.7 L40.57,8.7 C38.415828,9.8384209 36.1374049,10.7242879 33.78,11.34 L34.59,14.27 C36.3947345,13.5451196 38.2880975,13.0642121 40.22,12.84 L39.15,10.25 C38.077045,11.1244043 36.8764481,11.829249 35.59,12.34 C34.1984029,12.8316379 32.7662003,13.1997273 31.31,13.44 C30.9176838,13.5512355 30.6692262,13.9367732 30.73,14.34 C30.792665,14.7358911 31.129294,15.0304414 31.53,15.04 L31.57,15 Z" id="Path" fill="#FFFFFF"></path>
                <path d="M28.46,42.19 L34.85,42 C35.85,42 36.94,41.93 37.99,41.88 C39.04,41.83 40.48,42.01 41.4,41.34 C41.7781623,41.1044812 42.0080359,40.6905063 42.0080359,40.245 C42.0080359,39.7994937 41.7781623,39.3855188 41.4,39.15 C40.4,38.57 39.21,38.83 38.11,38.91 C37.01,38.99 35.94,39.06 34.85,39.16 L28.46,39.74 C27.8368998,39.7968217 27.3598863,40.3193143 27.3598863,40.945 C27.3598863,41.5706857 27.8368998,42.0931783 28.46,42.15 L28.46,42.19 Z" id="Path" fill="#FFFFFF"></path>
                <path d="M29.63,41.6 C30.0296174,40.5236078 30.2032249,39.3764366 30.14,38.23 C30.14,37.1 30.14,35.97 30.14,34.84 C30.14,33.71 30.14,32.67 30.04,31.59 L30,30 L30,29.11 L30,28.81 C30,28.39 30,28.42 29.86,28.91 L29.16,29.61 C28.6,29.71 28.48,29.75 28.8,29.73 L29.25,29.73 L30.13,29.68 L31.61,29.59 L35.01,29.39 C37.23,29.25 39.45,29.04 41.67,28.97 L39.93,27.24 C40.12,29.24 40.31,31.19 40.51,33.16 L40.81,36.05 C40.81,36.53 40.9,37.05 40.96,37.49 C41.0421412,38.129143 41.2279101,38.7506243 41.51,39.33 C42.05,40.61 44.27,40.26 44.51,38.94 C44.86,37.01 44.36,34.94 44.13,33.01 C43.9,31.08 43.65,29.16 43.4,27.24 C43.3841282,26.2895479 42.6203449,25.5213496 41.67,25.5 C39.21,25.65 36.73,25.64 34.27,25.71 L30.58,25.83 C29.36,25.83 27.75,25.64 26.81,26.58 C25.87,27.52 26,29 26,30.26 C26,31.52 26.08,32.82 26.14,34.1 C26.2,35.38 26.27,36.46 26.38,37.64 C26.3595094,39.0120409 26.621613,40.373618 27.15,41.64 C27.4075491,42.0743196 27.8750594,42.3406167 28.38,42.3406167 C28.8849406,42.3406167 29.3524509,42.0743196 29.61,41.64 L29.63,41.6 Z" id="Path" fill="#FFFFFF"></path>
                <path d="M31,40.46 C32.637752,40.6353623 34.2940483,40.4789154 35.87,40 C37.4830797,39.5519095 39.0249225,38.8786156 40.45,38 C41.033547,37.6459033 41.3143796,36.9499268 41.14,36.29 C40.9595082,35.6329752 40.3613632,35.1782211 39.68,35.18 C37.4808008,35.4303445 35.319043,35.940573 33.24,36.7 C32.7148196,36.8446926 32.3067254,37.2585744 32.1694426,37.7857403 C32.0321599,38.3129062 32.186545,38.873267 32.5744426,39.2557403 C32.9623403,39.6382136 33.5248196,39.7846926 34.05,39.64 C36.6930152,39.0570325 39.2599756,38.1711795 41.7,37 C42.4133054,36.5827308 42.7047193,35.6999181 42.38,34.94 C42.0641865,34.146981 41.2039034,33.7168394 40.38,33.94 C37.17,34.55 33.98,35.32 30.79,36.02 L32.01,38.91 C34.3133207,37.3957787 36.8222998,36.2204314 39.46,35.42 C40.2751384,35.16644 40.7883834,34.3617447 40.6745877,33.5156987 C40.560792,32.6696527 39.8531662,32.0291681 39,32 C36.0244463,31.8264875 33.0411789,32.1647264 30.18,33 L31.46,36 C32.7726577,35.1729149 34.1466669,34.4474648 35.57,33.83 C36.05,33.61 36.79,33.32 37.45,33.09 C38.11,32.86 38.95,32.62 39.7,32.37 C40.3448644,32.1913672 40.8454442,31.6822726 41.0131759,31.0344873 C41.1809075,30.386702 40.9903086,29.6986398 40.5131759,29.2294873 C40.0360431,28.7603348 39.3448644,28.5813672 38.7,28.76 L31.7,30.29 L33,33.46 C34.45,32.79 36,32.17 37.53,31.54 C38.4784882,31.2459265 39.0346968,30.2648971 38.8,29.3 C38.5362703,28.3305011 37.543593,27.7518104 36.57,28 C34.9,28.58 33.27,29.31 31.63,30 L33.26,32.8 C34.68,31.42 36.48,30.8 38.26,29.88 C38.9460008,29.4696258 39.2270145,28.6180692 38.92,27.88 C38.5791957,27.1587499 37.7688465,26.7873398 37,27 C34.68,27.4 32.57,29.07 30.92,30.49 C30.3979173,31.033456 30.298748,31.8569176 30.6768781,32.508786 C31.0550082,33.1606544 31.8190534,33.4833901 32.55,33.3 C34.22,32.73 35.93,32.22 37.55,31.58 L36.15,28.26 C34.66,28.94 33.15,29.69 31.67,30.26 C31.0404669,30.401612 30.5399397,30.8781612 30.3676188,31.4999903 C30.1952979,32.1218194 30.3791462,32.7880224 30.8459956,33.2334632 C31.312845,33.6789041 31.9869386,33.8312999 32.6,33.63 L39.71,32.34 L38.71,28.73 C35.5384393,29.7440262 32.5454415,31.2489609 29.84,33.19 C29.1796395,33.6166546 28.9209433,34.4558587 29.2264742,35.1802626 C29.5320051,35.9046665 30.3135535,36.305128 31.08,36.13 C33.7085969,35.5773103 36.3969672,35.3622406 39.08,35.49 L38.62,32.06 C35.7668283,33.1273694 33.0429852,34.5127723 30.5,36.19 C29.8429759,36.6057468 29.5829838,37.4356698 29.8853678,38.1519728 C30.1877517,38.8682758 30.9638091,39.2608353 31.72,39.08 C34.93,38.44 38.16,37.86 41.35,37.14 L40.07,34.14 C37.917419,35.2794334 35.6384795,36.1621448 33.28,36.77 L34.09,39.71 C35.8947345,38.9851196 37.7880975,38.5042121 39.72,38.28 L38.65,35.69 C37.5791391,36.564849 36.3779326,37.2666775 35.09,37.77 C33.6986726,38.2648865 32.2664769,38.6363204 30.81,38.88 C30.4191721,38.9869698 30.1700402,39.3692585 30.23,39.77 C30.2837598,40.1682844 30.6182569,40.4689083 31.02,40.48 L31,40.46 Z" id="Path" fill="#FFFFFF"></path>
                <path d="M25.1,81.32 L30.1,77.32 C30.92,76.66 31.71,75.99 32.52,75.32 L33.72,74.32 C34.2529876,73.9291053 34.6485506,73.3795178 34.85,72.75 C34.9683658,72.3104879 34.8424698,71.8412391 34.52,71.52 C34.1909012,71.2113782 33.7293846,71.0875567 33.29,71.19 C32.19,71.34 31.29,72.45 30.49,73.19 C29.69,73.93 28.88,74.61 28.1,75.33 L23.44,79.63 C22.970558,80.099442 22.970558,80.8605579 23.4400001,81.3299999 C23.9094421,81.799442 24.670558,81.799442 25.14,81.33 L25.1,81.32 Z" id="Path" fill="#FFFFFF"></path>
                <path d="M25.52,80.05 C25.1882421,79.0433119 24.6501111,78.1169094 23.94,77.33 C23.25,76.39 22.56,75.45 21.82,74.55 C21.08,73.65 20.48,72.89 19.82,72.07 L18.82,70.93 C18.61,70.68 17.9,70.05 17.82,69.8 L17.63,71.3 C17.77,71.01 18.31,70.69 18.63,70.45 L19.9,69.35 L22.43,67.16 C24.11,65.7 25.75,64.16 27.43,62.76 L25,62.76 C26.3333333,64.1933333 27.6666667,65.62 29,67.04 C30.31,68.43 31.58,70.18 33.26,71.12 C33.9029637,71.4724468 34.7013776,71.3583164 35.219847,70.839847 C35.7383164,70.3213776 35.8524468,69.5229637 35.5,68.88 C34.63,67.18 32.9,65.88 31.57,64.47 L27.45,60.31 C26.7652804,59.6534736 25.6847196,59.6534736 25,60.31 C23.12,61.93 21.14,63.44 19.22,65.02 L16.5,67.26 C15.58,68.01 14.23,68.77 14.08,70.06 C13.93,71.35 14.99,72.44 15.79,73.43 C16.59,74.42 17.38,75.38 18.18,76.34 C18.98,77.3 19.8,78.24 20.66,79.16 C21.4103578,80.1670087 22.3515785,81.0164859 23.43,81.66 C23.9319906,81.9253401 24.5426634,81.8732636 24.9924773,81.5267562 C25.4422912,81.1802489 25.6484662,80.603079 25.52,80.05 Z" id="Path" fill="#FFFFFF"></path>
                <path d="M25.85,78.57 C28.7195055,76.6917064 30.8829988,73.9125849 32,70.67 C32.54,69.19 30.48,68.21 29.46,69.2 C27.888157,70.7505904 26.5021623,72.478889 25.33,74.35 C24.42,75.79 26.6,77.55 27.72,76.2 C29.4590226,74.1257868 30.9522797,71.8573782 32.17,69.44 C32.5626878,68.7225284 32.3742491,67.8259407 31.7259577,67.327255 C31.0776663,66.8285693 30.1627403,66.876415 29.57,67.44 C27.4,69.89 25.33,72.44 23.23,74.94 L25.87,76.48 C26.8052903,73.8772577 28.0976438,71.4170743 29.71,69.17 C30.71,67.74 28.71,65.84 27.32,66.78 C24.7486217,68.5467284 22.496501,70.737981 20.66,73.26 L23.6,74.5 C24.7292053,71.6861541 26.2074469,69.0253193 28,66.58 C29.19,64.85 26.44,62.69 25.06,64.31 L20.39,69.83 L23.17,72 C24.01,70.41 24.93,68.87 25.82,67.32 C26.3253405,66.4556744 26.0343256,65.3453405 25.17,64.84 C24.3056744,64.3346595 23.1953405,64.6256744 22.69,65.49 C21.69,66.97 20.87,68.49 19.98,70.06 L23.05,71.35 C23.1803657,70.392899 23.4393724,69.4577839 23.82,68.57 C24.2,67.69 24.72,66.87 25.14,66 C25.5322565,65.2979877 25.3539212,64.4148033 24.72,63.92 C24.0855269,63.4217966 23.1785166,63.4776788 22.61,64.05 C21.1276755,65.9023288 20.1616736,68.1137832 19.81,70.46 C19.6262047,71.2608193 20.0450085,72.077791 20.802493,72.3960825 C21.5599775,72.7143741 22.4366263,72.4417456 22.88,71.75 C23.88,70.28 24.88,68.84 25.82,67.32 L22.69,65.49 C21.85,67 21,68.63 20.15,70.18 C19.3,71.73 21.53,73.81 22.9,72.3 L27.74,67 L24.8,64.69 C22.9262457,67.431781 21.4891586,70.4476399 20.54,73.63 C20.06,75.11 22.19,76.44 23.23,75.2 C24.9555846,73.1538194 26.934856,71.3358469 29.12,69.79 L26.73,67.4 C25.1403301,69.9886384 23.8424097,72.7454617 22.86,75.62 C22.6785192,76.3115128 22.9808908,77.0391188 23.5990238,77.3983357 C24.2171568,77.7575526 24.9990326,77.6600376 25.51,77.16 C27.66,74.71 29.87,72.28 31.95,69.77 L29.36,67.77 C28.3487917,69.9969877 27.0909246,72.1034958 25.61,74.05 L28,75.89 C29.0052381,74.2152028 30.2331086,72.6845698 31.65,71.34 L29.11,69.87 C28.7947113,71.2759014 28.2651952,72.6249869 27.54,73.87 C26.7594695,75.1007011 25.8655792,76.2557279 24.87,77.32 C24.5530837,77.6054779 24.5118582,78.0878095 24.7757312,78.4229282 C25.0396042,78.7580469 25.5181489,78.8311106 25.87,78.59 L25.85,78.57 Z" id="Path" fill="#FFFFFF"></path>
                <path d="M70,43.58 L75.32,47.11 C76.19,47.69 77.07,48.24 77.95,48.81 C78.83,49.38 79.95,50.31 81.1,50.28 C81.5509101,50.2715094 81.9640785,50.0263529 82.1876113,49.6346578 C82.4111442,49.2429626 82.4120516,48.7625368 82.19,48.37 C81.72,47.37 80.46,46.85 79.54,46.3 C78.62,45.75 77.69,45.19 76.75,44.66 L71.19,41.5 C70.629896,41.2764505 69.9906818,41.4994705 69.6912053,42.0229252 C69.3917289,42.5463798 69.5234253,43.2104496 70,43.58 L70,43.58 Z" id="Path" fill="#FFFFFF"></path>
                <path d="M71.3,43.65 C72.220408,43.0080049 72.9885167,42.1716198 73.55,41.2 C74.23,40.26 74.92,39.33 75.55,38.36 C76.18,37.39 76.76,36.53 77.35,35.61 C77.8382673,34.7184225 78.3896739,33.8629068 79,33.05 L78.14,33.55 L78.33,33.47 L77.33,33.47 C77.7259161,33.6348466 78.0989784,33.8499456 78.44,34.11 L79.86,34.99 L82.72,36.74 C84.62,37.9 86.57,39 88.44,40.22 L87.81,37.85 C86.81,39.54 85.9,41.24 84.95,42.95 C84,44.66 82.7,46.37 82.31,48.25 C82.1782507,48.9380531 82.4926301,49.6347519 83.0957104,49.9912194 C83.6987907,50.347687 84.4607373,50.2871809 85,49.84 C86.37,48.49 87.13,46.47 88,44.78 C88.87,43.09 89.81,41.33 90.72,39.6 C91.1827473,38.7684797 90.9096298,37.7200607 90.1,37.22 C87.93,35.9 85.84,34.42 83.71,33.04 L80.6,31.04 C79.51,30.33 78.43,29.39 77.05,29.83 C75.86,30.22 75.24,31.6 74.59,32.57 C73.94,33.54 73.27,34.57 72.59,35.63 C71.91,36.69 71.25,37.8 70.59,38.92 C69.8352904,39.9787769 69.3231488,41.1908453 69.09,42.47 C69.097503,42.9760523 69.3719375,43.4404446 69.8116149,43.6911018 C70.2512922,43.941759 70.7907126,43.9413399 71.23,43.69 L71.3,43.65 Z" id="Path" fill="#FFFFFF"></path>
                <path d="M72.84,43.46 C73.4444774,44.0322608 74.1160328,44.5292118 74.84,44.94 C75.5997735,45.3261882 76.3849161,45.6602914 77.19,45.94 C78.8007704,46.5089063 80.484325,46.8456172 82.19,46.94 C82.8324514,46.8996659 83.3809444,46.4615228 83.5622159,45.8438569 C83.7434875,45.2261909 83.5187623,44.5611251 83,44.18 C81.0469772,43.1407115 78.9797731,42.3319514 76.84,41.77 C76.3148196,41.6199484 75.7494813,41.7614755 75.3569426,42.1412693 C74.964404,42.5210631 74.8043009,43.081424 74.9369426,43.6112693 C75.0695844,44.1411147 75.4748196,44.5599485 76,44.71 C78.384041,45.6873042 80.874337,46.3820364 83.42,46.78 C84.2278658,46.9748396 85.0567945,46.5497479 85.37,45.78 C85.7006707,45.0173788 85.4084968,44.1279671 84.69,43.71 C81.58,42.32 78.4,41.07 75.25,39.71 L74.83,42.82 C77.5831607,42.9195773 80.3091737,43.4008364 82.93,44.25 C83.6937199,44.4669844 84.5074672,44.139479 84.907953,43.4539416 C85.3084388,42.7684042 85.1940864,41.89871 84.63,41.34 C82.1780367,39.4375942 79.4180547,37.9696625 76.47,37 L76,40.15 C79.0087593,40.3767823 81.9779434,40.9746496 84.84,41.93 C85.8355034,42.1926861 86.8581195,41.6102396 87.14,40.62 C87.3806349,39.6274894 86.8064168,38.6193203 85.83,38.32 L79.19,35.54 L78.26,38.92 C80.02,39.24 81.77,39.65 83.51,40.03 C84.1352148,40.2086328 84.8082366,40.0401482 85.2755445,39.5880128 C85.7428525,39.1358773 85.9334514,38.468781 85.7755445,37.8380127 C85.6176377,37.2072444 85.1352148,36.7086328 84.51,36.53 C82.81,36.05 81.06,35.72 79.33,35.33 L79.33,38.57 C81.1006122,38.4313195 82.882021,38.5696486 84.61,38.98 C85.384887,39.1701594 86.1848264,38.7786101 86.51,38.05 C86.8216386,37.3121116 86.5396091,36.4574767 85.85,36.05 C85.2668848,35.7476072 84.6441094,35.5287942 84,35.4 C83.41,35.3 82.81,35.23 82.22,35.18 C81.1127224,35.120025 80.0024021,35.1500386 78.9,35.27 C78.0579622,35.267466 77.3441205,35.888682 77.2303495,36.7230022 C77.1165786,37.5573225 77.6380275,38.3469872 78.45,38.57 C80.15,39.06 81.84,39.57 83.55,40.03 L84.55,36.53 C82.79,36.21 81.01,35.92 79.26,35.53 C78.4207136,35.3099979 77.546308,35.7344666 77.2,36.53 C76.8508809,37.3346104 77.155199,38.2732815 77.91,38.72 L84.46,41.72 L85.9,38.3 C82.6909966,37.3327783 79.3510731,36.8705869 76,36.93 C75.1981856,36.9380964 74.5245489,37.5349897 74.42,38.33 C74.3274338,39.1175372 74.8115862,39.8585008 75.57,40.09 C78.0363278,41.1528547 80.358131,42.5237602 82.48,44.17 L83.87,41 C80.9246934,40.2585589 77.906245,39.8460376 74.87,39.77 C74.1127878,39.7142635 73.4229958,40.2050058 73.2273627,40.9386301 C73.0317296,41.6722543 73.3855779,42.4413007 74.07,42.77 C77.19,44.14 80.3,45.56 83.46,46.85 L83.9,43.6 C81.4902414,43.2858486 79.124665,42.6952934 76.85,41.84 L76,44.71 C77.8987344,45.1599451 79.7284273,45.862897 81.44,46.8 L82.21,44 C80.7807388,44.1269857 79.3404398,44.0325398 77.94,43.72 C76.5272878,43.3458593 75.1516015,42.8437841 73.83,42.22 C73.05,41.86 72.1,42.83 72.83,43.49 L72.84,43.46 Z" id="Path" fill="#FFFFFF"></path>
                <path d="M11.69,62.67 C12.69,62.67 13.47,61.77 14.18,61.23 L16.37,59.53 C17.88,58.37 19.46,57.26 20.87,55.97 C21.3626618,55.477331 21.4180692,54.6973657 21,54.14 C20.5818968,53.5819497 19.8113359,53.4269766 19.21,53.78 C17.67,54.93 16.27,56.25 14.84,57.52 L12.84,59.31 L11.77,60.31 C11.3447292,60.6290398 11.0243842,61.0677732 10.85,61.57 C10.7791913,61.8409847 10.8371142,62.1294801 11.0070332,62.3521326 C11.1769521,62.5747851 11.4399352,62.7067871 11.72,62.71 L11.69,62.67 Z" id="Path" fill="#FFFFFF"></path>
                <path d="M13.46,58.86 C12.2061411,57.7572132 11.0486137,56.5495039 10,55.25 C9.00418974,53.8746698 8.16562471,52.3920868 7.5,50.83 L6.94,53 C10.61,50.61 14.26,48.2 17.94,45.83 L15.69,45.24 L17.83,48.46 L18.83,49.95 C18.83,50.01 19.19,50.7 19.08,50.32 C19.08,50.43 19.13,50.53 19.15,50.63 C19.24,50.92 19.26,50.79 19.22,50.22 L19.84,49.41 L19.78,49.41 L20.43,49.24 L20.35,49.24 C19.6895232,49.2454363 19.1554363,49.7795232 19.15,50.44 C19.1530052,50.9078137 19.3755507,51.3470554 19.7509855,51.6261744 C20.1264203,51.9052935 20.6111497,51.9918793 21.06,51.86 C21.6226783,51.6691089 22.0794227,51.2508481 22.3189756,50.7071011 C22.5585285,50.1633542 22.5589001,49.5440341 22.32,49 C21.8181246,48.0538548 21.214556,47.1652678 20.52,46.35 L18.52,43.55 C18.0494323,42.7819683 17.056894,42.5217027 16.27,42.96 C12.66,45.41 9,47.83 5.38,50.27 C4.66233723,50.717576 4.41698834,51.6463968 4.82,52.39 C6.39977117,55.7834248 8.88402108,58.6759498 12,60.75 C12.5205308,61.0192109 13.1591608,60.8767095 13.5158726,60.4117541 C13.8725844,59.9467987 13.8448326,59.293052 13.45,58.86 L13.46,58.86 Z" id="Path" fill="#FFFFFF"></path>
                <path d="M11,57.22 C12.2550986,57.7047988 13.5499755,58.0795436 14.87,58.34 C16.46,58.82 17.21,56.65 15.95,55.79 C15.21584,55.3652433 14.4336521,55.0295403 13.62,54.79 L11.39,53.93 L10.52,57.08 C12.404384,57.6543603 14.4141181,57.6751866 16.31,57.14 C17.7,56.75 18.2,54.52 16.74,53.84 C14.5,52.84 12.15,51.99 9.86,51.06 L9,54.24 C12.75,54.94 16.49,55.73 20.25,56.32 C21.2061693,56.5489114 22.1763001,55.9982966 22.47,55.06 C22.7263281,54.1001316 22.1655293,53.1120575 21.21,52.84 C18.44,52.25 15.65,51.74 12.9,51.07 L12,54.34 L19.8,55.43 C20.6582136,55.6535355 21.5537688,55.233087 21.93,54.43 C22.2764077,53.6003043 21.9612666,52.642105 21.19,52.18 C19.13,50.9 17.02,49.69 14.91,48.48 L14.04,51.71 C15.900792,51.9018943 17.7411736,52.256586 19.54,52.77 C20.3196234,52.9626277 21.1329525,52.6185203 21.5375951,51.9248472 C21.9422378,51.231174 21.8414284,50.3538191 21.29,49.77 C20.7169844,49.1548432 20.0606039,48.6230067 19.34,48.19 L18.04,51.28 C19.1739489,51.6576238 20.3652993,51.8336187 21.56,51.8 C22.3339622,51.775642 23.0010818,51.2482914 23.203463,50.5008607 C23.4058442,49.7534301 23.095937,48.9615306 22.44,48.55 C21,47.7 19.55,47 18.08,46.32 C17.3709458,45.8557933 16.4244577,46.0123911 15.9027032,46.6802369 C15.3809487,47.3480826 15.458021,48.3043371 16.08,48.88 L16.91,49.77 C17.5340818,50.3913203 18.5436797,50.3890818 19.165,49.765 C19.7863203,49.1409182 19.7840818,48.1313203 19.16,47.51 L18.39,46.57 L16.39,49.14 C17.81,49.94 19.21,50.78 20.66,51.5 L21.54,48.25 C20.6851513,48.3258145 19.8236639,48.2410224 19,48 C17.14,47.42 16.09,50.11 17.7,51.09 C17.7,51.09 17.94,51.25 17.82,51.15 C17.94,51.25 18.05,51.37 18.16,51.48 C18.2517726,51.5684587 18.3385723,51.6619353 18.42,51.76 C18.63,52.02 18.2,51.45 18.53,51.93 L20.53,49.28 C18.4292168,48.6676059 16.2576174,48.331445 14.07,48.28 C13.2908605,48.2789747 12.6071695,48.7989073 12.4,49.55 C12.1817765,50.3185577 12.5054684,51.1380306 13.19,51.55 C15.25,52.85 17.3,54.15 19.4,55.37 L20.31,52.01 L12.47,51 C11.614005,50.9884656 10.8829705,51.6152373 10.7636804,52.462958 C10.6443904,53.3106787 11.1740639,54.1148555 12,54.34 C14.77,54.92 17.51,55.66 20.25,56.34 L21.25,52.86 C17.49,52.16 13.69,51.67 9.91,51.09 C9.13745988,50.8957676 8.33585908,51.2776821 8,52 C7.6993048,52.7406629 7.98381346,53.5899425 8.67,54 C10.92,55 13.13,56.17 15.42,57.08 L15.42,53.67 C14.1415073,54.1480605 12.7511407,54.2419103 11.42,53.94 C10.5501515,53.6997562 9.6502439,54.2101515 9.41000004,55.08 C9.16975618,55.9498485 9.68015154,56.8497561 10.55,57.09 L12.83,57.79 C13.6174318,58.0835619 14.4362241,58.2849042 15.27,58.39 L14.9,55.64 C13.5847464,55.8665802 12.2903758,56.2010428 11.03,56.64 C10.9203264,56.7047534 10.8530301,56.8226371 10.8530301,56.95 C10.8530301,57.0773629 10.9203264,57.1952466 11.03,57.26 L11,57.22 Z" id="Path" fill="#FFFFFF"></path>
                <path d="M62.68,79.5 C63.5631558,79.9041444 64.5297024,80.0926553 65.5,80.05 L68.19,80.32 C70.01,80.5 71.84,80.75 73.66,80.78 C74.158888,80.7874966 74.6224051,80.5231769 74.87,80.09 C74.8973642,80.0331604 74.9308993,79.9795043 74.97,79.93 C75.1486328,79.6205989 75.1486328,79.2394011 74.97,78.93 L75,79 C74.7987363,78.4205628 74.2629388,78.0236758 73.65,78 C71.84,77.8 70,77.83 68.18,77.78 L65.49,77.7 C64.5435155,77.5571992 63.5766014,77.6429185 62.67,77.95 C62.4011539,78.1181503 62.2378524,78.4128995 62.2378524,78.73 C62.2378524,79.0471005 62.4011539,79.3418497 62.67,79.51 L62.68,79.5 Z" id="Path" fill="#FFFFFF"></path>
                <path d="M66.42,77.85 C66.2799799,76.1595612 66.2799799,74.4604388 66.42,72.77 C66.6154203,71.119992 67.0047767,69.4987924 67.58,67.94 L65.66,69 C69.96,69.77 74.27,70.52 78.57,71.32 L77.43,69.32 L76.77,73.19 L76.45,75.07 L76.38,75.47 C76.47,75.27 76.46,75.26 76.38,75.47 C76.3,75.68 76.3,75.63 76.25,75.71 C76,76.25 76.03,76.23 76.35,75.64 L76.97,75.28 L76.91,75.28 L77.63,75.28 L77.57,75.28 L78.14,75.61 L78.08,75.61 C77.6066013,75.1502095 76.8533987,75.1502095 76.38,75.61 C76.0475977,75.9457633 75.8954811,76.420053 75.9705894,76.8865153 C76.0456977,77.3529775 76.3390035,77.7555466 76.76,77.97 C77.3316677,78.2561116 78.0019178,78.2689866 78.5841517,78.0050405 C79.1663856,77.7410945 79.5984289,77.2285132 79.76,76.61 C79.9853879,75.5890215 80.1357892,74.5529235 80.21,73.51 L80.66,70.27 C80.77,69.47 80.47,68.4 79.51,68.27 C75.18,67.59 70.86,66.85 66.51,66.14 C65.6904101,65.9387036 64.8563424,66.4128053 64.61,67.22 C63.4346161,70.7702355 63.2547679,74.5747172 64.09,78.22 C64.2703565,78.7769706 64.8235956,79.1249281 65.4037309,79.0462657 C65.9838663,78.9676033 66.4244717,78.4848872 66.45,77.9 L66.42,77.85 Z" id="Path" fill="#FFFFFF"></path>
                <path d="M65.77,75 C66.339806,76.2034907 67.0087813,77.3574732 67.77,78.45 C68.1406233,79.0269346 68.8725755,79.253579 69.5043756,78.9870384 C70.1361756,78.7204978 70.4846109,78.0380649 70.33,77.37 C70.0798393,76.5666008 69.7446056,75.7922109 69.33,75.06 L68.33,72.91 L65.5,74.56 C66.4605339,76.264936 67.8952253,77.6544676 69.63,78.56 C70.2633574,78.9232932 71.0534323,78.867988 71.63,78.42 C72.2180598,77.9860599 72.4767562,77.2338504 72.28,76.53 C71.36,74.23 70.21,72.03 69.18,69.78 L66.35,71.44 C68.69,74.64 70.96,77.9 73.35,81.03 C73.9977078,81.6461937 74.9982739,81.6972053 75.7052909,81.1500791 C76.4123078,80.6029529 76.6139721,79.6215935 76.18,78.84 C74.57,76.52 72.89,74.23 71.34,71.84 L68.68,73.84 L73.68,80 C74.2651487,80.5727727 75.1595673,80.6871276 75.87,80.28 C76.5462103,79.8596912 76.8799089,79.0555983 76.7,78.28 C76.07,75.94 75.36,73.61 74.7,71.28 L71.81,72.96 C73.0429279,74.3756656 74.1472927,75.8983503 75.11,77.51 C75.5358319,78.1875538 76.3542855,78.5074557 77.1267152,78.298256 C77.8991448,78.0890563 78.4442968,77.3998446 78.47,76.6 C78.4755531,75.7521634 78.3645134,74.9075888 78.14,74.09 L75,75.37 C75.5533484,76.4231214 76.2957013,77.3654689 77.19,78.15 C77.7568978,78.6937261 78.6109132,78.8070551 79.3,78.43 C79.9911318,78.0234134 80.3200702,77.2010675 80.1,76.43 C79.6,74.87 78.98,73.36 78.4,71.84 C78.1801964,71.0498881 77.410529,70.5436113 76.5979639,70.654645 C75.7853989,70.7656787 75.1797725,71.4598839 75.18,72.28 L75.18,73.49 C75.2459325,74.3220316 75.9403601,74.9636078 76.775,74.9636078 C77.6096399,74.9636078 78.3040675,74.3220316 78.37,73.49 L78.45,72.28 L75.24,72.71 C75.72,74.26 76.17,75.83 76.74,77.35 L79.66,75.66 C78.9508948,75.1176721 78.3589931,74.4373254 77.92,73.66 C77.500953,72.8861581 76.5606084,72.5600371 75.7524178,72.9082607 C74.9442272,73.2564843 74.5353857,74.1639266 74.81,75 C74.903492,75.3691508 74.9238747,75.7530244 74.87,76.13 L78.16,75.7 C77.0613527,73.8042111 75.7163103,72.0623812 74.16,70.52 C72.96,69.2 70.85,70.6 71.26,72.21 C71.87,74.56 72.48,76.92 73.17,79.21 L76.17,77.46 L71.06,71.46 C69.83,70.01 67.31,71.93 68.41,73.51 C70.02,75.83 71.51,78.24 73.06,80.6 L76.17,78.78 C73.83,75.59 71.3,72.51 68.86,69.39 C67.86,68.13 65.51,69.5 66.12,70.99 C67.06,73.27 67.87,75.62 68.92,77.86 L71.39,75.39 C70.7721646,75.1273126 70.1880065,74.7915896 69.65,74.39 C69.1297662,73.9489641 68.6662295,73.4451198 68.27,72.89 C67.79672,72.1320842 66.8152291,71.8735665 66.03,72.3 C65.2587896,72.7633948 64.9971273,73.7568244 65.44,74.54 L66.63,76.61 C67.005002,77.3538017 67.4647192,78.0517665 68,78.69 L69.69,76.49 C68.582044,75.7254715 67.4111715,75.0564015 66.19,74.49 C66.0647087,74.452686 65.9290359,74.4862262 65.8355633,74.5776216 C65.7420907,74.669017 65.7055106,74.8039019 65.74,74.93 L65.77,75 Z" id="Path" fill="#FFFFFF"></path>
                <path d="M51.1,19.41 C51.2726177,19.907795 51.5850969,20.3452659 52,20.67 L53,21.62 L55,23.52 C56.4,24.83 57.76,26.2 59.28,27.37 C59.8836976,27.8012153 60.7196346,27.6823255 61.1791678,27.0998939 C61.638701,26.5174622 61.5598386,25.676804 61,25.19 C59.6290946,23.9204816 58.1938695,22.7222355 56.7,21.6 L54.6,19.9 C53.86,19.3 52.97,18.3 51.98,18.26 C51.6973543,18.263309 51.4319185,18.3963652 51.2601411,18.6208471 C51.0883637,18.8453289 51.0293144,19.1363157 51.1,19.41 Z" id="Path" fill="#FFFFFF"></path>
                <path d="M55.19,20.35 C56.080379,18.9755028 57.0838579,17.6776701 58.19,16.47 C59.3153677,15.3101393 60.5702618,14.2834078 61.93,13.41 L60,13.16 C63,16.4 65.92,19.62 68.86,22.87 L68.86,20.54 L66,23.2 C65.65,23.53 64.84,24.05 64.62,24.48 C64.43,24.63 64.48,24.64 64.77,24.48 C64.6491633,24.5196474 64.5320458,24.5698406 64.42,24.63 C64.32,24.63 63.65,24.88 64.17,24.74 L64.85,24.74 L65.45,25.09 L65.45,25.09 L65.83,26 L65.83,25.9 C65.8193772,25.5289778 65.6417775,25.1825934 65.346712,24.9574118 C65.0516466,24.7322303 64.6706733,24.6523353 64.31,24.74 C63.8525308,24.8577307 63.4779869,25.185412 63.300513,25.623181 C63.1230391,26.0609499 63.1636614,26.5569418 63.41,26.96 C64.0288199,27.9516364 65.3288362,28.2632842 66.33,27.66 C67.2507505,26.9861555 68.083849,26.2000868 68.81,25.32 L71.25,22.9 C71.8760745,22.2495037 71.8760745,21.2204963 71.25,20.57 C68.25,17.4 65.25,14.19 62.25,11 C61.7509785,10.509781 60.986641,10.4116842 60.38,10.76 C57.1647011,12.9066365 54.6095517,15.9049555 53,19.42 C52.45,20.75 54.48,21.42 55.2,20.35 L55.19,20.35 Z" id="Path" fill="#FFFFFF"></path>
                <path d="M56.35,17.82 C56.2350121,18.0984905 56.1576642,18.3910676 56.12,18.69 C56.12,19.07 56.12,19.44 56.06,19.81 C56.06,20.52 55.96,21.22 55.87,21.93 C55.69,23.3 57.87,23.85 58.47,22.64 C58.7807871,21.8616042 58.9989522,21.0493589 59.12,20.22 L59.6,17.9 L56.45,17 C56.1424068,19.0916226 56.4589629,21.2275067 57.36,23.14 C57.7336239,23.7612807 58.4419142,24.099686 59.16,24 C59.8719945,23.8990269 60.4588549,23.3904146 60.66,22.7 C61.29,20.47 61.66,18.16 62.19,15.9 L59,15.49 C58.91,19.31 58.73,23.13 58.76,26.95 C58.7654648,27.9418401 59.5681599,28.7445352 60.56,28.75 C61.5187952,28.7198446 62.2935533,27.9581442 62.34,27 C62.47,24.18 62.53,21.34 62.74,18.52 L59.35,18.52 L59.54,26.41 C59.5512041,27.3044173 60.2140761,28.0565222 61.1,28.18 C61.9924523,28.297064 62.8385942,27.7513025 63.1,26.89 C64.03,24.65 64.88,22.37 65.73,20.1 L62.33,19.64 C62.4362419,20.6362377 62.4696639,21.6388988 62.43,22.64 C62.43,23.7 62.24,24.7 62.18,25.64 C62.193127,26.3632226 62.6332939,27.010024 63.3012504,27.2876162 C63.9692068,27.5652085 64.7381491,27.4208942 65.26,26.92 C65.7978224,26.2664277 66.2389927,25.5390019 66.57,24.76 L63.48,23.46 C63.2311669,24.7817237 63.2311669,26.1382763 63.48,27.46 C63.6843618,28.2186607 64.3743086,28.7443345 65.16,28.74 C65.9377755,28.7212369 66.6154702,28.2048981 66.84,27.46 C67.39,25.93 67.84,24.36 68.27,22.8 C68.4843538,22.0120292 68.0825478,21.1870446 67.33,20.87 C66.5888841,20.5866632 65.7508757,20.867396 65.33,21.54 L64.59,22.49 C64.2029959,23.1807538 64.379418,24.0506854 65.0049486,24.5360971 C65.6304792,25.0215089 66.5169728,24.9763999 67.09,24.43 L67.89,23.52 L65.15,22 C64.59,23.49 64,25 63.51,26.57 L66.87,26.57 C66.6951616,25.8538746 66.6477716,25.1125589 66.73,24.38 C66.9402253,23.4794352 66.4217424,22.5688224 65.54,22.29 C64.6412258,22.0752971 63.7304114,22.5963881 63.46,23.48 C63.46,23.36 63.16,23.91 63.19,23.87 C63.22,23.83 62.84,24.25 62.69,24.39 L65.69,26.14 C66.0033104,23.9694018 66.0268497,21.7667983 65.76,19.59 C65.744579,18.8164888 65.2312751,18.1415143 64.49,17.92 C63.7185612,17.692359 62.8916343,18.0231298 62.49,18.72 C61.49,21.09 60.49,23.47 59.54,25.88 L63.08,26.36 L62.68,18.47 C62.6119169,17.5842641 61.8733487,16.9002881 60.985,16.9002881 C60.0966513,16.9002881 59.3580831,17.5842641 59.29,18.47 C59.16,21.3 58.88,24.13 58.67,26.95 L62.28,26.95 C62.36,23.13 62.22,19.31 62.19,15.49 C62.1257456,14.7203699 61.5362365,14.0982778 60.7711722,13.9927517 C60.0061079,13.8872256 59.2702031,14.3265019 59,15.05 C58.4,17.29 57.66,19.51 57.16,21.78 L60.46,21.35 C60.127972,20.7620735 59.8948632,20.1235581 59.77,19.46 C59.6364149,18.8022807 59.5926827,18.129478 59.64,17.46 C59.6057215,16.6723933 59.0159005,16.0206157 58.235619,15.9080987 C57.4553375,15.7955816 56.7054017,16.2541654 56.45,17 L56.13,19.37 C55.949071,20.2009691 55.8618598,21.0496009 55.87,21.9 L58.47,21.2 C58.22,20.61 58,20.03 57.79,19.43 C57.7,19.15 57.6,18.87 57.5,18.59 C57.3769543,18.2708538 57.2085568,17.9711062 57,17.7 C56.9246321,17.5802478 56.786103,17.5157508 56.6459449,17.5351573 C56.5057867,17.5545638 56.3899941,17.6542746 56.35,17.79 L56.35,17.82 Z" id="Path" fill="#FFFFFF"></path>
                <path d="M37.71,75.73 C38.4814981,76.2646079 39.3694131,76.6074322 40.3,76.73 L42.96,77.42 C44.72,77.88 46.48,78.42 48.28,78.74 C48.8862821,78.8835069 49.516829,78.6264687 49.85,78.1 L49.78,78.2 C50.0455008,77.94073 50.1455944,77.5557548 50.04,77.2 C50.0308243,77.1336491 50.0308243,77.0663509 50.04,77 C49.9240207,76.5035865 49.5364135,76.1159793 49.04,76 C47.28,75.51 45.45,75.25 43.65,74.92 L40.95,74.41 C40.0433986,74.1029185 39.0764845,74.0171992 38.13,74.16 C37.8222732,74.2516416 37.584586,74.4970873 37.5028726,74.8075981 C37.4211593,75.1181088 37.5072427,75.4487573 37.73,75.68 L37.71,75.73 Z" id="Path" fill="#FFFFFF"></path>
                <path d="M41.74,74.55 C41.8531647,72.9276379 42.1074595,71.3182195 42.5,69.74 C42.9396802,68.1858256 43.5535748,66.6863124 44.33,65.27 L42.58,66 C46.72,67.44 50.87,68.85 54.99,70.32 L53.84,68.32 L52.56,72.13 C52.3088388,72.7240095 52.1016154,73.3356526 51.94,73.96 C52.18,73.68 52.21,73.63 52.04,73.82 L51.77,74.17 C52.06,73.79 51.61,74.4 51.52,74.52 L52,74 L52.23,73.91 L53.23,74.05 L53.23,74.05 L53.69,74.51 L53.64,74.44 C53.3221625,73.8533022 52.594506,73.6270187 52,73.93 C51.5586746,74.2035089 51.290174,74.6857937 51.290174,75.205 C51.290174,75.7242063 51.5586746,76.2064911 52,76.48 C52.4826146,76.7641144 53.0583812,76.8447105 53.6004584,76.704033 C54.1425356,76.5633555 54.6064495,76.2129461 54.89,75.73 C55.34469,74.7189879 55.6802769,73.6585333 55.89,72.57 L56.89,69.15 C57.1090643,68.2853239 56.6056277,67.4021017 55.75,67.15 C51.59,65.8 47.44,64.4 43.29,63.02 C42.6133996,62.8365834 41.8975462,63.1270154 41.54,63.73 C39.788766,67.0627667 38.9862604,70.812405 39.22,74.57 C39.22,75.2327417 39.7572583,75.77 40.42,75.77 C41.0827417,75.77 41.62,75.2327417 41.62,74.57 L41.74,74.55 Z" id="Path" fill="#FFFFFF"></path>
                <path d="M41.55,71.83 C41.5877172,72.1343529 41.6615713,72.4331263 41.77,72.72 L42.22,73.63 C42.49,74.2 42.74,74.77 42.97,75.37 C43.1691704,76.0308896 43.8147386,76.4528296 44.5,76.37 C45.1908912,76.2804889 45.7108458,75.6966054 45.72,75 C45.6137421,74.1631881 45.4124427,73.3412156 45.12,72.55 L44.43,70.28 L41.28,71.15 C42.0130646,73.1125657 43.3066429,74.8164727 45,76.05 C45.6333574,76.4132932 46.4234323,76.357988 47,75.91 C47.5693054,75.4580792 47.8231969,74.7159347 47.65,74.01 C47.13,71.75 46.37,69.53 45.75,67.3 L42.75,68.57 C44.51,72 46.18,75.42 48,78.76 C48.5337383,79.549579 49.5883142,79.7900026 50.411542,79.3097863 C51.2347698,78.8295701 51.544581,77.7932541 51.12,76.94 C49.89,74.39 48.59,71.87 47.43,69.3 L44.53,71 L48.45,77.84 C48.8660675,78.5211852 49.6738743,78.856425 50.45,78.67 C51.2338556,78.4567214 51.775806,77.7423323 51.77,76.93 C51.51,74.36 51.14,71.8 50.77,69.24 L47.6,70.57 C48.1821044,71.4045437 48.6970546,72.2839716 49.14,73.2 C49.64,74.2 49.9,74.97 50.37,75.98 C50.7442898,76.5950305 51.4459572,76.9316088 52.1598909,76.8385811 C52.8738245,76.7455533 53.4658128,76.2404078 53.67,75.55 C53.8415055,74.7115696 53.8986917,73.8537769 53.84,73 L50.52,73.45 C50.9631922,74.7218394 51.6416536,75.89897 52.52,76.92 C53.0832782,77.4811475 53.9540507,77.5920478 54.64,77.19 C55.3098075,76.7653978 55.6322039,75.9594067 55.44,75.19 C55.19,73.59 54.81,72 54.44,70.41 C54.2497724,69.6963935 53.6035261,69.1998512 52.865,69.1998512 C52.1264739,69.1998512 51.4802276,69.6963935 51.29,70.41 L51.1,71.61 C50.8673088,72.4672608 51.359423,73.3539531 52.21,73.61 C52.6224874,73.7329444 53.0671127,73.684512 53.443456,73.4756415 C53.8197993,73.266771 54.0961163,72.9150803 54.21,72.5 L54.48,71.32 L51.28,71.32 C51.51,72.94 51.71,74.56 52.03,76.16 L55,74.46 C54.5051679,73.9012606 54.1094711,73.2620581 53.83,72.57 C53.5959185,71.7647109 52.8123957,71.2480094 51.98,71.35 C51.1265356,71.4315767 50.4714201,72.1427219 50.46,73 C50.525662,73.5392312 50.4534068,74.0863062 50.25,74.59 L53.73,74.59 C52.9580393,72.5411743 51.9226749,70.6015467 50.65,68.82 C50.2505313,68.1481832 49.4595358,67.8155595 48.7,68 C47.9468616,68.204139 47.4255078,68.8896988 47.43,69.67 C47.66,72.08 47.89,74.5 48.21,76.9 L51.57,76 L47.45,69.3 C47.1550116,68.7609974 46.5907203,68.4245683 45.9762842,68.4213743 C45.3618481,68.4181802 44.7940896,68.7487246 44.4935135,69.2846312 C44.1929374,69.8205378 44.2069082,70.477359 44.53,71 C45.77,73.54 46.86,76.17 48.02,78.75 L51.14,76.93 C49.39,73.54 47.45,70.24 45.6,66.93 C44.68,65.27 42.18,66.41 42.6,68.2 C43.14,70.45 43.54,72.76 44.19,74.99 L46.84,72.99 C46.2712688,72.6308304 45.7646693,72.1816454 45.34,71.66 C44.9186057,71.1295602 44.5595826,70.5524389 44.27,69.94 C43.5,68.27 40.62,69.46 41.27,71.2 L42.12,73.43 C42.3654997,74.2414921 42.7009144,75.0230083 43.12,75.76 L45.31,74 C44.74,73.56 44.21,73.11 43.68,72.63 L42.93,72 C42.6724525,71.7823048 42.3864998,71.6006407 42.08,71.46 C41.9522946,71.3944625 41.7982074,71.4087004 41.6846732,71.4965287 C41.571139,71.5843571 41.5186472,71.7299256 41.55,71.87 L41.55,71.83 Z" id="Path" fill="#FFFFFF"></path>
                <g id="Group" opacity="0.3" transform="translate(8.000000, 4.000000)" fill="#FFDD15">
                    <path d="M38.35,65.47 C45.01,66.61 51.77,67.24 58.49,67.91 C59.257234,67.9079744 59.9303508,67.3980375 60.14,66.66 C63.3433325,56.9967719 67.7549453,47.7770724 73.27,39.22 C74.07,37.97 72.71,35.94 71.27,36.55 C64.3625339,39.3287273 57.2515588,41.5720109 50,43.26 L52.23,45 C51.8571288,35.8362213 53.3331242,26.6911717 56.57,18.11 C57.34,16 54.46,14.71 53,16 C45.7823056,22.5114739 37.8204322,28.1472182 29.28,32.79 L32.79,34.79 C33.6351842,24.040957 32.9007156,13.2260754 30.61,2.69 C30.4078326,1.9536526 29.8739007,1.35366959 29.1660065,1.06737442 C28.4581122,0.781079249 27.6572084,0.841211782 27,1.23 C18.731563,7.08371178 10.1304422,12.4527344 1.24,17.31 C-0.51,18.31 0.12,20.62 1.75,21.24 C9.25,24.07 16.65,27.24 24.1,30.17 L22.78,27 C18.7578318,34.1755823 13.819775,40.797755 8.09,46.7 C7.3421842,47.5020285 7.28493738,48.7275309 7.95472958,49.59578 C8.62452178,50.4640292 9.82441632,50.7197368 10.79,50.2 C17.06,46.67 24.38,46.28 31.42,46.28 C38.82,46.28 46.34,46.58 53.58,44.77 L51.9,40.77 C38.9,47.67 26.19,55.27 13.83,63.32 C12.13,64.42 12.65,67.5 14.93,67.32 C23.1935658,66.8608791 31.4179852,65.8587159 39.55,64.32 C40.6939163,63.9989884 41.3669951,62.8177573 41.06,61.67 C40.7212073,60.540103 39.5547612,59.8754488 38.41,60.16 C30.6540579,61.6203921 22.8104641,62.5691062 14.93,63 L16.02,67 C28.41,59 41.14,51.57 54.1,44.5 C56.28,43.31 54.78,39.9 52.42,40.5 C38,44.34 22.15,38.86 8.54,46.3 L11.24,49.8 C17.2669898,43.6509914 22.424774,36.7066558 26.57,29.16 C26.8982883,28.5694725 26.9411449,27.86195 26.6865349,27.2361147 C26.4319249,26.6102794 25.9073065,26.133624 25.26,25.94 C17.81,22.94 10.26,20.19 2.9,17.1 L3.41,21 C12.4566008,16.4297658 21.1713389,11.2303285 29.49,5.44 L25.91,4 C27.9788061,14.1342005 28.721695,24.4943067 28.12,34.82 C28.1392854,35.6491509 28.592394,36.4073214 29.3134997,36.8170406 C30.0346054,37.2267597 30.9178543,37.2278832 31.64,36.82 C40.382351,31.781202 48.5504285,25.806032 56,19 L52.46,17 C49.3482908,25.9888048 48.0565367,35.5069932 48.66,45 C48.6739179,45.5520682 48.9377452,46.0679565 49.3771957,46.4024056 C49.8166463,46.7368547 50.3841816,46.8536848 50.92,46.72 C58.1651362,45.0502548 65.272405,42.8304869 72.18,40.08 L70.13,37.4 C64.4317369,46.2004709 59.9636794,55.7388317 56.85,65.75 L58.49,64.5 C51.9,64 45.32,63.19 38.71,62.77 C37.19,62.68 36.81,65.21 38.35,65.47 Z" id="Path"></path>
                    <path d="M29.44,58.67 L27.28,58.48 C26.5983396,58.4910785 25.9883874,58.9060038 25.7277189,59.5359526 C25.4670504,60.1659015 25.6054755,60.8905002 26.08,61.38 C26.4499571,61.6821455 26.7243696,62.0850802 26.87,62.54 L29.63,60.41 L27.07,59 C26.2404526,58.5473582 25.2118462,58.6954081 24.5436272,59.3636272 C23.8754081,60.0318462 23.7273582,61.0604526 24.18,61.89 C24.7732391,62.8936987 25.7469882,63.6149944 26.88,63.89 C28.1094982,64.0764514 29.3623678,64.0425901 30.58,63.79 C33.0565288,63.6067158 35.5451813,63.9020948 37.91,64.66 C40.13,65.36 41.66,62.44 40.13,60.86 L36.19,56.86 L33.94,60.73 C36.6245119,61.214748 39.2517827,61.9754502 41.78,63 C44.29,64 45.97,59.9 43.62,58.65 L38.84,56.12 C36.1,54.66 33.67,58.79 36.4,60.29 C38.63,61.52 40.85,62.77 43.06,64.01 L45.61,59.66 C41.92,58.02 38.22,56.22 34.42,54.86 C31.42,53.79 27.82,54.71 27.48,58.28 C27.492526,59.4281311 28.2566845,60.4321054 29.36,60.75 C34.583679,62.3379889 39.9380333,63.4590569 45.36,64.1 C47.95,64.41 48.71,60.52 46.65,59.36 L38.65,54.93 L36.72,59.51 C41.9133333,60.9633333 47.0366667,62.63 52.09,64.51 L53.41,59.73 L40,54.93 C37.33,54 35.47,58.3 38,59.48 C44.4666667,62.4533333 51.0133333,65.25 57.64,67.87 L59,63 C52.9772126,61.5847293 47.1383922,59.4773849 41.6,56.72 L39.66,61.32 C44.5111772,62.8528614 49.5133686,63.858664 54.58,64.32 C55.8384524,64.3190591 56.8983795,63.3792856 57.05,62.13 C57.2005105,60.8948049 56.4410342,59.7302747 55.25,59.37 C50.82,57.71 46.39,56.03 41.95,54.37 L40.62,59.21 C45.6478002,60.7797589 50.789931,61.9566315 56,62.73 C57.2990608,63.0300704 58.6090306,62.2746545 59,61 C59.3222747,59.7007897 58.5640267,58.3782642 57.28,58 L42,54 L40.7,58.72 L57.19,61.72 C58.4898365,62.0253052 59.8031728,61.2679479 60.19,59.99 C60.5122747,58.6907897 59.7540267,57.3682642 58.47,56.99 C53.13,55.81 47.77,54.68 42.47,53.54 L41.84,58.25 C46.24,58.79 50.64,59.37 55.05,59.94 C57.73,60.28 58.34,55.74 55.69,55.2 C51.29,54.3066667 46.89,53.4266667 42.49,52.56 L41.85,57.29 L52,58 C54.73,58.2 55.2,54 52.64,53.3 C49.09,52.35 45.55,51.41 42.01,50.44 L41.37,55.12 C47.7666599,55.9626801 54.2279609,56.2070713 60.67,55.85 C63.84,55.68 63.67,51.38 60.67,51.02 L44.57,49.13 C41.84,48.81 41.27,53.31 43.92,53.9 C48.4635304,54.9153148 53.0562599,55.6963458 57.68,56.24 L57.68,51.36 C54.5643479,51.5593977 51.4486271,50.9713312 48.62,49.65 L47.39,54.21 L59.88,53.12 C62.52,52.89 63.36,49.06 60.54,48.3 C56.8593114,47.3176257 53.0693833,46.8035663 49.26,46.77 L49.26,51.69 L61.35,50.13 C62.6965266,50.088379 63.778379,49.0065266 63.82,47.66 C63.8091226,46.3003877 62.7096123,45.2008774 61.35,45.19 L52.74,45.52 L53.4,50.38 L67.92,46.89 C71.03,46.14 69.71,41.39 66.59,42.1 L55.59,44.58 L56.92,49.39 C60.41,48.14 63.92,46.99 67.41,45.6 C68.70508,45.2040189 69.464727,43.8647569 69.14,42.55 C68.7616475,41.2653526 67.4413901,40.5040042 66.14,40.82 C61.34,42.16 56.56,43.44 51.69,44.55 C50.35,44.85 47.89,45.44 46.79,44.27 C46.45883,43.9334189 46.2877292,43.4710828 46.32,43 C46.32,43.11 46.51,42.47 46.42,42.62 C46.33,42.77 45.96,42.77 46.5,42.62 C47.5835894,42.3090253 48.2222134,41.1914334 47.94,40.1 C47.6115904,39.0253356 46.5016941,38.393616 45.41,38.66 C42.06,39.14 38.71,39.66 35.41,40.16 L36.58,44.37 L39.86,43.15 C40.8047366,42.6700274 41.2730761,41.5847752 40.9742055,40.5681251 C40.6753349,39.5514751 39.6941867,38.8923373 38.64,39 L30.27,40.72 L31.45,45 L40.94,42.78 C43.38,42.21 42.88,38.28 40.34,38.38 C34.870627,38.6049418 29.4255841,39.2366871 24.05,40.27 L25.27,44.67 C30.86,43.21 36.45,41.78 42.05,40.33 C44.61,39.67 44.05,35.71 41.42,35.72 C32.6838289,35.7825189 23.9994692,37.0683427 15.62,39.54 C12.69,40.4 13.91,44.9 16.89,44.13 C27.6555196,41.3547672 38.8147792,40.4315921 49.89,41.4 L47.89,37.83 C47.5122358,38.7480628 46.7467412,39.4512923 45.8,39.75 C44.990412,39.9938351 44.3688555,40.6456815 44.1637891,41.4659473 C43.9587226,42.2862131 44.2004036,43.1538688 44.8,43.75 C45.3636839,44.3210251 46.1326228,44.6424481 46.935,44.6424481 C47.7373772,44.6424481 48.5063161,44.3210251 49.07,43.75 C50.2506895,42.6249783 50.3889178,40.7891333 49.39,39.5 C48.46,38.24 46.94,37.93 45.49,37.63 L40.18,36.53 L40.18,41 L48,38.23 C50.36,37.4 50.15,33.56 47.38,33.65 C44.25,33.76 41.13,33.81 38,33.88 L38,38.61 L47.75,37.55 C49.0235273,37.4680075 50.0145169,36.411164 50.0145169,35.135 C50.0145169,33.858836 49.0235273,32.8019925 47.75,32.72 C45.18,32.47 42.62,32.2 40.05,31.97 L41.29,36.54 C42.8676102,35.673107 44.5883786,35.0972594 46.37,34.84 C49.13,34.41 48.37,30.03 45.72,30.05 L39.72,30.05 L40.95,34.57 C43.9683413,32.6655739 47.127498,30.9940624 50.4,29.57 C52.54,28.64 51.5,24.84 49.18,25.1 L46.32,25.42 L48.01,29.51 C48.1859276,29.3340938 48.4510528,29.2826516 48.68,29.38 L47.25,25.87 C46.0874994,27.4487395 45.4634531,29.3594432 45.47,31.32 L46.65,29.27 C39.3042988,33.1032644 31.411634,35.7813737 23.25,37.21 L25.33,40.78 L30.43,35.64 C31.0606515,35.0282195 31.2485709,34.0908229 30.9024602,33.2832313 C30.5563496,32.4756398 29.7479455,31.9652389 28.87,32 C27.55,32.07 26.22,32.11 24.87,32.15 L26.72,35.37 C27.420207,34.2712663 28.3561662,33.342139 29.46,32.65 C30.2167994,32.1793837 30.6282064,31.3094672 30.5118348,30.4259047 C30.3954631,29.5423421 29.7728445,28.8086145 28.92,28.55 C27.3887748,28.0379628 25.7676463,27.8506475 24.16,28 L25.33,32.33 L27.33,30.83 L24.48,27.1 C23.78,27.83 23.07,28.54 22.38,29.27 C21.5298721,30.2320814 21.5748466,31.6894893 22.4826786,32.5973214 C23.3905107,33.5051534 24.8479186,33.5501279 25.81,32.7 C27.5363717,31.1433406 28.8811134,29.2100606 29.74,27.05 C30.35,25.59 28.82,23.94 27.4,23.98 L22,24.12 L23.23,28.64 L27.9,25.31 C30.06,23.78 28.84,20.11 26.03,20.86 L21.63,22 L23.51,26.46 L27.44,23.46 C28.3689996,22.8770425 28.8234434,21.7670736 28.57,20.7 C28.2709586,19.6435176 27.307985,18.9131267 26.21,18.91 L21.83,19.29 L23.06,23.84 L26.41,21.29 C27.446534,20.65159 27.8695012,19.3573104 27.41,18.23 C26.9475053,17.0962095 25.7109987,16.486543 24.53,16.81 L14.73,20.53 L16.62,25 C20.44,22.4 24.37,19.9733333 28.41,17.72 C30.86,16.36 29.21,12.47 26.52,13.22 C20.52,14.8666667 14.52,16.5333333 8.52,18.22 L10.85,22.22 C16.4763069,17.6847233 22.5590254,13.7468752 29,10.47 L25.35,6.82 C22.3989389,12.6283051 21.042748,19.1159359 21.42,25.62 C21.4517067,27.2265312 22.7435861,28.5228198 24.35,28.56 C25.96032,28.5281032 27.2581032,27.23032 27.29,25.62 C26.8588088,20.1122764 27.7895019,14.5830665 30,9.52 C30.5699011,8.46179386 30.4008804,7.15791965 29.58,6.28 C28.7100781,5.44909418 27.3999303,5.28279059 26.35,5.87 C19.7603221,9.73516715 13.4753877,14.0978477 7.55,18.92 C5.6,20.48 7.72,23.49 9.87,22.92 C15.87,21.3133333 21.87,19.68 27.87,18.02 L25.97,13.52 C21.93,15.7733333 18,18.2033333 14.18,20.81 C13.1313841,21.4436802 12.7057808,22.7502823 13.18,23.88 C13.6428722,24.981858 14.8407903,25.5808171 16,25.29 L25.8,21.55 L23.91,17.08 L20.56,19.64 C19.6372435,20.2278152 19.1877936,21.3353883 19.44,22.4 C19.7360909,23.4584927 20.7008746,24.1902567 21.8,24.19 L26.18,23.81 L25,19.26 L21.07,22.26 C20.0596574,22.8902351 19.639867,24.1496064 20.07,25.26 C20.542792,26.3841453 21.7703828,26.9894157 22.95,26.68 L27.35,25.49 L25.48,21.04 L20.8,24.38 C19,25.76 19.42,29.05 22,29 L27.39,28.85 L25.05,25.78 C24.4378074,27.1401284 23.5208088,28.3411227 22.37,29.29 L25.8,32.72 C26.48,31.98 27.15,31.23 27.8,30.48 C28.7278384,29.554923 28.730077,28.0528384 27.805,27.125 C26.879923,26.1971616 25.3778384,26.194923 24.45,27.12 L22.45,28.7 C20.96,29.9 22.13,32.92 24.09,32.7 C25.2939655,32.5221822 26.5221694,32.6074741 27.69,32.95 L27.16,28.86 C25.4547757,30.0076934 24.0268174,31.5210558 22.98,33.29 C22.6060015,33.9538367 22.6094188,34.7656128 22.9889931,35.4262773 C23.3685674,36.0869417 24.068142,36.4987516 24.83,36.51 C26.15,36.42 27.48,36.34 28.83,36.28 L27.35,32.69 L22.2,37.78 C20.56,39.4 22.29,41.67 24.27,41.35 C32.8812491,39.988665 41.2258727,37.2858573 49,33.34 C49.7321743,32.9125247 50.181661,32.1278275 50.18,31.28 C50.2137209,30.1788608 50.6190319,29.1215278 51.33,28.28 C52.28,27.04 51.25,25.12 49.9,24.77 C48.0126062,24.2585135 45.9951419,24.7704641 44.58,26.12 C43.12,27.43 44.2,30.43 46.27,30.21 L49.13,29.9 L47.9,25.39 C44.6196078,26.8109846 41.453572,28.482598 38.43,30.39 C37.5213947,30.9637243 37.0926934,32.0625653 37.3727143,33.1000196 C37.6527351,34.1374739 38.576114,34.8713729 39.65,34.91 L45.65,34.91 L45,30.11 C42.7987245,30.4536057 40.6758438,31.184933 38.73,32.27 C36.43,33.53 37.73,36.63 39.97,36.84 C42.53,37.08 45.1,37.29 47.67,37.52 L47.67,32.69 L37.92,33.85 C36.6302913,33.8863375 35.5917905,34.9204565 35.55,36.21 C35.5608704,37.5143856 36.6156144,38.5691296 37.92,38.58 C41.05,38.48 44.17,38.36 47.3,38.29 L46.68,33.71 L38.86,36.45 C36.86,37.15 36.42,40.45 38.86,40.97 L42.95,41.83 L44.88,42.24 C45.114471,42.3295978 45.3600685,42.3867917 45.61,42.41 C46.07,42.3 45.61,43.34 45.37,41.99 L45.37,40.74 L47.16,39.88 L48.16,40.49 L48.02,40.32 L47.02,44.32 C49.1893298,43.7036171 50.9977353,42.2002438 52,40.18 C52.4050259,39.4430721 52.396656,38.5483184 51.977915,37.8190964 C51.5591741,37.0898744 50.790619,36.6316416 49.95,36.61 C38.4256194,35.5921504 26.8120236,36.5698169 15.62,39.5 L16.89,44.09 C24.8584907,41.7359344 33.1118471,40.4843043 41.42,40.37 L40.8,35.77 L24.05,40.23 C21.19,40.99 22.41,45.23 25.27,44.63 C30.2436278,43.6673302 35.2798689,43.0624466 40.34,42.82 L39.75,38.42 L30.27,40.69 C27.49,41.35 28.67,45.55 31.45,44.96 L39.81,43.2 L38.64,39 L35.36,40.24 C34.275099,40.6239503 33.6724595,41.7821078 33.9806101,42.8909231 C34.2887606,43.9997383 35.4025595,44.680881 36.53,44.45 C39.86,43.9 43.18,43.31 46.53,42.7 L45.44,38.7 C43.1984061,39.4367922 41.9095602,41.7829286 42.49,44.07 C42.96,46.73 45.2,48.25 47.77,48.53 C50.77,48.86 54.01,47.82 56.92,47.26 C60.4,46.58 63.92,46.11 67.41,45.59 L66.09,40.81 C62.56,41.93 59.09,43.32 55.59,44.57 C54.3410256,44.9998296 53.6419339,46.3271001 53.9939541,47.6001956 C54.3459743,48.8732912 55.6276256,49.6528718 56.92,49.38 L67.92,46.88 L66.59,42.1 L52.08,45.6 C49.39,46.25 49.93,50.6 52.74,50.46 L61.35,50.13 L61.35,45.19 L49.26,46.77 C47.9189936,46.8116113 46.8416113,47.8889936 46.8,49.23 C46.8161916,50.5818569 47.9081431,51.6738084 49.26,51.69 C52.6368937,51.7075878 55.9976077,52.1579235 59.26,53.03 L59.91,48.22 L47.42,49.32 C46.3064444,49.3164443 45.3225736,50.0441834 45,51.11 C44.7142239,52.1769368 45.1715464,53.30391 46.12,53.87 C49.7046808,55.6117309 53.6689515,56.4265897 57.65,56.24 C60.85,56.07 60.71,51.72 57.65,51.36 C53.4592637,50.8618214 49.2970533,50.1475367 45.18,49.22 L44.57,54 C49.93,54.62 55.3,55.25 60.67,55.86 L60.67,51 C54.2301356,51.3802752 47.768842,51.159319 41.37,50.34 C38.67,50 38.21,54.34 40.74,55.02 L51.37,57.89 L52,53.22 L41.82,52.41 C39.13,52.2 38.52,56.61 41.18,57.14 C45.58,58.0333333 49.9766667,58.9166667 54.37,59.79 L55,55.06 C50.59,54.51 46.19,53.97 41.79,53.39 C39.1,53.04 38.53,57.52 41.15,58.11 C46.48,59.3 51.81,60.52 57.15,61.69 L58.46,56.93 L42,54 C40.7203014,53.7042474 39.4350355,54.4702367 39.0862722,55.7365157 C38.737509,57.0027946 39.4493357,58.3188306 40.7,58.72 C45.7933333,60.0533333 50.88,61.3866667 55.96,62.72 L57.26,58 C52.0882963,57.1943556 46.9864812,55.9907819 42,54.4 C40.6655929,54.0467974 39.2933715,54.8239455 38.91,56.15 C38.5688355,57.4858923 39.3469483,58.8520107 40.67,59.24 C45.09,60.92 49.52,62.5866667 53.96,64.24 L54.63,59.24 C50.0015423,58.8239745 45.4316437,57.9086536 41,56.51 C38.32,55.65 36.5,59.82 39.07,61.1 C44.9863613,64.0787015 51.232629,66.350987 57.68,67.87 C60.88,68.63 62,64.21 59,63 C52.78,60.54 46.6266667,57.92 40.54,55.14 L38.62,59.69 L52.12,64.41 C53.4279715,64.7418656 54.7612403,63.9670444 55.120438,62.6663134 C55.4796356,61.3655824 54.7329195,60.016372 53.44,59.63 C48.38,57.78 43.25,56.12 38.08,54.63 C35.36,53.83 33.68,57.8 36.15,59.21 C38.8166667,60.7166667 41.46,62.2166667 44.08,63.71 L45.37,59 C40.4034953,58.3718695 35.5036864,57.2975262 30.73,55.79 L32.61,58.26 C32.54,58.98 32.07,59.19 31.61,59.58 C31.75,59.45 31.94,59.58 31.67,59.58 C32.2,59.67 32.06,59.52 32.52,59.66 C33.6171439,60.0395164 34.692162,60.4802071 35.74,60.98 C38.38,62 41,63.15 43.67,64.23 C46.34,65.31 48.12,60.92 45.61,59.62 C43.35,58.4533333 41.0933333,57.2733333 38.84,56.08 L36.4,60.25 L41.22,62.72 L43.05,58.37 C40.5043156,57.3931361 37.8632047,56.6859351 35.17,56.26 C33.02,55.92 31.17,58.37 32.92,60.13 L36.92,64.13 L39.13,60.32 C35.8957552,59.3183001 32.4754299,59.0686163 29.13,59.59 C28.06,59.74 28.01,59.69 27.13,59.02 L25.5,62.88 L28.24,63.88 C29.91,64.48 31.04,62.46 30.37,61.11 C29.8756027,60.1373958 29.1253616,59.3180082 28.2,58.74 L27.34,61.9 L29.5,61.76 C30.3449957,61.76 31.03,61.0749957 31.03,60.23 C31.03,59.3850043 30.3449957,58.7 29.5,58.7 L29.44,58.67 Z" id="Path"></path>
                </g>
            </g>
        </g>
    </g>
</svg>