<?xml version="1.0" encoding="UTF-8"?>
<svg width="88px" height="67px" viewBox="0 0 88 67" version="1.1" xmlns="http://www.w3.org/2000/svg" xmlns:xlink="http://www.w3.org/1999/xlink">
    <!-- Generator: sketchtool 63.1 (101010) - https://sketch.com -->
    <title>E3488CC3-D548-4ADA-882A-A27451F974C0</title>
    <desc>Created with sketchtool.</desc>
    <g id="Dashboard-Launch-Version-v2" stroke="none" stroke-width="1" fill="none" fill-rule="evenodd">
        <g id="KNN-model-is-ready" transform="translate(-163.000000, -218.000000)" fill-rule="nonzero">
            <g id="cluster4" transform="translate(163.000000, 218.000000)">
                <path d="M59.3,19.65 C57.75,18.65 56.2,17.51 54.57,16.58 C52.9953583,15.5091244 51.0442712,15.1464688 49.19,15.58 C47.0450212,16.3615485 45.6807183,18.4733587 45.85,20.75 C45.9734615,22.6131933 46.388509,24.4454763 47.08,26.18 C48.36,29.62 50.72,33.41 54.84,33.52 C58.67,33.63 61.17,30.01 61.24,26.52 C61.1877541,24.3915583 60.3957065,22.3477926 59,20.74 C58.4707778,20.0741861 57.8816472,19.4582768 57.24,18.9 C56.4522578,18.1575594 55.5987569,17.4881469 54.69,16.9 C53.5014356,16.2103295 51.9858518,16.5077281 51.1460538,17.5954183 C50.3062558,18.6831085 50.4020273,20.2246233 51.37,21.2 C51.7340527,21.5548792 52.1180068,21.8887524 52.52,22.2 C52.72,22.34 53.23,22.55 53.33,22.75 C53.33,22.75 52.86,22.34 53.25,22.69 L53.55,22.95 C53.84,23.21 54.13,23.48 54.4,23.77 C54.67,24.06 54.79,24.21 54.99,24.42 C55.19,24.63 54.62,23.89 54.99,24.42 L55.21,24.74 C55.38,25.01 55.53,25.3 55.68,25.58 C55.93,26.07 55.63,25.47 55.63,25.47 C55.63,25.47 55.76,25.86 55.79,25.95 C55.804515,26.1026856 55.8346732,26.2534767 55.88,26.4 C55.88,26.4 55.88,25.7 55.88,26.14 C55.88,26.41 55.88,26.66 55.88,26.92 C55.88,27.18 55.73,27.17 55.88,26.67 C55.88,26.79 55.88,26.93 55.81,27.05 C55.74,27.17 55.75,27.3 55.71,27.43 C55.67,27.56 55.38,27.87 55.77,27.36 C55.634382,27.5711143 55.5140736,27.7916797 55.41,28.02 C55.28,28.24 55.18,28.12 55.57,27.83 C55.4981951,27.8984924 55.4313594,27.9720117 55.37,28.05 C55.29,28.14 55.11,28.25 55.06,28.35 C55.06,28.29 55.61,28 55.25,28.18 L55,28.33 C54.58,28.58 55.63,28.12 55,28.33 C54.69,28.42 54.69,28.25 55.17,28.33 C55.0535347,28.3203072 54.9364653,28.3203072 54.82,28.33 C54.27,28.39 55.27,28.45 54.94,28.33 L54.53,28.22 C54.05,28.11 54.71,28.22 54.69,28.3 L54.31,28.1 C54.25,28.1 53.96,27.92 53.95,27.86 C54.23,28.08 54.29,28.13 54.14,28 L53.94,27.82 C53.71,27.61 53.52,27.38 53.31,27.15 C53.1,26.92 53.07,27.04 53.38,27.25 C53.2710059,27.1342316 53.1799933,27.002769 53.11,26.86 C52.7755539,26.3329338 52.4813843,25.7813658 52.23,25.21 C52.04,24.81 52.45,25.79 52.23,25.11 C52.17,24.97 52.12,24.83 52.06,24.68 C51.93,24.33 51.81,23.97 51.69,23.61 C51.4602481,22.8909283 51.2699644,22.1598383 51.12,21.42 C51.12,21.28 51.07,21.13 51.04,20.98 C50.96,20.6 51.04,21.65 51.04,21.04 C51.04,20.77 51.04,20.51 51.04,20.23 C51.04,19.95 51.22,20.01 51.04,20.31 C51.0631732,20.198251 51.0932305,20.0880409 51.13,19.98 C51.02,19.98 50.92,20.51 51.13,20.05 C51.22,19.89 51.18,19.95 51,20.21 C51.2,20.02 51.16,20.04 50.9,20.26 C51.18,20.07 50.82,20.18 50.76,20.26 C50.913189,20.1862982 51.08009,20.1454245 51.25,20.14 L50.95,20.14 L51.22,20.14 C51.83,20.14 50.93,20.05 51.41,20.14 C52.0550115,20.271649 52.6873833,20.4590184 53.3,20.7 L53.38,20.7 C53.19,20.62 53.22,20.64 53.48,20.75 L54.14,21.03 L55.48,21.59 C56.34,21.95 57.22,22.28 58.1,22.59 C58.871026,22.7960976 59.6772872,22.4099409 60,21.68 C60.2875526,20.9389778 60.0059126,20.0982614 59.33,19.68 L59.3,19.65 Z" id="Path" fill="#FFFFFF"></path>
                <path d="M51,22.52 C51.08,22.66 51.15,22.81 51.23,22.96 L51.35,23.22 C51.35,23.28 51.48,23.55 51.35,23.31 C51.22,23.07 51.35,23.31 51.35,23.39 L51.44,23.62 L51.62,24.12 C51.8242183,24.7752726 51.9845731,25.4434175 52.1,26.12 L52.04,25.62 C52.0699872,26.0060853 52.0699872,26.3939147 52.04,26.78 L52.11,26.22 C52.0179816,26.6299323 51.9809895,27.0502972 52,27.47 L55.32,25.56 L55.18,25.47 L55.63,25.81 C55.530258,25.7302998 55.4397002,25.639742 55.36,25.54 L55.71,25.99 C55.6313932,25.8895294 55.5674237,25.7784245 55.52,25.66 L55.75,26.21 C55.6913143,26.0552597 55.6510375,25.8941524 55.63,25.73 L55.71,26.34 C55.6899948,26.1338175 55.6899948,25.9261825 55.71,25.72 L55.63,26.33 C55.6618795,26.1032797 55.7223613,25.8815132 55.81,25.67 L55.58,26.23 C55.649683,26.0759868 55.733368,25.9287012 55.83,25.79 L55.46,26.27 C55.5638518,26.141186 55.681186,26.0238518 55.81,25.92 L55.34,26.29 C55.438366,26.2136287 55.5458598,26.1498043 55.66,26.1 L55.1,26.34 C55.2222012,26.2915579 55.3497834,26.2579836 55.48,26.24 L54.85,26.32 L55,26.32 L53,25.15 C53.0698476,25.2613336 53.1300661,25.3784251 53.18,25.5 L52.94,24.93 C53.0308136,25.1488547 53.0978646,25.3768281 53.14,25.61 L53,25 C53.025102,25.2025586 53.025102,25.4074414 53,25.61 L53.08,24.97 C53.059433,25.0888911 53.0293359,25.2059352 52.99,25.32 L53.23,24.74 C53.1842642,24.8509827 53.1237144,24.9552629 53.05,25.05 L53.42,24.57 C53.361051,24.6439617 53.2939617,24.711051 53.22,24.77 L53.71,24.39 C53.6622757,24.4236393 53.6121403,24.4537206 53.56,24.48 L54.13,24.23 C54.0599543,24.2605344 53.9858491,24.2807449 53.91,24.29 L54.55,24.2 L54.32,24.2 L54.96,24.28 C54.8643261,24.2672974 54.7703958,24.2438149 54.68,24.21 L55.25,24.45 C55.144481,24.3997186 55.044022,24.3394432 54.95,24.27 L55.44,24.65 C55.3684315,24.5884223 55.3015777,24.5215685 55.24,24.45 L55.62,24.93 C55.5775474,24.8737333 55.540705,24.8134458 55.51,24.75 L55.76,25.33 C55.7241317,25.2395445 55.6973336,25.1457511 55.68,25.05 L55.77,25.68 C55.7655949,25.6468122 55.7655949,25.6131878 55.77,25.58 L55.69,26.2 C55.6854727,26.1501025 55.6854727,26.0998975 55.69,26.05 L55.45,26.6 L55.45,26.54 C55.678628,26.0930492 55.7724322,25.5892862 55.72,25.09 C55.6717902,24.5924971 55.4485328,24.1282636 55.09,23.78 C54.8037851,23.5126224 54.462442,23.31123 54.09,23.19 C53.4961908,23.0280875 52.8622605,23.1109306 52.33,23.42 C51.6927449,23.8266714 51.2266758,24.4528406 51.02,25.18 C50.800206,26.1590675 51.0985235,27.1824099 51.81,27.89 C52.6871334,28.8073749 53.9863419,29.1883744 55.22,28.89 C56.575409,28.4832506 57.5510308,27.2982849 57.69,25.89 C57.8254206,24.7984262 57.5818332,23.6934571 57,22.76 C56.5806594,22.0488585 55.8252468,21.603165 55,21.58 C54.400269,21.6156447 53.8145183,21.7757045 53.28,22.05 C52.9414546,22.2335836 52.6342802,22.4698716 52.37,22.75 C51.8054985,23.3313868 51.4141937,24.0585904 51.24,24.85 C51.0477048,25.640198 51.0823671,26.4686275 51.34,27.24 C51.6392316,28.1569999 52.2803107,28.9234297 53.13,29.38 C53.4754757,29.5643422 53.8586359,29.6669744 54.25,29.68 C54.7356906,29.6720878 55.2057783,29.5072063 55.59,29.21 C55.8913173,28.9786217 56.1259458,28.6715344 56.27,28.32 C56.4469472,27.8611417 56.4851975,27.360411 56.38,26.88 C56.3221372,26.477258 56.1934886,26.0879265 56,25.73 L56.21,26.23 C56.01,25.74 55.83,25.23 55.62,24.77 L55.81,25.22 C55.5131414,24.3978826 55.1554862,23.5990079 54.74,22.83 C54.3025276,22.121212 53.8039653,21.4520008 53.25,20.83 C52.7425448,20.3144015 51.9285902,20.2627219 51.36,20.71 C50.8255608,21.151385 50.6751329,21.9077033 51,22.52 L51,22.52 Z" id="Path" fill="#FFFFFF"></path>
                <path d="M43.94,46 C42.6136025,44.6038568 40.9706756,43.5474445 39.15,42.92 C37.1444371,42.315892 34.9796622,42.5504093 33.15,43.57 C29.6710387,45.7125926 28.3226944,50.104343 30,53.83 C31.821505,57.347506 35.8398255,59.1301943 39.67,58.12 C43.7954687,56.864875 46.1838207,52.5658413 45.07,48.4 C43.62,43.81 37.48,41.71 33.81,45.09 C32.8881693,46.0353177 32.8028832,47.5150311 33.61,48.56 C34.4072758,49.6154884 35.868096,49.9076524 37.01,49.24 C37.1196411,49.1641913 37.2331257,49.0940979 37.35,49.03 L37.53,48.94 C37.76,48.79 37.15,49.14 37.18,49.09 C37.21,49.04 37.86,48.89 37.99,48.85 C38.12,48.81 38.16,48.8 38.18,48.85 C38.2,48.9 37.48,48.85 37.78,48.91 C37.91,48.91 38.04,48.91 38.17,48.91 L38.57,48.91 C38.86,48.91 38.12,48.91 38.17,48.85 C38.22,48.79 38.39,48.9 38.43,48.91 L38.88,49.03 C38.88,49.03 39.05,49.03 39.07,49.1 C39.09,49.17 38.48,48.81 38.73,48.95 L39.48,49.38 C39.85,49.61 39.04,48.97 39.34,49.28 C39.44,49.38 39.54,49.46 39.63,49.56 C39.6678581,49.6144945 39.7114396,49.6647808 39.76,49.71 C39.95,49.88 39.54,49.41 39.54,49.42 C39.6102285,49.557949 39.6939721,49.6885891 39.79,49.81 C39.8138709,49.8728737 39.8440236,49.933179 39.88,49.99 C39.88,49.99 39.68,49.4 39.74,49.66 C39.8,49.92 39.84,49.94 39.87,50.08 C39.9,50.22 39.99,50.7 39.87,50.21 C39.75,49.72 39.87,50.29 39.87,50.42 C39.87,50.55 39.87,50.7 39.87,50.85 C39.87,51.31 40,50.24 39.87,50.7 C39.74,51.16 39.71,51.3 39.62,51.6 C39.53,51.9 39.76,51.27 39.75,51.29 C39.74,51.31 39.66,51.47 39.62,51.55 C39.58,51.63 39.48,51.81 39.4,51.94 C39.32,52.07 39.23,52.17 39.16,52.3 C39.09,52.43 39.55,51.84 39.35,52.04 L39.16,52.26 L38.84,52.56 C38.7819698,52.6047417 38.7283886,52.6549741 38.68,52.71 C38.68,52.71 39.17,52.35 38.94,52.5 C38.71,52.65 38.37,52.81 38.12,52.99 C38.12,52.99 38.7,52.79 38.44,52.85 L38.24,52.92 C38.1066262,52.9704947 37.969552,53.010614 37.83,53.04 C37.6980245,53.0867329 37.5598632,53.1136912 37.42,53.12 C37.36,53.12 38.08,53.12 37.78,53.07 C37.6867334,53.0650092 37.5932666,53.0650092 37.5,53.07 L37.08,53.07 C36.96,53.07 36.46,53.01 36.94,53.07 C37.42,53.13 36.94,53.07 36.8,53.07 L36.32,52.95 C36.16,52.9 36.01,52.83 35.85,52.79 C35.69,52.75 36.16,52.92 36.15,52.91 C36.0896568,52.8740563 36.0260381,52.8439211 35.96,52.82 C35.6889336,52.6767125 35.4252654,52.5198467 35.17,52.35 C34.8,52.11 35.57,52.72 35.25,52.41 L35,52.09 C34.9,51.99 34.81,51.88 34.72,51.78 C34.45,51.49 35.02,52.26 34.72,51.78 C34.64,51.66 34.57,51.54 34.5,51.42 C34.43,51.3 34.24,50.87 34.42,51.27 C34.6,51.67 34.42,51.22 34.42,51.11 C34.3706246,50.9524909 34.3305554,50.7922141 34.3,50.63 C34.3,50.57 34.3,50.49 34.3,50.43 C34.23,50.18 34.3,50.76 34.3,50.75 C34.3147407,50.610388 34.3147407,50.469612 34.3,50.33 C34.3,50.19 34.3,50.05 34.3,49.91 C34.3,49.77 34.36,49.23 34.3,49.67 C34.24,50.11 34.3,49.67 34.3,49.51 C34.3,49.35 34.38,49.19 34.43,49.03 C34.4899098,48.9016774 34.5368107,48.7676747 34.57,48.63 C34.57,48.63 34.34,49.1 34.47,48.88 L34.59,48.63 C34.72,48.38 34.89,48.15 35.04,47.91 C35.19,47.67 34.89,48.1 34.88,48.11 C34.87,48.12 35,48 35,48 L35.33,47.64 L35.7,47.3 C35.86,47.14 35.53,47.45 35.51,47.44 C35.5951882,47.394892 35.6755971,47.341286 35.75,47.28 C35.9,47.19 36.05,47.1 36.21,47.02 C36.282543,46.97527 36.3596447,46.9383953 36.44,46.91 C36.36,46.91 36.07,47.04 36.38,46.91 L36.93,46.75 L37.17,46.75 C37.47,46.68 37.17,46.69 37.11,46.75 C37.3,46.6 38.03,46.68 38.27,46.68 L38.94,46.68 L39.19,46.68 C39.46,46.68 38.94,46.63 39.19,46.68 C39.5846014,46.7487474 39.9751768,46.8388802 40.36,46.95 C40.7,47.05 41.2,47.16 41.36,47.21 C41.7470168,47.39092 42.1212214,47.598069 42.48,47.83 C42.9874507,48.1387417 43.6452951,48.0221563 44.0157404,47.5578311 C44.3861856,47.0935059 44.3537418,46.4261987 43.94,46 L43.94,46 Z" id="Path" fill="#FFFFFF"></path>
                <path d="M36.37,48.47 C36.37,48.61 36.37,48.57 36.37,48.36 C36.37,48.36 36.37,48.47 36.37,48.52 C36.3749789,48.5999225 36.3749789,48.6800775 36.37,48.76 C36.3749561,48.8566031 36.3749561,48.9533969 36.37,49.05 C36.37,49.16 36.37,49.1 36.37,48.86 C36.3794589,48.9095526 36.3794589,48.9604474 36.37,49.01 C36.359527,49.0920848 36.3393873,49.1726438 36.31,49.25 C36.3142691,49.2999089 36.3142691,49.3500911 36.31,49.4 C36.25,49.56 36.31,49.51 36.38,49.25 C36.2719729,49.4013959 36.1718395,49.5582716 36.08,49.72 L36.35,49.36 C36.2401816,49.5082824 36.1162707,49.6455891 35.98,49.77 L36.36,49.47 L36.16,49.57 L36.64,49.37 C36.578691,49.3959212 36.5150767,49.41601 36.45,49.43 C36.0753379,49.5561946 35.7336584,49.7646191 35.45,50.04 L38.82,50.47 L38.82,50.41 L39.04,50.92 C39.0041122,50.8261169 38.9773226,50.7290045 38.96,50.63 L39.03,51.21 C39.0149049,51.0837831 39.0149049,50.9562169 39.03,50.83 L38.95,51.41 C38.9707011,51.3117859 38.9974181,51.2149367 39.03,51.12 L38.81,51.65 C38.8478848,51.5568865 38.8983546,51.4694055 38.96,51.39 L38.61,51.84 C38.6582185,51.781786 38.711786,51.7282185 38.77,51.68 L35.22,51.22 C35.3219058,51.4041286 35.4120852,51.5945073 35.49,51.79 L35.26,51.24 C35.3919538,51.5612933 35.4859239,51.896901 35.54,52.24 L35.46,51.63 C35.4849648,51.8459475 35.4849648,52.0640525 35.46,52.28 L35.55,51.67 C35.5307509,51.7934743 35.4971917,51.9142876 35.45,52.03 L35.69,51.47 C35.6549179,51.5447833 35.611294,51.6152526 35.56,51.68 L35.93,51.21 C35.8784245,51.2715389 35.8215389,51.3284245 35.76,51.38 L36.23,51.01 C36.176767,51.0488538 36.1198234,51.08235 36.06,51.11 L36.62,50.88 L36.35,50.95 L36.97,50.86 C36.9003559,50.8699829 36.8296441,50.8699829 36.76,50.86 L37.39,50.95 L37,50.89 L37.57,51.12 C37.483875,51.0847288 37.4030955,51.0376074 37.33,50.98 L37.81,51.35 C37.714343,51.2760892 37.6301042,51.1884808 37.56,51.09 L37.93,51.57 C37.8550794,51.4706532 37.7913598,51.363336 37.74,51.25 L37.98,51.82 C37.9281745,51.6809774 37.8913,51.5368315 37.87,51.39 L38,52 C37.9899984,51.8668542 37.9899984,51.7331458 38,51.6 L37.91,52.23 C37.9459812,51.9921942 38.01323,51.7601859 38.11,51.54 L37.87,52.11 C38.0396063,51.7204843 38.2472817,51.3486784 38.49,51 L34.05,49.8 L34.05,50.06 L34.13,49.42 C34.0633909,50.0874514 33.9087138,50.7431476 33.67,51.37 L33.91,50.8 C33.7812667,51.1133211 33.6132554,51.409021 33.41,51.68 L33.78,51.19 C33.6609272,51.352379 33.5195327,51.49714 33.36,51.62 L33.85,51.24 C33.689733,51.361109 33.5150671,51.4618778 33.33,51.54 L33.91,51.3 C33.7008524,51.382276 33.4826484,51.4393448 33.26,51.47 L33.92,51.38 C33.7238412,51.3999885 33.5261588,51.3999885 33.33,51.38 L33.99,51.47 C33.8428265,51.4453183 33.6986866,51.4050932 33.56,51.35 L34.16,51.6 C34.0064557,51.5398501 33.8617985,51.4591112 33.73,51.36 L34.24,51.75 C34.1404725,51.673805 34.0498952,51.5865824 33.97,51.49 L34.36,51.99 C34.2855439,51.8867897 34.221877,51.7762104 34.17,51.66 L34.42,52.24 C34.3682694,52.1147278 34.3313525,51.9838404 34.31,51.85 L34.4,52.5 C34.4,52.08 34.3,51.67 34.24,51.25 L34.32,51.86 C34.3153535,51.8067679 34.3153535,51.7532321 34.32,51.7 L34.24,52.29 C34.2988215,52.0369602 34.3791124,51.7893968 34.48,51.55 L34.26,52.05 C34.4444642,51.6409947 34.6653548,51.249416 34.92,50.88 C35.1808471,50.4363104 35.2494642,49.9054305 35.11,49.41 C34.991953,49.0144841 34.7544253,48.6651787 34.43,48.41 C34.095597,48.134583 33.6730809,47.9890102 33.24,48 C32.7380371,48.0216044 32.2598693,48.2199555 31.89,48.56 C31.5800357,48.7967877 31.2921896,49.0612044 31.03,49.35 C30.6731882,49.7577925 30.339339,50.1851194 30.03,50.63 L30.38,50.17 C29.9932441,50.5792079 29.7058296,51.0719184 29.54,51.61 C29.4050565,52.192284 29.4050565,52.797716 29.54,53.38 C29.7089322,54.1191878 30.0997151,54.7891013 30.66,55.3 C31.3620992,55.9033191 32.2453746,56.2552217 33.17,56.3 C33.719916,56.350937 34.2744489,56.2897003 34.8,56.12 C36.1088898,55.7258538 37.195379,54.8059596 37.8,53.58 C38.259028,52.5736486 38.5527977,51.4998698 38.67,50.4 C38.7639081,50.0732807 38.7639081,49.7267193 38.67,49.4 C38.6581275,49.0867146 38.5613459,48.7825439 38.39,48.52 C38.1242558,48.0753775 37.725455,47.7255522 37.25,47.52 C36.7629231,47.3013043 36.2149336,47.2588793 35.7,47.4 C35.1122426,47.5886587 34.6095739,47.9780499 34.28,48.5 C33.569242,49.4151663 33.1510303,50.5234271 33.08,51.68 C33.0738897,52.3834824 33.2606512,53.0751916 33.62,53.68 C33.9585404,54.2635191 34.4493861,54.7439948 35.04,55.07 C36.3559862,55.7954206 37.9947674,55.5496034 39.04,54.47 C39.7880866,53.653227 40.1391591,52.5488114 40,51.45 C39.9529204,51.0471079 39.8589506,50.6510922 39.72,50.27 C39.5424093,49.7925086 39.3001507,49.3416383 39,48.93 C38.8044036,48.5946399 38.5253601,48.3155964 38.19,48.12 C37.936559,47.9620868 37.6479853,47.869331 37.35,47.85 C36.6514318,47.732596 35.9400308,47.9684817 35.45,48.48 C35.1764177,48.774702 34.9534138,49.1125868 34.79,49.48 C34.3244261,50.5016771 34.4033248,51.6889154 35,52.64 C35.3465336,53.1922623 35.9230143,53.5594474 36.57,53.64 C37.2309985,53.7579494 37.9070762,53.5363462 38.37,53.05 C38.5748681,52.8276903 38.7435865,52.5746128 38.87,52.3 C38.9733577,52.0167587 39.0372894,51.7206538 39.06,51.42 L39,52 C39.0546422,51.7323729 39.0947013,51.4619743 39.12,51.19 L39.05,51.7 C39.13,51.3 39.23,50.93 39.28,50.5 C39.3001346,50.2236997 39.3001346,49.9463003 39.28,49.67 C39.2465392,48.9048661 39.0341927,48.1582285 38.66,47.49 C38.3394723,46.9212165 37.6422298,46.6848202 37.0418731,46.941383 C36.4415163,47.1979457 36.1304649,47.8652367 36.32,48.49 L36.37,48.47 Z" id="Path" fill="#FFFFFF"></path>
                <path d="M58.7,4.75 C57.3760709,3.35318215 55.7321049,2.29953378 53.91,1.68 C51.9063314,1.06699505 49.7392838,1.29814679 47.91,2.32 C44.4257573,4.46361876 43.0802251,8.8644518 44.77,12.59 C46.5823674,16.1117544 50.6020268,17.8968826 54.43,16.88 C58.5505567,15.6249181 60.9376238,11.3326179 59.83,7.17 C58.37,2.57 52.23,0.48 48.56,3.86 C47.6381693,4.80531771 47.5528832,6.28503114 48.36,7.33 C49.1572758,8.38548836 50.618096,8.6776524 51.76,8.01 C51.8672721,7.93063107 51.9810029,7.86038557 52.1,7.8 L52.28,7.71 C52.52,7.56 51.9,7.91 51.93,7.86 C51.96,7.81 52.61,7.65 52.74,7.62 C52.8030553,7.61160683 52.8669447,7.61160683 52.93,7.62 C53,7.62 52.23,7.62 52.53,7.69 L52.92,7.69 L53.32,7.69 C53.61,7.69 52.87,7.69 52.92,7.64 C52.97,7.59 53.14,7.64 53.18,7.69 L53.63,7.82 C53.63,7.82 53.8,7.82 53.82,7.89 C53.84,7.96 53.23,7.6 53.48,7.74 C53.73,7.88 53.98,8.01 54.23,8.17 C54.48,8.33 53.79,7.76 54.1,8.07 C54.19,8.17 54.29,8.25 54.38,8.35 L54.51,8.5 C54.7,8.67 54.29,8.2 54.29,8.21 C54.3602285,8.34794904 54.4439721,8.47858905 54.54,8.6 C54.5659639,8.6619346 54.5960307,8.72206812 54.63,8.78 C54.63,8.78 54.43,8.19 54.49,8.45 C54.55,8.71 54.59,8.72 54.63,8.86 C54.67,9 54.74,9.49 54.63,8.99 C54.52,8.49 54.63,9.08 54.63,9.2 C54.63,9.32 54.63,9.49 54.63,9.64 C54.63,10.1 54.77,9.03 54.63,9.48 C54.49,9.93 54.47,10.09 54.38,10.39 C54.29,10.69 54.53,10.06 54.51,10.08 C54.49,10.1 54.43,10.26 54.38,10.34 C54.3164435,10.4720805 54.2428965,10.5991163 54.16,10.72 C54.09,10.85 53.99,10.96 53.92,11.09 C53.85,11.22 54.31,10.63 54.12,10.82 L54,11 C53.9,11.11 53.8,11.21 53.69,11.31 L53.52,11.45 C53.52,11.45 54.02,11.1 53.78,11.25 C53.54,11.4 53.22,11.56 52.97,11.74 C52.97,11.74 53.54,11.53 53.28,11.6 L53.08,11.67 C52.95,11.72 52.81,11.75 52.68,11.79 C52.5443351,11.8358162 52.4030081,11.8627356 52.26,11.87 C52.26,11.87 52.92,11.87 52.62,11.81 L52.34,11.81 L51.92,11.81 C51.8,11.81 51.3,11.75 51.78,11.81 C52.26,11.87 51.78,11.81 51.64,11.81 L51.16,11.68 C51,11.68 50.85,11.57 50.69,11.52 C50.53,11.47 51,11.66 50.99,11.65 C50.9296568,11.6140563 50.8660381,11.5839211 50.8,11.56 C50.53,11.41 50.27,11.26 50.01,11.09 C49.75,10.92 50.41,11.46 50.09,11.15 C49.99,11.05 49.88,10.96 49.79,10.86 L49.5,10.55 C49.24,10.26 49.8,11.03 49.5,10.55 C49.43,10.43 49.35,10.31 49.28,10.18 C49.21,10.05 49.02,9.64 49.2,10.04 C49.38,10.44 49.2,9.98 49.2,9.88 C49.1506246,9.72249085 49.1105554,9.56221414 49.08,9.4 C49.08,9.33 49.08,9.26 49.08,9.19 C49.01,8.95 49.08,9.53 49.08,9.52 C49.0947407,9.38038802 49.0947407,9.23961198 49.08,9.1 C49.08,8.96 49.08,8.81 49.08,8.67 C49.08,8.53 49.14,8 49.08,8.44 C49.02,8.88 49.08,8.38 49.08,8.28 C49.08,8.18 49.16,7.96 49.21,7.8 C49.2785683,7.67537194 49.3258834,7.54018615 49.35,7.4 C49.35,7.4 49.13,7.86 49.25,7.65 C49.37,7.44 49.33,7.48 49.37,7.4 C49.51,7.14 49.67,6.92 49.82,6.68 C49.97,6.44 49.67,6.87 49.66,6.87 C49.65,6.87 49.77,6.74 49.8,6.71 L50.14,6.35 C50.25,6.24 50.38,6.14 50.5,6.02 C50.62,5.9 50.33,6.17 50.31,6.16 C50.3951882,6.11489197 50.4755971,6.06128601 50.55,6 C50.7,5.91 50.85,5.82 51.01,5.74 C51.17,5.66 51.2,5.62 51.24,5.63 C51.28,5.64 50.87,5.76 51.18,5.63 C51.49,5.5 51.55,5.51 51.74,5.47 L51.98,5.47 C52.27,5.4 51.98,5.41 51.91,5.47 C52.11,5.32 52.83,5.4 53.08,5.4 C53.33,5.4 53.52,5.4 53.74,5.4 L53.99,5.4 C54.27,5.4 53.74,5.35 53.99,5.4 C54.3810779,5.46986824 54.7682655,5.55998949 55.15,5.67 C55.5,5.77 55.99,5.87 56.15,5.93 C56.5409547,6.1030964 56.915761,6.31057842 57.27,6.55 C57.7658632,6.78543403 58.358586,6.64784868 58.7000336,6.2180545 C59.0414812,5.78826033 59.0414673,5.17977853 58.7,4.75 L58.7,4.75 Z" id="Path" fill="#FFFFFF"></path>
                <path d="M51.13,7.24 C51.13,7.38 51.13,7.34 51.13,7.13 C51.1352804,7.18320263 51.1352804,7.23679737 51.13,7.29 C51.1349789,7.36992253 51.1349789,7.45007747 51.13,7.53 C51.134953,7.62326762 51.134953,7.71673238 51.13,7.81 C51.13,7.93 51.13,7.87 51.13,7.63 L51.13,7.78 C51.1112982,7.86127873 51.0879261,7.94141168 51.06,8.02 C51.0642691,8.06990887 51.0642691,8.12009113 51.06,8.17 C51.06,8.33 51.06,8.28 51.13,8.01 C51.02,8.14 50.94,8.35 50.83,8.49 L51,8.13 C50.8901816,8.27828243 50.7662707,8.41558909 50.63,8.54 L51.02,8.24 L50.82,8.34 L51.3,8.14 L51.1,8.2 C50.7264569,8.32858389 50.3852708,8.53670739 50.1,8.81 L53.47,9.24 L53.47,9.17 L53.69,9.69 C53.6541122,9.59611691 53.6273226,9.49900455 53.61,9.4 L53.69,9.97 C53.6699861,9.84412391 53.6699861,9.71587609 53.69,9.59 L53.61,10.18 C53.6293973,10.0803563 53.6595748,9.98311782 53.7,9.89 L53.47,10.42 C53.5139992,10.3267947 53.5641083,10.2365983 53.62,10.15 L53.27,10.61 L53.43,10.44 L49.88,10 C49.9819058,10.1841286 50.0720852,10.3745073 50.15,10.57 L49.92,10 C50.0577206,10.319281 50.1518972,10.655626 50.2,11 L50.12,10.38 C50.1500156,10.5989762 50.1500156,10.8210238 50.12,11.04 L50.21,10.42 C50.1933876,10.5440291 50.1597368,10.6651721 50.11,10.78 L50.35,10.23 L50.23,10.44 L50.59,9.97 L50.42,10.14 L50.89,9.77 C50.836767,9.80885375 50.7798234,9.84234996 50.72,9.87 L51.28,9.63 C51.1941845,9.66722262 51.1030908,9.69083951 51.01,9.7 L51.64,9.62 L51.42,9.62 L52.05,9.71 C51.9575075,9.69260981 51.8670366,9.66580362 51.78,9.63 L52.35,9.87 C52.2646798,9.83311748 52.184102,9.78611372 52.11,9.73 L52.59,10.1 C52.494343,10.0260892 52.4101042,9.9384808 52.34,9.84 L52.71,10.32 C52.6386775,10.2182838 52.5751625,10.1113111 52.52,10 L52.76,10.57 C52.7081745,10.4309774 52.6713,10.2868315 52.65,10.14 L52.73,10.78 C52.7200164,10.6435157 52.7200164,10.5064843 52.73,10.37 L52.65,11.01 C52.6826662,10.7726355 52.7465524,10.5406277 52.84,10.32 L52.6,10.89 C52.779139,10.4992656 52.9968882,10.127417 53.25,9.78 L48.81,8.59 L48.81,8.85 L48.9,8.22 C48.8289148,8.88769306 48.6709113,9.54323939 48.43,10.17 L48.68,9.6 C48.5454973,9.91251921 48.3742943,10.2079282 48.17,10.48 L48.55,9.99 C48.4220775,10.1479575 48.2779575,10.2920775 48.12,10.42 L48.61,10.04 C48.449733,10.161109 48.2750671,10.2618778 48.09,10.34 L48.68,10.09 C48.4723777,10.1788547 48.2537534,10.2393968 48.03,10.27 L48.68,10.18 C48.4838412,10.1999885 48.2861588,10.1999885 48.09,10.18 L48.75,10.26 C48.6064231,10.2386828 48.4655936,10.2017989 48.33,10.15 L48.92,10.4 C48.7673275,10.3380187 48.6228996,10.2574078 48.49,10.16 L49,10.55 C48.9004725,10.473805 48.8098952,10.3865824 48.73,10.29 L49.12,10.79 C49.0433052,10.6846679 48.9795166,10.5705199 48.93,10.45 L49.18,11.04 C49.131514,10.914363 49.0979508,10.7834665 49.08,10.65 L49.16,11.3 C49.16,10.88 49.07,10.46 49,10.05 L49.09,10.66 C49.0851746,10.6034361 49.0851746,10.5465639 49.09,10.49 L49.02,11.09 C49.0722168,10.8331464 49.1492447,10.5819684 49.25,10.34 L49.03,10.85 C49.2204683,10.4408618 49.4410757,10.0464425 49.69,9.67 C49.9492817,9.22967998 50.0213164,8.70382661 49.89,8.21 C49.7763266,7.80981109 49.5337899,7.45830853 49.2,7.21 C48.8615635,6.93588349 48.4352191,6.79376871 48,6.81 C47.5000418,6.83217857 47.0231161,7.02648162 46.65,7.36 C46.3444657,7.60563576 46.0570528,7.87299657 45.79,8.16 C45.4502763,8.56906097 45.1331377,8.99636346 44.84,9.44 L45.19,9 C44.8030979,9.40353862 44.5184903,9.89388673 44.36,10.43 C44.2263077,11.0158023 44.2263077,11.6241977 44.36,12.21 C44.5353252,12.9466446 44.9250756,13.6147883 45.48,14.13 C46.1828969,14.7320006 47.0657021,15.0837158 47.99,15.13 C48.5398228,15.1984734 49.0978314,15.154241 49.63,15 C50.9348324,14.5984099 52.0187062,13.6807301 52.63,12.46 C53.0877218,11.453176 53.3814328,10.3796116 53.5,9.28 C53.5939081,8.95328072 53.5939081,8.60671928 53.5,8.28 C53.4914957,7.96302587 53.3945093,7.65474784 53.22,7.39 C52.958063,6.94222017 52.5580894,6.59136615 52.08,6.39 C51.5929231,6.17130432 51.0449336,6.12887933 50.53,6.27 C49.9464883,6.4612856 49.4456113,6.84576157 49.11,7.36 C48.3990097,8.27885578 47.980891,9.39035452 47.91,10.55 C47.9112467,11.2525196 48.097493,11.9423207 48.45,12.55 C48.7887677,13.1307794 49.2797805,13.6079609 49.87,13.93 C51.1831533,14.6615333 52.8239758,14.4195119 53.87,13.34 C54.6151222,12.4801482 54.9345252,11.3310317 54.74,10.21 C54.6887886,9.79611337 54.5880678,9.38987265 54.44,9 C54.2811613,8.52572649 54.0591656,8.07500799 53.78,7.66 C53.5874453,7.34296242 53.3194957,7.07844802 53,6.89 C52.746559,6.73208681 52.4579853,6.63933098 52.16,6.62 C51.4633921,6.50361289 50.753884,6.73513659 50.26,7.24 C49.9889,7.53664395 49.7661752,7.87410573 49.6,8.24 C49.154748,9.25382874 49.2408943,10.422422 49.83,11.36 C50.1765336,11.9122623 50.7530143,12.2794474 51.4,12.36 C52.0609985,12.4779494 52.7370762,12.2563462 53.2,11.77 C53.4081199,11.5502651 53.5772139,11.2966241 53.7,11.02 C53.8043815,10.7336034 53.8683302,10.4340542 53.89,10.13 L53.81,10.69 C53.8506027,10.4615076 53.8806347,10.2312625 53.9,10 L53.83,10.51 C53.9268264,10.1141286 54.0035909,9.71361808 54.06,9.31 C54.0849567,9.03389614 54.0849567,8.75610386 54.06,8.48 C54.0314787,7.71407522 53.8188092,6.96630162 53.44,6.3 C53.1146594,5.74756647 52.4308026,5.52103891 51.84,5.77 C51.2525894,6.02521019 50.9385701,6.67022275 51.1,7.29 L51.13,7.24 Z" id="Path" fill="#FFFFFF"></path>
                <path d="M84.68,46.59 C84.249066,46.3130629 83.7413697,46.1800115 83.23,46.21 C82.7009997,46.2575516 82.1855139,46.4033799 81.71,46.64 C80.9927432,47.0088819 80.3985218,47.5787785 80,48.28 C79.0456867,49.8101099 79.2648468,51.7949561 80.53,53.08 C81.6819795,54.1419742 83.3067212,54.5215868 84.81,54.08 C85.5558242,53.8750154 86.22622,53.458189 86.74,52.88 C87.3310468,52.2293246 87.6836282,51.3972326 87.74,50.52 C87.7599739,50.3606234 87.7599739,50.1993766 87.74,50.04 C87.7092428,49.4035919 87.5202015,48.7849113 87.19,48.24 C86.8491241,47.7070383 86.3682627,47.2780684 85.8,47 C85.2467779,46.7057317 84.6263274,46.5609599 84,46.58 C83.2156596,46.5964953 82.4689862,46.9195751 81.92,47.48 C81.5664147,47.850006 81.3632214,48.3383828 81.35,48.85 C81.3692177,49.2689354 81.5196411,49.6712304 81.78,50 C82.0272673,50.3369716 82.3787472,50.5830076 82.78,50.7 C83.2845516,50.8148074 83.8135832,50.7437965 84.27,50.5 L84.41,50.44 L83.94,50.63 L84.6,50.36 L84.13,50.56 C84.2552722,50.5082694 84.3861596,50.4713525 84.52,50.45 L84,50.53 C84.1392882,50.5100341 84.2807118,50.5100341 84.42,50.53 L83.89,50.46 C84.0270901,50.4813012 84.161295,50.5182076 84.29,50.57 L83.82,50.37 C83.9352896,50.4175332 84.0430777,50.4815324 84.14,50.56 L83.74,50.25 C83.8406764,50.3356895 83.9343105,50.4293236 84.02,50.53 L83.71,50.13 C83.7863387,50.2443657 83.8532269,50.3647645 83.91,50.49 L83.71,50.02 C83.7763291,50.1805253 83.823326,50.3483713 83.85,50.52 L83.79,50 C83.8099794,50.1794456 83.8099794,50.3605544 83.79,50.54 L83.86,50.02 C83.828831,50.214463 83.7785886,50.4053842 83.71,50.59 L83.91,50.12 C83.841307,50.2765703 83.7540121,50.4243001 83.65,50.56 L83.95,50.17 C83.848599,50.2980568 83.7309416,50.4123526 83.6,50.51 L83.99,50.21 C83.8389223,50.331344 83.6703458,50.4291183 83.49,50.5 L83.95,50.31 C83.7393715,50.400201 83.5172589,50.4607772 83.29,50.49 L83.8,50.42 C83.5415385,50.46 83.2784615,50.46 83.02,50.42 L83.52,50.49 C83.2962466,50.4593968 83.0776223,50.3988547 82.87,50.31 L83.31,50.5 C83.1491239,50.4235158 82.9952098,50.3331749 82.85,50.23 L83.23,50.52 C83.0987945,50.4188393 82.9811607,50.3012055 82.88,50.17 L83.17,50.55 C83.0732488,50.423854 82.9926253,50.2861222 82.93,50.14 L83.11,50.58 C83.0469447,50.4225467 83.0032903,50.2580032 82.98,50.09 L83.04,50.57 C83.0051848,50.3821201 82.9917659,50.1909009 83,50 L82.94,50.48 C82.9718709,50.26084 83.0289146,50.0460874 83.11,49.84 L82.93,50.27 C83.0279236,50.0491915 83.1521565,49.8410176 83.3,49.65 L83.02,50.01 C83.1776589,49.8055911 83.3627329,49.6238821 83.57,49.47 L83.21,49.74 C83.375147,49.6208922 83.5528799,49.5202886 83.74,49.44 L83.33,49.61 C83.4835759,49.5457145 83.6449726,49.5020029 83.81,49.48 L83.36,49.54 C83.5833347,49.5212238 83.8043495,49.4810393 84.02,49.42 L84.28,49.35 C84.5477583,49.3021906 84.797002,49.1810305 85,49 C85.2347361,48.7620752 85.3826611,48.4521371 85.42,48.12 C85.5129095,47.5086353 85.2236652,46.9024108 84.69,46.59 L84.68,46.59 Z" id="Path" fill="#FFFFFF"></path>
                <path d="M36,5.43 C35.5710954,5.12792334 35.054086,4.97668929 34.53,5 C33.9946874,5.05763018 33.475348,5.2171658 33,5.47 C32.2830822,5.83935683 31.6889821,6.40913702 31.29,7.11 C30.3356867,8.64010995 30.5548468,10.6249561 31.82,11.91 C32.9729392,12.9701612 34.5966642,13.3495362 36.1,12.91 C36.8458481,12.699622 37.5156803,12.2796754 38.03,11.7 C38.3863564,11.2756149 38.6579368,10.7867702 38.83,10.26 C38.9232309,9.95781016 38.980296,9.64563024 39,9.33 C39.0199818,9.17397047 39.0199818,9.01602953 39,8.86 C38.97223,8.21852413 38.7793407,7.5950783 38.44,7.05 C37.7681913,5.9754739 36.5653789,5.35108406 35.3,5.42 C34.5205694,5.43643404 33.7781482,5.75563929 33.23,6.31 C32.8713561,6.67668168 32.6672977,7.1671378 32.66,7.68 C32.6700479,8.1081568 32.81727,8.52178088 33.08,8.86 C33.323879,9.19834556 33.6771241,9.44208469 34.08,9.55 C34.5878412,9.66457975 35.1199208,9.59363581 35.58,9.35 L35.71,9.29 L35.25,9.49 L35.91,9.21 L35.43,9.41 C35.5590629,9.36145553 35.6932765,9.32790213 35.83,9.31 L35.3,9.38 C35.4392882,9.36003413 35.5807118,9.36003413 35.72,9.38 L35.2,9.31 C35.3370901,9.3313012 35.471295,9.36820756 35.6,9.42 L35.13,9.22 C35.2441402,9.26980427 35.351634,9.33362871 35.45,9.41 L35.05,9.1 C35.150069,9.18677731 35.2405825,9.28399547 35.32,9.39 L35,9 C35.0817528,9.10919977 35.1521192,9.22647702 35.21,9.35 L35,8.87 C35.064349,9.03394025 35.1080188,9.20526012 35.13,9.38 L35.06,8.86 C35.0799857,9.03610144 35.0799857,9.21389856 35.06,9.39 L35.13,8.87 C35.1094855,9.06548493 35.0623841,9.25725497 34.99,9.44 L35.21,9 C35.1406409,9.15622798 35.0533909,9.30388171 34.95,9.44 L35.26,9 C35.1534128,9.12326765 35.0363047,9.23702978 34.91,9.34 L35.3,9.04 C35.1427288,9.15202762 34.9753347,9.24911621 34.8,9.33 L35.25,9.13 C35.0423777,9.21885469 34.8237534,9.27939681 34.6,9.31 L35.1,9.25 C34.8442074,9.27995564 34.5857926,9.27995564 34.33,9.25 L34.83,9.31 C34.6059671,9.28076467 34.3871582,9.22017144 34.18,9.13 L34.62,9.32 C34.4559592,9.2496299 34.3014144,9.15891885 34.16,9.05 L34.54,9.34 C34.4090584,9.24235264 34.291401,9.12805683 34.19,9 L34.48,9.37 C34.3841818,9.25767931 34.303495,9.13328707 34.24,9 L34.42,9.44 C34.3522761,9.28413207 34.3084498,9.11894063 34.29,8.95 L34.35,9.43 C34.3300133,9.2472114 34.3300133,9.0627886 34.35,8.88 L34.29,9.36 C34.3158918,9.14288193 34.3731553,8.93067046 34.46,8.73 L34.28,9.15 C34.378207,8.93142491 34.4988545,8.7236431 34.64,8.53 L34.37,8.89 C34.529462,8.69057128 34.7105713,8.50946202 34.91,8.35 L34.56,8.62 C34.7216426,8.50098104 34.8960537,8.40035922 35.08,8.32 L34.67,8.49 C34.8289302,8.43150699 34.9929758,8.38798468 35.16,8.36 L34.71,8.42 C34.9330933,8.39943159 35.1539446,8.3592768 35.37,8.3 L35.62,8.23 C35.8787702,8.16637935 36.1144169,8.031229 36.3,7.84 C36.5268889,7.61259532 36.6742096,7.31795395 36.72,7 C36.8265862,6.37828222 36.5406931,5.75487632 36,5.43 Z" id="Path" fill="#FFFFFF"></path>
                <path d="M10.9,10 C8.54790705,8.03783132 5.17425591,7.8904388 2.66,9.64 C-0.0518982418,11.7314803 -0.792155315,15.5097867 0.93,18.47 C1.76941227,19.9373294 3.1766537,20.9936649 4.82,21.39 C6.50646205,21.739261 8.26264048,21.4316616 9.73,20.53 C11.2048942,19.6597941 12.2435903,18.2070723 12.59,16.53 C12.7747718,15.610902 12.7161694,14.6594748 12.42,13.77 C12.1185061,12.906742 11.634131,12.1187798 11,11.46 C9.73899239,10.1373428 7.97678065,9.41065757 6.15,9.46 C4.9285565,9.49970855 3.76159995,9.97500392 2.86,10.8 C1.79315722,11.8133918 1.64338923,13.4608397 2.51,14.65 C2.98717912,15.2734417 3.72493916,15.6423217 4.51,15.65 C5.18187059,15.6301176 5.82279005,15.3630679 6.31,14.9 C6.75655699,14.4720409 7.00628514,13.8784841 7,13.26 C6.96864479,12.6514076 6.72849307,12.0722182 6.32,11.62 L6.63,12.01 L6.88,12.59 L6.88,13.84 L7,13.6 L6.75,14.21 L6.75,14.11 L6.35,14.63 C6.39922121,14.5692715 6.45640255,14.5154538 6.52,14.47 L6,14.88 C6.25411359,14.6888727 6.5252537,14.5215023 6.81,14.38 L6.2,14.64 C6.42103037,14.5497579 6.65305345,14.4892301 6.89,14.46 L6.22,14.55 C6.52201816,14.5100533 6.82798184,14.5100533 7.13,14.55 L6.46,14.46 C6.80305477,14.5090871 7.13885815,14.599754 7.46,14.73 L6.87,14.48 C7.07582526,14.5678986 7.27618593,14.668079 7.47,14.78 C7.94,15.08 7.07,14.43 7.36,14.69 L7.6,14.91 L7.82,15.15 C8.09,15.44 7.46,14.59 7.7,15 C7.82563187,15.1944801 7.93596387,15.3984271 8.03,15.61 L7.78,15 C7.86778017,15.2328737 7.93144657,15.4741359 7.97,15.72 L7.88,15.08 C7.90476165,15.3360695 7.90476165,15.5939305 7.88,15.85 L8,15.24 C7.9621277,15.5281071 7.88821581,15.8103162 7.78,16.08 L8,15.51 C7.93755331,15.6732341 7.86057766,15.8305321 7.77,15.98 L7.64,16.18 C7.44,16.51 8.04,15.72 7.78,16.01 C7.67,16.13 7.56,16.25 7.44,16.36 L7.22,16.55 C6.95,16.79 7.66,16.25 7.43,16.39 L7,16.66 C6.78,16.78 6.22,16.93 7,16.66 C6.67456212,16.7770393 6.34011993,16.8673387 6,16.93 L6.61,16.85 C6.25508114,16.8999353 5.89491886,16.8999353 5.54,16.85 L6.15,16.93 C5.92254655,16.8956958 5.69841067,16.8421708 5.48,16.77 C5.15,16.68 5.78,16.87 5.75,16.89 C5.68840428,16.8670791 5.62828895,16.8403612 5.57,16.81 L5.22,16.61 C5.22,16.61 5,16.55 5,16.54 C5,16.53 5.41,16.88 5.26,16.74 L5,16.51 L4.73,16.22 C4.67,16.16 4.55,16 4.73,16.29 C4.91,16.58 4.73,16.35 4.73,16.29 C4.73,16.23 4.49,15.89 4.38,15.68 C4.27,15.47 4.21,15.11 4.38,15.75 C4.38,15.62 4.28,15.5 4.25,15.37 C4.22,15.24 4.13,14.92 4.08,14.69 C4.03,14.46 4.08,14.96 4.08,14.95 C4.07056329,14.8836673 4.07056329,14.8163327 4.08,14.75 C4.08,14.61 4.08,14.48 4.08,14.35 C4.08,14.22 4.08,14.11 4.08,14 C4.08,13.54 3.99,14.41 4.08,14.09 C4.17,13.77 4.21,13.58 4.29,13.32 C4.37,13.06 4.07,13.74 4.29,13.32 C4.3389025,13.2125948 4.39572591,13.1089756 4.46,13.01 C4.52,12.9 4.64,12.78 4.69,12.67 C4.74,12.56 4.41,12.98 4.55,12.85 L4.72,12.66 C4.87385209,12.4778936 5.04097554,12.3074276 5.22,12.15 L5.38,12.02 C5.38,12.02 5.02,12.27 5.27,12.11 L5.61,11.89 L6,11.75 L6.19,11.67 C6.34,11.58 6.04,11.73 6.03,11.73 C6.1653079,11.6997049 6.29631612,11.6526763 6.42,11.59 L6.82,11.48 C6.95369976,11.4399009 7.09103294,11.4131042 7.23,11.4 L7.13,11.4 L7.39,11.4 C7.67784181,11.349965 7.97215819,11.349965 8.26,11.4 C8.26,11.4 7.99,11.34 8.15,11.4 L8.41,11.45 L8.8,11.55 L9,11.62 C9.22,11.69 8.9,11.55 9,11.62 C9.1,11.69 9.28,11.76 9.41,11.84 C9.93632549,12.1633653 10.6217242,12.0383554 11,11.55 C11.3549292,11.0798067 11.3124054,10.4206878 10.9,10 Z" id="Path" fill="#FFFFFF"></path>
                <path d="M5.69,15 C5.59960618,15.1648279 5.49592969,15.3220149 5.38,15.47 L5.57,15.23 L5.52,15.3 L5.76,15.11 C5.65907787,15.1796845 5.55195997,15.2399383 5.44,15.29 L5.77,15.15 L5.59,15.21 L6,15.17 L5.85,15.17 L6.26,15.23 C6.20011022,15.2206861 6.14246818,15.2003418 6.09,15.17 L6.49,15.34 L5.87,15.09 L6.29,15.27 L6.11,15.16 L6.49,15.45 L6.36,15.33 L6.66,15.72 C6.54,15.55 6.41,15.39 6.28,15.23 L6.59,15.63 L6.51,15.51 L6.72,15.98 C6.68951413,15.9169395 6.66926072,15.8494281 6.66,15.78 L6.45,17.33 C6.47332542,17.291016 6.50009928,17.254202 6.53,17.22 L6.21,17.63 C6.26157546,17.5684611 6.3184611,17.5115755 6.38,17.46 L6,17.77 C6.0705798,17.7166853 6.14792128,17.6729705 6.23,17.64 L5.75,17.84 C5.83039645,17.8049023 5.91416332,17.7780969 6,17.76 L5.47,17.83 C5.55637799,17.8199963 5.64362201,17.8199963 5.73,17.83 L5.2,17.76 C5.26890203,17.7659212 5.33641767,17.7828001 5.4,17.81 C5.65939935,17.8743723 5.93060065,17.8743723 6.19,17.81 C6.45249885,17.791293 6.7064885,17.708918 6.93,17.57 L7.33,17.26 C7.52267323,17.0882183 7.66449289,16.8668413 7.74,16.62 C7.82987659,16.4685672 7.87817126,16.2960862 7.88,16.12 C7.95472581,15.8619679 7.95472581,15.5880321 7.88,15.33 L7.68,14.85 C7.50755921,14.5568085 7.26319145,14.3124408 6.97,14.14 C6.77102619,14.0464025 6.56743107,13.9629618 6.36,13.89 L6.23,13.89 C6.03223824,13.8486218 5.8316945,13.8218827 5.63,13.81 L5.46,13.81 C5.22752782,13.8231868 4.99665103,13.8566472 4.77,13.91 L4.61,14 C4.39463737,14.0727403 4.18696718,14.1665269 3.99,14.28 C3.96296851,14.2907642 3.9389493,14.3079208 3.92,14.33 C3.76069141,14.4385975 3.6071499,14.5554225 3.46,14.68 C3.41160155,14.7216936 3.36799924,14.76865 3.33,14.82 C3.20876016,14.9638592 3.09526617,15.1140718 2.99,15.27 L2.99,15.27 L2.78,15.75 L2.78,16.02 C2.73233122,16.1934511 2.73233122,16.3765489 2.78,16.55 C2.7703492,16.6631279 2.7703492,16.7768721 2.78,16.89 C2.78,16.97 2.87,17.1 2.88,17.15 C2.91532124,17.2420075 2.95537468,17.3321277 3,17.42 C3.05083567,17.5003764 3.11128166,17.5742549 3.18,17.64 C3.22827854,17.7168796 3.28173549,17.7903829 3.34,17.86 L3.34,17.91 C3.41502876,17.9793714 3.4952637,18.0428907 3.58,18.1 L3.84,18.3 C4.01640653,18.4090709 4.20870519,18.4900388 4.41,18.54 C4.59519991,18.5738578 4.78216432,18.5972284 4.97,18.61 L5.1,18.61 C5.30511893,18.5993964 5.50908348,18.572647 5.71,18.53 L5.87,18.53 L5.94,18.53 C6.10101317,18.4701642 6.25800485,18.400019 6.41,18.32 C6.41,18.32 6.73,18.08 6.77,18.05 L6.77,18.05 L6.77,18.05 C7.06451365,17.7615789 7.27532435,17.398708 7.38,17 L7.24,17.35 C7.33872408,17.1614796 7.41909385,16.9639039 7.48,16.76 C7.52462677,16.5590949 7.5547048,16.3552327 7.57,16.15 L7.57,16.47 C7.64684005,16.1640288 7.70362743,15.8533685 7.74,15.54 L7.74,15.25 C7.70964755,15.1152979 7.6440814,14.9910673 7.55,14.89 C7.41483748,14.6983585 7.21662178,14.5603154 6.99,14.5 C6.51792095,14.3842842 6.02509052,14.5862638 5.77,15 L5.69,15 Z" id="Path" fill="#FFFFFF"></path>
                <path d="M14.22,48.84 C11.52,47.61 8.22,46.32 5.41,48.09 C3.09919088,49.5968365 2.08989595,52.468814 2.95,55.09 C4.04535132,57.8016482 6.9749329,59.2877916 9.81,58.57 C11.265538,58.2092446 12.5017712,57.2520279 13.2154433,55.933162 C13.9291154,54.614296 14.0541953,53.0558059 13.56,51.64 C12.8712477,49.8840494 11.2050723,48.7051517 9.32,48.64 C8.46609242,48.5970782 7.61726823,48.7945597 6.87,49.21 C6.38230819,49.4926825 5.97852175,49.8999201 5.7,50.39 C5.28047847,51.120735 5.28047847,52.019265 5.7,52.75 C6.02214796,53.3166691 6.62827088,53.661929 7.28,53.65 C7.73419198,53.6510938 8.18132053,53.5375919 8.58,53.32 L9,53.08 L9.24,52.91 C9.46,52.78 9.59,52.91 9.08,52.96 L9.37,52.88 C9.62,52.81 9.71,52.88 9.2,52.88 C9.29,52.88 9.4,52.88 9.5,52.88 C9.6,52.88 9.9,53 9.35,52.88 C9.50923031,52.9352047 9.67327953,52.9753801 9.84,53 C9.45,53 9.46,52.82 9.71,53 C9.96,53.18 9.82,53.21 9.63,52.91 C9.69302896,52.9929605 9.76703946,53.066971 9.85,53.13 C9.67,52.88 9.62,52.82 9.71,52.95 L9.8,53.1 L9.86,53.2 C9.95,53.39 9.93,53.33 9.79,53.03 C9.81409753,53.1425897 9.84754688,53.2529726 9.89,53.36 L9.89,53.47 C9.89,53.68 9.89,53.62 9.89,53.28 C9.88005193,53.356344 9.88005193,53.433656 9.89,53.51 C9.88030716,53.6264653 9.88030716,53.7435347 9.89,53.86 L9.94,53.56 C9.94,53.64 9.94,53.72 9.89,53.79 C9.8659385,53.9048226 9.8358976,54.0183105 9.8,54.13 C9.71,54.49 10.01,53.75 9.8,54.13 L9.63,54.44 L9.56,54.53 C9.44,54.7 9.47,54.66 9.66,54.42 C9.50975176,54.5275793 9.37513789,54.6554625 9.26,54.8 C9.5,54.48 9.54,54.6 9.32,54.74 L9,54.77 C8.67,54.96 9.45,54.62 9.09,54.77 C8.99,54.77 8.89,54.84 8.79,54.86 L8.48,54.93 C8.1,55.02 8.98,54.93 8.58,54.93 C8.41,54.93 8.23,54.93 8.06,54.93 L7.74,54.93 C8.28,54.93 8.02,54.93 7.83,54.93 C7.64,54.93 7.42,54.77 7.23,54.75 C7.61,54.75 7.52,54.88 7.3,54.75 L7.02,54.6 C6.95070122,54.544325 6.87714231,54.4941712 6.8,54.45 C6.59,54.34 7.16,54.78 6.9,54.52 C6.7759371,54.3397289 6.6424169,54.1661526 6.5,54 C6.8,54.22 6.68,54.27 6.58,54.08 L6.39,53.75 C6.2,53.42 6.52,54.17 6.39,53.75 C6.39,53.64 6.32,53.54 6.3,53.44 C6.28,53.34 6.3,53.3 6.25,53.23 C6.15,52.85 6.25,53.68 6.25,53.29 C6.23499978,53.073593 6.23499978,52.856407 6.25,52.64 C6.25,52.58 6.25,52.48 6.25,52.42 C6.25,52.72 6.25,52.77 6.25,52.58 C6.25,52.39 6.25,52.43 6.3,52.36 C6.35,52.29 6.52,51.87 6.5,51.74 C6.5,51.89 6.34,52.06 6.5,51.86 L6.65,51.57 L6.83,51.29 C7.02,50.97 6.56,51.57 6.83,51.29 C7.1,51.01 7.13,50.97 7.29,50.83 C7.45,50.69 6.97,51.01 7.29,50.83 L7.64,50.63 C7.72,50.63 8.01,50.48 7.7,50.63 C7.87332461,50.5661653 8.05030622,50.5127369 8.23,50.47 L8.64,50.38 C8.27,50.45 8.71,50.38 8.77,50.38 C9.10302443,50.3597055 9.43697557,50.3597055 9.77,50.38 L10.21,50.38 C9.93,50.38 10.32,50.38 10.38,50.38 C10.73,50.44 11.06,50.52 11.38,50.61 C12,50.78 12.61,50.98 13.21,51.18 C13.8510744,51.3291515 14.505558,50.9906298 14.7542885,50.3812402 C15.0030189,49.7718506 14.7723445,49.0720398 14.21,48.73 L14.22,48.84 Z" id="Path" fill="#FFFFFF"></path>
                <path d="M7.18,52.36 C6.96477836,52.5018164 6.78375068,52.6896753 6.65,52.91 L6.83,52.68 C6.7331407,52.7994321 6.62235513,52.9068605 6.5,53 L6.75,52.82 C6.6245067,52.906764 6.49047752,52.98048 6.35,53.04 L6.66,52.92 L6.37,53 L6.72,53 L6.72,53 L7,53 C6.79085685,52.9301543 6.56839481,52.9096194 6.35,52.94 L7.6,55.07 C7.98,54.52 8.3,53.95 8.6,53.38 C8.9,52.81 9.23,52.21 9.6,51.66 L9.38,52 L9.47,51.9 L6.85,50.34 C6.74359348,50.6930464 6.71627938,51.0652011 6.77,51.43 L6.82,52.17 C6.81972905,52.8657361 7.33388538,53.4545087 8.02331836,53.5479483 C8.71275134,53.6413879 9.36507499,53.2107097 9.55,52.54 L9.76,51.8 L9.86,51.46 C9.92473581,51.2803246 9.95854804,51.0909761 9.96,50.9 C9.96,50.72 9.91,50.53 9.88,50.34 L9.72,50 C9.62730047,49.8177861 9.48522517,49.665315 9.31,49.56 C9.03278403,49.3223016 8.67465107,49.2005364 8.31,49.22 C7.60909234,49.231161 6.99706641,49.6972735 6.8,50.37 L6.8,50.51 L7,50.11 C6.72,50.71 6.38,51.28 6.06,51.86 C5.74,52.44 5.41,53 5.14,53.63 C5.02689446,53.8540273 4.96216061,54.0993345 4.94999969,54.35 C4.94978942,54.6623573 5.05555308,54.9655465 5.25,55.21 C5.60314379,55.6644982 6.19300901,55.8650524 6.75,55.72 C7.18532133,55.6249698 7.56800018,55.3674663 7.82,55 L7.61,55.27 L7.61,55.27 L7.35,55.47 C7.74707191,55.2407926 8.08855505,54.9266281 8.35,54.55 C8.72408461,54.1271172 8.87940958,53.5538941 8.77,53 C8.67548561,52.6795355 8.44044368,52.4193973 8.13117683,52.2929674 C7.82190998,52.1665376 7.47194391,52.1875216 7.18,52.35 L7.18,52.36 Z" id="Path" fill="#FFFFFF"></path>
                <path d="M66.28,52.7 L66.36,52.83 C66.4133333,52.9366667 66.4133333,52.9166667 66.36,52.77 C66.3645296,52.8332523 66.3645296,52.8967477 66.36,52.96 C66.36,52.77 66.36,52.74 66.36,52.86 C66.3649577,52.9031915 66.3649577,52.9468085 66.36,52.99 C66.36,52.89 66.42,52.7 66.36,52.93 C66.3,53.16 66.47,52.75 66.36,52.93 C66.3305174,52.9920599 66.2971167,53.0521813 66.26,53.11 C66.26,53.11 66.04,53.42 66.2,53.21 C66.36,53 66.2,53.21 66.11,53.29 C66.02,53.37 66,53.4 65.95,53.45 C65.65,53.72 66.15,53.31 65.95,53.45 C65.75,53.59 65.64,53.67 65.48,53.76 L65.27,53.88 C65.01,54.01 65.69,53.73 65.27,53.88 C65.0987999,53.9431776 64.9210031,53.9867882 64.74,54.01 L65.2,53.95 C64.752004,54.0100596 64.297996,54.0100596 63.85,53.95 L64.35,54.02 C63.9078184,53.9540576 63.4748735,53.836592 63.06,53.67 L63.53,53.86 C63.2778053,53.7563287 63.0393427,53.6219836 62.82,53.46 L63.22,53.77 C63.0274702,53.6207468 62.8529631,53.4495957 62.7,53.26 L63.01,53.67 C62.8893429,53.511154 62.7854557,53.3402429 62.7,53.16 L62.91,53.65 C62.8310157,53.4577366 62.7772361,53.2560629 62.75,53.05 L62.82,53.6 C62.7900427,53.3709755 62.7900427,53.1390245 62.82,52.91 L62.75,53.46 C62.7837691,53.2099158 62.8475626,52.9648144 62.94,52.73 L62.73,53.23 C62.8103592,53.0460537 62.910981,52.8716426 63.03,52.71 L62.7,53.14 C62.8078837,53.0021285 62.9321285,52.8778837 63.07,52.77 L62.64,53.1 C62.7518091,53.0195527 62.8726267,52.9524318 63,52.9 L62.49,53.11 C62.6344465,53.0515033 62.7856061,53.0111941 62.94,52.99 L62.38,53.07 C62.5226372,53.0500217 62.6673628,53.0500217 62.81,53.07 L62.22,53 C62.4163663,53.0272874 62.608118,53.0811124 62.79,53.16 L62.28,52.95 C62.4653889,53.0316202 62.6400337,53.1357354 62.8,53.26 L62.37,52.92 C62.5788815,53.0905779 62.766854,53.2852637 62.93,53.5 L62.59,53.06 C62.7416371,53.268218 62.8691217,53.4929934 62.97,53.73 L62.75,53.21 C62.8668017,53.461548 62.950822,53.7270521 63,54 L62.92,53.42 C62.960019,53.7253611 62.960019,54.0346389 62.92,54.34 L62.99,53.75 C62.952032,54.0251534 62.8780653,54.2941233 62.77,54.55 L63,54 C62.9117944,54.198681 62.8010694,54.386578 62.67,54.56 L63.02,54.12 C62.9242315,54.2275321 62.8206135,54.3278076 62.71,54.42 L63.16,54.07 C63.0228803,54.1718921 62.8753981,54.2590406 62.72,54.33 L63.26,54.1 C63.1303333,54.1608879 62.9920337,54.2013659 62.85,54.22 L63.46,54.14 C63.3274176,54.1600126 63.1925824,54.1600126 63.06,54.14 L63.67,54.23 C63.5127522,54.2019537 63.3586673,54.158408 63.21,54.1 L63.77,54.34 C63.5333028,54.2425889 63.3085114,54.1184504 63.1,53.97 L63.57,54.33 C63.4277811,54.2128218 63.2971782,54.0822189 63.18,53.94 L63.54,54.41 C63.450551,54.2825687 63.3703457,54.1488932 63.3,54.01 L63.54,54.56 C63.4803476,54.4228914 63.4399642,54.2781844 63.42,54.13 L63.5,54.75 C63.489966,54.6469103 63.489966,54.5430897 63.5,54.44 L63.42,55.05 C63.4360335,54.9442106 63.4628396,54.8403373 63.5,54.74 L63.27,55.29 C63.3068825,55.2046798 63.3538863,55.124102 63.41,55.05 C63.8354321,54.3387638 63.8354321,53.4512362 63.41,52.74 C63.3744223,52.7127378 63.3496282,52.6737755 63.34,52.63 L63.57,53.17 L63.57,53.11 L63.65,53.72 C63.6450365,53.6734653 63.6450365,53.6265347 63.65,53.58 L63.56,54.19 L63.56,54.13 L63.33,54.67 C63.35765,54.6101766 63.3911462,54.553233 63.43,54.5 L63,55 L63.05,54.95 L62.59,55.3 L62.65,55.3 L62.11,55.53 C62.152344,55.5169047 62.197656,55.5169047 62.24,55.53 L61.65,55.61 L61.72,55.61 L61.12,55.53 L61.19,55.53 L60.66,55.31 L60.73,55.31 L60.28,54.96 L60.38,55.06 L60.04,54.62 C60.0669957,54.6577482 60.0904295,54.6979204 60.11,54.74 L59.89,54.22 L59.89,54.29 L59.81,53.72 L59.81,53.79 L59.89,53.21 L59.89,53.28 C59.6154033,54.3224936 60.1477614,55.4085041 61.14,55.83 C62.132988,56.2496878 63.283269,55.8691116 63.83,54.94 C64.0575212,54.5448577 64.1749311,54.0959376 64.17,53.64 C64.157133,53.1794185 64.0299882,52.7292571 63.8,52.33 C63.3207263,51.5406063 62.4573884,51.066125 61.5340783,51.0846737 C60.6107681,51.1032223 59.7671831,51.6119945 59.32,52.42 C58.8349886,53.2475023 58.8349886,54.2724977 59.32,55.1 L59.32,52.77 C58.839909,53.6037265 58.7241754,54.5983125 59,55.52 C59.301995,56.7723209 60.1594627,57.8181146 61.3283139,58.3596823 C62.497165,58.90125 63.8493677,58.8792703 65,58.3 C65.6805035,57.9078477 66.2513691,57.3507378 66.66,56.68 C67.0641477,55.9898833 67.3068768,55.2172527 67.37,54.42 C67.5093197,52.923356 67.0161765,51.4366745 66.01,50.32 C65.3983422,49.6831217 64.623483,49.2265082 63.77,49 C62.8136375,48.7182876 61.7865431,48.8038788 60.89,49.24 C59.5696095,49.9540022 58.7224463,51.3102231 58.66,52.81 C58.5720761,54.1836729 59.1440403,55.5170181 60.2,56.4 C60.8031663,56.9063758 61.509616,57.2749582 62.27,57.48 C63.0628018,57.6730071 63.8873674,57.6968581 64.69,57.55 C66.1684816,57.3605412 67.4813598,56.5110318 68.26,55.24 C68.6307073,54.6412511 68.8087222,53.9431534 68.77,53.24 C68.7204102,52.4511413 68.3064051,51.7303289 67.65,51.29 C67.2593035,51.059898 66.7626834,51.1214625 66.44,51.44 C66.11817,51.7602458 66.0524688,52.2571114 66.28,52.65 L66.28,52.7 Z" id="Path" fill="#FFFFFF"></path>
                <path d="M82,4.8 C81.3693383,2.71252648 79.6102856,1.1627003 77.46,0.8 C76.2568742,0.544321124 75.0020261,0.725104318 73.92,1.31 C73.0402992,1.84841211 72.3433166,2.63948733 71.92,3.58 C70.7197316,5.90640277 71.3359846,8.75709682 73.39,10.38 C75.39,11.87 78.24,11.24 80.02,9.68 C80.9783491,8.81474617 81.5598496,7.60867106 81.64,6.32 C81.6688796,4.94912552 81.1673371,3.620038 80.24,2.61 C78.5909845,0.876309271 76.2815726,-0.0729135686 73.89,-4.46691295e-16 C72.6127468,-0.0180308738 71.3568835,0.328892688 70.27,1 C68.6630488,2.11067391 67.9397193,4.1199226 68.47,6 C68.9732629,7.67154353 70.2673549,8.98807648 71.93,9.52 C73.6351496,10.0108115 75.466829,9.78320636 77,8.89 C78.0162752,8.34921572 78.7781123,7.4292615 79.12,6.33 C79.4827074,4.87812691 78.9093952,3.35327578 77.68,2.5 C76.3132968,1.28465552 74.591786,0.541355541 72.77,0.38 C70.7668542,0.342608892 68.9602173,1.5791515 68.27,3.46 C67.5990135,5.18986785 68.2753939,7.15137095 69.87,8.1 C70.7939266,8.62033433 71.9502313,8.469689 72.71,7.73 C73.4560093,6.97249357 73.6034074,5.80968601 73.07,4.89 C72.74,4.44 73.17,5.36 73.07,5.02 C73.25,5.75 73.07,5.55 73.14,5.29 C73.14,6.07 73.08,5.79 73.14,5.49 C72.93,5.96 72.89,6.07 73,5.83 L73.09,5.69 C73.16,5.51 72.59,6.29 72.97,5.85 C73.0650215,5.76164268 73.1551553,5.66817064 73.24,5.57 C73.41,5.37 72.63,6.1 73.1,5.71 C72.61,5.9 72.49,5.96 72.75,5.87 C72.8196959,5.86077259 72.8903041,5.86077259 72.96,5.87 L72.23,5.96 C72.4991684,5.93003093 72.7708316,5.93003093 73.04,5.96 L72.31,5.86 L72.79,5.96 C72.89,5.96 73.33,6.19 72.92,5.96 C72.51,5.73 72.92,5.96 73.05,6.04 L73.49,6.29 C73.73,6.44 73.96,6.6 74.19,6.77 C74.42,6.94 74.75,7.28 74.13,6.77 L74.23,6.87 C74.0318373,6.65986217 73.8787049,6.41144741 73.78,6.14 L73.68,5.41 L73.68,5.54 L73.78,4.81 C73.78,5.08 73.78,4.99 73.93,4.53 C74.24,4.17 74.29,4.1 74.09,4.31 C74.71,3.77 74.23,4.17 74.02,4.31 C73.81,4.45 73.83,4.41 74.23,4.23 L73.93,4.33 C73.7200722,4.38867458 73.5061831,4.43212078 73.29,4.46 L74.02,4.36 C73.7572572,4.38494017 73.4927428,4.38494017 73.23,4.36 L73.96,4.46 L73.56,4.39 C73.46,4.39 73.11,4.22 73.56,4.39 C74.01,4.56 73.56,4.39 73.56,4.34 C73.18,4.15 73.94,4.71 73.75,4.48 C73.56,4.25 73.46,4.15 73.75,4.48 C74.04,4.81 73.75,4.48 73.75,4.43 C73.53,4.13 73.89,4.64 73.85,4.72 C73.81,4.8 73.76,4.37 73.76,4.34 L73.85,5.07 C73.8350157,4.89365106 73.8350157,4.71634894 73.85,4.54 L73.76,5.27 C73.76,5.15 73.84,5.02 73.85,4.9 L73.66,5.34 L73.78,5.14 L73.49,5.51 L73.77,5.15 C73.46,5.55 73.71,5.25 73.77,5.15 C74.07,4.82 73.18,5.49 73.6,5.28 C73.69,5.28 74.06,5.07 73.6,5.28 C73.14,5.49 73.54,5.28 73.6,5.28 C73.7559066,5.22276368 73.9165178,5.1792648 74.08,5.15 C74.18,5.15 74.61,5.07 74.08,5.15 C73.55,5.23 74.02,5.15 74.08,5.15 C74.3097558,5.13501241 74.5402442,5.13501241 74.77,5.15 L75.09,5.15 C75.59,5.15 74.45,5.04 74.95,5.15 C75.21,5.15 75.47,5.25 75.72,5.32 C75.8493742,5.35085834 75.976367,5.39096134 76.1,5.44 C76.17,5.44 76.58,5.63 76.18,5.44 C75.78,5.25 76.18,5.44 76.24,5.44 L76.58,5.63 C76.6769059,5.70904838 76.7806476,5.77932501 76.89,5.84 C76.89,5.84 76.46,5.45 76.71,5.7 C76.79,5.79 76.88,5.87 76.97,5.96 C77.26,6.23 76.71,5.47 76.97,5.96 C77.0085003,6.0508219 77.055369,6.13786385 77.11,6.22 C76.82,5.85 76.97,5.85 77.05,6.14 L77.05,6.26 C77.05,6.51 77.05,6.43 77.05,6.01 C77.0399948,6.08299207 77.0399948,6.15700793 77.05,6.23 C77.05,6.65 77.2,5.65 77.05,6.05 C77.0062893,6.14884994 76.97602,6.25311083 76.96,6.36 C76.96,6.36 77.23,5.83 77.06,6.11 C76.9740053,6.22728434 76.897114,6.35097897 76.83,6.48 C77.09,5.98 77.07,6.18 76.9,6.35 C76.73,6.52 76.79,6.45 76.74,6.51 C76.44,6.81 77.21,6.2 76.85,6.43 L76.56,6.61 L76.36,6.71 C75.98,6.92 76.89,6.54 76.48,6.71 L76.16,6.8 C75.89,6.86 75.8,6.8 76.31,6.8 C76.21,6.8 76.09,6.8 75.98,6.8 C75.71,6.8 75.63,6.65 76.14,6.8 C76.0700755,6.79540129 75.9999245,6.79540129 75.93,6.8 C75.67,6.73 75.62,6.58 76.05,6.88 C75.9532732,6.82074396 75.853095,6.76731558 75.75,6.72 C75.46,6.57 75.91,6.83 75.93,6.87 C75.856365,6.78633002 75.772353,6.71239947 75.68,6.65 L75.53,6.49 C75.39,6.32 75.43,6.38 75.67,6.68 C75.5958764,6.51157398 75.5054453,6.35080753 75.4,6.2 C75.68,6.59 75.53,6.55 75.46,6.3 C75.4417777,6.20083013 75.4417777,6.09916987 75.46,6 C75.46,5.89 75.46,5.78 75.39,5.67 C75.55,6.23 75.39,5.99 75.39,5.78 C75.3850136,5.70341441 75.3850136,5.62658559 75.39,5.55 C75.39,5.48 75.39,5.4 75.39,5.33 C75.39,5.11 75.39,5.18 75.39,5.53 C75.46,5.36 75.46,5.15 75.52,4.97 C75.58,4.79 75.72,4.77 75.52,4.97 C75.5830544,4.87549614 75.6366465,4.77501098 75.68,4.67 C75.68,4.6 75.76,4.54 75.79,4.48 C75.99,4.14 75.49,4.78 75.79,4.48 L76,4.31 C76.24,4.04 75.68,4.48 76,4.31 L76.31,4.13 L76.49,4 L76.41,4 L76.64,4 L76.87,3.94 L76.8,3.94 C76.8,3.94 77.1,3.94 77.16,3.94 C77.22,3.94 77.62,4 77.23,3.94 C77.4713062,3.97993267 77.7088146,4.04014607 77.94,4.12 C78,4.12 78.36,4.31 78.05,4.12 L78.48,4.35 L78.69,4.49 C78.82,4.58 78.83,4.58 78.69,4.49 L78.88,4.65 C78.9715936,4.73159561 79.0584044,4.81840645 79.14,4.91 C79.14,4.91 79.39,5.23 79.24,5.02 C79.4088807,5.25626322 79.5498203,5.51129678 79.66,5.78 C79.9844108,6.33245017 80.6672928,6.55996904 81.2582208,6.31248638 C81.8491488,6.06500372 82.1660935,5.41875398 82,4.8 Z" id="Path" fill="#FFFFFF"></path>
                <path d="M28.63,21.08 C28.8202936,20.7801058 28.9272931,20.4349461 28.94,20.08 C28.9309463,19.7386083 28.8667861,19.4009226 28.75,19.08 C28.5957636,18.6634046 28.3689232,18.2774373 28.08,17.94 C27.7436723,17.5719928 27.3209344,17.2936044 26.85,17.13 C25.9741657,16.8194083 25.0093705,16.8808372 24.18,17.3 C23.7995345,17.4711546 23.4589492,17.7197819 23.18,18.03 C22.7933746,18.430468 22.5146793,18.9224856 22.37,19.46 C22.1152906,20.626408 22.4691754,21.8424162 23.31,22.69 C24.1465159,23.5780632 25.3898592,23.9582905 26.58,23.69 C27.7493073,23.3902934 28.6710375,22.4914161 29,21.33 C29.1098417,20.8461557 29.1098417,20.3438443 29,19.86 C28.9591844,19.3683524 28.7977515,18.8943578 28.53,18.48 C28.3675544,18.2227094 28.1726142,17.9874366 27.95,17.78 C27.5836553,17.4693637 27.1633407,17.2286997 26.71,17.07 C26.4149321,16.9772515 26.1090083,16.9234627 25.8,16.91 C25.4643073,16.9012114 25.1287289,16.9314135 24.8,17 C24.5003552,17.0783486 24.2089969,17.1855149 23.93,17.32 C23.6448199,17.455465 23.3845081,17.6380213 23.16,17.86 C22.6999227,18.2915788 22.3824589,18.8532456 22.25,19.47 C22.1703354,19.7579244 22.1703354,20.0620756 22.25,20.35 C22.2611859,20.6417695 22.3510198,20.9250921 22.51,21.17 C23.1261024,22.2088872 24.4621371,22.5607097 25.51,21.96 L25.96,21.61 C26.2349941,21.3328661 26.4316649,20.9878296 26.53,20.61 L26.53,20.53 L26.31,21.05 C26.3492762,20.969072 26.3961536,20.8920592 26.45,20.82 L26.1,21.28 C26.204984,21.1517543 26.3259693,21.0374904 26.46,20.94 L26.01,21.29 C26.1074939,21.2204639 26.2112794,21.1602013 26.32,21.11 L25.79,21.33 C25.918705,21.2782076 26.0529099,21.2413012 26.19,21.22 L25.6,21.3 C25.7195341,21.2850456 25.8404659,21.2850456 25.96,21.3 L25.38,21.22 C25.4822673,21.2372927 25.5827013,21.2640751 25.68,21.3 L25.16,21.08 C25.2424303,21.1205503 25.3196571,21.1709156 25.39,21.23 L25,20.93 L25.16,21.09 L24.82,20.65 C24.8775603,20.735587 24.927741,20.8259122 24.97,20.92 L24.76,20.41 C24.8019044,20.5226522 24.828802,20.6403291 24.84,20.76 L24.77,20.19 C24.7800174,20.3097909 24.7800174,20.4302091 24.77,20.55 L24.84,19.98 C24.8208762,20.1132354 24.7873465,20.2440012 24.74,20.37 L24.95,19.86 C24.9057934,19.9686659 24.8450786,20.0698573 24.77,20.16 L25.1,19.73 C25.048001,19.8004604 24.9875489,19.864271 24.92,19.92 L25.35,19.59 L25.11,19.73 L25.62,19.52 L25.33,19.6 L25.89,19.52 C25.7768874,19.5300022 25.6631126,19.5300022 25.55,19.52 L26.12,19.59 C25.9731685,19.5687 25.8290226,19.5318255 25.69,19.48 L26.19,19.69 C26.0678045,19.6296568 25.9507478,19.5594228 25.84,19.48 L26.26,19.8 C26.1388866,19.7088308 26.0311692,19.6011134 25.94,19.48 L26.26,19.89 C26.1884273,19.7974155 26.1280109,19.6967216 26.08,19.59 L26.28,20.07 C26.2362015,19.9600108 26.2027241,19.8461876 26.18,19.73 L26.26,20.26 C26.2399403,20.1106707 26.2399403,19.9593293 26.26,19.81 L26.19,20.33 C26.2079836,20.1997834 26.2415579,20.0722012 26.29,19.95 L26.1,20.4 C26.1632779,20.2656981 26.2403596,20.1383456 26.33,20.02 L26.04,20.39 C26.1818118,20.2282301 26.3392413,20.0808493 26.51,19.95 L26.16,20.22 C26.2923722,20.1190986 26.4368223,20.035116 26.59,19.97 L26.2,20.13 C26.3401541,20.079376 26.4838853,20.039265 26.63,20.01 L26.23,20.07 C26.3829612,20.0548922 26.5370388,20.0548922 26.69,20.07 L26.31,20.07 C26.5392627,20.1052281 26.7639498,20.1655918 26.98,20.25 L26.68,20.12 C26.8253675,20.190218 26.9657026,20.2704095 27.1,20.36 C27.22,20.43 27.03,20.29 27.01,20.29 C26.99,20.29 27.09,20.35 27.12,20.38 C27.1815389,20.4315755 27.2384245,20.4884611 27.29,20.55 L27.36,20.63 C27.44,20.71 27.36,20.63 27.36,20.58 C27.36,20.53 27.52,20.79 27.62,20.88 L27.77,21.03 C27.77,21.03 27.85,21.13 27.77,21.08 C27.69,21.03 27.82,21.15 27.82,21.14 C27.9003089,21.2795125 28.049024,21.3655006 28.21,21.3655006 C28.370976,21.3655006 28.5196911,21.2795125 28.6,21.14 L28.63,21.08 Z" id="Path" fill="#FFFFFF"></path>
                <path d="M28.6,21.87 C28.7902936,21.5701058 28.8972931,21.2249461 28.91,20.87 C28.9029403,20.5283968 28.8387186,20.190388 28.72,19.87 C28.5682161,19.4492255 28.3411906,19.0595549 28.05,18.72 C27.7156487,18.3519605 27.2919945,18.076413 26.82,17.92 C25.944857,17.6109702 24.9819754,17.668671 24.15,18.08 C23.7695345,18.2511546 23.4289492,18.4997819 23.15,18.81 C22.765451,19.2120154 22.4870742,19.7034708 22.34,20.24 C22.0864969,21.4045732 22.4360287,22.6185387 23.27,23.47 C24.1085485,24.3615487 25.356687,24.7420787 26.55,24.47 C27.6778481,24.1554681 28.5606201,23.2764849 28.88,22.15 C29.2839454,20.873122 28.8910355,19.4782918 27.88,18.6 C27.5216064,18.2810786 27.1035499,18.0363626 26.65,17.88 C26.3512857,17.7896665 26.0419378,17.7392294 25.73,17.73 C25.4106548,17.7142367 25.0907038,17.7445479 24.78,17.82 C24.4785785,17.8925895 24.1866184,17.9999771 23.91,18.14 C23.6201915,18.2682296 23.3559445,18.447782 23.13,18.67 C22.6784829,19.1067007 22.3654781,19.6666315 22.23,20.28 C22.1455506,20.5672552 22.1455506,20.8727448 22.23,21.16 C22.2396755,21.4520309 22.3296348,21.7357488 22.49,21.98 C23.1025624,23.0235668 24.4429132,23.3765258 25.49,22.77 L26,22.4 C26.2713573,22.1217122 26.4645199,21.7767791 26.56,21.4 L26.56,21.31 L26.34,21.84 C26.3731613,21.7558868 26.4205156,21.6780904 26.48,21.61 L26.13,22.06 C26.2375822,21.9342009 26.3582636,21.8202241 26.49,21.72 L26.03,22.08 C26.128366,22.0036287 26.2358598,21.9398043 26.35,21.89 L25.82,22.12 C25.9436723,22.0637757 26.0751756,22.026685 26.21,22.01 L25.62,22.09 C25.7425249,22.0700294 25.8674751,22.0700294 25.99,22.09 L25.42,22 C25.5261349,22.0193379 25.6300102,22.0494953 25.73,22.09 L25.21,21.87 C25.2921581,21.9069816 25.3694141,21.954007 25.44,22.01 L25,21.71 C25.058214,21.7582185 25.1117815,21.811786 25.16,21.87 L24.82,21.44 C24.8817121,21.5229758 24.9321515,21.6137667 24.97,21.71 L24.75,21.19 C24.7985822,21.301083 24.8289707,21.4192606 24.84,21.54 L24.76,21 C24.7799535,21.1191705 24.7799535,21.2408295 24.76,21.36 L24.84,20.79 C24.823327,20.9237122 24.7897243,21.0547625 24.74,21.18 L24.95,20.67 C24.8997987,20.7787206 24.8395361,20.8825061 24.77,20.98 L25.1,20.55 C25.046843,20.619903 24.9826722,20.6806964 24.91,20.73 L25.34,20.4 C25.2694141,20.455993 25.1921581,20.5030184 25.11,20.54 L25.61,20.33 C25.5199853,20.3671495 25.4260537,20.3939871 25.33,20.41 L25.89,20.33 C25.7774976,20.3494079 25.6625024,20.3494079 25.55,20.33 L26.11,20.41 C25.9663808,20.3839676 25.8256938,20.3437713 25.69,20.29 L26.19,20.5 C26.0645864,20.4457343 25.9468996,20.3751222 25.84,20.29 L26.26,20.62 C26.1386319,20.5252763 26.0309454,20.4142245 25.94,20.29 L26.26,20.71 C26.1904639,20.6125061 26.1302013,20.5087206 26.08,20.4 L26.28,20.88 C26.2330991,20.7745769 26.1995073,20.6637242 26.18,20.55 L26.25,21.08 C26.2299403,20.9306707 26.2299403,20.7793293 26.25,20.63 L26.18,21.14 C26.1992074,21.010031 26.232745,20.882588 26.28,20.76 L26.09,21.22 C26.1486259,21.0832557 26.2260384,20.9553569 26.32,20.84 L26.03,21.21 C26.1664777,21.0402423 26.3244716,20.8889715 26.5,20.76 L26.14,21.03 C26.277365,20.9312662 26.4248653,20.8474592 26.58,20.78 L26.19,20.95 C26.3271086,20.8903476 26.4718156,20.8499642 26.62,20.83 L26.21,20.88 C26.3660295,20.8600182 26.5239705,20.8600182 26.68,20.88 L26.3,20.83 C26.5388523,20.8608746 26.7735923,20.9178829 27,21 L26.7,20.88 C26.8471464,20.9428259 26.9878127,21.0198574 27.12,21.11 C27.24,21.19 27.05,21.05 27.03,21.04 C27.0709296,21.0643753 27.1080026,21.0947077 27.14,21.13 C27.2,21.13 27.25,21.24 27.31,21.3 L27.38,21.38 L27.38,21.33 C27.47,21.43 27.54,21.54 27.63,21.63 C27.6848899,21.6748585 27.7351415,21.7251101 27.78,21.78 C27.78,21.78 27.87,21.89 27.83,21.83 C27.79,21.77 27.88,21.9 27.83,21.9 C27.9165414,22.0342091 28.0653081,22.1152943 28.225,22.1152943 C28.3846919,22.1152943 28.5334586,22.0342091 28.62,21.9 L28.6,21.87 Z" id="Path" fill="#FFFFFF"></path>
                <path d="M56.17,63.34 C56.3608361,63.0397077 56.4710481,62.6952953 56.49,62.34 C56.4775643,61.9980779 56.4100294,61.6604034 56.29,61.34 C56.134512,60.9261374 55.9114885,60.5409149 55.63,60.2 C55.2915349,59.8345063 54.8694696,59.5565608 54.4,59.39 C53.5241657,59.0794083 52.5593705,59.1408372 51.73,59.56 C51.3515705,59.7301898 51.0114311,59.9750901 50.73,60.28 C50.3453734,60.6858527 50.0671096,61.1805439 49.92,61.72 C49.6521611,62.9057523 50.0150967,64.145782 50.88,65 C51.7176129,65.8862963 52.9599381,66.2662122 54.15,66 C55.2811217,65.6814069 56.1665657,64.7997469 56.49,63.67 C56.6278708,63.1927538 56.6619683,62.691521 56.59,62.2 C56.5411088,61.7085742 56.3766278,61.2356913 56.11,60.82 C55.9506328,60.5604911 55.755366,60.3248243 55.53,60.12 C55.1636553,59.8093637 54.7433407,59.5686997 54.29,59.41 C53.9951552,59.3163402 53.6891094,59.26253 53.38,59.25 C53.0443073,59.2412114 52.7087289,59.2714135 52.38,59.34 C52.0830723,59.4167469 51.7948739,59.5239835 51.52,59.66 C51.2342559,59.7954413 50.9711526,59.9742166 50.74,60.19 C50.2886596,60.6323805 49.9729607,61.1943939 49.83,61.81 C49.7550437,62.0985449 49.7550437,62.4014551 49.83,62.69 C49.8411859,62.9817695 49.9310198,63.2650921 50.09,63.51 C50.7095752,64.544275 52.0413863,64.8949853 53.09,64.3 L53.53,63.95 C53.8085866,63.6756122 54.0058583,63.3295214 54.1,62.95 L54.1,62.87 L53.88,63.39 C53.88,63.31 53.97,63.24 54.02,63.16 L53.67,63.62 C53.7809363,63.4938752 53.9049666,63.3799014 54.04,63.28 L53.58,63.63 C53.7080711,63.5333182 53.8495608,63.4558357 54,63.4 L53.46,63.62 C53.588705,63.5682076 53.7229099,63.5313012 53.86,63.51 L53.27,63.59 C53.3895341,63.5750456 53.5104659,63.5750456 53.63,63.59 L53,63.52 C53.1032541,63.5324802 53.2042418,63.5594102 53.3,63.6 L52.78,63.38 C52.8624303,63.4205503 52.9396571,63.4709156 53.01,63.53 L52.58,63.19 L52.73,63.35 L52.39,62.91 C52.4506499,62.9954584 52.5041638,63.0857632 52.55,63.18 L52.33,62.67 C52.3705006,62.7837117 52.4006235,62.9008564 52.42,63.02 L52.34,62.44 C52.3499799,62.5631314 52.3499799,62.6868686 52.34,62.81 L52.41,62.24 C52.3956313,62.3741391 52.3619498,62.5054971 52.31,62.63 L52.53,62.12 C52.4819891,62.2267216 52.4215727,62.3274155 52.35,62.42 L52.68,61.99 L52.49,62.18 L52.92,61.85 C52.8449136,61.9046219 52.7645062,61.9515263 52.68,61.99 L53.19,61.78 L52.9,61.86 L53.47,61.78 L53.13,61.78 L53.69,61.85 C53.5418156,61.8300358 53.3971086,61.7896524 53.26,61.73 L53.76,61.95 C53.6410029,61.8896144 53.5272721,61.8193689 53.42,61.74 L53.83,62.06 C53.7112148,61.9661824 53.6038176,61.8587852 53.51,61.74 L53.83,62.15 C53.7584273,62.0574155 53.6980109,61.9567216 53.65,61.85 L53.86,62.33 C53.8116485,62.2216351 53.7780167,62.1072869 53.76,61.99 L53.83,62.52 C53.8150292,62.3703735 53.8150292,62.2196265 53.83,62.07 L53.76,62.59 C53.7813884,62.4594015 53.8183173,62.3318291 53.87,62.21 L53.68,62.66 C53.7397208,62.5259261 53.8134649,62.3985498 53.9,62.28 L53.61,62.65 C53.7518118,62.4882301 53.9092413,62.3408493 54.08,62.21 L53.73,62.48 C53.8652421,62.3834684 54.0091999,62.299772 54.16,62.23 L53.77,62.39 C53.9135953,62.3394877 54.0606424,62.2993839 54.21,62.27 L53.8,62.33 C53.9529675,62.3150208 54.1070325,62.3150208 54.26,62.33 L53.88,62.33 C54.1095428,62.363888 54.3343791,62.4242918 54.55,62.51 L54.25,62.38 C54.3986148,62.4501469 54.5422805,62.5303323 54.68,62.62 C54.79,62.69 54.6,62.55 54.59,62.55 C54.58,62.55 54.66,62.61 54.69,62.63 L54.86,62.81 L54.93,62.88 C55.01,62.97 54.93,62.88 54.93,62.88 C54.93,62.88 55.08,63.08 55.18,63.18 L55.33,63.33 C55.33,63.33 55.42,63.43 55.33,63.38 L55.33,63.44 C55.4103089,63.5795125 55.559024,63.6655006 55.72,63.6655006 C55.880976,63.6655006 56.0296911,63.5795125 56.11,63.44 L56.17,63.34 Z" id="Path" fill="#FFFFFF"></path>
                <g id="Group" opacity="0.3" transform="translate(7.000000, 4.000000)" fill="#FFDD15">
                    <path d="M0.84,16 C0.74,20.67 1.03,25.33 1.28,30 C1.53,34.67 1.69,39.34 2.04,44 C2.14,45.38 4.04,46.16 4.82,44.75 C7.38,39.82 10,34.94 12.47,30 C13.72,27.59 14.96,25.18 16.15,22.73 C16.72,21.55 17.23,20.31 17.87,19.17 C18.51,18.03 19.54,16.71 20.29,15.44 L18.23,15.17 C21.53,24.26 25.53,33.17 29.53,41.95 C29.7343338,42.3098118 30.1162164,42.5321092 30.53,42.5321092 C30.9437836,42.5321092 31.3256662,42.3098118 31.53,41.95 C36.1,35.23 40.61,28.46 45.32,21.84 L43,21.58 C44.63,25.76 46.34,29.91 47.89,34.12 C49.38,38.12 50.71,42.26 52.29,46.27 C53.03,48.15 54.19,49.74 56.35,49.93 C57.3909351,49.9417192 58.4310807,49.8681398 59.46,49.71 L62.46,49.47 C66.89,49.11 71.32,48.74 75.76,48.47 C76.87,48.4 78,47.07 77.19,45.99 C67.0937882,32.6447457 58.4986033,18.2277736 51.56,3 L50.21,5.3 C54.91,4.77 59.62,4.36 64.31,3.82 C66.31,3.59 66.38,0.4 64.31,0.61 C59.61,1.08 54.92,1.69 50.21,2.18 C49.6592406,2.19943225 49.1578194,2.50267546 48.8848351,2.98141661 C48.6118508,3.46015776 48.6062374,4.04611693 48.87,4.53 C55.7182581,19.8003859 64.2476045,34.2596909 74.3,47.64 L75.72,45.16 C71.78,45.39 67.84,45.56 63.89,45.73 C61.89,45.81 59.89,46.02 57.98,45.98 C57.25,45.98 56.89,45.98 56.55,45.3 C56.09,44.42 55.73,43.47 55.31,42.57 C51.91,35.27 48.53,27.99 45.31,20.62 C45.081085,20.2455849 44.6738494,20.0172481 44.235,20.0172481 C43.7961506,20.0172481 43.388915,20.2455849 43.16,20.62 C38.74,27.44 34.16,34.12 29.56,40.84 L31.56,40.84 C27.56,32.2 24.12,23.39 20.48,14.61 C20.14,13.81 18.89,13.38 18.41,14.34 C17.8,15.57 17.31,16.82 16.74,18.06 C16.1238706,19.2752378 15.4325279,20.4508545 14.67,21.58 C13.22,23.97 11.83,26.39 10.45,28.82 C7.64,33.6 4.94,38.4 2.24,43.2 L5,44 C4.78,39.25 4.38,34.5 4.06,29.75 C3.74,25 3.45,20.39 2.79,15.75 C2.62,14.61 0.85,14.93 0.79,16.02 L0.84,16 Z" id="Path"></path>
                    <path d="M1.86,10.87 C1.95,12.48 3.14,13.87 3.99,15.19 C4.84,16.51 5.82,18.19 6.69,19.67 C8.41,22.67 10.12,25.61 11.88,28.56 C15.37,34.41 19.25,40.15 24.35,44.73 C24.7756276,45.1294844 25.3933878,45.2478628 25.936544,45.0340218 C26.4797002,44.8201808 26.8509519,44.3124276 26.89,43.73 C26.4914608,38.3886947 25.5976209,33.0959575 24.22,27.92 C23.5533333,25.3866667 22.7966667,22.8866667 21.95,20.42 C21.11,18 20.38,15.05 18.82,13 C18.04,12 16.72,13.13 16.89,14.12 C17.2015559,15.3072742 17.6407836,16.4573133 18.2,17.55 C18.7,18.76 19.14,19.99 19.56,21.23 C20.37,23.63 21.09,26.07 21.69,28.53 C22.8491793,33.496115 23.5917578,38.5503324 23.91,43.64 L26.45,42.58 C21.29,38.08 17.54,32.39 14.09,26.58 C12.38,23.68 10.76,20.73 8.99,17.87 C8.07,16.39 7.13,14.92 6.15,13.47 C5.27,12.19 4.38,10.67 2.87,10.11 C2.63120653,10.0483395 2.37732089,10.1002649 2.18191193,10.2507298 C1.98650298,10.4011947 1.87141602,10.6333781 1.87,10.88 L1.86,10.87 Z" id="Path"></path>
                    <path d="M21.15,16 C24.2,11.89 26.88,7.5 29.76,3.27 L27.21,3 C28.5060911,9.60032932 29.3381285,16.2833603 29.7,23 C29.84,26.25 29.85,29.5 29.79,32.75 C29.5809044,35.7856943 29.9196324,38.834246 30.79,41.75 C30.9687004,42.340581 31.5129751,42.7445373 32.13,42.7445373 C32.7470249,42.7445373 33.2912996,42.340581 33.47,41.75 C36,34 41.34,28.2 46.28,22 C47.35,20.67 45.59,18.77 44.36,20.08 C38.74,26.08 33.36,33 30.79,40.89 L33.47,40.89 C32.29,37.95 32.47,34.89 32.52,31.79 C32.63,28.5 32.63,25.22 32.47,21.94 C32.2091908,15.3059649 31.3490216,8.70910326 29.9,2.23 C29.7414951,1.69783487 29.2854164,1.30824817 28.7350184,1.23486177 C28.1846204,1.16147537 27.6423995,1.41795545 27.35,1.89 C24.76,6.29 21.92,10.57 19.51,15.06 C19.3933396,15.4894329 19.5744803,15.9442874 19.954417,16.1759561 C20.3343537,16.4076248 20.8216634,16.3603621 21.15,16.06 L21.15,16 Z" id="Path"></path>
                    <path d="M43.73,22.35 C43.49,24.91 44.73,27.5 45.6,29.83 C46.6632002,32.2681332 47.5228005,34.7900735 48.17,37.37 C48.71,39.86 47.91,42.72 49.1,45.05 C49.6281121,45.9705011 50.2661213,46.8234188 51,47.59 C51.74,48.42 52.79,49 53.31,49.98 L53.64,48.73 C52.042034,49.8596507 50.552317,51.1351163 49.19,52.54 C47.84,54.01 46.62,55.61 45.39,57.17 L47.72,58.17 C47.7900466,57.5753891 47.7900466,56.9746109 47.72,56.38 C47.6,55.47 46.28,54.81 45.72,55.85 C45.4010454,56.483542 45.1657432,57.155834 45.02,57.85 C44.8211775,58.5762544 45.2487456,59.3261774 45.975,59.5249999 C46.7012544,59.7238224 47.4511775,59.2962544 47.65,58.57 C49.1519482,55.2569932 51.5353811,52.4203968 54.54,50.37 C54.8643109,50.1481344 55.0286292,49.7569004 54.96,49.37 C54.8157835,48.3309427 54.3943553,47.3499132 53.74,46.53 C53.02,45.74 51.94,45.29 51.36,44.35 C50.66,43.2 50.94,41.75 50.94,40.48 C50.9402339,39.1769344 50.7892235,37.878245 50.49,36.61 C49.8172008,34.1346702 48.8678903,31.7429445 47.66,29.48 C46.51,27.11 45.66,24.58 44.4,22.26 C44.21,21.91 43.74,22.11 43.7,22.45 L43.73,22.35 Z" id="Path"></path>
                    <path d="M50.62,2.06 C49.4193458,4.40194745 48.5734375,6.90934102 48.11,9.5 L47.18,13.24 C46.7865771,14.5878608 46.4858743,15.9610702 46.2799652,17.35 C46.2751241,18.0318294 46.7830291,18.6086029 47.46,18.69 C48.1351773,18.7691609 48.7674329,18.3448283 48.95,17.69 C49.3253891,16.4810268 49.6193804,15.2482678 49.83,14 L50.66,10.08 C51.3602576,7.57103241 51.6970201,4.97459376 51.66,2.37 C51.6452614,2.13662559 51.4845689,1.93808573 51.25939,1.87503564 C51.0342111,1.81198555 50.7937841,1.89821195 50.66,2.09 L50.62,2.06 Z" id="Path"></path>
                    <path d="M0.55,16.16 C1.47594934,17.8654053 1.54266996,19.9077977 0.73,21.67 C0.403163493,22.2228211 0.443457878,22.9184715 0.831936898,23.4298591 C1.22041592,23.9412467 1.87978047,24.1666163 2.5,24 C3.83502298,23.5881407 4.97098641,22.6978873 5.69,21.5 L3.61,20.29 C3.15259534,21.0412146 2.61256887,21.7388885 2,22.37 L4.35,24.19 C4.94,23.26 5.51,22.32 6.13,21.42 L3.42,19.83 C2.92,20.74 2.42,21.68 1.91,22.56 L5.17,23.93 C5.80547515,21.5638805 6.18762228,19.136911 6.31,16.69 L2.48,16.69 C2.35918456,20.7377809 1.97167782,24.773196 1.32,28.77 C1.03013381,29.8781433 1.59609639,31.0313452 2.65,31.48 C3.70679505,31.9359885 4.93772934,31.5328253 5.52,30.54 C6.43472889,28.4323362 7.46976689,26.3789544 8.62,24.39 L4.44,22.63 C3.9,24.73 3.32,26.81 2.75,28.9 C2,31.83 6.3,33 7.26,30.14 C7.92666667,28.14 8.59333333,26.1033333 9.26,24.03 L4.68,22.77 C3.52,26.91 2.25,31 1,35.15 C0.18,37.83 4.26,39.62 5.58,37.08 C7.09,34.16 8.46,31.16 9.89,28.2 C10.5261839,27.0361897 10.1340555,25.5778245 9,24.89 C7.84674673,24.2261365 6.37424329,24.6087205 5.69,25.75 C4.01972953,28.9656042 2.52747849,32.2705897 1.22,35.65 C0.22,38.31 4.42,39.99 5.77,37.56 C7.66,34.15 9.47,30.68 11.3,27.24 L6.87,25.37 C5,30.74 3,36.08 1,41.43 L5.9,42.1 C6,33.48 6.21,24.84 6.57,16.24 L3.14,17.17 C3.35,17.66 3.59,18.17 3.82,18.61 C4.69,20.38 7.21,19.08 6.82,17.33 C6.71,16.8 6.61,16.27 6.48,15.75 C6.06,14.08 3.2,13.9 2.92,15.75 C1.62072731,24.4728243 0.978919503,33.2809678 1,42.1 C1,45.01 5,45.35 5.9,42.76 C7.79,37.39 9.65,32 11.62,26.66 C12.57,24.06 8.49,22.41 7.18,24.79 C5.3,28.2 3.37,31.6 1.54,35.05 L6,37 C7.06022487,33.9837168 8.34723441,31.0520094 9.85,28.23 L5.67,25.78 C4.18,28.71 2.62,31.61 1.21,34.58 L5.79,36.51 C7,32.33 8.1,28.17 9.3,24 C10.15,21 5.66,19.85 4.72,22.74 C4.05,24.74 3.4,26.82 2.72,28.87 L7.23,30.11 C7.75,28.01 8.23,25.91 8.82,23.82 C9.0766278,22.7276881 8.50761883,21.60962 7.47349498,21.1741994 C6.43937114,20.7387789 5.24198676,21.1131024 4.64,22.06 C3.34134367,24.1906477 2.22086882,26.424908 1.29,28.74 L5.75,30 C6.45905481,25.6008092 6.65035836,21.1337036 6.32,16.69 C6.32,15.6296133 5.46038672,14.77 4.4,14.77 C3.33961328,14.77 2.48,15.6296133 2.48,16.69 C2.3,18.96 1.85,21.19 1.68,23.46 C1.52,25.54 4.57,25.75 5.18,23.93 C5.5,22.93 5.91,22 6.29,21.04 C6.95,19.38 4.29,18.29 3.43,19.83 C2.9,20.83 2.33,21.73 1.77,22.68 C1.38891688,23.3916834 1.63944255,24.2773253 2.33686051,24.683928 C3.03427846,25.0905308 3.9284109,24.8722378 4.36,24.19 C4.96563105,23.2538648 5.45268988,22.2461569 5.81,21.19 C6.23,20.01 4.62,19.19 3.81,20.02 C3.23025115,20.582547 2.47465237,20.9285689 1.67,21 L3.43,23.29 C4.87863125,20.4881788 4.54574855,17.0966916 2.58,14.63 C1.58,13.43 -0.06,14.96 0.58,16.21 L0.55,16.16 Z" id="Path"></path>
                    <path d="M15,25.3 C14.7567618,24.8507905 14.3101824,24.5480062 13.8028448,24.4883194 C13.2955071,24.4286326 12.7908503,24.6195068 12.45,25 C11.39,26.09 12.1,27.5 13.24,28.15 C14.0486337,28.601882 15.0698901,28.3321996 15.55,27.54 C16.49,25.78 17.38,24.02 18.25,22.22 L14.64,20.7 C14.47,21.61 14.32,22.53 14.16,23.44 L18.26,23.99 C18.1740335,22.8163978 18.2855819,21.6366891 18.59,20.5 L14.37,20 C14.5653629,22.0103467 14.284444,24.0384441 13.55,25.92 L18,27.09 C18.22,25.67 18.4,24.24 18.57,22.82 C18.85,20.56 15.15,19.59 14.23,21.64 C12.508797,25.2737774 13.4534959,29.6111777 16.53,32.2 C17.2252033,32.8598174 18.2423168,33.0515042 19.13,32.69 C20.0205278,32.3333451 20.6031722,31.4692875 20.6,30.51 C20.26,27.6 19.81,24.71 19.38,21.81 L14.91,23 C15.91,25.43 16.8,27.84 17.63,30.3300001 L20.08,37.73 C20.4609183,38.672373 21.4880972,39.179153 22.4677187,38.9080307 C23.4473401,38.6369083 24.0677989,37.674124 23.91,36.67 C23.0863041,32.7875324 21.8631254,29.000705 20.26,25.37 C20.0186896,24.5846229 19.209586,24.1210283 18.41,24.31 C17.6095087,24.5384019 17.1385073,25.364876 17.35,26.17 C18.8849554,30.6326901 20.7432139,34.9775391 22.91,39.17 C23.381036,39.9438451 24.3808096,40.204848 25.17,39.76 C25.9385959,39.2856603 26.2021049,38.2931098 25.77,37.5 C22.86,30.84 21.01,23.8300001 21.49,16.5 L18.15,16.5 C18.1417168,17.0677721 18.1684341,17.635515 18.23,18.2 C18.23,19.0726099 18.9373901,19.78 19.81,19.78 C20.6826099,19.78 21.39,19.0726099 21.39,18.2 C21.4581723,17.635921 21.4915687,17.0681814 21.49,16.5 C21.49,15.5776845 20.7423155,14.8300001 19.82,14.8300001 C18.8976845,14.8300001 18.15,15.5776845 18.15,16.5 C17.98,24.25 19.22,32.26 22.91,39.15 L25.77,37.48 C23.3197046,33.7624933 21.4609363,29.6873716 20.26,25.4 L17.35,26.2 C18.4940416,29.9942831 19.4057323,33.8547755 20.08,37.76 L23.91,36.7 L21.49,29.29 C20.68,26.8 20,24.34 19.34,21.81 C19.0242001,20.7135518 17.952292,20.0143877 16.8215671,20.1673239 C15.6908422,20.3202601 14.8431814,21.2790554 14.83,22.42 C15.15,25.3300001 15.46,28.24 15.88,31.15 L19.38,28.45 C18.0940795,27.35941 17.6301194,25.5795629 18.22,24 L13.88,22.8300001 C13.73,24.05 13.58,25.26 13.47,26.49 C13.24,29.13 17.24,29.49 17.96,27.1 C18.6541547,24.8016304 18.8952864,22.3903138 18.67,20 C18.45,17.71 15.13,16.95 14.45,19.43 C13.9898297,21.1204211 13.8910165,22.8888362 14.16,24.62 C14.43682,25.6242199 15.4197354,26.2637587 16.45,26.11 C17.4543452,25.9626409 18.2132944,25.1240229 18.26,24.11 C18.35,23.19 18.43,22.27 18.52,21.35 C18.5001982,20.3689569 17.7716074,19.5471742 16.8,19.41 C15.8326103,19.2908723 14.9202283,19.8864549 14.64,20.82 C13.87,22.66 13.15,24.49 12.46,26.36 L14.94,25.36 C14.695991,25.246284 14.4618522,25.1124905 14.24,24.96 L14.94,25.86 L14.73,26.76 L13.53,27.08 L13.68,27.08 C14.1549395,27.2201733 14.666874,27.0488974 14.9618402,26.65114 C15.2568064,26.2533825 15.2720465,25.7137714 15,25.3 Z" id="Path"></path>
                    <path d="M20.52,20 C21.71,17.94 22.66,15.78 23.79,13.68 C24.9244093,11.5842757 26.1764074,9.55436945 27.54,7.6 L25,6.54 C23.4,11 21.89,15.48 20.36,20 L23.48,20.86 C24.2740595,18.1191686 25.2120272,15.4220942 26.29,12.78 L23.52,11.61 C22.6762321,14.3778805 21.5151855,17.0388919 20.06,19.54 C19.13,21.11 21.42,23 22.65,21.54 C24.7209793,18.9840162 26.5143885,16.2151264 28,13.28 L24.8,12.41 C24.8710605,14.6173476 24.3679927,16.8053481 23.34,18.76 L26.48,20.6 C27.6071563,18.2764543 28.4724722,15.8347877 29.06,13.32 L25.72,12.86 C25.8722431,16.1713994 25.7081662,19.4897712 25.23,22.77 L28.88,23.27 C29.3779414,19.1293855 29.4917597,14.9515839 29.22,10.79 C29.2199999,9.85111596 28.458884,9.0900001 27.52,9.0900001 C26.581116,9.0900001 25.8200001,9.85111596 25.82,10.79 C25.54,16.79 25.1,22.71 24.54,28.65 L28.32,28.14 C27.54,25.2 26.55,22.3 25.62,19.4 C25.3742333,18.5108216 24.4541784,17.9892333 23.565,18.235 C22.6758216,18.4807667 22.1542333,19.4008216 22.4,20.29 C23.05,23.21 23.69,26.13 24.34,29.05 C24.77,30.98 27.97,30.59 27.83,28.58 C27.65,25.84 27.42,23.11 27.37,20.36 L24.21,20.79 C25.3683082,24.8465501 26.2733861,28.9711671 26.92,33.14 C27.19,34.8 30.08,34.84 30.32,33.14 C31.0672536,27.6919049 30.5819907,22.1455549 28.9,16.91 C28.34,15.11 25.32,15.32 25.48,17.37 C25.87,22.73 26.09,28.1 26.58,33.46 C26.8,35.79 30.27,35.88 30.29,33.46 C30.35,24.75 29.96,16.04 29.37,7.36 C29.22,5.17 25.82,5.13 25.93,7.36 C26.38,16.05 26.52,24.75 26.58,33.46 L30.3,33.46 C29.72,28.12 29.13,22.74 28.98,17.37 L25.55,17.84 C26.8273118,22.672796 27.2736717,27.6875817 26.87,32.67 L30.33,32.2 C29.33,28.1 28.33,24.03 27.33,19.93 C26.9,18.12 24.23,18.59 24.17,20.36 C24.0382495,23.0999727 24.0816713,25.8455638 24.3,28.58 L27.79,28.1 C27.07,25.2 26.3533333,22.3 25.64,19.4 L22.42,20.29 C23.12,23.29 23.77,26.29 24.62,29.17 C24.9034299,30.0729689 25.7970402,30.6396474 26.7346626,30.5110026 C27.6722851,30.3823578 28.3802461,29.5959387 28.41,28.65 C28.83,22.71 29.1066667,16.7566667 29.24,10.79 L25.84,10.79 C25.8586537,14.9589243 25.6416409,19.1255702 25.19,23.27 C25.1948617,24.2759061 25.9945996,25.0977363 27,25.13 C28.0166103,25.1086042 28.8340849,24.2867109 28.85,23.27 C29.2532017,19.8150656 29.3368895,16.3303064 29.1,12.86 C29.0836358,12.0163295 28.4542959,11.3107248 27.6179783,11.1983836 C26.7816607,11.0860424 25.9884245,11.6005548 25.75,12.41 C25.0734851,14.5767331 24.2584735,16.6977676 23.31,18.76 C22.8292364,19.6338247 23.1145028,20.7310031 23.96,21.26 C24.8305141,21.760344 25.9416063,21.4658377 26.45,20.6 C27.6831716,18.0500271 28.2867212,15.2414639 28.21,12.41 C28.21,10.78 25.83,9.98 25,11.54 C23.4866898,14.2995022 21.8173155,16.9705011 20,19.54 L22.85,21.21 C24.2150182,18.3557773 25.3941424,15.4163178 26.38,12.41 C26.88,10.81 24.38,9.66 23.61,11.25 C22.2833688,14.0704339 21.1962068,16.9974084 20.36,20 C20.1699757,20.8437041 20.6761818,21.6878922 21.509927,21.9177066 C22.3436723,22.147521 23.2109125,21.681911 23.48,20.86 C24.9,16.35 26.34,11.86 27.68,7.32 C27.8467195,6.65541047 27.5042747,5.96846201 26.8732099,5.70156901 C26.2421452,5.434676 25.5107229,5.66745937 25.15,6.25 C22.56,10.25 19.94,14.7 18.95,19.39 C18.8408419,19.8043445 19.0533485,20.2358355 19.4483473,20.4018859 C19.8433461,20.5679364 20.300323,20.4178843 20.52,20.05 L20.52,20 Z" id="Path"></path>
                    <path d="M51,10.2 C49.3556862,13.2173306 47.9868098,16.376791 46.91,19.64 C46.7925761,20.2752238 47.1382017,20.9054002 47.7369761,21.147819 C48.3357505,21.3902378 49.0224343,21.1780004 49.38,20.64 C50.65,18.46 51.69,16.19 53.14,14.09 L50.44,12.52 C48.78,16.42 47.12,20.33 45.44,24.21 C44.9042838,25.1267927 45.2132074,26.3042838 46.13,26.84 C47.0467927,27.3757162 48.2242838,27.0667927 48.76,26.15 C50.66,23.32 52.4,20.37 54.19,17.47 L50.63,16 C49.12,20.33 47.55,24.64 45.96,29 C45.15,31.21 48.49,32.44 49.66,30.55 C51.62,27.3766667 53.5466667,24.1933333 55.44,21 L51.66,19.4 C50.34,23.06 48.95,26.7 47.58,30.34 C46.75,32.55 50.48,34.16 51.43,31.97 C52.7386033,28.9684019 54.3079498,26.0873628 56.12,23.36 L52.35,21.77 C51.49,25.19 50.51,28.57 49.56,31.96 C49.02,33.86 51.71,35.71 53.08,33.96 C54.85,31.77 56.51,29.51 58.08,27.16 L54.2,25.58 C52.89,29.58 51.57,33.66 50.13,37.66 C49.27,40 53,41.57 54.19,39.37 C55.95,36.09 57.69,32.79 59.44,29.5 L55.44,28.42 C55.0890353,31.5620912 54.047497,34.5876745 52.39,37.28 L56.39,38.95 C57.2558373,35.3729568 57.7947213,31.7246119 58,28.05 C58.17,25.29 58.4,21.66 55.51,20.15 C54.7216117,19.6673302 53.705159,19.7878517 53.0515054,20.4415054 C52.3978517,21.095159 52.2773302,22.1116117 52.76,22.9 C55.6383539,28.804022 58.8951365,34.5159177 62.51,40 C63.1413611,40.984065 64.436617,41.2948397 65.4457573,40.7043853 C66.4548977,40.1139308 66.8185535,38.8325162 66.27,37.8 L57.27,20.25 L53.85,22.25 C57.85,28.39 61.63,34.69 65.51,40.9 L68.94,38.26 C64.0815535,32.1219801 59.5775561,25.7115465 55.45,19.06 L51.95,21.06 C57.25,29.3 62.65,37.43 68.49,45.3 L70.41,42 C66.4829515,42.2035403 62.5457411,42.0764256 58.64,41.62 C56,41.3 55.57,45.49 58.02,46.16 C61.02,46.97 63.83,44.87 64.65,42.03 C65.54,38.95 63.74,36.03 62.02,33.68 C61.08,32.37 58.32,32.13 58.02,34.2 C57.7441941,36.3571231 57.0657716,38.4432723 56.02,40.35 L60.09,40.88 L59.09,37.25 C58.7913041,36.3001173 57.9107391,35.6539408 56.915,35.6539408 C55.9192609,35.6539408 55.0386959,36.3001173 54.74,37.25 C54.46,38.35 54.19,39.45 53.92,40.56 L58.35,41.16 L58.21,39.57 C58.1945092,38.3492861 57.2202397,37.3573828 56,37.32 C54.3842997,37.3437477 52.9109691,38.2492321 52.16,39.68 C51.25,41.47 53.25,44.13 55.16,42.68 L56.64,41.61 L53.64,38.61 C52.9032234,40.0630137 52.0609683,41.4600875 51.12,42.79 L48.12,46.7 L50.86,47.44 C50.9955464,46.2909528 51.2468221,45.1585373 51.61,44.06 L49,43.34 C48.43,45.66 47.52,47.92 46.83,50.2 L44.76,57.09 C44.07,59.37 47.42,60.17 48.25,58.09 C49.3969027,54.9929889 50.8437819,52.015499 52.57,49.2 L49.57,49.2 L50.66,51.69 L53,49.36 L53.22,49.55 C53.94,47.55 50.77,46.7 50.06,48.68 C49.5794851,50.0158646 50.101122,51.5056596 51.31,52.25 C51.8990559,52.5775096 52.6263938,52.523707 53.1608489,52.113089 C53.695304,51.7024711 53.9346853,51.0135504 53.77,50.36 C53.4433333,49.52 53.11,48.68 52.77,47.84 C52.5671045,47.1936852 52.007549,46.7238774 51.3358733,46.6358943 C50.6641975,46.5479112 50.0025159,46.8577487 49.64,47.43 C47.5776826,50.406244 45.9449699,53.6582036 44.79,57.09 L48.28,58.09 L50.04,51.09 C50.62,48.78 51.04,46.37 51.71,44.09 C52.24,42.36 49.64,41.7 49.03,43.35 C48.5680808,44.5552461 48.2329397,45.8053224 48.03,47.08 C47.84,48.35 49.44,49.79 50.49,48.52 L53.63,44.73 C54.7136803,43.5080543 55.8833281,42.3651414 57.13,41.31 C58.96,39.66 56.53,36.41 54.46,37.85 L52.97,38.85 L55.97,41.85 C56.08,41.65 55.8,41.74 55.97,41.73 L53.73,39.49 L53.84,41.08 C54.02,43.51 57.6,44.26 58.27,41.68 C58.55,40.58 58.82,39.47 59.09,38.37 L54.79,38.37 L55.79,41.98 C56.05039,42.822944 56.7774938,43.4373025 57.6520752,43.5533403 C58.5266567,43.6693782 59.3888079,43.2658791 59.86,42.52 C61.1597345,40.0907524 61.9876555,37.4373335 62.3,34.7 L58.24,35.8 C59.12,36.99 60.24,38.37 60.38,39.9 C60.4645099,40.4122282 60.3262484,40.9361663 60,41.34 C59.8908001,41.4576593 59.7738739,41.567904 59.65,41.67 C59.5641492,41.7642987 59.4348168,41.8061415 59.31,41.78 C59.68,41.78 59.66,41.78 59.24,41.69 L58.63,46.23 C62.5410952,46.619946 66.4774837,46.6901789 70.4,46.44 C71.88,46.34 73.4,44.54 72.32,43.09 C66.32,35.33 60.62,27.35 55.44,19.09 C54.06,16.88 50.61,18.87 51.94,21.09 C56.0469863,28.1778991 60.6905535,34.9409922 65.83,41.32 C67.4,43.23 70.6,40.74 69.26,38.67 C65.26,32.53 61.13,26.45 57.26,20.23 C56.6422552,19.446016 55.5410554,19.2374987 54.6794509,19.741361 C53.8178464,20.2452233 53.4596268,21.3072022 53.84,22.23 L62.51,40 L66.27,37.8 C62.5576956,32.3962168 59.2166748,26.7465506 56.27,20.89 L53.51,23.65 C54.04,23.94 53.99,24.84 53.99,25.39 C53.956646,26.7743496 53.8531801,28.1561205 53.68,29.53 C53.3550508,32.3180364 52.8742988,35.0856986 52.24,37.82 C51.72,40.16 54.94,41.69 56.24,39.49 C58.1663944,36.1045834 59.381209,32.361457 59.81,28.49 C60.06,26.33 56.81,25.66 55.81,27.41 C54.01,30.67 52.2,33.93 50.41,37.2 L54.47,38.91 C55.67,34.84 57,30.8 58.35,26.77 C59.14,24.39 55.76,23.25 54.47,25.14 C52.99,27.32 51.47,29.44 49.83,31.53 L53.68,33.15 C54.56,29.74 55.41,26.32 56.39,22.94 C57.07,20.57 53.92,19.53 52.62,21.35 C50.6190924,24.1730924 48.9418939,27.212176 47.62,30.41 L51.68,31.53 C53.01,27.87 54.31,24.21 55.68,20.53 C56.53,18.27 53.08,17 51.9,18.93 C49.95,22.1 48.07,25.29 46.2,28.5 L49.86,30 C51.34,25.66 52.86,21.33 54.39,17 C55.16,14.86 51.96,13.69 50.83,15.5 C49.01,18.39 47.14,21.25 45.44,24.21 L49,25.73 C50.43,21.73 51.9,17.73 53.38,13.73 C54.01,12.02 51.38,11.08 50.52,12.53 C49.0359537,14.7238246 47.8489688,17.1045196 46.99,19.61 L49.6,20.33 C50.1641375,17.0261588 51.0242688,13.7797488 52.17,10.63 C52.4,9.99 51.4,9.63 51.08,10.17 L51,10.2 Z" id="Path"></path>
                </g>
            </g>
        </g>
    </g>
</svg>