<?xml version="1.0" encoding="UTF-8"?>
<svg width="88px" height="88px" viewBox="0 0 88 88" version="1.1" xmlns="http://www.w3.org/2000/svg" xmlns:xlink="http://www.w3.org/1999/xlink">
    <!-- Generator: sketchtool 63.1 (101010) - https://sketch.com -->
    <title>1A8DB96E-5E5E-4B78-81C2-B7990E212FEC</title>
    <desc>Created with sketchtool.</desc>
    <g id="Dashboard-Launch-Version-v2" stroke="none" stroke-width="1" fill="none" fill-rule="evenodd">
        <g id="KNN-model-is-ready" transform="translate(-53.000000, -488.000000)" fill-rule="nonzero">
            <g id="cluster6" transform="translate(53.000000, 488.000000)">
                <path d="M31.15,67 C31.62,66 31.15,64.91 30.9,63.89 C30.65,62.87 30.29,61.64 29.98,60.52 L28.08,53.79 L26.86,55.39 C28.8049414,55.4085763 30.7389742,55.0975081 32.58,54.47 C34.4289377,53.8944859 36.22274,53.1548771 37.94,52.26 L35.94,51.46 C36.9079158,56.0160628 38.4572697,60.4288645 40.55,64.59 L42.45,62.11 C40.6788573,61.8408812 38.8684177,62.1642996 37.3,63.03 C36.6539698,63.3539857 35.9855986,63.6313597 35.3,63.86 C34.45,64.11 34.08,63.95 33.08,64.16 C31.7,64.46 31.26,66.78 32.66,67.37 C34.49,68.15 36.26,67.31 37.94,66.53 C39.07,66 40.49,65.22 41.54,65.37 C42.1984353,65.528447 42.8889849,65.2904609 43.31,64.76 C43.7293802,64.2210261 43.780769,63.4818185 43.44,62.89 C41.2063111,59.1077784 39.5417878,55.0172291 38.5,50.75 C38.3884902,50.341769 38.0920063,50.0094494 37.6990873,49.8522817 C37.3061683,49.6951141 36.8622871,49.7312877 36.5,49.95 C34.9285201,50.7142995 33.287767,51.3270705 31.6,51.78 C30.8,52.02 29.99,52.22 29.17,52.39 C28.35,52.56 27.32,52.65 26.43,52.91 C25.7624835,53.0995036 25.3706371,53.7896875 25.55,54.46 L27.62,61.14 C27.95,62.21 28.26,63.28 28.62,64.33 C28.98,65.38 29.18,66.66 30.13,67.24 C30.4509301,67.4233133 30.8595149,67.3167259 31.05,67 L31.15,67 Z" id="Path" fill="#FFFFFF"></path>
                <path d="M30.74,55.29 C30.3948467,54.5553779 29.5985975,54.1449402 28.8,54.29 C27.9369992,54.472912 27.2023445,55.0349229 26.8,55.82 C26.4527553,56.4276878 26.6076413,57.1984502 27.1626819,57.6248223 C27.7177226,58.0511945 28.5023625,58.0021588 29,57.51 C29.8536006,56.5463286 30.6293697,55.5164283 31.32,54.43 L28.57,53.27 C28.2710519,54.489333 28.1597731,55.7471207 28.24,57 C28.2679121,57.6945025 28.7436984,58.2903821 29.4147959,58.4713265 C30.0858935,58.6522709 30.796742,58.3763372 31.17,57.79 C31.85,56.68 32.47,55.54 33.11,54.41 L30.28,53.21 C30.0012292,55.1885807 29.5048898,57.1303409 28.8,59 C28.5661719,59.8405905 28.9948895,60.7237487 29.8,61.06 C30.6175994,61.3986541 31.5595145,61.0775467 32,60.31 C33.1699881,58.5885466 33.8445366,56.578738 33.95,54.5 C33.946698,53.6724254 33.3308519,52.9753219 32.51,52.87 C31.6912767,52.7666775 30.9176532,53.2697441 30.68,54.06 C29.8,56.76 28.9,59.45 28.18,62.2 C27.9599979,63.0392864 28.3844666,63.913692 29.18,64.26 C29.9846104,64.6091191 30.9232815,64.304801 31.37,63.55 C32.46,61.11 33.51,58.66 34.63,56.24 L31.71,55 C30.9,57.74 29.92,60.43 29.12,63.18 C28.9245437,63.9941397 29.3473351,64.8300694 30.1189492,65.1550901 C30.8905632,65.4801108 31.7840364,65.1986206 32.23,64.49 C33.9138578,61.6216777 35.2850416,58.5809351 36.32,55.42 L33.21,54.56 C32.1537707,57.6572617 31.2625194,60.8083522 30.54,64 C30.3023612,64.9122776 30.8344543,65.8478747 31.74,66.11 C32.650788,66.3365797 33.5791314,65.8086119 33.85,64.91 C35.1168224,61.2160498 36.073469,57.4229126 36.71,53.57 L33.56,53.14 C33.21,56.72 32.56,60.19 31.88,63.74 L35.4,64.74 C35.859915,61.7015153 36.7347474,58.7405441 38,55.94 L34.86,55 C34.51,58 34.11,60.93 33.86,63.91 C33.8697021,64.8139525 34.5414291,65.5737732 35.4373716,65.694236 C36.3333142,65.8146989 37.1818791,65.2592873 37.43,64.39 C37.94,62.39 38.36,60.33 38.9,58.32 L35.78,57.9 C35.8732891,58.8299558 35.7323398,59.768472 35.37,60.63 C35.206137,61.2580997 35.4592232,61.9209446 36,62.28 C36.4937572,62.6508398 37.1590446,62.6978013 37.7,62.4 C38.3259083,62.0813771 38.8857815,61.6470512 39.35,61.12 L36.8,60.45 C36.9,61.13 37.05,61.79 37.21,62.45 C37.4476939,63.2640751 38.2889228,63.7422473 39.11,63.53 C39.9220048,63.2835387 40.3973635,62.442858 40.19,61.62 C40.06,60.94 39.93,60.28 39.74,59.62 C39.5609327,59.0426598 39.0625702,58.6220879 38.4633442,58.5426207 C37.8641182,58.4631534 37.2733607,58.73929 36.95,59.25 C37.01,59.17 36.84,59.36 36.83,59.37 C36.82,59.38 36.4,59.63 36.52,59.58 L38.25,61.83 C38.8169327,60.6150125 39.0745818,59.2786728 39,57.94 C38.9640963,57.1678306 38.3812795,56.5317462 37.615186,56.4286182 C36.8490925,56.3254902 36.1188172,56.7848122 35.88,57.52 C35.29,59.52 34.58,61.47 33.96,63.46 L37.53,63.95 C37.88,60.95 38.02,58.01 38.22,55.04 C38.2286824,54.2741894 37.7183383,53.5994357 36.9790855,53.3993195 C36.2398326,53.1992033 35.4588062,53.5243821 35.08,54.19 C34.4,55.77 33.7,57.31 33.14,58.97 C32.6209046,60.5261654 32.1967907,62.1124183 31.87,63.72 C31.6165858,64.6838719 32.1810642,65.673303 33.1397561,65.9456586 C34.098448,66.2180143 35.0988086,65.6731397 35.39,64.72 C36.1409973,60.9039052 36.5989999,57.0359562 36.76,53.15 C36.7519518,52.3536709 36.159486,51.6844829 35.37,51.58 C34.5764168,51.4607507 33.8194903,51.9553333 33.61,52.73 C32.9709977,56.5809455 31.9423823,60.3570027 30.54,64 L33.85,64.91 C34.57,61.73 35.36,58.57 36.32,55.45 C36.4736242,54.894452 36.3191975,54.2991469 35.9148909,53.8883305 C35.5105844,53.477514 34.9178217,53.3135989 34.3598909,53.4583305 C33.8019601,53.603062 33.3636242,54.034452 33.21,54.59 C32.2692385,57.4850554 30.9548139,60.245011 29.3,62.8 L32.4,64.11 C33.26,61.39 33.94,58.61 34.78,55.88 C34.9668429,55.117116 34.5723187,54.3314178 33.8488593,54.0256256 C33.1253999,53.7198335 32.2869574,53.9843809 31.87,54.65 C30.73,57.05 29.51,59.42 28.34,61.8 L31.53,63.15 C32.1388699,60.3739807 32.9203888,57.6386646 33.87,54.96 L30.61,54.52 C30.5016906,55.2483225 30.3139033,55.9625848 30.05,56.65 C29.7523974,57.3109065 29.4012262,57.9463592 29,58.55 L32.19,59.89 C32.8052391,57.8522295 33.1942494,55.7529153 33.35,53.63 C33.48,52.04 31.21,51.63 30.47,52.84 C29.73,54.05 29.11,55.06 28.47,56.21 L31.39,57 C31.2413616,56.0251473 31.2786859,55.0309637 31.5,54.07 C31.6931596,53.3454807 31.3216349,52.5896203 30.63,52.3 C29.9384539,52.0169768 29.1436347,52.2748703 28.75,52.91 C28.0379511,53.8304937 27.396141,54.8032372 26.83,55.82 L29.39,56.9 C29.44,56.58 29.39,56.59 29.7,56.41 C29.823972,56.3450733 29.9412106,56.2680308 30.05,56.18 C30.05,56.18 30.35,55.87 30.19,55.99 C30.2866941,55.9147788 30.3997468,55.8633913 30.52,55.84 C30.6318948,55.8086748 30.7233076,55.7278764 30.7681371,55.6206755 C30.8129665,55.5134746 30.8062849,55.3916549 30.75,55.29 L30.74,55.29 Z" id="Path" fill="#FFFFFF"></path>
                <path d="M76.05,14.48 C75.38,13.67 74.05,13.66 73.05,13.48 C71.93,13.25 70.8,13.1 69.68,12.92 L63,11.81 L63.76,13.66 C64.5991,11.9199178 65.1367366,10.0500244 65.35,8.13 C65.6248351,6.20632659 65.7252435,4.26174975 65.65,2.32 L63.94,3.61 C68.468349,4.66194643 73.112864,5.12908651 77.76,5 L76.3,2.47 C75.4139577,3.89967047 75.0010643,5.57223871 75.12,7.25 C75.12,7.9 75.12,8.87 75.12,9.32 C75.01,10.15 74.59,10.77 74.47,11.41 C74.2978139,12.1647532 74.636092,12.943834 75.3051142,13.3333332 C75.9741365,13.7228324 76.818657,13.6323673 77.39,13.11 C78.75,12.02 78.64,9.67 78.63,8.11 C78.5850291,7.3306482 78.5850291,6.5493518 78.63,5.77 C78.6953508,5.20170325 78.8940854,4.65689612 79.21,4.18 C79.5061322,3.65511433 79.5041026,3.01310079 79.2046578,2.49009788 C78.905213,1.96709497 78.3525715,1.64033375 77.75,1.63 C73.3762384,2.07023326 68.9613317,1.85791332 64.65,1 C64.2493425,0.912545679 63.8306142,1.01055162 63.5103868,1.26673351 C63.1901594,1.52291541 63.0026279,1.9099173 63,2.32 C63.050518,4.0576202 62.9299371,5.79599518 62.64,7.51 C62.51,8.34 62.35,9.17 62.16,9.98 C61.97,10.79 61.61,11.77 61.47,12.69 C61.38,13.29 61.62,14.15 62.36,14.25 L69.28,15.19 C70.42,15.34 71.55,15.53 72.68,15.64 C73.81,15.75 75.05,16.13 75.96,15.53 C76.1168526,15.420167 76.2210104,15.2500927 76.2475592,15.0604583 C76.274108,14.8708239 76.2206601,14.6786848 76.1,14.53 L76.05,14.48 Z" id="Path" fill="#FFFFFF"></path>
                <path d="M65.38,10 C65.0760442,10.0343947 64.7772706,10.1048918 64.49,10.21 C64.1036762,10.3119582 63.8019582,10.6136762 63.7,11 C63.3918747,12.0423044 63.6286258,13.1696905 64.33,14 C64.7840508,14.4312524 65.468126,14.5113697 66.0095371,14.1967035 C66.5509481,13.8820372 66.8199546,13.2479921 66.67,12.64 C66.164744,11.4480361 65.5662198,10.2977996 64.88,9.2 L62.52,11 C63.5929446,11.8667105 64.7939042,12.5616478 66.08,13.06 C66.6910462,13.2110093 67.3336532,12.9873446 67.7188857,12.4895724 C68.1041181,11.9918001 68.159449,11.3136348 67.86,10.76 C67.14,9.66 66.37,8.62 65.61,7.56 L63.49,9.7 C65.0345537,10.7138788 66.4631137,11.8942852 67.75,13.22 C68.3751508,13.8141943 69.3400118,13.8643113 70.0233599,13.3380834 C70.7067079,12.8118556 70.9047597,11.8662108 70.49,11.11 C69.4466233,9.31905775 67.9315568,7.84895894 66.11,6.86 C64.5,5.95 62.69,8.14 64.11,9.46 C66.18,11.4 68.24,13.35 70.42,15.16 C71.1148053,15.8203193 72.2051947,15.8203193 72.9,15.16 C73.5641815,14.4706152 73.5641815,13.3793848 72.9,12.69 C71.16,10.69 69.38,8.69 67.67,6.69 L65.41,8.92 C67.55,10.81 69.57,12.83 71.72,14.71 C72.3302349,15.2957963 73.2758309,15.3509207 73.95,14.84 C74.6310182,14.3273382 74.820163,13.3859129 74.39,12.65 C72.5089714,9.90658368 70.3399742,7.37217582 67.92,5.09 L65.64,7.37 C68.1033233,9.71267999 70.6868122,11.9256685 73.38,14 C74.1260007,14.4276413 75.0731983,14.238655 75.5979641,13.5574687 C76.1227299,12.8762823 76.0638114,11.9122139 75.46,11.3 C72.540107,8.50942909 69.3925278,5.96728226 66.05,3.7 L64.44,6.46 C67.67,8.37 70.68,10.54 73.73,12.71 L75.57,9.56 C73.0297473,7.84238393 70.7382088,5.78302771 68.76,3.44 L66.71,6.09 C69.25,7.65 71.77,9.27 74.38,10.71 C75.1681884,11.1580345 76.165941,10.9576312 76.72,10.24 C77.2866908,9.52326797 77.2264965,8.49566666 76.58,7.85 C75,6.53 73.29,5.28 71.69,3.94 L70.14,6.59 C70.8936469,6.901986 71.5645876,7.38465256 72.1,8 C72.5433114,8.42338966 73.1945032,8.54573406 73.7612524,8.31211225 C74.3280016,8.07849044 74.7038196,7.53279851 74.72,6.92 C74.7084297,6.20906376 74.5625336,5.50672647 74.29,4.85 L72.41,6.68 C73.07,6.88 73.74,7.02 74.41,7.16 C75.2303336,7.36671017 76.0679288,6.89060341 76.31,6.08 C76.5279127,5.25817987 76.0476118,4.4132062 75.23,4.18 C74.56,4.01 73.9,3.85 73.23,3.74 C72.6366307,3.58273034 72.0067138,3.7953273 71.63,4.28 C71.2421902,4.77404249 71.1908525,5.4532805 71.5,6 C71.6440815,6.27292726 71.6966653,6.58492441 71.65,6.89 L74.27,5.8 C73.3835482,4.78561452 72.2602902,4.00586055 71,3.53 C69.5,3 68.29,5.17 69.44,6.19 C71,7.56 72.47,9 74,10.42 L76.2,7.57 C73.68,6 71,4.62 68.42,3.18 C67.6947028,2.84808687 66.8361733,3.06506974 66.3556722,3.70173374 C65.8751711,4.33839774 65.9019242,5.22351843 66.42,5.83 C67.52,7.05 68.6,8.29 69.79,9.41 C71.0563515,10.5887612 72.3920695,11.6907286 73.79,12.71 C74.2076216,12.953078 74.7047661,13.0201012 75.1718495,12.896296 C75.638933,12.7724907 76.0376095,12.4680209 76.28,12.05 C76.7543621,11.1785196 76.4697996,10.0884261 75.63,9.56 C72.594104,7.36022724 69.3910301,5.4009357 66.05,3.7 C65.2937214,3.31235614 64.3663412,3.58358817 63.9381323,4.31766051 C63.5099234,5.05173285 63.7303076,5.99249414 64.44,6.46 C67.5337337,8.59645627 70.401862,11.0424068 73,13.76 L75.08,11.06 C72.62,9.16 70.2,7.18 67.89,5.06 C67.2501917,4.455531 66.2498083,4.455531 65.61,5.06 C64.9846661,5.6913676 64.9846661,6.7086324 65.61,7.34 C67.8455581,9.41087574 69.8019993,11.7639837 71.43,14.34 L74.09,12.28 C72,10.38 69.78,8.59 67.66,6.67 C67.0386796,6.04867971 66.0313204,6.04867973 65.4100001,6.67000005 C64.7886797,7.29132038 64.7886797,8.29867965 65.41,8.92 C67.11,10.98 68.74,13.08 70.41,15.16 L72.89,12.69 C70.6272287,10.9683836 68.476222,9.10462313 66.45,7.11 L64.45,9.72 C65.6837412,10.5195424 66.7115551,11.5987469 67.45,12.87 L70.19,10.75 C68.6188802,9.31588883 66.8952469,8.05837427 65.05,7 C63.77,6.27 62.05,7.78 62.93,9.11 C63.67,10.19 64.37,11.28 65.15,12.33 L66.92,10.03 C66.0963233,9.78663559 65.3261164,9.38965673 64.65,8.86 C64.1126005,8.32549123 63.2622235,8.27219945 62.662297,8.73543381 C62.0623705,9.19866817 61.8988166,10.0348687 62.28,10.69 C62.8606205,11.823985 63.5293402,12.9106545 64.28,13.94 L65.98,11.74 C66.15,11.86 65.9,11.59 65.98,11.74 C65.91,11.59 65.91,11.68 65.89,11.55 C65.89,11.73 65.89,11.21 65.89,11.14 C65.8462998,10.8465536 65.7012425,10.577667 65.48,10.38 L65.71,10.78 C65.6801883,10.6720199 65.6801883,10.5579801 65.71,10.45 C65.7372791,10.3382438 65.7124639,10.220146 65.6425123,10.1288203 C65.5725608,10.0374947 65.4650039,9.98277342 65.35,9.98 L65.38,10 Z" id="Path" fill="#FFFFFF"></path>
                <path d="M71.6,29.9 L70.6,36.32 C70.44,37.4 70.31,38.49 70.17,39.58 C70.03,40.67 69.66,41.98 70.22,43.1 C70.4205625,43.4389913 70.7660272,43.6667678 71.1566192,43.7175448 C71.5472112,43.7683218 71.9394309,43.6364442 72.22,43.36 C73.05,42.36 72.99,41.06 73.11,39.82 C73.21,38.82 73.32,37.74 73.41,36.7 C73.59,34.54 73.7633333,32.3766667 73.93,30.21 C74.04,28.88 71.77,28.55 71.57,29.9 L71.6,29.9 Z" id="Path" fill="#FFFFFF"></path>
                <path d="M72.14,31.4 C73.1379731,31.9483091 74.2367917,32.2885006 75.37,32.4 C76.45,32.61 77.54,32.8 78.63,32.95 C79.72,33.1 80.98,33.3 82.16,33.44 C83.134403,33.4750107 84.1027189,33.6090337 85.05,33.84 L84.19,33.34 L84.34,33.47 L83.84,32.61 C83.8239435,33.0570268 83.7704226,33.5019195 83.68,33.94 L83.49,35.59 L83.14,38.75 C82.9,40.84 82.76,42.96 82.46,45.05 L84.14,43.77 C82.2,43.63 80.27,43.48 78.33,43.35 C76.39,43.22 74.33,42.8 72.33,43.25 C70.64,43.66 70.91,45.9 72.33,46.42 C73.3431097,46.7154027 74.3948386,46.8569816 75.45,46.84 L78.28,46.98 C80.21,47.08 82.15,47.16 84.09,47.24 C85.0387299,47.2239617 85.8039617,46.4587299 85.82,45.51 C86.08,43.16 86.5,40.83 86.82,38.51 L87.32,34.92 C87.51,33.57 88.08,31.86 87.03,30.74 C86.16,29.82 84.69,29.85 83.53,29.68 C82.37,29.51 80.98,29.32 79.7,29.16 C78.42,29 77.41,28.89 76.25,28.8 C74.982747,28.5613937 73.6805923,28.5783931 72.42,28.85 C71.8798128,29.0149476 71.485932,29.4804649 71.4126958,30.0405064 C71.3394596,30.6005478 71.600392,31.1516946 72.08,31.45 L72.14,31.4 Z" id="Path" fill="#FFFFFF"></path>
                <path d="M72.86,32.72 C72.3968149,34.2923788 72.2606827,35.9429818 72.46,37.57 C72.5987314,39.2245463 72.972487,40.850888 73.57,42.4 C73.7462129,43.1640855 74.4747493,43.6687258 75.2520121,43.5650907 C76.0292749,43.4614557 76.6001401,42.7835619 76.57,42 C76.6656076,39.7855262 76.5045354,37.5674286 76.09,35.39 C75.8801606,34.6617672 75.1688215,34.1968906 74.417607,34.2970525 C73.6663925,34.3972144 73.1017054,35.0322279 73.09,35.79 C73.2269849,38.499384 73.6766346,41.1838597 74.43,43.79 C74.6641701,44.5729078 75.4332998,45.0689374 76.2430904,44.9593042 C77.052881,44.849671 77.6624313,44.1669893 77.68,43.35 C77.62,40.08 77.41,36.8 77.26,33.54 L74.31,34.34 C75.3814083,36.8964146 76.0948078,39.5884882 76.43,42.34 C76.6374027,43.0966135 77.3254752,43.6208592 78.11,43.62 C78.8936952,43.611916 79.5798909,43.0921938 79.8,42.34 C80.4770494,39.4311081 80.6529052,36.4280334 80.32,33.46 L77.16,33.89 C77.7635457,35.3505005 78.2549672,36.854852 78.63,38.39 C78.81,39.15 78.97,39.91 79.11,40.67 L79.2,41.25 C79.2055229,41.3465878 79.2055229,41.4434122 79.2,41.54 C79.2,41.75 79.2,41.79 79.2,41.68 C79.2,41.57 79.2,41.6 79.2,41.81 C79.1944771,41.9065878 79.1944771,42.0034122 79.2,42.1 C79.2,42.43 79.27,42.75 79.32,43.1 C79.5861964,43.9857482 80.4570949,44.5463092 81.3735584,44.4217897 C82.2900218,44.2972702 82.9797834,43.524663 83,42.6 L82.69,35.39 L79.25,35.85 C79.71,37.59 80.08,39.34 80.48,41.09 C80.7522297,42.0509339 81.7446483,42.6161229 82.71,42.36 C83.6604556,42.0745039 84.219367,41.0931081 83.98,40.13 C83.69,38.39 83.25,36.66 82.87,34.94 L79.9,36.21 C80.1830115,36.6078824 80.4370018,37.0256295 80.66,37.46 C80.719315,37.5704208 80.7727236,37.683914 80.82,37.8 C80.82,37.8 80.93,38.05 80.87,37.9 C80.98,38.15 81.07,38.41 81.16,38.67 C81.49,39.62 81.68,40.61 81.98,41.57 C82.2212983,42.3163552 82.9626434,42.7826169 83.7398726,42.6768547 C84.5171019,42.5710925 85.1069045,41.9236936 85.14,41.14 C85.14,38.8 83.98,36.5 82.8,34.52 C82.3719577,33.8021394 81.4813129,33.5080987 80.71,33.83 C79.92658,34.1561806 79.5008925,35.0075556 79.71,35.83 C79.98,37.58 80.2,39.36 80.56,41.09 L84.06,40.09 C83.6,38.35 83.06,36.63 82.71,34.88 C82.27,32.95 79.25,33.39 79.27,35.35 L79.34,42.56 L83.1,42.56 C82.6250152,39.1135756 81.6127285,35.7629067 80.1,32.63 C79.43,31.17 77.03,31.91 77.1,33.44 C77.1625298,34.8239829 77.1291165,36.2106351 77,37.59 C76.8727657,38.8743248 76.669071,40.1499213 76.39,41.41 L79.76,41.41 C79.158902,38.4344607 78.2333721,35.5337963 77,32.76 C76.6713007,32.0755779 75.9022543,31.7217296 75.1686301,31.9173627 C74.4350058,32.1129958 73.9442635,32.8027878 74,33.56 C74.08,36.83 74.1,40.1 74.27,43.37 L77.52,42.93 C76.7538408,40.6148051 76.257227,38.2189791 76.04,35.79 L73.04,36.2 C73.4265525,38.1074963 73.5543687,40.0583744 73.42,42 L76.25,41.23 C75.5388828,39.9835984 75.0260795,38.634116 74.73,37.23 C74.4749677,35.8044528 74.354438,34.3580968 74.37,32.91 C74.3506795,32.5139908 74.0507927,32.1885271 73.657684,32.1369316 C73.2645753,32.0853361 72.8908581,32.3223893 72.77,32.7 L72.86,32.72 Z" id="Path" fill="#FFFFFF"></path>
                <path d="M46.63,25 L45.63,31.43 C45.47,32.51 45.34,33.6 45.2,34.69 C45.06,35.78 44.69,37.09 45.2,38.21 C45.4023136,38.5475291 45.7486393,38.7732388 46.1391189,38.8220487 C46.5295985,38.8708587 46.9208273,38.7373434 47.2,38.46 C48.04,37.46 47.97,36.17 48.09,34.93 C48.19,33.93 48.31,32.85 48.39,31.81 C48.57,29.6433333 48.7433333,27.48 48.91,25.32 C49.02,23.99 46.75,23.66 46.55,25 L46.63,25 Z" id="Path" fill="#FFFFFF"></path>
                <path d="M47.18,26.51 C48.1737225,27.0598665 49.2696096,27.4002041 50.4,27.51 C51.49,27.72 52.57,27.92 53.67,28.07 C54.77,28.22 56.01,28.41 57.19,28.56 C58.164825,28.5900852 59.1336506,28.7241787 60.08,28.96 L59.22,28.45 L59.37,28.59 L58.87,27.73 C58.8519152,28.1570326 58.798398,28.5818258 58.71,29 L58.52,30.66 L58.17,33.81 C57.94,35.91 57.79,38.03 57.49,40.11 L59.17,38.84 L53.36,38.41 C51.43,38.28 49.36,37.87 47.36,38.32 C45.67,38.72 45.94,40.96 47.36,41.49 C48.3732349,41.7848115 49.4248742,41.9263784 50.48,41.91 L53.31,42.05 C55.25,42.15 57.18,42.22 59.12,42.31 C60.0665494,42.2888402 60.8288402,41.5265494 60.85,40.58 C61.12,38.23 61.53,35.89 61.85,33.58 L62.35,29.98 C62.54,28.64 63.11,26.98 62.06,25.81 C61.19,24.89 59.73,24.92 58.56,24.74 C57.39,24.56 56.01,24.39 54.73,24.23 C53.45,24.07 52.44,23.95 51.28,23.87 C50.0165669,23.6261434 48.7166177,23.6431584 47.46,23.92 C46.9198128,24.0849476 46.525932,24.5504649 46.4526958,25.1105064 C46.3794596,25.6705478 46.640392,26.2216946 47.12,26.52 L47.18,26.51 Z" id="Path" fill="#FFFFFF"></path>
                <path d="M47.9,27.82 C47.4394954,29.3962425 47.3000749,31.0488859 47.49,32.68 C47.6287314,34.3345463 48.002487,35.960888 48.6,37.51 C48.7756672,38.2770847 49.5077706,38.783253 50.2874649,38.6766947 C51.0671593,38.5701365 51.6366001,37.8860906 51.6,37.1 C51.6952826,34.8888475 51.5342099,32.6740985 51.12,30.5 C50.9437871,29.7359145 50.2152507,29.2312742 49.4379879,29.3349093 C48.6607251,29.4385443 48.0898599,30.1164381 48.12,30.9 C48.2518471,33.6091936 48.6981758,36.2938776 49.45,38.9 C49.6841701,39.6829078 50.4532998,40.1789374 51.2630904,40.0693042 C52.072881,39.959671 52.6824313,39.2769893 52.7,38.46 C52.64,35.19 52.43,31.92 52.28,28.65 L49.28,29.45 C50.3493607,32.0071108 51.0626841,34.6988973 51.4,37.45 C51.611386,38.2081672 52.3029182,38.7319312 53.09,38.73 C53.8677755,38.7112369 54.5454702,38.1948981 54.77,37.45 C55.4503923,34.5416817 55.6296302,31.5386012 55.3,28.57 L52.17,29 C52.7749819,30.4599696 53.2664398,31.9644326 53.64,33.5 C53.82,34.25 53.98,35.02 54.12,35.78 L54.21,36.36 C54.21,36.45 54.21,36.55 54.21,36.64 C54.21,36.73 54.21,36.9 54.21,36.78 C54.21,36.66 54.21,36.71 54.21,36.92 C54.2148531,37.0166058 54.2148531,37.1133942 54.21,37.21 C54.21,37.54 54.29,37.86 54.33,38.21 C54.5961964,39.0957482 55.4670949,39.6563092 56.3835584,39.5317897 C57.3000218,39.4072702 57.9897834,38.634663 58.01,37.71 L57.7,30.5 L54.26,30.96 C54.72,32.69 55.09,34.45 55.49,36.2 C55.7622297,37.1609339 56.7546483,37.7261229 57.72,37.47 C58.6718623,37.1801283 59.2300349,36.1956348 58.99,35.23 C58.7,33.49 58.26,31.77 57.88,30.05 L54.81,31.34 C55.0969473,31.7372374 55.3543073,32.1550297 55.58,32.59 L55.73,32.92 C55.73,32.92 55.85,33.18 55.73,33.03 C55.84,33.28 55.93,33.54 56.02,33.8 C56.35,34.75 56.54,35.74 56.84,36.7 C57.0812983,37.4463552 57.8226434,37.9126169 58.5998726,37.8068547 C59.3771019,37.7010925 59.9669045,37.0536936 60,36.27 C60,33.92 58.84,31.62 57.66,29.65 C57.2319577,28.9321394 56.3413129,28.6380987 55.57,28.96 C54.78658,29.2861806 54.3608925,30.1375556 54.57,30.96 C54.84,32.71 55.05,34.48 55.41,36.22 L58.91,35.22 C58.45,33.49 57.91,31.77 57.56,30.02 C57.12,28.08 54.1,28.52 54.12,30.49 L54.19,37.7 L57.93,37.7 C57.4613917,34.252185 56.4488083,30.900534 54.93,27.77 C54.26,26.3 51.85,27.04 51.93,28.58 C52.0000041,29.9565035 51.9799614,31.336111 51.87,32.71 C51.7343496,33.9938478 51.527363,35.2691526 51.25,36.53 L54.62,36.53 C54.0221216,33.5516241 53.0999611,30.6476568 51.87,27.87 C51.5266646,27.2080241 50.7694,26.8735967 50.0488639,27.0657397 C49.3283278,27.2578826 48.8381327,27.924966 48.87,28.67 C48.95,31.94 48.97,35.22 49.15,38.48 L52.63,38 C51.8686493,35.686942 51.3721418,33.2949836 51.15,30.87 L48.15,31.27 C48.5395388,33.1770921 48.6707155,35.1279253 48.54,37.07 L51.36,36.31 C50.6532103,35.0615612 50.1406678,33.7127652 49.84,32.31 C49.5893496,30.8873701 49.4721736,29.444432 49.49,28 C49.4908013,27.5949392 49.1922584,27.251559 48.7910194,27.1960417 C48.3897804,27.1405244 48.0092154,27.3899399 47.9,27.78 L47.9,27.82 Z" id="Path" fill="#FFFFFF"></path>
                <path d="M8.55,15.08 L11.64,20.65 C12.15,21.56 12.64,22.46 13.2,23.37 C13.76,24.28 14.26,25.63 15.3,26.13 C15.6980771,26.3504181 16.1832452,26.3429325 16.5743328,26.1103383 C16.9654203,25.8777441 17.2036264,25.4550125 17.2,25 C17.25,23.84 16.4,22.85 15.82,21.92 C15.24,20.99 14.68,20.08 14.09,19.18 L10.63,13.82 C10.2673284,13.3064126 9.57174354,13.1561567 9.02941705,13.474252 C8.48709055,13.7923474 8.27874442,14.4727936 8.55,15.04 L8.55,15.08 Z" id="Path" fill="#FFFFFF"></path>
                <path d="M9.65,15.79 C10.7651831,15.6538108 11.836982,15.2749265 12.79,14.68 C13.79,14.16 14.86,13.68 15.86,13.08 C17.8,11.99 19.69,10.71 21.68,9.74 L20.68,10 L21,10 L20,9.74 L20.2,9.88 L19.51,9.18 C20.75,10.98 21.8,12.94 22.92,14.81 C24.04,16.68 25.3,18.59 26.4,20.53 L27,18.15 C25.38,19.22 23.74,20.28 22.12,21.36 C20.5,22.44 18.53,23.36 17.33,24.85 C16.38,26.02 17.23,28.12 18.93,27.59 C20.63,27.06 22.37,25.59 23.93,24.5 L28.73,21.15 C29.5440962,20.6532476 29.8182602,19.6008116 29.35,18.77 C28.07,16.66 26.93,14.46 25.71,12.31 L24,9.16 C23.4,8.1 22.82,6.53 21.52,6.16 C20.22,5.79 18.93,6.77 17.83,7.38 C16.73,7.99 15.72,8.58 14.67,9.19 C13.62,9.8 12.48,10.51 11.41,11.19 C10.2470293,11.775056 9.22380128,12.6038707 8.41,13.62 C8.15783107,14.0608292 8.15838798,14.6023308 8.4114631,15.0426404 C8.66453823,15.4829499 9.13215796,15.7559995 9.64,15.76 L9.65,15.79 Z" id="Path" fill="#FFFFFF"></path>
                <path d="M11.17,16.3 C11.4313752,17.07104 11.7874296,17.8066618 12.23,18.49 C12.7245865,19.1977237 13.2728699,19.866362 13.87,20.49 C15.017967,21.744323 16.3417379,22.825571 17.8,23.7 C19.05,24.42 20.8,22.92 19.88,21.63 C18.6306913,19.7958653 17.1670137,18.1173359 15.52,16.63 C14.9262939,16.0362939 13.9637061,16.0362939 13.37,16.63 C12.7762939,17.2237061 12.7762939,18.1862939 13.37,18.78 C15.1517524,20.8380513 17.1650722,22.6835945 19.37,24.28 C20.0897767,24.6963823 21.0069267,24.5120952 21.51,23.85 C21.9952372,23.1898451 21.9405807,22.2775022 21.38,21.68 C19.38,19.13 17.18,16.68 15.08,14.16 L13.16,16.65 C15.5682949,18.0038733 17.7761911,19.686721 19.72,21.65 C20.3401099,22.264572 21.3196439,22.3244562 22.01,21.79 C22.6878869,21.2496447 22.8779128,20.2995152 22.46,19.54 C21.2207776,16.8399304 19.5298362,14.371156 17.46,12.24 L15.51,14.77 C18.0849726,16.3466164 20.4561278,18.2341365 22.57,20.39 C23.3019933,21.1117919 24.4780067,21.1117919 25.21,20.39 C25.9211978,19.6536939 25.9211978,18.4863061 25.21,17.75 L20.59,12.23 L18.42,15 C19.71,16 20.95,17.09 22.21,18.13 C22.928937,18.8169889 24.061063,18.8169889 24.78,18.13 C25.477391,17.4152655 25.477391,16.2747345 24.78,15.56 C23.49,14.36 22.09,13.26 20.73,12.12 L19.1,14.92 C21,15.54 22.39,16.82 23.98,17.92 C24.6775119,18.3200285 25.5635592,18.1402508 26.05,17.5 C26.5247834,16.8599725 26.4742866,15.9720709 25.93,15.39 C24.5,13.6 22.1,12.54 20,11.7 C18.4,11.07 17.22,13.42 18.37,14.51 C19.52,15.6 20.89,17 22.22,18.15 L24.43,15.3 C23.13,14.3 21.81,13.3 20.55,12.3 C20.108777,11.8569906 19.4647275,11.6830228 18.8604586,11.8436285 C18.2561898,12.0042341 17.7835044,12.4750135 17.6204586,13.0786285 C17.4574128,13.6822435 17.628777,14.3269907 18.07,14.77 L22.53,20.46 L25.17,17.82 C22.7975046,15.469502 20.0710439,13.5056404 17.09,12 C16.3923368,11.6292626 15.5289948,11.8158497 15.0466949,12.4416028 C14.5643951,13.067356 14.6038185,13.9497504 15.14,14.53 C16.8447615,16.6019949 18.2826702,18.8798034 19.42,21.31 L22.16,19.2 C19.8837541,17.1965971 17.3917722,15.4525452 14.73,14 C14.0426262,13.6028855 13.1676655,13.7736095 12.68,14.4 C12.2124256,15.0328924 12.2672606,15.9102522 12.81,16.48 C14.87,19 16.88,21.6 19,24.09 L21,21.49 C18.9917657,20.1099234 17.1495704,18.5026163 15.51,16.7 L13.36,18.85 C14.8434963,20.1214234 16.1515952,21.5842075 17.25,23.2 L19.32,21.12 C17.9525134,20.5604761 16.6805835,19.7912453 15.55,18.84 C14.453228,17.8211609 13.4492706,16.7067683 12.55,15.51 C12.06,14.87 10.92,15.56 11.2,16.3 L11.17,16.3 Z" id="Path" fill="#FFFFFF"></path>
                <path d="M38.25,65.72 L33.89,70.32 C33.18,71.08 32.48,71.85 31.78,72.62 L30.73,73.78 C30.2272576,74.2241709 29.8773399,74.8155318 29.73,75.47 C29.6366288,75.9014912 29.7704005,76.350764 30.084593,76.6609025 C30.3987856,76.971041 30.8497578,77.0989669 31.28,77 C31.8779682,76.8320505 32.4090672,76.4826433 32.8,76 L33.8,74.81 C34.5,73.99 35.21,73.18 35.89,72.35 L40,67.42 C40.4495615,66.9424975 40.4495615,66.1975025 40,65.72 C39.5287749,65.2548827 38.7712251,65.2548827 38.3,65.72 L38.25,65.72 Z" id="Path" fill="#FFFFFF"></path>
                <path d="M37.84,67 C38.3034298,68.0341235 38.985806,68.9553314 39.84,69.7 C40.63,70.51 41.41,71.32 42.23,72.09 C43.05,72.86 43.78,73.55 44.57,74.26 C44.99,74.64 45.41,75.02 45.84,75.39 L46.54,76.02 L46.82,76.27 C47.04,76.49 47.02,76.42 46.82,76.05 L46.82,75 L46.74,75.23 L47.24,74.37 C45.91,76.1 44.35,77.69 42.91,79.37 C41.47,81.05 40,82.74 38.47,84.37 L40.92,84.37 C39.36,83.1 37.8,81.82 36.23,80.56 C34.66,79.3 33.12,77.73 31.23,76.98 C30.5879885,76.8203914 29.9124949,77.0572261 29.5107145,77.5827983 C29.1089341,78.1083704 29.0575774,78.8223346 29.38,79.4 C30.52,81.03 32.38,82.15 33.96,83.4 C35.54,84.65 37.2,85.88 38.82,87.13 C39.5005131,87.5252514 40.361603,87.4145399 40.92,86.86 C42.55,85 44.31,83.2 46,81.39 L48.53,78.66 C49.43,77.66 50.71,76.66 50.53,75.25 C50.42,74.01 49.3,73.25 48.46,72.44 C47.62,71.63 46.63,70.73 45.7,69.89 C44.77,69.05 43.82,68.23 42.85,67.43 C41.9120079,66.4762554 40.7890441,65.7242099 39.55,65.22 C39.0561967,65.10135 38.5365111,65.2535051 38.1846749,65.6197439 C37.8328388,65.9859827 37.7016447,66.5113515 37.84,67 L37.84,67 Z" id="Path" fill="#FFFFFF"></path>
                <path d="M37.7,68.73 C36.4193922,69.767744 35.3615762,71.0534496 34.59,72.51 C33.7680489,73.9573703 33.1521085,75.5123674 32.76,77.13 C32.5890716,77.7897063 32.8690908,78.4836668 33.45,78.84 C34.0466774,79.1870838 34.8023147,79.0885224 35.29,78.6 C36.6560077,76.8772817 37.8108898,74.9972411 38.73,73 C39.1252045,72.2702721 38.8842452,71.359008 38.18,70.92 C37.4523174,70.5083263 36.5290896,70.7524491 36.1,71.47 C34.6653443,73.7738932 33.5041731,76.2371871 32.64,78.81 C32.4694817,79.5888671 32.876792,80.3789519 33.6101445,80.6918489 C34.3434969,81.004746 35.1957215,80.7520627 35.64,80.09 C37.47,77.37 39.17,74.57 40.91,71.81 L38,70.55 C37.4485221,73.2487388 36.522919,75.8572565 35.25,78.3 C34.8036911,79.0602186 34.9925237,80.0337322 35.6906918,80.5719564 C36.3888599,81.1101805 37.3783785,81.0450685 38,80.42 C40.2072185,78.4138556 42.0569548,76.0467342 43.47,73.42 L40.56,72.2 C40.2184312,73.7097045 39.7706502,75.1933967 39.22,76.64 C38.7,78 38.01,79.29 37.35,80.64 C36.8712104,81.5234884 37.1546459,82.6267066 38,83.17 C38.8934201,83.6809489 40.0314313,83.3831101 40.56,82.5 L44.43,76.42 L41.23,75.07 C40.62,76.76 39.91,78.41 39.23,80.07 C39.0002639,80.9456787 39.449078,81.8570844 40.2832574,82.2088468 C41.1174367,82.5606092 42.0833414,82.2457717 42.55,81.47 C43.37,79.74 44.05,77.93 44.79,76.16 L41.49,75.71 C41.49,77.71 40.69,79.41 40.1,81.27 C39.8920629,82.0467072 40.2890468,82.8577496 41.03,83.17 C41.7685202,83.4636789 42.6113263,83.1855529 43.03,82.51 C44.36,80.59 44.67,77.99 44.84,75.71 C44.8206593,74.9617931 44.3114878,74.3154275 43.5886103,74.1214284 C42.8657327,73.9274293 42.1013548,74.2320117 41.71,74.87 C41,76.45 40.14,78 39.44,79.64 L42.76,81 C43.37,79.31 43.96,77.62 44.63,76 C44.8638281,75.1594095 44.4351105,74.2762513 43.63,73.94 C42.8247763,73.6047391 41.8953461,73.9060612 41.44,74.65 L37.36,80.65 L40.59,82.54 C42.1015995,79.5727617 43.1407743,76.3877585 43.67,73.1 C43.8688714,72.3241975 43.4746774,71.5188549 42.74,71.2 C42.0019308,70.8929855 41.1503742,71.1739992 40.74,71.86 C39.2799272,74.1146034 37.5430607,76.1773423 35.57,78 L38.31,80.12 C39.5531481,77.3377413 40.4854577,74.4267891 41.09,71.44 C41.2708353,70.6838091 40.8782758,69.9077517 40.1619728,69.6053678 C39.4456698,69.3029838 38.6157468,69.5629759 38.2,70.22 C36.4,72.95 34.54,75.65 32.81,78.43 L35.81,79.7 C36.5242606,77.3624786 37.5039824,75.114487 38.73,73 L36,71.79 C35.2732907,73.4615846 34.3320471,75.0314445 33.2,76.46 L35.78,77.53 C35.9001009,76.15224 36.2376137,74.8021887 36.78,73.53 C37.4029045,72.1952926 38.1459681,70.9200347 39,69.72 C39.56,68.89 38.38,68.2 37.72,68.72 L37.7,68.73 Z" id="Path" fill="#FFFFFF"></path>
                <path d="M29.25,5.27 C29.18,6.18 29.95,7.27 30.36,8 L31.6,10.35 C32.45,11.96 33.24,13.63 34.22,15.17 C34.5480505,15.7082458 35.1898403,15.9682113 35.8,15.81 C36.0185266,15.7178372 36.2236922,15.5967559 36.41,15.45 C36.8572613,15.0013295 36.9474881,14.3082236 36.63,13.76 C35.8,12.13 34.76,10.61 33.8,9.06 L32.4,6.81 C32.17,6.43 31.94,6.05 31.7,5.68 C31.4473126,5.19460811 31.071405,4.7842136 30.61,4.49 C30.3292825,4.33693815 29.9892268,4.34060027 29.7118708,4.49967211 C29.4345147,4.65874396 29.2596381,4.95041069 29.25,5.27 L29.25,5.27 Z" id="Path" fill="#FFFFFF"></path>
                <path d="M32.63,7.56 C33.9599073,6.50507736 35.3747224,5.56186726 36.86,4.74 C38.3381778,3.97577028 39.902685,3.39159805 41.52,3 L39.77,2.28 C41.5,6.28 43.26,10.28 44.97,14.35 L45.56,12.11 L42,13.7 C41.45,13.94 40.84,14.15 40.31,14.44 C39.95,14.59 39.96,14.6 40.31,14.44 L40.15,14.44 L39.55,14.51 L39.67,14.51 L40.38,14.7 L40.38,14.7 L41,15.51 L41,15.44 L41,16.13 L41,16 C41.1728134,15.3598416 40.7982194,14.6998425 40.16,14.52 C39.6419313,14.3966845 39.0973209,14.5572988 38.7290752,14.9420024 C38.3608294,15.3267061 38.2241653,15.8778144 38.37,16.39 C38.529364,16.9445711 38.9059246,17.4112868 39.4142714,17.6842878 C39.9226181,17.9572888 40.5196681,18.0134381 41.07,17.84 C42.1058,17.4463274 43.1089144,16.9715199 44.07,16.42 L47.22,15 C47.9822648,14.5299343 48.2418016,13.5445743 47.81,12.76 C45.99,8.76 44.23,4.76 42.44,0.76 C42.0824538,0.157015361 41.3666004,-0.133416581 40.69,0.05 C37.0630901,1.01905239 33.7707307,2.96265111 31.17,5.67 C30.7561479,6.10313824 30.7180101,6.77266823 31.08,7.25 C31.4408973,7.73524976 32.1102295,7.86911618 32.63,7.56 L32.63,7.56 Z" id="Path" fill="#FFFFFF"></path>
                <path d="M34.71,5.44 C34.0460164,6.54445324 33.4740847,7.70169499 33,8.9 C32.32,10.27 34,11.79 35.2,10.6 C35.7394219,9.95915347 36.2025292,9.25778079 36.58,8.51 L37.8,6.51 L35,4.81 C34.0923584,6.54669831 33.7068436,8.50900333 33.89,10.46 C33.9157032,11.2598446 34.4608552,11.9490563 35.2332848,12.158256 C36.0057145,12.3674557 36.8241681,12.0475538 37.25,11.37 C38.57,9.46 39.69,7.37 40.91,5.44 L37.91,4.18 C36.58,7.76 35.16,11.32 33.91,14.94 C33.7313672,15.5616421 33.8979458,16.2313626 34.3469873,16.6968842 C34.7960288,17.1624058 35.459313,17.3530047 36.0869873,17.1968842 C36.7146616,17.0407637 37.2113672,16.5616421 37.39,15.94 C38.39,13.45 39.3,10.94 40.39,8.47 L37.3,7.17 L34.9,14.69 C34.7073723,15.4696234 35.0514797,16.2829525 35.7451528,16.6875951 C36.438826,17.0922378 37.3161809,16.9914284 37.9,16.44 C39.51,14.63 41.07,12.75 42.61,10.87 L39.75,9.15 C39.2163589,11.1113178 38.5033522,13.0193637 37.62,14.85 C37.4511091,15.5506416 37.7139808,16.2847165 38.2892437,16.7188772 C38.8645065,17.1530378 39.6425263,17.2045415 40.27,16.85 C40.9858338,16.39883 41.6353972,15.850235 42.2,15.22 L39.54,13.2 C38.9596661,14.2381495 38.5733568,15.3733568 38.4,16.55 C38.2011663,17.319844 38.5250901,18.1296534 39.2,18.55 C39.8828638,18.9504579 40.7499745,18.8395007 41.31,18.28 C42.42,16.89 43.43,15.44 44.46,13.99 C45.49,12.54 43.54,10.88 42.22,11.76 L41.22,12.42 C40.7287598,12.7075988 40.4282673,13.2354246 40.431715,13.8046505 C40.4351628,14.3738763 40.7420271,14.8980234 41.2367151,15.1796505 C41.731403,15.4612775 42.3387598,15.4575988 42.83,15.17 L43.83,14.58 L41.83,12.01 C40.71,13.38 39.56,14.73 38.51,16.17 L41.76,17.05 C41.8438299,16.3137201 42.0606819,15.5987859 42.4,14.94 C42.8428625,14.2045105 42.6717189,13.254664 42,12.72 C41.330647,12.1999323 40.3787158,12.259964 39.78,12.86 C39.4031451,13.2598031 38.9419824,13.5706609 38.43,13.77 L40.9,16.24 C41.8904046,14.2872345 42.61998,12.2128197 43.07,10.07 C43.49,8.46 41.37,7.07 40.17,8.39 C38.55,10.19 36.92,11.99 35.36,13.85 L38.36,15.61 L40.58,8 C40.7741961,7.12669692 40.2583147,6.25232167 39.4,6 C38.502655,5.77368414 37.5861172,6.29364308 37.32,7.18 C36.32,9.66 35.2,12.1 34.14,14.56 L37.44,15.95 C38.76,12.37 39.88,8.71 41.1,5.1 C41.3030564,4.29374526 40.8745057,3.46235676 40.1,3.16 C39.3588025,2.88080074 38.5234333,3.16064942 38.1,3.83 C36.79,5.76 35.36,7.62 34.1,9.6 L37.4,10.03 C37.3243255,9.40896345 37.3243255,8.78103655 37.4,8.16 C37.5092228,7.47176593 37.7040674,6.79988823 37.98,6.16 C38.2013093,5.36435253 37.7964651,4.52826453 37.0350436,4.20846753 C36.2736222,3.88867053 35.3931873,4.18494129 34.98,4.9 L34,6.94 C33.5652857,7.66509122 33.2130934,8.43656012 32.95,9.24 L35.7,9.61 C35.7226767,8.24451689 35.6290048,6.8795834 35.42,5.53 C35.376023,5.3951138 35.2587892,5.29725164 35.118216,5.27808257 C34.9776429,5.25891351 34.838487,5.32181344 34.76,5.44 L34.71,5.44 Z" id="Path" fill="#FFFFFF"></path>
                <path d="M4.06,52.45 C3.50823024,53.203228 3.14477077,54.0775881 3,55 L2.3,57.68 C1.82,59.44 1.3,61.19 0.92,62.98 C0.76519263,63.5899317 1.02435722,64.2297443 1.56,64.56 L1.44,64.48 C1.69927003,64.7455008 2.08424522,64.8455944 2.44,64.74 L2.26,64.74 C2.8749137,64.7219835 3.41357445,64.3229755 3.61,63.74 C4.11,61.98 4.4,60.16 4.76,58.37 L5.3,55.67 C5.61981335,54.7698961 5.71590838,53.8055139 5.58,52.86 C5.48835845,52.5522732 5.24291268,52.314586 4.93240195,52.2328726 C4.62189121,52.1511593 4.29124265,52.2372427 4.06,52.46 L4.06,52.45 Z" id="Path" fill="#FFFFFF"></path>
                <path d="M5.21,56.49 C6.83025585,56.6275257 8.4359781,56.9018366 10.01,57.31 C11.5591287,57.7765551 13.0516193,58.4137983 14.46,59.21 L13.74,57.46 C12.25,61.58 10.74,65.71 9.26,69.81 L11.26,68.67 L7.63,67.38 C7.10071793,67.143719 6.55615815,66.9432676 6,66.78 C5.25,66.64 6.16,67.03 5.86,66.78 L5.64,66.61 C5.12,66.16 5.17,66.3 5.78,67.01 L5.64,68.01 L5.64,67.95 L5.18,68.41 L5.25,68.41 C5.82106965,68.0754543 6.01345448,67.3417075 5.68,66.77 C5.40903796,66.3283825 4.9281182,66.0592304 4.41,66.0592304 C3.8918818,66.0592304 3.41096204,66.3283825 3.14,66.77 C2.54660931,67.7724419 2.87785811,69.0661028 3.88,69.66 C4.8751975,70.1431341 5.92185099,70.5121465 7,70.76 L10.4,71.84 C11.2660977,72.0473643 12.1435226,71.542845 12.4,70.69 C13.81,66.55 15.27,62.42 16.7,58.29 C16.8817177,57.615912 16.5964769,56.9028101 16,56.54 C12.6966866,54.7468073 8.96413098,53.8958261 5.21,54.08 C4.58689977,54.1368217 4.1098863,54.6593143 4.1098863,55.285 C4.1098863,55.9106857 4.58689977,56.4331783 5.21,56.49 L5.21,56.49 Z" id="Path" fill="#FFFFFF"></path>
                <path d="M7.91,56.33 C7.60478293,56.3629374 7.30541132,56.4369394 7.02,56.55 L6.1,57 C5.52,57.27 4.94,57.51 4.35,57.73 C3.69169301,57.932612 3.27135915,58.5757228 3.35,59.26 C3.43626537,59.9551041 4.02958369,60.4753325 4.73,60.47 C5.57061631,60.3836588 6.397074,60.1921625 7.19,59.9 L9.48,59.25 L8.6,56.08 C6.60427836,56.7818024 4.86334917,58.0631263 3.6,59.76 C3.24216771,60.3945993 3.29724667,61.1814417 3.74,61.76 C4.19431906,62.3256224 4.93605027,62.5754687 5.64,62.4 C7.91,61.92 10.13,61.19 12.37,60.6 L11.11,57.6 C7.73,59.3 4.25,60.92 0.88,62.72 C0.0904209633,63.2537383 -0.150002562,64.3083142 0.330213657,65.131542 C0.810429877,65.9547698 1.84674588,66.264581 2.7,65.84 C5.26,64.64 7.8,63.38 10.39,62.26 L8.68,59.34 L1.78,63.16 C1.07756547,63.5732832 0.737972274,64.4050563 0.950435472,65.1918705 C1.16289867,65.9786848 1.87501239,66.5264658 2.69,66.53 C5.11,66.31 7.53,66 9.94,65.7 L9.06,62.47 C7.33412529,63.5364019 5.51297797,64.4402802 3.62,65.17 C2.21,65.8 2.62,68.17 4.05,68.46 C4.88529088,68.6300338 5.74050209,68.6805384 6.59,68.61 L6.14,65.28 C4.86878815,65.7053116 3.68601966,66.3593927 2.65,67.21 C2.09380604,67.7716433 1.98314956,68.6364032 2.38,69.32 C2.80177533,69.9935937 3.60836319,70.3202618 4.38,70.13 C5.99,69.9 7.58,69.54 9.17,69.23 C10.76,68.92 10.75,66.35 9.17,66.07 L7.97,65.87 C7.42159731,65.7199484 6.83480077,65.8738644 6.43065096,66.2737693 C6.02650115,66.6736742 5.86639805,67.2588129 6.01065095,67.8087693 C6.15490385,68.3587258 6.5815973,68.7899485 7.13,68.94 L8.3,69.23 L8.71,66 C6.94,66.24 5.17,66.43 3.42,66.75 L5.12,69.67 C5.67909221,69.1934165 6.31470962,68.8147508 7,68.55 C7.80545239,68.311379 8.31829239,67.5230464 8.21,66.69 C8.10871539,65.8503551 7.39573106,65.2189774 6.55,65.22 C6.02305898,65.2778376 5.49003493,65.2021826 5,65 L5,68.48 C7.05824618,67.7426174 9.00881567,66.7337022 10.8,65.48 C11.4667956,65.0769297 11.7915952,64.2852307 11.6,63.53 C11.3928305,62.7789073 10.7091395,62.2589747 9.93,62.26 C7.51,62.46 5.09,62.65 2.68,62.94 L3.59,66.3 L10.38,62.3 C10.9016078,61.9945379 11.2206312,61.4340049 11.2168971,60.8295483 C11.2131631,60.2250917 10.8872389,59.6685428 10.3618971,59.3695483 C9.8365553,59.0705537 9.19160776,59.0745379 8.67,59.38 C6.11,60.57 3.47,61.64 0.87,62.76 L2.7,65.84 C6.12,64.14 9.44,62.24 12.8,60.44 C13.4861865,60.0299425 13.7706952,59.1806629 13.47,58.44 C13.1716657,57.666969 12.3435791,57.2379086 11.54,57.44 C9.27,57.95 6.96,58.32 4.72,58.94 L6.72,61.58 C7.1091026,61.0186787 7.58114437,60.5196631 8.12,60.1 C8.21,60.03 8.21,60.03 8.12,60.1 L8.34,59.94 L8.8,59.63 C9.11880007,59.4214007 9.45311146,59.2375294 9.8,59.08 C10.4789746,58.6640297 10.7580376,57.8183844 10.46,57.08 C10.1503755,56.3256748 9.32569541,55.9219251 8.54,56.14 L6.29,56.96 C5.47344407,57.2003061 4.68803362,57.5359516 3.95,57.96 L5.71,60 C6.15,59.45 6.61,58.92 7.09,58.4 L7.78,57.67 C7.9976952,57.4124525 8.17935931,57.1264998 8.32,56.82 C8.38553745,56.6922946 8.37129958,56.5382074 8.28347125,56.4246732 C8.19564293,56.311139 8.05007435,56.2586472 7.91,56.29 L7.91,56.33 Z" id="Path" fill="#FFFFFF"></path>
                <path d="M65.29,51.3 C64.35,51.3 63.51,52.19 62.8,52.73 L60.58,54.4 C59.06,55.55 57.48,56.65 56.06,57.93 C55.5568194,58.4217437 55.5004151,59.2119182 55.9286463,59.7701481 C56.3568774,60.328378 57.1346873,60.4786072 57.74,60.12 C59.29,58.98 60.69,57.67 62.14,56.41 L64.14,54.64 L65.22,53.7 C65.6423963,53.3823549 65.9622817,52.9477281 66.14,52.45 C66.2144801,52.1776354 66.1583068,51.8861272 65.9879497,51.6609424 C65.8175925,51.4357577 65.5523543,51.3024116 65.27,51.3 L65.29,51.3 Z" id="Path" fill="#FFFFFF"></path>
                <path d="M63.5,55.1 C64.743137,56.2126467 65.8843435,57.4341728 66.91,58.75 C67.9034193,60.1322317 68.7386421,61.6215446 69.4,63.19 L70,61.07 C66.32,63.43 62.64,65.81 58.94,68.14 L61.19,68.73 L59,65.49 L58,64 C57.95,63.93 57.65,63.24 57.75,63.62 C57.75,63.52 57.75,63.41 57.68,63.31 C57.6,63.0166667 57.58,63.1566667 57.62,63.73 L57,64.53 L57,64.53 L56.35,64.71 L56.44,64.71 C57.0982564,64.6992945 57.6292945,64.1682564 57.64,63.51 C57.6401323,63.0404244 57.4188971,62.5982618 57.0430006,62.3168314 C56.6671041,62.035401 56.1805343,61.9476364 55.73,62.08 C55.1636977,62.2666563 54.7021821,62.6831667 54.4586019,63.2274162 C54.2150217,63.7716658 54.2118992,64.3933311 54.45,64.94 C54.944673,65.8919637 55.5415232,66.7872389 56.23,67.61 L58.23,70.42 C58.6937898,71.1971032 59.6945603,71.4595275 60.48,71.01 C64.12,68.58 67.79,66.19 71.48,63.78 C72.1897945,63.3260957 72.4296087,62.4017211 72.03,61.66 C70.5065784,58.2515308 68.0744273,55.3281059 65,53.21 C64.4760583,52.8559557 63.7678572,52.9650502 63.374754,53.4603603 C62.9816507,53.9556704 63.0362267,54.6701435 63.5,55.1 Z" id="Path" fill="#FFFFFF"></path>
                <path d="M65.91,56.75 C64.6396162,56.2624294 63.3320648,55.8778554 62,55.6 C61.3249474,55.4205862 60.6209275,55.766196 60.35,56.41 C60.1046946,57.0709379 60.3814421,57.8117697 61,58.15 C61.7338961,58.5682573 62.5120061,58.9036495 63.32,59.15 L65.55,60.02 L66.42,56.87 C64.5384966,56.2858075 62.5287514,56.2545679 60.63,56.78 C59.22,57.16 58.76,59.38 60.2,60.07 C62.38,61.14 64.74,62 67,62.92 L67.88,59.75 C64.14,59.02 60.4,58.19 56.64,57.57 C55.6830907,57.3358135 54.7095502,57.8883635 54.42,58.83 C54.1636719,59.7898684 54.7244707,60.7779425 55.68,61.05 C58.44,61.66 61.23,62.2 63.97,62.89 L64.87,59.63 L57.08,58.47 C56.211156,58.2468955 55.3099737,58.6938263 54.9617624,59.5205151 C54.6135511,60.3472038 54.9233722,61.304224 55.69,61.77 C57.69,63.07 59.85,64.29 61.94,65.52 L62.81,62.29 C60.9492732,62.0874311 59.1113808,61.7124877 57.32,61.17 C56.5445834,60.9932688 55.7442132,61.340484 55.3434837,62.0274489 C54.9427542,62.7144137 55.0344797,63.582018 55.57,64.17 C56.1343751,64.7931307 56.7881755,65.3289774 57.51,65.76 L58.81,62.67 C57.678426,62.2808445 56.4861915,62.0979449 55.29,62.13 C54.5160378,62.154358 53.8489182,62.6817086 53.646537,63.4291393 C53.4441558,64.1765699 53.754063,64.9684694 54.41,65.38 C55.83,66.18 57.31,66.87 58.77,67.58 C59.4781956,67.9900019 60.3802585,67.8152055 60.8840504,67.1703519 C61.3878423,66.5254982 61.3391772,65.6079455 60.77,65.02 L59.95,64.13 C59.3244528,63.5189693 58.3255472,63.5189693 57.7,64.13 C57.0993643,64.7597456 57.0993643,65.7502544 57.7,66.38 L58.46,67.33 L60.46,64.76 C59.05,63.95 57.66,63.1 56.21,62.37 L55.33,65.62 C56.2152724,65.5473175 57.1061348,65.6527249 57.95,65.93 C59.82,66.53 60.85,63.83 59.26,62.84 C58.930796,62.61235 58.6517245,62.3196653 58.44,61.98 L56.44,64.63 C58.5330328,65.2755271 60.7013201,65.6453125 62.89,65.73 C63.6703012,65.7344922 64.355861,65.2131384 64.56,64.46 C64.7818941,63.6912635 64.4573337,62.8695915 63.77,62.46 C61.77,61.14 59.68,59.82 57.59,58.58 L56.61,62 L64.43,62.94 C65.2770417,62.9418527 65.9946133,62.3163633 66.1083831,61.4769947 C66.2221529,60.6376261 65.6969732,59.8436915 64.88,59.62 C62.12,59.01 59.39,58.25 56.65,57.56 L55.65,61.04 C59.4,61.77 63.2,62.29 66.97,62.91 C67.7796263,63.167109 68.6532587,62.7754806 69,62 C69.2962291,61.2592036 69.0127021,60.4128545 68.33,60 C66.09,59 63.89,57.79 61.6,56.87 L61.6,60.34 C62.8838299,59.8820294 64.2721384,59.8022017 65.6,60.11 C66.4698485,60.3502439 67.3697561,59.8398485 67.61,58.97 C67.8502438,58.1001515 67.3398485,57.2002439 66.47,56.96 L64.2,56.25 C63.4132621,55.9500418 62.5944989,55.7419954 61.76,55.63 L62,58.3 C63.3123397,58.0963624 64.6064154,57.7887268 65.87,57.38 C65.9793215,57.312637 66.0458995,57.1934094 66.0458995,57.065 C66.0458995,56.9365906 65.9793215,56.817363 65.87,56.75 L65.91,56.75 Z" id="Path" fill="#FFFFFF"></path>
                <path d="M12,28.5 C11.3064743,29.156001 10.7992465,29.984128 10.53,30.9 L9.42,33.43 C8.63,35.17 7.77,36.89 7.12,38.68 C7.00014899,39.1526866 7.13676438,39.6536097 7.48,40 C7.74917619,40.2586922 8.10669693,40.4052758 8.48,40.41 C8.97645234,40.4181761 9.43732438,40.1531747 9.68,39.72 C10.49,37.99 11.1,36.16 11.76,34.37 L12.76,31.77 C13.2083784,30.9181935 13.4190897,29.9613573 13.37,29 C13.2875182,28.724971 13.0800713,28.5050024 12.8103426,28.4065613 C12.5406139,28.3081202 12.2402461,28.3427549 12,28.5 L12,28.5 Z" id="Path" fill="#FFFFFF"></path>
                <path d="M12.33,32.68 C13.9281816,33.0576383 15.4906791,33.5728944 17,34.22 C18.4629322,34.9021071 19.8420902,35.7510779 21.11,36.75 L20.86,34.87 C18.75,38.7 16.65,42.54 14.51,46.36 L16.76,45.77 L13.19,43.84 C12.6608889,43.5031956 12.1096345,43.2025114 11.54,42.94 C11.15,42.7 11.17,42.76 11.54,43.11 L11.27,42.76 C11.1998779,42.7031907 11.1391346,42.6356981 11.09,42.56 C10.63,42.1866667 10.65,42.2266667 11.15,42.68 L11.34,43.39 L11.34,43.33 L11.16,44.01 L11.16,44.01 L10.7,44.47 L10.77,44.47 C11.3318232,44.1285037 11.5219871,43.4032271 11.2,42.83 C10.971229,42.4267402 10.5667058,42.153988 10.1070895,42.0930987 C9.64747321,42.0322094 9.1858831,42.19022 8.86,42.52 C8.45686828,42.9149868 8.22969385,43.4556156 8.22969385,44.02 C8.22969385,44.5843844 8.45686828,45.1250132 8.86,45.52 C9.76726554,46.164357 10.7692446,46.6636597 11.83,47 L15.05,48.61 C15.841335,49.0503708 16.8394583,48.7797684 17.3,48 C19.3,44.13 21.43,40.28 23.49,36.42 C23.8930117,35.6763968 23.6476628,34.747576 22.93,34.3 C19.9379654,32.0438319 16.3800634,30.6594342 12.65,30.3 C11.28,30.21 11.05,32.3 12.33,32.66 L12.33,32.68 Z" id="Path" fill="#FFFFFF"></path>
                <path d="M15.2,33 C13.8449126,33.1690184 12.5067229,33.4533837 11.2,33.85 C10.5310694,34.038319 10.1040041,34.691729 10.2,35.38 C10.3063506,36.064265 10.8877044,36.5740028 11.58,36.59 C12.3318116,36.6077718 13.0832288,36.540681 13.82,36.39 L16.06,36.12 L15.62,32.91 C13.6988411,33.289416 11.9299916,34.2207552 10.53,35.59 C10.0302212,36.1105266 9.88517691,36.877167 10.1602581,37.5442929 C10.4353392,38.2114189 11.0785859,38.6530173 11.8,38.67 C14.12,38.55 16.44,38.17 18.8,37.94 L18.36,34.71 C14.73,35.85 11.04,36.91 7.44,38.16 C6.81835787,38.3386328 6.33923632,38.8353384 6.1831158,39.4630127 C6.02699527,40.090687 6.2175942,40.7539712 6.6831158,41.2030127 C7.1486374,41.6520542 7.81835787,41.8186328 8.44,41.64 C11.16,40.85 13.87,40 16.6,39.3 L15.61,36 L8.21,38.69 C7.34572298,38.937438 6.79404206,39.781724 6.9145008,40.6726168 C7.03495955,41.5635096 7.79104573,42.2309708 8.69,42.24 C11.11,42.4 13.54,42.48 15.97,42.55 L15.09,39.33 C13.3447424,40.0311379 11.5455158,40.5896339 9.71,41 C8.93022789,41.2214253 8.3890369,41.9294496 8.38,42.74 C8.40905529,43.5412823 8.94310987,44.2359548 9.71,44.47 C10.5126512,44.747209 11.3515266,44.905551 12.2,44.94 L11.75,41.62 C10.5717896,41.8147334 9.43955041,42.2249158 8.41,42.83 C7.75406304,43.2415306 7.44415578,44.0334301 7.64653701,44.7808607 C7.84891824,45.5282914 8.51603782,46.055642 9.29,46.08 C10.92,46.08 12.55,46 14.17,45.94 C14.9770238,45.9237928 15.6522608,45.3227543 15.7618782,44.5230456 C15.8714956,43.7233369 15.3828961,42.9627694 14.61,42.73 L13.46,42.34 C13.0475524,42.2199041 12.6042141,42.2696162 12.2286081,42.4780776 C11.853002,42.6865389 11.5762799,43.0364604 11.46,43.45 C11.2281139,44.3102157 11.7253957,45.1982189 12.58,45.45 L13.7,45.92 L14.13,42.71 C12.51,42.71 10.88,42.59 9.25,42.63 L10.13,45.88 C10.8760257,45.3738705 11.7215556,45.032931 12.61,44.88 C13.4455211,44.6643523 13.9843933,43.8538886 13.86,43 C13.7379264,42.172997 13.0358207,41.5554823 12.2,41.54 C12.36,41.54 12.14,41.54 12.09,41.54 C12.04,41.54 11.78,41.46 11.63,41.42 L11.4,41.34 L11.1,41.18 L10.67,44.47 C12.8096664,44.0379495 14.8838322,43.3286319 16.84,42.36 C17.5360005,41.9578301 17.8632933,41.1292409 17.63,40.36 C17.4035877,39.6420206 16.7521334,39.1424391 16,39.11 C13.57,38.93 11.14,38.74 8.72,38.65 L9.2,42.19 L16.54,39.28 C17.4263569,39.0138828 17.9463159,38.097345 17.72,37.2 C17.6032399,36.758598 17.3138314,36.3827175 16.9169435,36.1569993 C16.5200557,35.9312811 16.0490545,35.8747011 15.61,36 C12.9,36.78 10.13,37.41 7.39,38.12 L8.39,41.6 C12.03,40.45 15.62,39.09 19.23,37.84 C20.0103792,37.6104315 20.5070158,36.8463753 20.4,36.04 C20.2994003,35.2262328 19.6099527,34.6138663 18.79,34.61 C16.48,34.76 14.14,34.77 11.84,35.02 L13.12,38.1 C13.3758303,37.8190832 13.6497474,37.5551874 13.94,37.31 C14.04,37.23 14.03,37.23 13.94,37.31 L14.23,37.1 C14.3747136,36.9953667 14.5249289,36.8985613 14.68,36.81 C15.2342315,36.441479 15.8459169,36.1677414 16.49,36 C17.0526933,35.8445895 17.4897329,35.4007909 17.63649,34.835779 C17.7832472,34.270767 17.6174262,33.6703804 17.20149,33.2607789 C16.7855539,32.8511775 16.1826933,32.6945895 15.62,32.85 L13.3,33.3 C12.467208,33.4094439 11.6510647,33.6210366 10.87,33.93 L12.57,36.12 C13.5984601,35.3469441 14.5616974,34.4907332 15.45,33.56 C15.5149852,33.4556476 15.5238978,33.3258332 15.4737841,33.2135785 C15.4236704,33.1013239 15.3210754,33.0212896 15.2,33 Z" id="Path" fill="#FFFFFF"></path>
                <g id="Group" opacity="0.3" transform="translate(10.000000, 8.000000)" fill="#FFDD15">
                    <path d="M6.59,30.33 C4.39,36.58 2.66,43 0.88,49.38 C0.685935922,50.127357 1.00760763,50.9132132 1.67,51.31 C10.6532923,56.0980725 18.9959597,62.0014421 26.5,68.88 C27.0941033,69.4070907 27.960373,69.4908003 28.6444092,69.0872189 C29.3284453,68.6836376 29.6740755,67.8849072 29.5,67.11 C27.9616436,59.9970827 26.9786811,52.7753175 26.56,45.51 L24.82,47.3 C33.743124,48.4825981 42.3389178,51.4408024 50.1,56 C51.9,57 54.18,54.93 53.01,53.08 C47.8243839,44.8816185 43.6221206,36.1011706 40.49,26.92 L37.61,29.8 C48.0563675,32.4716172 58.8362693,33.6068756 69.61,33.17 C70.4747264,33.1495047 71.2657296,32.6781663 71.6953151,31.9274146 C72.1249005,31.1766629 72.1304708,30.2558942 71.71,29.5 C67.4466949,20.5261977 63.7038293,11.3142743 60.5,1.91 C60.2473372,1.09616758 59.5436419,0.504162338 58.6985767,0.394497381 C57.8535114,0.284832424 57.0220193,0.677614865 56.57,1.4 C52.51,8.3 48.17,15.06 43.97,21.89 L47.42,21.45 C41.007714,16.2764744 35.2933983,10.2932497 30.42,3.65 C29.840204,2.70199046 28.6572478,2.31615171 27.63,2.74 C26.5973069,3.16485967 26.0438005,4.29332609 26.34,5.37 C28.76,12.17 28,19.37 26.81,26.37 C25.61,33.65 24,41 24.53,48.43 L28.8,47.86 C24.15,33.65 18.72,19.7 12.82,6 C12.3198124,5.1551733 11.3184954,4.7464725 10.37,5 C9.44441723,5.28861205 8.80258893,6.13101169 8.77,7.1 C7.84903733,15.1323317 7.45153148,23.216064 7.58,31.3 C7.63,34.07 11.94,34.08 11.89,31.3 C11.7696432,23.2151024 12.1805279,15.1310302 13.12,7.1 L9.07,8.2 C14.81,21.57 19.9,35.22 24.61,49 C25.35,51.18 29.1,51 28.87,48.42 C27.58,33.62 35.69,18.78 30.69,4.17 L26.62,5.9 C31.643342,12.8935558 37.5983802,19.1682147 44.32,24.55 C44.8063895,25.0156322 45.477129,25.2365624 46.1450287,25.1511334 C46.8129284,25.0657044 47.4064671,24.6830642 47.76,24.11 C51.94,17.26 56,10.32 60.28,3.56 L56.35,3.05 C59.3933594,12.9473969 63.1223826,22.6208041 67.51,32 L69.62,28.33 C59.2800818,28.6642325 48.9404853,27.6558193 38.86,25.33 C37.25,24.96 35.34,26.44 35.98,28.21 C39.4339664,37.6867197 43.9139292,46.7573031 49.34,55.26 L52.25,52.35 C48.0444364,49.976902 43.6039953,48.0465668 39,46.59 C34.3847654,45.189848 29.6467297,44.2321955 24.85,43.73 C24.3674574,43.7165631 23.8997396,43.8975105 23.5518805,44.2322073 C23.2040215,44.5669041 23.0051766,45.0272981 23,45.51 C23.4181281,53.0992845 24.4211038,60.6450046 26,68.08 L29,66.31 C21.3043124,59.1627779 12.6635984,53.1062027 3.32,48.31 L4.1,50.24 C5.77,43.82 7.64,37.46 9.17,31.01 C9.29661657,30.3074864 8.86658002,29.6243578 8.17838172,29.4347787 C7.49018342,29.2451995 6.7709906,29.6117479 6.52,30.28 L6.59,30.33 Z" id="Path"></path>
                    <path d="M14.86,22.63 L15.41,20.55 C15.5937536,19.8116437 15.2675455,19.0406929 14.6096439,18.6584613 C13.9517424,18.2762298 13.120427,18.3746758 12.57,18.9 C12.1620814,19.1718568 11.6893249,19.3305926 11.2,19.36 L13,22.5 L14.81,20.22 C15.4569671,19.5294297 15.5898623,18.5025129 15.14,17.67 C14.6585267,16.8375127 13.6808621,16.428448 12.75,16.67 C11.5491584,17.0664936 10.5789583,17.9637463 10.09,19.13 C9.70503178,20.3033833 9.53233001,21.5359998 9.58,22.77 C9.37033134,25.1562935 8.69061447,27.4775266 7.58,29.6 C6.58,31.48 8.69,34.09 10.7,32.72 L15.34,29.53 L12,26.94 C11.1376819,29.3127561 10.0352961,31.5912435 8.71,33.74 C7.34,35.98 10.71,38.74 12.44,36.62 L15.75,32.35 C16.6468141,31.3863762 16.6468141,29.8936238 15.75,28.93 C14.8007353,27.9973945 13.2792647,27.9973945 12.33,28.93 C10.74,30.93 9.14,32.93 7.54,34.86 L11.49,37.86 C13.62,34.68 15.88,31.51 17.77,28.2 C19.25,25.62 19.41,21.6 15.94,20.64 C14.7941324,20.3309391 13.5844126,20.8370463 13,21.87 C10.5280875,26.7215765 8.4966046,31.7852233 6.93,37 C6.24,39.31 9.53,41.5 11.17,39.47 C13.0566667,37.1566667 14.9666667,34.8033333 16.9,32.41 L12.97,29.41 C10.65,34.28 8.13,39.04 5.45,43.71 L9.73,46.21 L16.73,33.73 C18.31,30.9 14.22,28.6 12.43,31.21 C8.53,36.91 4.77666667,42.7066667 1.17,48.6 L5.49,51.12 C8.01272536,45.2182594 11.203546,39.6250964 15,34.45 L10.66,31.91 C8.310752,36.4153145 6.45981135,41.1633797 5.14,46.07 C4.92122085,47.2380152 5.54481374,48.4008779 6.63879321,48.8649176 C7.73277267,49.3289572 9.00226794,48.9690967 9.69,48 C12.08,43.91 14.49,39.84 16.87,35.74 L12.53,33.21 C10.0497848,38.0748503 7.94693216,43.1230338 6.24,48.31 C5.38,50.92 9.58,52.77 10.74,50.21 C12.9133333,45.4033333 15.09,40.6166667 17.27,35.85 L12.8,34 L7.06,49.7 C6.73221401,50.9999743 7.49252951,52.326106 8.78,52.7 C10.0761576,53.0009905 11.38491,52.2506391 11.78,50.98 C13.89,46 15.9,40.87 17.94,35.8 L13.31,34.53 C12,38.78 10.71,43 9.41,47.26 C9.23459738,47.8806146 9.3130982,48.5455007 9.62821087,49.1082019 C9.94332353,49.6709031 10.4691986,50.0852596 11.09,50.26 C12.3796165,50.6021828 13.7078836,49.8583532 14.09,48.58 C15.69,44.3733333 17.2933333,40.18 18.9,36 L14.26,34.72 L11.77,44.62 C11.14,47.13 15,49 16.14,46.45 C17.68,43.12 19.21,39.78 20.76,36.45 L16.41,34.61 C14.4496848,40.9839594 13.0805694,47.5249167 12.32,54.15 C12,56.93 16.32,57.31 17.07,54.79 C18.61,49.61 20.1433333,44.4266667 21.67,39.24 C22.0105807,37.9444629 21.256411,36.6135751 19.97,36.24 C18.66882,35.9392126 17.3609927,36.7142213 17,38 C15.3107477,42.0995417 13.8288736,46.2814972 12.56,50.53 L17.35,51.18 C17.7629004,48.0856176 18.9418899,45.1432996 20.78,42.62 L16.23,41.39 L15.17,53.89 C14.97,56.26 18.73,57.31 19.74,55.13 C21.3507036,51.675446 22.5134501,48.0292611 23.2,44.28 L18.37,43.62 L17.85,55.8 C17.8608774,57.1596123 18.9603877,58.2591226 20.32,58.27 C21.6686567,58.2333173 22.7533173,57.1486567 22.79,55.8 L23.93,47.26 L19,47.26 L20,62.16 C20.21,65.33 25.14,65.37 25,62.16 L24.42,50.87 L19.53,51.53 C20.17,55.19 20.69,58.89 21.48,62.53 C22.06,65.22 26.64,64.69 26.35,61.88 C25.84,56.88 25.41,51.82 25.12,46.76 C25.05,45.41 24.89,42.76 26.27,41.93 C26.5819187,41.7842393 26.9274371,41.7255012 27.27,41.76 C27.5109166,41.7655173 27.7417381,41.8578459 27.92,42.02 C27.85,41.95 27.8,42.02 27.79,41.84 C28,44.44 31.79,44.51 31.89,41.84 C31.9966667,38.46 32.0733333,35.08 32.12,31.7 L27.83,32.28 L28.49,35.72 C28.95,38.16 32.87,37.59 32.79,35.14 L32.52,26.6 L28.05,26.6 L28.62,36.33 C28.79,39.28 32.74,39.13 33.1,36.33 C33.7904599,31.0962026 34.0912872,25.8183555 34,20.54 L29.42,20.54 C29.9066667,26.2933333 30.3833333,32.0466667 30.85,37.8 C30.8691453,38.9527885 31.7118175,39.9260749 32.85,40.11 C34.0091782,40.2742713 35.1113675,39.5565667 35.43,38.43 C36.8800051,29.8150717 37.1089219,21.0388052 36.11,12.36 C36.0687913,11.0779136 35.0418999,10.0466524 33.76,10 C32.4500917,10.0108712 31.3908712,11.0700917 31.38,12.38 C32.3060222,23.4625956 31.3388771,34.6219623 28.52,45.38 L32,44 C31.3570385,43.5146163 30.9298424,42.7966396 30.81,42 C30.58,40.28 28.96,39 27.25,40 C23.75,42 27.15,47.18 30.58,45.33 C32.05,44.54 32.58,42.91 33.13,41.46 L35.13,36.46 L30.59,36.46 L32,44.58 C32.38,46.77 36.18,46.84 36.5,44.58 C36.93,41.48 37.41,38.39 37.87,35.3 L33.22,34.67 L32.61,44.47 C32.44,47.22 36.61,47.69 37.36,45.11 C38.11,42.53 38.73,40.11 39.36,37.65 L34.66,37.65 C35.2575712,39.3418577 35.5520817,41.1258467 35.53,42.92 C35.53,45.59 39.86,46.34 40.32,43.57 L41.32,37.65 L36.62,37.65 C38.0062264,40.9481468 39.1362383,44.348212 40,47.82 C40.67,50.55 44.56,49.82 44.72,47.18 L44.89,44.3 L40.42,45.51 C40.52,45.66 40.74,45.96 40.65,46.18 L44.4,45.69 C43.078614,44.2478751 41.3233875,43.2754796 39.4,42.92 L41.07,44.58 C38.5203518,36.6959651 37.2015258,28.4659513 37.16,20.18 L33.16,21.26 L37.36,27.16 C37.8573211,27.9456596 38.8085575,28.3155559 39.7059964,28.0722604 C40.6034354,27.828965 41.2375954,27.0292681 41.27,26.1 C41.41,24.97 41.56,23.85 41.72,22.72 L38.14,23.72 C39.1206866,24.5719389 39.9053225,25.6260802 40.44,26.81 C41.12,28.45 43.52,29.22 44.53,27.35 C45.3983965,25.7441808 45.9132482,23.9711814 46.04,22.15 L41.71,23.33 L42.85,25.57 L47,23.13 C46.41,22.32 45.83,21.5 45.22,20.7 C44.5191332,19.5811607 43.0668509,19.2038305 41.91,19.84 C40.7552022,20.5108867 40.3504662,21.9830584 41,23.15 C42.2097635,25.1312567 43.8589242,26.8077893 45.82,28.05 C47.02,28.82 49.16,28.14 49.38,26.6 L50.16,21.27 L45.72,21.85 L48.2,27 C49.2,29.13 52.95,28.15 52.74,25.77 L52.32,21.22 L47.78,22.46 L50.09,26.85 C51.3,29.16 54.45,27.85 54.64,25.61 L55,21.26 L50.45,22.49 L52.39,26.23 C53.0142267,27.2843745 54.3236005,27.7122745 55.45,27.23 C56.5694006,26.7467105 57.1714457,25.5214216 56.87,24.34 C56.2033333,20.9066667 55.5366667,17.4766667 54.87,14.05 L50.39,16 C52.21,20 53.85,24.11 55.31,28.27 C55.6688529,29.4224221 56.8025479,30.1515271 58,30 C59.2199208,29.8482393 60.1343445,28.8093166 60.13,27.58 C59.5366667,21.38 58.9033333,15.1866667 58.23,9 L53.77,10.2 C57.3206892,16.4839625 60.2095025,23.1195198 62.39,30 L66.31,27 C61.0294746,23.1483976 54.8145684,20.7798278 48.31,20.14 C46.69968,20.1718968 45.4018968,21.46968 45.37,23.08 C45.412636,24.6863042 46.713344,25.9737846 48.32,26 C53.7976092,26.5759628 59.0489897,28.4924247 63.61,31.58 C65.47,32.84 68.33,30.74 67.53,28.58 C64.8516854,21.4191148 61.6323933,14.4723973 57.9,7.8 C56.81,5.8 53.22,6.59 53.45,9.01 C54.0166667,15.19 54.6066667,21.3733333 55.22,27.56 L60.06,26.91 C58.4533333,22.35 56.6433333,17.87 54.63,13.47 C54.002092,12.4141404 52.6893192,11.9865271 51.56,12.47 C50.4421532,12.9603629 49.8418687,14.1862961 50.14,15.37 C50.8066667,18.8033333 51.4733333,22.23 52.14,25.65 L56.61,23.77 L54.68,20 C53.47,17.68 50.31,19 50.12,21.23 L49.75,25.61 L54.3,24.38 L52,20 C50.91,17.94 47.23,18.8 47.46,21.23 L47.88,25.78 L52.41,24.55 L49.91,19.4 C49.05,17.62 45.76,17.92 45.47,19.98 L44.69,25.31 L48.26,23.86 C46.9966059,23.0633597 45.938144,21.9809196 45.17,20.7 L41,23.15 C41.73,24.15 42.49,25.05 43.24,26 C44.95,28.17 48.24,25.4 46.96,23.13 L45.74,20.93 C44.58,18.85 41.5,19.88 41.41,22.1 C41.3700806,23.1079592 41.1179212,24.0961516 40.67,25 L44.54,25 C43.7489127,23.3090967 42.6029301,21.8084052 41.18,20.6 C40.5561553,20.0218545 39.6530276,19.8593302 38.8667657,20.1837169 C38.0805039,20.5081036 37.5547026,21.2601587 37.52,22.11 C37.39,23.43 37.25,24.75 37.08,26.11 L41,25 L36.86,19.1 C36.3679208,18.2688762 35.3819945,17.8679102 34.4495136,18.11968 C33.5170327,18.3714499 32.866897,19.2141526 32.86,20.18 C32.713863,28.8713297 33.9251055,37.5322193 36.45,45.85 C36.6729574,46.6567248 37.3032752,47.2870426 38.11,47.51 C39.2270671,47.6731898 40.2505992,48.2256847 41,49.07 C41.5285974,49.5854081 42.2635555,49.8313301 42.9958945,49.73784 C43.7282334,49.64435 44.3778387,49.2216751 44.76,48.59 C45.6529285,46.8442107 45.5695157,44.7588916 44.54,43.09 C43.9793641,42.1819364 42.8882817,41.7507178 41.8583243,42.0301457 C40.8283669,42.3095736 40.1048274,43.2330999 40.08,44.3 L39.89,47.18 L44.61,46.54 C43.7728435,43.0658192 42.6661584,39.6621773 41.3,36.36 C40.9825068,35.3430258 40.0640994,34.6322584 39,34.58 C37.9088199,34.5806523 36.9518793,35.3085815 36.66,36.36 L35.66,42.27 L40.45,42.92 C40.5092438,40.6880064 40.1706267,38.4632919 39.45,36.35 C38.7,34.13 35.38,33.9 34.72,36.35 C34.06,38.8 33.41,41.35 32.72,43.82 L37.46,44.47 L37.97,34.67 C38.11,32.06 33.69,31.37 33.32,34.04 C32.89,37.14 32.48,40.24 32.02,43.34 L36.52,43.34 L35.15,35.16 C34.863538,34.1432545 33.9363292,33.4406998 32.88,33.44 C31.8383605,33.4766665 30.9328876,34.1657875 30.62,35.16 L29.17,38.82 C28.92,39.43 28.69,40.05 28.44,40.66 C28.4144917,40.8438544 28.338316,41.016981 28.22,41.16 C27.79,41.76 28.14,41.72 29.28,41.02 L30.28,41.62 C29.8733333,41.26 29.9433333,41.49 30.49,42.31 L30.17,43.51 L30.27,43.34 L29.43,44.19 L29.62,44.08 L26.06,42.08 C26.3058082,44.4989422 27.5949836,46.6901753 29.59,48.08 C30.2281726,48.4466957 30.9997077,48.4988982 31.6814594,48.2215093 C32.3632111,47.9441204 32.8791299,47.3680827 33.08,46.66 C36.0423592,35.4906091 37.0572176,23.8941613 36.08,12.38 L31.38,12.38 C32.3639964,20.6347818 32.2159618,28.9852819 30.94,37.2 L35.54,37.82 C35.02,32.07 34.54,26.31 33.99,20.56 C33.73,17.68 29.36,17.56 29.42,20.56 C29.5384842,25.8291451 29.2711031,31.0998954 28.62,36.33 L33.1,36.33 L32.48,26.6 C32.3,23.78 27.94,23.73 28.05,26.6 L28.37,35.14 L32.68,34.55 L32,31.1 C31.52,28.63 27.73,29.27 27.72,31.68 C27.72,35.06 27.72,38.44 27.72,41.82 L31.82,41.82 C31.5676421,39.4358152 29.4829858,37.6728923 27.09,37.82 C24.5356432,37.8897154 22.3460411,39.6651793 21.75,42.15 C20.91,44.94 21.36,48.22 21.42,51.07 C21.49,54.68 21.37,58.28 21.28,61.89 L26.16,61.23 C25.65,57.55 24.87,53.89 24.23,50.23 C23.74,47.47 19.23,48.1 19.33,50.89 L20,62.16 L25,62.16 L24,47.26 C23.9169487,45.9540854 22.8335528,44.9374008 21.525,44.9374008 C20.2164472,44.9374008 19.1330513,45.9540854 19.05,47.26 L17.85,55.8 L22.79,55.8 L23.29,43.62 C23.4,40.9 19,40.21 18.46,43 C17.8693937,46.3267122 16.8614347,49.5656203 15.46,52.64 L20.03,53.88 L21.03,41.38 C21.037059,40.2933182 20.335827,39.3286176 19.3,39 C18.2349065,38.7413852 17.1236951,39.1923116 16.54,40.12 C14.2771872,43.3863962 12.8708476,47.1687277 12.45,51.12 C12.4532707,52.3382829 13.354669,53.3674701 14.5618918,53.5312895 C15.7691147,53.6951089 16.9121856,52.9433548 17.24,51.77 C18.5009936,47.5169103 19.9796081,43.3313964 21.67,39.23 L17,38 L12.41,53.51 L17.16,54.16 C17.876801,47.9650922 19.162222,41.8493001 21,35.89 C21.78,33.36 17.8,31.57 16.65,34.05 C15.11,37.39 13.56,40.71 12.01,44.05 L16.38,45.89 L18.9,36 C19.68,32.93 15.36,31.88 14.26,34.72 C12.6333333,38.9066667 11.0166667,43.0866667 9.41,47.26 L14.06,48.54 C15.35,44.29 16.62,40.04 17.94,35.8 C18.279311,34.522915 17.5314773,33.2097547 16.26,32.85 C14.9696764,32.5021709 13.6376716,33.2480935 13.26,34.53 C11.17,39.53 9.07,44.63 7.01,49.7 L11.82,51 L17.52,35.24 C18.45,32.67 14.2,30.83 13.05,33.36 C10.87,38.1466667 8.68333333,42.93 6.49,47.71 L10.99,49.61 C12.5879326,44.8381694 14.5538368,40.1975657 16.87,35.73 C18.36,32.87 14.19,30.4 12.53,33.2 C10.12,37.27 7.74,41.36 5.34,45.45 L9.94,47.39 C11.1341681,42.8894198 12.8105401,38.5308527 14.94,34.39 C16.47,31.46 12.49,29.28 10.6,31.85 C6.8045332,37.0132791 3.62311553,42.6008956 1.12,48.5 C0.412807064,49.7118617 0.803742871,51.26672 2,52 C3.19520557,52.6788425 4.71375906,52.2792231 5.42,51.1 C9.02,45.2066667 12.7666667,39.41 16.66,33.71 L12.36,31.19 L5.42,43.69 C3.87,46.48 8.11,48.97 9.7,46.19 C12.37,41.52 14.88,36.75 17.27,31.92 C17.8815188,30.8274121 17.6056222,29.4521738 16.62,28.68 C15.6298298,27.9074152 14.2192934,27.9931621 13.33,28.88 C11.39,31.22 9.47,33.58 7.55,35.88 L11.8,38.35 C13.2441817,33.5477872 15.118437,28.8855771 17.4,24.42 L14.5,25.6 C14.06,25.47 13.94,25.02 13.66,24.73 C13.38,24.44 13.79,24.62 13.66,24.84 C13.82,24.63 13.46,25.38 13.52,25.25 C12.9383542,26.3675056 12.269621,27.4374788 11.52,28.45 C10.04,30.73 8.58,33.02 7.14,35.34 C6.49349307,36.5359163 6.91212472,38.0290693 8.08612146,38.7145754 C9.26011821,39.4000816 10.766237,39.0308059 11.49,37.88 C12.91,36.02 14.32,34.16 15.75,32.32 L11.95,29.39 L8.71,33.71 L12.81,36.11 C14.3050002,33.5779281 15.5316451,30.8967371 16.47,28.11 C17.1,26.28 14.7,24.34 13.06,25.5 L8.46,28.76 L11.57,31.87 C12.6008073,29.8676729 13.3319426,27.7248063 13.74,25.51 C13.9301094,24.4490299 14.0503679,23.3767246 14.1,22.3 C14.15,21.12 14.04,20.95 14.88,20.16 L11.56,17.61 L10.12,20.16 C9.72509699,20.819018 9.76349099,21.6505004 10.2174449,22.270322 C10.6713988,22.8901437 11.4525401,23.1776422 12.2,23 C13.2742206,22.706968 14.2444495,22.1179005 15,21.3 L12.11,20.1 L11.88,22.22 C11.69,23.97 14.45,24.22 14.88,22.63 L14.86,22.63 Z" id="Path"></path>
                </g>
            </g>
        </g>
    </g>
</svg>