<?xml version="1.0" encoding="UTF-8"?>
<svg width="28px" height="24px" viewBox="0 0 28 24" version="1.1" xmlns="http://www.w3.org/2000/svg" xmlns:xlink="http://www.w3.org/1999/xlink">
    <!-- Generator: Sketch 53.2 (72643) - https://sketchapp.com -->
    <title>24px (1)</title>
    <desc>Created with Sketch.</desc>
    <g id="Dashboard-Launch-Version-v2" stroke="none" stroke-width="1" fill="none" fill-rule="evenodd">
        <g id="Network-login" transform="translate(-825.000000, -476.000000)">
            <g id="24px-(1)" transform="translate(824.000000, 472.000000)">
                <path d="M0,0 L30,0 L30,30 L0,30 L0,0 Z M0,0 L30,0 L30,30 L0,30 L0,0 Z M0,0 L30,0 L30,30 L0,30 L0,0 Z M0,0 L30,0 L30,30 L0,30 L0,0 Z" id="Shape"></path>
                <path d="M15.0063665,9.05263158 C18.5206912,9.05263158 21.3728968,11.8821053 21.3728968,15.3684211 C21.3728968,16.1894737 21.207367,16.96 20.9145066,17.68 L24.6325603,21.3684211 C26.5552524,19.7768421 28.0704866,17.7178947 29,15.3684211 C26.7971805,9.82315789 21.3601637,5.89473684 14.9936335,5.89473684 C13.211005,5.89473684 11.5047749,6.21052632 9.9258754,6.77894737 L12.6762165,9.50736842 C13.4020009,9.21684211 14.1787176,9.05263158 15.0063665,9.05263158 Z M2.27330605,5.60421053 L5.17644384,8.48421053 L5.76216462,9.06526316 C3.64847658,10.6947368 1.99317872,12.8673684 1,15.3684211 C3.20281946,20.9136842 8.63983629,24.8421053 15.0063665,24.8421053 C16.9799909,24.8421053 18.8644839,24.4631579 20.583447,23.7810526 L21.1182356,24.3115789 L24.8490223,28 L26.466121,26.3957895 L3.89040473,4 L2.27330605,5.60421053 Z M9.31468849,12.5894737 L11.2883129,14.5473684 C11.2246476,14.8126316 11.1864484,15.0905263 11.1864484,15.3684211 C11.1864484,17.4652632 12.8926785,19.1578947 15.0063665,19.1578947 C15.2864939,19.1578947 15.5666212,19.12 15.8340155,19.0568421 L17.8076398,21.0147368 C16.9545248,21.4315789 16.0122783,21.6842105 15.0063665,21.6842105 C11.4920418,21.6842105 8.63983629,18.8547368 8.63983629,15.3684211 C8.63983629,14.3705263 8.8944975,13.4357895 9.31468849,12.5894737 L9.31468849,12.5894737 Z M14.8026376,11.6042105 L18.8135516,15.5831579 L18.8390177,15.3810526 C18.8390177,13.2842105 17.1327876,11.5915789 15.0190996,11.5915789 L14.8026376,11.6042105 Z" id="Shape" fill="#4E4E4E" fill-rule="nonzero"></path>
            </g>
        </g>
    </g>
</svg>