<svg xmlns="http://www.w3.org/2000/svg" xmlns:xlink="http://www.w3.org/1999/xlink" viewBox="0 0 73 38"><defs><style>.cls-1,.cls-2{fill:none;}.cls-2{stroke:#231f20;stroke-miterlimit:10;stroke-width:2px;opacity:0.2;}.cls-3{clip-path:url(#clip-path);}.cls-4{fill:#39b54a;}.cls-5{clip-path:url(#clip-path-2);}</style><clipPath id="clip-path"><rect class="cls-1" x="54" y="2.83" width="14" height="32.34"/></clipPath><clipPath id="clip-path-2"><path class="cls-1" d="M60.9,11.8v-6A.78.78,0,0,0,60.18,5H5.76A.79.79,0,0,0,5,5.82V32.18a.79.79,0,0,0,.72.82H60.18a.78.78,0,0,0,.72-.79v-6a4,4,0,0,1,4-4H68V15.8H64.9A4,4,0,0,1,60.9,11.8Z"/></clipPath></defs><g id="Layer_2" data-name="Layer 2"><g id="Layer_1-2" data-name="Layer 1"><path class="cls-2" d="M64.9,32.21v-6h3.55A3.59,3.59,0,0,0,72,22.6V15.4a3.59,3.59,0,0,0-3.55-3.6H64.9v-6A4.78,4.78,0,0,0,60.18,1H5.76A4.79,4.79,0,0,0,1,5.82V32.18A4.78,4.78,0,0,0,5.72,37H60.18A4.78,4.78,0,0,0,64.9,32.21Z"/><g class="cls-3"><path class="cls-4" d="M60.9,11.8v-6A.78.78,0,0,0,60.18,5H5.76A.79.79,0,0,0,5,5.82V32.18a.79.79,0,0,0,.72.82H60.18a.78.78,0,0,0,.72-.79v-6a4,4,0,0,1,4-4H68V15.8H64.9A4,4,0,0,1,60.9,11.8Z"/></g><g class="cls-5"><rect class="cls-4" x="37.67" y="2.83" width="14" height="32.34"/></g><g class="cls-5"><rect class="cls-4" x="21.33" y="2.83" width="14" height="32.34"/></g><g class="cls-5"><rect class="cls-4" x="5" y="2.83" width="14" height="32.34"/></g></g></g></svg>