<?xml version="1.0" encoding="UTF-8"?>
<svg width="53px" height="52px" viewBox="0 0 53 52" version="1.1" xmlns="http://www.w3.org/2000/svg" xmlns:xlink="http://www.w3.org/1999/xlink">
    <!-- Generator: Sketch 61.2 (89653) - https://sketch.com -->
    <title>steeringwheel</title>
    <desc>Created with Sketch.</desc>
    <g id="Dashboard-Launch-Version-v2" stroke="none" stroke-width="1" fill="none" fill-rule="evenodd">
        <g id="Dashboard-w/-Navbar-desktop" transform="translate(-501.000000, -464.000000)" fill="#FFFFFF" fill-rule="nonzero">
            <g id="main-panels" transform="translate(378.000000, 194.500000)">
                <g id="drive-mode" transform="translate(0.000000, 245.000000)">
                    <g id="steeringwheel" transform="translate(123.000000, 24.500000)">
                        <path d="M26.5,0.00219378272 C12.0514405,-0.182419331 0.187974691,11.3080276 0.00220749682,25.6668253 C-0.183559697,40.025623 11.378718,51.8153869 25.8272775,52 L27.1727225,52 C41.621282,51.8153869 53.1835597,40.025623 52.9977925,25.6668253 C52.8120253,11.3080276 40.9485595,-0.182419331 26.5,0.00219378272 Z M4.89813249,18.5728389 C8.09757973,9.43626482 16.7655048,3.3132177 26.5,3.3132177 C36.2344952,3.3132177 44.9024203,9.43626482 48.1018675,18.5728389 C48.3447951,19.6870776 48.4382288,21.0984466 47.709446,21.7669898 C47.1033056,22.2120189 46.3277137,22.362081 45.5978448,22.175544 C39.4714312,19.9504072 33.0207463,18.7335204 26.5,18.5728389 C19.9730247,18.7692542 13.5221522,20.0238132 7.40215519,22.2869679 C6.67228634,22.4735049 5.89669438,22.3234427 5.29055396,21.8784137 C4.56177123,21.0613053 4.65520491,19.6499363 4.89813249,18.5728389 Z M22.2581108,47.4687626 C21.5119584,47.9400298 20.5909167,48.0493217 19.7540881,47.7658929 C12.3973246,45.4919396 6.67803113,39.7035681 4.52439775,32.3522575 C4.33753039,31.4794372 4.26278344,30.495193 4.74863859,30.0123562 C5.09669894,29.6692744 5.56648254,29.4758589 6.05671016,29.4738075 C9.66325032,29.7709378 14.9889703,30.810894 18.3338961,34.265034 C20.9848469,37.4197383 22.5903634,41.3113046 22.9308333,45.407421 C23.0009022,46.145912 22.756979,46.8798688 22.2581108,47.4316213 L22.2581108,47.4687626 Z M26.5,33.7079146 C23.3419577,33.7079146 20.7818586,31.1637201 20.7818586,28.0252972 C20.7818586,24.8868743 23.3419577,22.3426798 26.5,22.3426798 C29.6580423,22.3426798 32.2181414,24.8868743 32.2181414,28.0252972 C32.2181414,31.1637201 29.6580423,33.7079146 26.5,33.7079146 L26.5,33.7079146 Z M33.2459119,47.7287516 C32.4090833,48.0121804 31.4880416,47.9028885 30.7418892,47.4316213 C30.2120451,46.8529797 29.9659089,46.071596 30.0691667,45.2959971 C30.4096366,41.1998807 32.0151531,37.3083144 34.6661039,34.1536101 C38.0110297,30.7737527 43.3180629,29.7152259 46.9432898,29.4366662 C47.4335175,29.4387176 47.9033011,29.6321331 48.2513614,29.9752149 C48.7372166,30.4394811 48.6624696,31.4422959 48.4756022,32.3151162 C46.3219689,39.6664269 40.6026754,45.4547983 33.2459119,47.7287516 L33.2459119,47.7287516 Z" id="Shape"></path>
                    </g>
                </g>
            </g>
        </g>
    </g>
</svg>