<?xml version="1.0" encoding="UTF-8"?>
<svg width="18px" height="58px" viewBox="0 0 18 58" version="1.1" xmlns="http://www.w3.org/2000/svg" xmlns:xlink="http://www.w3.org/1999/xlink">
    <!-- Generator: sketchtool 63.1 (101010) - https://sketch.com -->
    <title>2587E3AD-C1AD-41F6-A8A0-F548F6184833</title>
    <desc>Created with sketchtool.</desc>
    <defs>
        <polygon id="path-1" points="0 0 18 0 18 58 0 58"></polygon>
    </defs>
    <g id="Dashboard-Launch-Version-v2" stroke="none" stroke-width="1" fill="none" fill-rule="evenodd">
        <g id="Learn-page-overlay" transform="translate(-1208.000000, -678.000000)">
            <g id="Group-3" transform="translate(1217.000000, 707.000000) scale(-1, 1) translate(-1217.000000, -707.000000) translate(1208.000000, 678.000000)">
                <mask id="mask-2" fill="white">
                    <use xlink:href="#path-1"></use>
                </mask>
                <g id="Clip-2"></g>
                <path d="M15.2523415,39.9018108 C15.2419631,39.9009318 15.2329383,39.8960971 15.2225599,39.8938995 C15.582646,39.7462217 15.2586588,39.9207101 15.2523415,39.9018108 M14.9094024,39.664032 C14.8918042,39.6315077 14.8701449,39.6016205 14.8615714,39.5611849 C14.8899992,39.5827213 14.9021826,39.6205198 14.9094024,39.664032 M6.47174656,46.2840414 C7.52357691,49.1602426 8.88946728,51.9419475 10.7102032,54.4146718 C7.94412855,53.4749839 5.37434141,52.0399599 3.14839584,50.1579469 C4.15826128,48.7941247 5.26830103,47.4957906 6.47174656,46.2840414 M17.7887372,46.4167757 C17.753992,45.0700947 17.7192469,43.7225347 17.6845017,42.3758537 C17.667806,41.7209729 17.6506591,41.0652131 17.6339633,40.4098928 C17.6177189,39.7822621 17.6181701,39.1462806 17.346075,38.5643597 C16.0162835,35.7220014 12.450168,38.279113 10.7936818,39.3642812 C9.75990089,40.0420169 8.75906017,40.7707365 7.79341584,41.5407708 C7.25328674,39.5308582 6.8214542,37.4994093 6.44783107,35.5070774 C5.07652587,28.2036186 4.56572709,20.4936063 6.300277,13.2182765 C7.26682381,9.16592709 8.95579893,5.34520327 11.4876823,1.98377502 C11.9204173,1.40932592 11.5865029,0.512710646 11.0021527,0.179556539 C10.315372,-0.211613851 9.58346775,0.0771490096 9.14983027,0.652477145 C4.35409756,7.01976415 2.57036295,14.9811804 2.51486096,22.7654711 C2.48643311,26.7729898 2.9024724,30.7752343 3.57210614,34.7269342 C4.07072156,37.6677444 4.68846319,40.6111918 5.54490849,43.4812397 C5.46594225,43.5550786 5.38201241,43.6249618 5.30349741,43.6996798 C3.39025816,45.5140071 1.68233115,47.5322705 0.186033665,49.6859053 C-0.142014668,50.1575073 -0.0143149729,50.898973 0.397663195,51.2835506 C4.15781004,54.7970519 8.9946052,57.1849493 14.1477166,57.9747619 C14.7510186,58.0675 15.3498084,57.9132295 15.676503,57.3691071 C15.9761235,56.8702549 15.8953523,56.1766966 15.4648735,55.7710222 C12.1176073,52.6174856 10.0405695,48.5761241 8.61692094,44.2925886 C9.36461845,43.6561675 10.1380364,43.0491942 10.9367235,42.4787007 C11.7656434,41.8866709 12.6202838,41.3280445 13.4970347,40.8054584 C13.8954758,40.5681191 14.2961731,40.3312192 14.7067976,40.1140977 C14.7907274,40.070146 14.8548029,40.0420169 14.9166221,40.0174039 C14.9260981,40.2938603 14.9306104,40.5703166 14.9378302,40.846773 C14.9536235,41.4660529 14.9698679,42.0848932 14.9856612,42.7037336 C15.0167965,43.9049343 15.0474805,45.1061351 15.0786157,46.3073359 C15.1494597,49.0740972 15.220755,51.8408586 15.2920502,54.6076199 C15.3358201,56.3015196 18.0436853,56.3081123 17.9994642,54.6076199 C17.9295227,51.8773385 17.8586787,49.1470571 17.7887372,46.4167757" id="Fill-1" fill="#FFFFFF" mask="url(#mask-2)"></path>
            </g>
        </g>
    </g>
</svg>