<?xml version="1.0" encoding="UTF-8"?>
<svg width="20px" height="20px" viewBox="0 0 20 20" version="1.1" xmlns="http://www.w3.org/2000/svg" xmlns:xlink="http://www.w3.org/1999/xlink">
    <!-- Generator: sketchtool 63.1 (101010) - https://sketch.com -->
    <title>A541C022-E091-4DEE-B92D-A020D69ACF4C</title>
    <desc>Created with sketchtool.</desc>
    <g id="Dashboard-Launch-Version-v2" stroke="none" stroke-width="1" fill="none" fill-rule="evenodd">
        <g id="How-far-did-I-drive?" transform="translate(-454.000000, -483.000000)" fill="#FFFFFF" fill-rule="nonzero">
            <g id="Group-Copy" transform="translate(426.000000, 474.000000)">
                <g id="steeringwheel" transform="translate(28.000000, 9.000000)">
                    <path d="M10,0.000843762586 C4.54771339,-0.070161281 0.0709338455,4.34924138 0.000833017667,9.87185588 C-0.0692678101,15.3944704 4.29385584,19.928995 9.74614245,20 L10.2538576,20 C15.7061442,19.928995 20.0692678,15.3944704 19.999167,9.87185588 C19.9290662,4.34924138 15.4522866,-0.070161281 10,0.000843762586 Z M1.84835188,7.14339956 C3.05569046,3.62933262 6.32660558,1.2743145 10,1.2743145 C13.6733944,1.2743145 16.9443095,3.62933262 18.1516481,7.14339956 C18.2433189,7.57195291 18.2785769,8.11478715 18.0035645,8.37191916 C17.7748323,8.54308418 17.4821561,8.60080038 17.2067339,8.52905539 C14.8948797,7.67323354 12.460659,7.20520015 10,7.14339956 C7.53699043,7.21894394 5.10269895,7.70146662 2.79326611,8.57191072 C2.5178439,8.64365572 2.22516769,8.58593952 1.99643545,8.41477449 C1.7214231,8.10050204 1.7566811,7.5576678 1.84835188,7.14339956 Z M8.39928709,18.2572164 C8.11772015,18.438473 7.77015726,18.4805083 7.45437286,18.3714973 C4.6782357,17.4968998 2.52001175,15.2706031 1.70731991,12.443176 C1.63680392,12.1074758 1.60859753,11.7289204 1.79193909,11.5432139 C1.92328262,11.4112594 2.10055945,11.3368688 2.285551,11.3360798 C3.64650955,11.4503607 5.65621519,11.8503438 6.91845136,13.1788592 C7.91881016,14.392207 8.52466543,15.8889633 8.65314464,17.4643927 C8.67958572,17.7484277 8.58753925,18.0307188 8.39928709,18.2429313 L8.39928709,18.2572164 Z M10,12.9645825 C8.80828593,12.9645825 7.84221079,11.9860462 7.84221079,10.7789605 C7.84221079,9.57187472 8.80828593,8.59333839 10,8.59333839 C11.1917141,8.59333839 12.1577892,9.57187472 12.1577892,10.7789605 C12.1577892,11.9860462 11.1917141,12.9645825 10,12.9645825 L10,12.9645825 Z M12.5456271,18.3572122 C12.2298427,18.4662232 11.8822798,18.4241879 11.6007129,18.2429313 C11.4007717,18.0203768 11.3078901,17.7198446 11.3468554,17.4215374 C11.4753346,15.846108 12.0811898,14.3493517 13.0815486,13.1360039 C14.3437848,11.8360587 16.3464388,11.428933 17.714449,11.3217947 C17.8994406,11.3225837 18.0767174,11.3969743 18.2080609,11.5289288 C18.3914025,11.7074927 18.3631961,12.0931907 18.2926801,12.4288909 C17.4799883,15.256318 15.3217643,17.4826147 12.5456271,18.3572122 L12.5456271,18.3572122 Z" id="Shape"></path>
                </g>
            </g>
        </g>
    </g>
</svg>