<?xml version="1.0" encoding="UTF-8"?>
<svg width="198px" height="150px" viewBox="0 0 198 150" version="1.1" xmlns="http://www.w3.org/2000/svg" xmlns:xlink="http://www.w3.org/1999/xlink">
    <!-- Generator: Sketch 63.1 (92452) - https://sketch.com -->
    <title>closed eyes</title>
    <desc>Created with Sketch.</desc>
    <defs>
        <polygon id="path-1" points="0 0.000190384615 198 0.000190384615 198 149.769231 0 149.769231"></polygon>
    </defs>
    <g id="Dashboard-Launch-Version-v2" stroke="none" stroke-width="1" fill="none" fill-rule="evenodd">
        <g id="cam-off" transform="translate(-574.000000, -324.000000)">
            <g id="closed-eyes" transform="translate(574.000000, 324.000000)">
                <g id="Group-3">
                    <mask id="mask-2" fill="white">
                        <use xlink:href="#path-1"></use>
                    </mask>
                    <g id="Clip-2"></g>
                    <path d="M194.509615,26.2745365 C193.119808,17.7668827 186.839654,10.882575 178.479231,8.78009423 C163.654615,5.05045962 136.630154,0.000190384615 99,0.000190384615 C61.2778269,0.000190384615 34.2133846,5.07520962 19.4116154,8.80738269 C11.0810192,10.9079596 4.78563462,17.7427673 3.39519231,26.2212288 C1.73757692,36.3230365 0,52.3020173 0,74.8848058 C0,97.532325 1.74773077,113.538594 3.40915385,123.63596 C4.79832692,132.080152 11.0454808,138.909248 19.3373654,141.026325 C33.9309808,144.751517 60.69525,149.769421 99,149.769421 C137.166404,149.769421 163.875462,144.788325 178.503346,141.06694 C186.805385,138.95494 193.060154,132.106806 194.437904,123.651825 C196.142481,113.188921 198,96.7098635 198,74.5674981 C198,52.7341904 196.194519,36.5883058 194.509615,26.2745365" id="Fill-1" fill="#000000" mask="url(#mask-2)"></path>
                </g>
                <g id="Group-12" transform="translate(34.903846, 77.423077)" fill="#FFFFFF">
                    <path d="M45.2643865,7.86574038 C45.3475212,8.03708654 44.6139058,12.387375 44.5872519,12.5739519 C43.0413288,23.4366635 32.0415404,28.8569135 20.0225596,27.1409135 C7.985175,25.422375 -0.919748077,16.3321442 0.524636538,6.21256731 C0.548751923,6.04820192 1.05200192,1.67379808 1.18400192,1.57225962 C9.04180962,-4.50481731 9.33627115,14.9937404 21.5088288,16.7319519 C33.6813865,18.4701635 40.927425,-1.05631731 45.2643865,7.86574038" id="Fill-4"></path>
                    <path d="M0.317307692,24.75495 C0.317307692,24.75495 8.27665385,27.0465462 12.8915769,22.5763154 L4.52734615,14.6715462 C4.52734615,14.6715462 5.70709615,21.4479692 0.317307692,24.75495" id="Fill-6"></path>
                    <path d="M83.4587135,7.86574038 C83.3755788,8.03708654 84.1085596,12.387375 84.1352135,12.5739519 C85.6817712,23.4366635 96.6815596,28.8569135 108.699906,27.1409135 C120.737925,25.422375 129.642848,16.3321442 128.197829,6.21256731 C128.174348,6.04820192 127.670463,1.67379808 127.539098,1.57225962 C119.680656,-4.50481731 119.386194,14.9937404 107.214271,16.7319519 C95.0417135,18.4701635 87.795675,-1.05631731 83.4587135,7.86574038" id="Fill-8"></path>
                    <path d="M128.405475,24.75495 C128.405475,24.75495 120.446129,27.0465462 115.831206,22.5763154 L124.195437,14.6715462 C124.195437,14.6715462 123.015687,21.4479692 128.405475,24.75495" id="Fill-10"></path>
                </g>
            </g>
        </g>
    </g>
</svg>