<svg id="Layer_1" data-name="Layer 1" xmlns="http://www.w3.org/2000/svg" viewBox="0 0 813.32 270.37">
  <defs>
    <style>
      .cls-1, .cls-3 {
        fill: #10a0f9;
      }

      .cls-2 {
        fill: #0b7ad5;
      }

      .cls-3 {
        font-size: 104px;
        font-family: GothamRounded-Bold, Gotham Rounded;
        font-weight: 700;
      }
    </style>
  </defs>
  <title>optumi-full-vector</title>
  <path class="cls-1" d="M97.35,213.33a39.84,39.84,0,1,0,39.84,39.83A39.83,39.83,0,0,0,97.35,213.33Zm.14,60.06a19.93,19.93,0,1,1,19.93-19.93A19.93,19.93,0,0,1,97.49,273.39Z" transform="translate(-57.46 -203.54)"/>
  <path class="cls-2" d="M86.6,236.76a20.08,20.08,0,0,1,12.31-3.13,20.35,20.35,0,0,1,11.78,4.89,32.82,32.82,0,0,0,9-2.33c13.3-5.57,18.83-18.42,20.35-22.36,0,0-41.83-1.65-50,0-10,2-15.23,5.66-19.2,9.15A40.12,40.12,0,0,0,57.5,250.94s-1.16,16.35,9.81,28.38a11.75,11.75,0,0,0,9,.16,11,11,0,0,0,4.88-4.05,11.5,11.5,0,0,0,1.47-8.65,19.93,19.93,0,0,1,3.94-30Z" transform="translate(-57.46 -203.54)"/>
  <text class="cls-3" transform="translate(85.68 88.4)">ptumi</text>
</svg>
