<svg id="Layer_1" data-name="Layer 1" xmlns="http://www.w3.org/2000/svg" viewBox="0 0 291.54 282.17">
  <defs>
    <style>
      .cls-1 {
        fill: #10a0f9;
      }

      .cls-2 {
        fill: #0b7ad5;
      }
    </style>
  </defs>
  <title>optumi-vector</title>
  <path class="cls-1" d="M247.35,111.9A140.69,140.69,0,1,0,388,252.59,140.69,140.69,0,0,0,247.35,111.9ZM247.83,324a70.4,70.4,0,1,1,70.4-70.4A70.4,70.4,0,0,1,247.83,324Z" transform="translate(-106.46 -111.1)"/>
  <path class="cls-2" d="M209.39,194.65a71.14,71.14,0,0,1,43.45-11.06,72,72,0,0,1,41.59,17.27,116.48,116.48,0,0,0,31.7-8.21c47-19.67,66.5-65.05,71.87-79,0,0-147.73-5.83-176.77.09-35.2,7.18-53.79,20-67.79,32.31-23.73,21-34.35,45.81-38.25,56.39a142.47,142.47,0,0,0-8.61,42.28S102.51,302.47,141.24,345c2.7,1.18,16.6,6.93,31.78.56a38.63,38.63,0,0,0,17.23-14.3c8.81-13.45,5.86-27.74,5.22-30.56a70.64,70.64,0,0,1-13.78-22.9A71.37,71.37,0,0,1,180,234.88C181.41,229.65,187.9,208.59,209.39,194.65Z" transform="translate(-106.46 -111.1)"/>
</svg>
