<svg xmlns="http://www.w3.org/2000/svg" xmlns:xlink="http://www.w3.org/1999/xlink" viewBox="0 0 40 40"><defs><style>.cls-1{fill:none;}.cls-2{clip-path:url(#clip-path);}.cls-3{clip-path:url(#clip-path-2);}.cls-4{fill:#fff;}</style><clipPath id="clip-path"><path class="cls-1" d="M20,27.2a6,6,0,1,1,6-6A6,6,0,0,1,20,27.2Zm9.6-15.6H25.8L24.31,10a2.41,2.41,0,0,0-1.77-.78H17.46a2.44,2.44,0,0,0-1.78.78L14.2,11.6H10.4A2.41,2.41,0,0,0,8,14V28.4a2.41,2.41,0,0,0,2.4,2.4H29.6A2.41,2.41,0,0,0,32,28.4V14A2.41,2.41,0,0,0,29.6,11.6Zm-9.6,6a3.6,3.6,0,1,0,3.6,3.6A3.6,3.6,0,0,0,20,17.6Z"/></clipPath><clipPath id="clip-path-2"><rect class="cls-1" x="-558.4" y="-185.2" width="819.6" height="460.8"/></clipPath></defs><title>camera</title><g id="Layer_1" data-name="Layer 1"><g class="cls-2"><g class="cls-3"><rect class="cls-4" x="5" y="6.2" width="30" height="27.6"/></g></g></g></svg>