<svg xmlns="http://www.w3.org/2000/svg" viewBox="0 0 40 40"><defs><style>.cls-1{fill:#fff;}</style></defs><title>driving</title><g id="Layer_1" data-name="Layer 1"><path class="cls-1" d="M20,6a14,14,0,0,0-.36,28h.72A14,14,0,0,0,20,6ZM8.44,16a12.24,12.24,0,0,1,23.12,0c.13.6.18,1.36-.21,1.72a1.34,1.34,0,0,1-1.13.22A32.09,32.09,0,0,0,20,16a32.09,32.09,0,0,0-10.22,2,1.34,1.34,0,0,1-1.13-.22C8.26,17.34,8.31,16.58,8.44,16Zm9.29,15.56a1.56,1.56,0,0,1-1.34.16,12.29,12.29,0,0,1-8.15-8.3c-.1-.47-.14-1,.12-1.26a1,1,0,0,1,.7-.29c1.93.16,4.78.72,6.57,2.58a10.74,10.74,0,0,1,2.46,6A1.43,1.43,0,0,1,17.73,31.54ZM20,24.15a3.06,3.06,0,1,1,3.06-3.06A3.06,3.06,0,0,1,20,24.15Zm3.61,7.55a1.56,1.56,0,0,1-1.34-.16,1.43,1.43,0,0,1-.36-1.15,10.74,10.74,0,0,1,2.46-6C26.16,22.57,29,22,30.94,21.85a1,1,0,0,1,.7.29c.26.25.22.79.12,1.26A12.29,12.29,0,0,1,23.61,31.7Z"/></g></svg>