<svg xmlns="http://www.w3.org/2000/svg" viewBox="0 0 40 40"><defs><style>.cls-1{fill:#fff;}</style></defs><title>eyes</title><g id="Layer_1" data-name="Layer 1"><path class="cls-1" d="M16.07,18.29V22c-.07,3.73-2.57,6.74-5.64,6.74S4.85,25.71,4.8,22c0,0,0-3.64,0-3.68,0-3.8,2.53-6.89,5.64-6.89S16.07,14.49,16.07,18.29Z"/><path class="cls-1" d="M35.21,18.29c0,.05,0,3.65,0,3.7-.06,3.73-2.56,6.74-5.63,6.74S24,25.71,23.93,22V18.29c0-3.8,2.53-6.89,5.64-6.89S35.21,14.49,35.21,18.29Z"/><path class="cls-1" d="M5.25,11.27s-.58,2,.55,3.18l2-2.11A2.6,2.6,0,0,1,5.25,11.27Z"/><path class="cls-1" d="M34.65,11.27s.58,2-.55,3.18l-2-2.11A2.59,2.59,0,0,0,34.65,11.27Z"/></g></svg>