<svg xmlns="http://www.w3.org/2000/svg" viewBox="0 0 40 40"><defs><style>.cls-1{fill:#fff;}</style></defs><title>figure_8</title><g id="Layer_1" data-name="Layer 1"><path class="cls-1" d="M26.39,28.5H25.11c-3.64,0-6.61-3.46-6.61-7.72V19.22c0-2.56-1.65-4.72-3.61-4.72H13.61c-2,0-3.61,2.16-3.61,4.72v1.56c0,2.56,1.65,4.72,3.61,4.72h.9v3h-.9C10,28.5,7,25,7,20.78V19.22C7,15,10,11.5,13.61,11.5h1.28c3.64,0,6.61,3.46,6.61,7.72v1.56c0,2.56,1.65,4.72,3.61,4.72h1.28c2,0,3.61-2.16,3.61-4.72V19.22c0-2.56-1.65-4.72-3.61-4.72H25.11a3.09,3.09,0,0,0-2.14.94l-2.1-2.15a6.11,6.11,0,0,1,4.24-1.79h1.28C30,11.5,33,15,33,19.22v1.56C33,25,30,28.5,26.39,28.5Z"/><polygon class="cls-1" points="16 32.1 11.5 22.13 18.73 24.87 16 32.1"/></g></svg>