<svg xmlns="http://www.w3.org/2000/svg" xmlns:xlink="http://www.w3.org/1999/xlink" viewBox="0 0 40 40"><defs><style>.cls-1{fill:none;}.cls-2{clip-path:url(#clip-path);}.cls-3{fill:#fff;}</style><clipPath id="clip-path"><path class="cls-1" d="M20-20.8a6,6,0,0,1-6-6,6,6,0,0,1,6-6,6,6,0,0,1,6,6A6,6,0,0,1,20-20.8Zm9.6-15.6H25.8L24.31-38a2.41,2.41,0,0,0-1.77-.78H17.46a2.44,2.44,0,0,0-1.78.78L14.2-36.4H10.4A2.41,2.41,0,0,0,8-34v14.4a2.41,2.41,0,0,0,2.4,2.4H29.6A2.41,2.41,0,0,0,32-19.6V-34A2.41,2.41,0,0,0,29.6-36.4Zm-9.6,6a3.6,3.6,0,0,0-3.6,3.6A3.6,3.6,0,0,0,20-23.2a3.6,3.6,0,0,0,3.6-3.6A3.6,3.6,0,0,0,20-30.4Z"/></clipPath></defs><title>personality</title><g id="Layer_1" data-name="Layer 1"><path class="cls-3" d="M33,13.37A2.92,2.92,0,0,0,30.84,11,44.83,44.83,0,0,0,20,9.79,44.86,44.86,0,0,0,9.15,11,3,3,0,0,0,7,13.36,42.32,42.32,0,0,0,6.5,20,40.87,40.87,0,0,0,7,26.65,2.93,2.93,0,0,0,9.14,29,44.33,44.33,0,0,0,20,30.21,44.27,44.27,0,0,0,30.84,29,2.91,2.91,0,0,0,33,26.65,41,41,0,0,0,33.5,20,41.13,41.13,0,0,0,33,13.37ZM17.79,21.12c0,2.1-1.44,3.79-3.17,3.79s-3.14-1.7-3.17-3.8V19A4.43,4.43,0,0,1,12,16.86a2.06,2.06,0,0,1-.29-1.77A1.4,1.4,0,0,0,13,15.7a2.7,2.7,0,0,1,1.58-.53c1.75,0,3.17,1.73,3.17,3.87Zm10.76,0c0,2.1-1.44,3.79-3.17,3.79s-3.14-1.7-3.17-3.8V19c0-2.14,1.42-3.87,3.17-3.87a2.7,2.7,0,0,1,1.59.54,1.41,1.41,0,0,0,1.27-.62A2.1,2.1,0,0,1,28,16.82,4.37,4.37,0,0,1,28.55,19Z"/></g></svg>