<svg xmlns="http://www.w3.org/2000/svg" xmlns:xlink="http://www.w3.org/1999/xlink" viewBox="0 0 40 40"><defs><style>.cls-1{fill:none;}.cls-2{fill:#fff;}.cls-3{clip-path:url(#clip-path);}</style><clipPath id="clip-path"><path class="cls-1" d="M-195-93.34a6,6,0,0,1-6-6,6,6,0,0,1,6-6,6,6,0,0,1,6,6A6,6,0,0,1-195-93.34Zm9.6-15.6h-3.8l-1.49-1.6a2.37,2.37,0,0,0-1.77-.78h-5.08a2.42,2.42,0,0,0-1.78.78l-1.48,1.6h-3.8a2.41,2.41,0,0,0-2.4,2.4v14.4a2.42,2.42,0,0,0,2.4,2.4h19.2a2.41,2.41,0,0,0,2.4-2.4v-14.4A2.39,2.39,0,0,0-185.36-108.94Zm-9.6,6a3.6,3.6,0,0,0-3.6,3.6,3.6,3.6,0,0,0,3.6,3.6,3.6,3.6,0,0,0,3.6-3.6,3.6,3.6,0,0,0-3.6-3.6Z"/></clipPath></defs><title>rectangle</title><g id="Layer_1" data-name="Layer 1"><path class="cls-2" d="M27.94,29.37v-3.5a4.31,4.31,0,0,0,4.31-4.3V11.68a4.31,4.31,0,0,0-4.31-4.31H12.06a4.31,4.31,0,0,0-4.31,4.31v9.89a4.31,4.31,0,0,0,4.31,4.3h7.06v3.5H12.06a7.81,7.81,0,0,1-7.81-7.8V11.68a7.82,7.82,0,0,1,7.81-7.81H27.94a7.82,7.82,0,0,1,7.81,7.81v9.89A7.81,7.81,0,0,1,27.94,29.37Z"/><polygon class="cls-2" points="18 36.13 18 19.12 26.5 27.62 18 36.13"/></g></svg>