<svg xmlns="http://www.w3.org/2000/svg" xmlns:xlink="http://www.w3.org/1999/xlink" viewBox="0 0 40 40"><defs><style>.cls-1{fill:none;}.cls-2{fill:#fff;}.cls-3{clip-path:url(#clip-path);}</style><clipPath id="clip-path"><path class="cls-1" d="M20,78.2a6,6,0,1,1,6-6A6,6,0,0,1,20,78.2Zm9.6-15.6H25.8L24.31,61a2.41,2.41,0,0,0-1.77-.78H17.46a2.44,2.44,0,0,0-1.78.78L14.2,62.6H10.4A2.41,2.41,0,0,0,8,65V79.4a2.41,2.41,0,0,0,2.4,2.4H29.6A2.41,2.41,0,0,0,32,79.4V65A2.41,2.41,0,0,0,29.6,62.6Zm-9.6,6a3.6,3.6,0,1,0,3.6,3.6A3.6,3.6,0,0,0,20,68.6Z"/></clipPath></defs><title>sensors</title><g id="Layer_1" data-name="Layer 1"><rect class="cls-2" x="7" y="27.33" width="26" height="2.89"/><circle class="cls-2" cx="20" cy="23" r="3"/><path class="cls-2" d="M25.78,20.11a1.43,1.43,0,0,1-1.29-.8c0-.06-1.17-2.09-4.49-2.09a1.45,1.45,0,0,1,0-2.89c5.17,0,7,3.54,7.07,3.69a1.44,1.44,0,0,1-1.29,2.09Z"/><path class="cls-2" d="M28.67,15.78a1.45,1.45,0,0,1-1.13-.54A10,10,0,0,0,20,12.17a10,10,0,0,0-7.54,3.07,1.44,1.44,0,1,1-2.25-1.81A12.8,12.8,0,0,1,20,9.28a12.8,12.8,0,0,1,9.79,4.15,1.45,1.45,0,0,1-.22,2A1.48,1.48,0,0,1,28.67,15.78Z"/><path class="cls-2" d="M25.78,20.11a1.43,1.43,0,0,1-1.29-.8c0-.06-1.17-2.09-4.49-2.09s-4.45,2-4.5,2.11A1.44,1.44,0,0,1,12.93,18c.08-.15,1.9-3.69,7.07-3.69s7,3.54,7.07,3.69a1.44,1.44,0,0,1-1.29,2.09Z"/></g></svg>