<svg xmlns="http://www.w3.org/2000/svg" xmlns:xlink="http://www.w3.org/1999/xlink" viewBox="0 0 30 30"><defs><style>.cls-1,.cls-5{fill:none;}.cls-2{fill:#3399e4;}.cls-3{clip-path:url(#clip-path);}.cls-4{clip-path:url(#clip-path-2);}.cls-5{stroke:#fff;stroke-miterlimit:10;stroke-width:2px;}</style><clipPath id="clip-path"><path class="cls-1" d="M17.37-14.36a1,1,0,0,1-.88-.1.93.93,0,0,1-.23-.75,7,7,0,0,1,1.61-3.92,7,7,0,0,1,4.32-1.66.66.66,0,0,1,.46.19c.17.16.15.51.08.82A8,8,0,0,1,17.37-14.36ZM15-19.29a2,2,0,0,1-2-2,2,2,0,0,1,2-2,2,2,0,0,1,2,2A2,2,0,0,1,15-19.29Zm-1.49,4.84a1,1,0,0,1-.88.11,8.06,8.06,0,0,1-5.36-5.43.94.94,0,0,1,.08-.82.66.66,0,0,1,.46-.19,6.91,6.91,0,0,1,4.32,1.69,7,7,0,0,1,1.61,3.92.92.92,0,0,1-.23.71ZM7.4-24.61A8,8,0,0,1,15-30a8,8,0,0,1,7.6,5.37c.09.39.12.89-.14,1.12a.85.85,0,0,1-.74.14A21.15,21.15,0,0,0,15-24.61a21.37,21.37,0,0,0-6.72,1.3.85.85,0,0,1-.74-.14A1.34,1.34,0,0,1,7.4-24.61ZM15-31.15a9.18,9.18,0,0,0-9.32,9,9.18,9.18,0,0,0,9.08,9.27h.48a9.18,9.18,0,0,0,9.08-9.27A9.18,9.18,0,0,0,15-31.15Z"/></clipPath><clipPath id="clip-path-2"><path class="cls-1" d="M-245.63-71.36a1,1,0,0,1-.88-.1.93.93,0,0,1-.23-.75,7,7,0,0,1,1.61-3.92,7,7,0,0,1,4.32-1.66.66.66,0,0,1,.46.19c.17.16.15.51.08.82A8,8,0,0,1-245.63-71.36ZM-248-76.29a2,2,0,0,1-2-2,2,2,0,0,1,2-2,2,2,0,0,1,2,2A2,2,0,0,1-248-76.29Zm-1.49,4.84a1,1,0,0,1-.88.11,8.06,8.06,0,0,1-5.36-5.43.94.94,0,0,1,.08-.82.66.66,0,0,1,.46-.19,6.91,6.91,0,0,1,4.32,1.69,7,7,0,0,1,1.61,3.92.92.92,0,0,1-.23.71Zm-6.11-10.16A8,8,0,0,1-248-87a8,8,0,0,1,7.6,5.37c.09.39.12.89-.14,1.12a.85.85,0,0,1-.74.14A21.15,21.15,0,0,0-248-81.61a21.37,21.37,0,0,0-6.72,1.3.85.85,0,0,1-.74-.14A1.34,1.34,0,0,1-255.6-81.61Zm7.6-6.54a9.18,9.18,0,0,0-9.32,9,9.18,9.18,0,0,0,9.08,9.27h.48a9.18,9.18,0,0,0,9.08-9.27A9.18,9.18,0,0,0-248-88.15Z"/></clipPath></defs><title>shapes</title><g id="Layer_1" data-name="Layer 1"><circle class="cls-2" cx="15" cy="15" r="15"/><rect class="cls-5" x="6.75" y="7.85" width="10.4" height="10.4" rx="2"/><path class="cls-5" d="M15.27,11.8,11,19.15a2,2,0,0,0,1.73,3h8.49a2,2,0,0,0,1.73-3L18.74,11.8A2,2,0,0,0,15.27,11.8Z"/></g></svg>