<svg xmlns="http://www.w3.org/2000/svg" viewBox="0 0 40 40"><defs><style>.cls-1{fill:#fff;}</style></defs><title>square</title><g id="Layer_1" data-name="Layer 1"><path class="cls-1" d="M24.94,30.75v-3.5a4.31,4.31,0,0,0,4.31-4.31V13.06a4.31,4.31,0,0,0-4.31-4.31H15.06a4.31,4.31,0,0,0-4.31,4.31v9.88a4.31,4.31,0,0,0,4.31,4.31h1.06v3.5H15.06a7.81,7.81,0,0,1-7.81-7.81V13.06a7.81,7.81,0,0,1,7.81-7.81h9.88a7.81,7.81,0,0,1,7.81,7.81v9.88A7.81,7.81,0,0,1,24.94,30.75Z"/><polygon class="cls-1" points="14.98 37.5 14.98 20.5 23.48 29 14.98 37.5"/></g></svg>