<?xml version="1.0" encoding="UTF-8"?>
<svg width="256px" height="216px" viewBox="0 0 256 216" version="1.1" xmlns="http://www.w3.org/2000/svg" xmlns:xlink="http://www.w3.org/1999/xlink">
    <!-- Generator: Sketch 57.1 (83088) - https://sketch.com -->
    <title>orange-canvas</title>
    <desc>Created with Sketch.</desc>
    <defs>
        <linearGradient x1="50.0229522%" y1="100.3616%" x2="50.0229522%" y2="0.123452249%" id="linearGradient-1">
            <stop stop-color="#5B90C9" offset="13%"></stop>
            <stop stop-color="#5B90C9" offset="36%"></stop>
            <stop stop-color="#445EA6" offset="95%"></stop>
        </linearGradient>
        <linearGradient x1="49.9970397%" y1="100.00322%" x2="49.9970397%" y2="-0.0258519102%" id="linearGradient-2">
            <stop stop-color="#5B90C9" offset="13%"></stop>
            <stop stop-color="#5B90C9" offset="63%"></stop>
            <stop stop-color="#445EA6" offset="100%"></stop>
        </linearGradient>
        <linearGradient x1="49.9970397%" y1="100.00322%" x2="49.9970397%" y2="-0.0258519102%" id="linearGradient-3">
            <stop stop-color="#5B90C9" offset="13%"></stop>
            <stop stop-color="#5B90C9" offset="63%"></stop>
            <stop stop-color="#445EA6" offset="100%"></stop>
        </linearGradient>
        <linearGradient x1="45.5615633%" y1="37.4942006%" x2="61.107417%" y2="63.9828402%" id="linearGradient-4">
            <stop stop-color="#1F368E" stop-opacity="0.43321132" offset="0%"></stop>
            <stop stop-color="#1F368E" stop-opacity="0" offset="92.1399916%"></stop>
            <stop stop-color="#0D1C54" stop-opacity="0" offset="100%"></stop>
        </linearGradient>
        <linearGradient x1="50.0343284%" y1="-0.193976222%" x2="50.0343284%" y2="100.030897%" id="linearGradient-5">
            <stop stop-color="#EEEEEE" offset="13%"></stop>
            <stop stop-color="#D0E1F3" offset="95%"></stop>
        </linearGradient>
        <linearGradient x1="50.0027433%" y1="99.9594746%" x2="50.0027433%" y2="0.122064357%" id="linearGradient-6">
            <stop stop-color="#5B90C9" offset="2%"></stop>
            <stop stop-color="#5B90C9" offset="44%"></stop>
            <stop stop-color="#445EA6" offset="95%"></stop>
        </linearGradient>
    </defs>
    <g id="Page-1" stroke="none" stroke-width="1" fill="none" fill-rule="evenodd">
        <g id="Artboard" transform="translate(0.000000, -18.000000)">
            <g id="orange-canvas" transform="translate(0.000000, -1.000000)">
                <path d="M27.4809945,234 C23.6736012,234 21.0317365,233.430233 19.6331023,232.372093 C18.5452756,231.476744 18.0013623,230.093023 18.0013623,228.465116 C17.9236604,224.313953 21.1871403,218.860465 23.3627936,216.744186 C24.9168317,215.360465 25.1499374,210.232558 24.9168317,207.22093 C24.9168317,206.895349 24.9945336,206.569767 25.2276393,206.325581 C25.460745,206.081395 25.7715526,206 26.0046583,206 L27.092485,206 C27.1701869,206 27.1701869,206 27.3255907,206 C28.1803116,206.244186 29.2681383,206.325581 30.7444744,206.651163 C39.913299,208.360465 57.2408234,211.453488 60.4266014,218.209302 C61.2036205,219.918605 61.2036205,221.627907 60.3488995,223.5 C60.3488995,223.5 60.3488995,223.581395 60.2711976,223.581395 C55.8421892,229.930233 37.6599438,234 27.4809945,234 L27.4809945,234 Z" id="Path" fill="#212752" fill-rule="nonzero"></path>
                <path d="M25.7623023,208 C25.7623023,208 26.3742309,215.616591 23.9265163,217.749237 C21.4788017,219.881882 16.8128456,227.955469 20.1784533,230.697442 C25.3798469,234.429571 53.452074,229.631119 58.4239944,222.776187 C63.4724058,213.02695 33.870357,209.370986 26.7566863,208" id="Path" fill="url(#linearGradient-1)" fill-rule="nonzero"></path>
                <g id="Group">
                    <path d="M142.585958,79.4304163 C154.018879,84.5308781 174.152006,93.221889 179.481345,88.4325062 C183.033948,82.8703207 176.544526,76.1480314 176.544526,76.1480314 C176.544526,76.1480314 149.65912,42.9235562 188.278206,13.8790355 C183.721962,23.922097 196.546203,36.4395536 196.546203,36.4395536 C196.546203,36.4395536 210.374264,45.9440475 212.30649,54.9062802 C222.425025,50.040223 233.394305,53.7499736 235.402729,54.1365116 C251.161733,62.0960692 265.21924,52.8267526 265.21924,52.8267526 C265.21924,52.8267526 266.071898,77.0860553 253.173429,89.2913399 C239.811535,101.882861 211.848779,102.111226 211.848779,102.111226 C211.848779,102.111226 207.510792,138.250847 186.819387,170.452068 C166.127983,202.653289 126.67219,69.2303406 142.585958,79.4304163 Z" id="Path" fill="url(#linearGradient-2)" fill-rule="nonzero" transform="translate(202.063397, 94.679174) rotate(-14.000000) translate(-202.063397, -94.679174) "></path>
                    <path d="M14.0362544,180.852786 C14.0362544,180.852786 -18.0655597,114.257903 14.8262319,63.9640876 C24.6650429,48.976376 39.8900644,34.143177 63.8766548,25.5677338 C89.6586486,17.2240594 117.379678,21.0096154 136.339139,28.2717024 C197.454673,51.9893696 206.607362,107.876287 206.607362,132.131126 C206.607362,185.676471 192.018247,205.555097 179.872039,216.911765 C167.72583,228.268433 149.535578,234.264706 114.866113,234.599362 C80.1966487,234.934017 56.9823054,224.425308 56.9823054,224.425308 C56.9823054,224.425308 55.0432697,223.034696 51.7397273,220.407984 C51.6679111,220.407984 51.2370143,220.176215 50.6624852,219.403652 C43.1217906,218.476577 6.56737591,211.755284 14.0362544,180.852786 Z" id="Path" fill="url(#linearGradient-3)" fill-rule="nonzero"></path>
                    <ellipse id="Oval" fill="#172D61" transform="translate(59.030675, 54.661765) rotate(-9.000000) translate(-59.030675, -54.661765) " cx="59.0306748" cy="54.6617647" rx="12.1532197" ry="7.80892288"></ellipse>
                    <path d="M198.718321,146.288542 C210.96709,118.691454 212.546802,97.4247305 213.319,95.3388427 C213.396217,95.1070763 241.281757,95.1104778 254.64365,82.5189568 C267.464874,70.3136629 266.14881,46.5951138 266.14881,46.5951138 C266.14881,46.5951138 261.902602,65.2911757 250.085557,77.4193336 C240.276569,86.9209442 229.616921,88.5420744 209.842407,90.7801615 C201.888841,112.875149 206.440241,122.928037 189.769094,159.240792 L198.718321,146.288542 Z" id="Path" fill="#222752" fill-rule="nonzero" opacity="0.1" transform="translate(227.978042, 102.917953) rotate(-14.000000) translate(-227.978042, -102.917953) "></path>
                </g>
                <path d="M121,25 C136.18619,33.5846548 147.440319,45.5393977 154.762388,60.8642287 C155.619226,63.0168806 163.642345,77.2397588 166.913907,90.2325503 C167.770745,100.303886 165.35602,111.682188 165.278126,118.293905 C164.81076,147.354705 170.964414,153.81266 170.964414,153.81266 C170.964414,153.81266 176.417018,171.341397 169.094949,185.564275 C157.644479,201.709164 136.184508,210.023782 140.15851,210.533755 C144.132512,211.043728 138.794046,210.16601 147.751897,215.240118 C153.593973,218.392216 157.488691,222.159356 165.823386,222.928161 C180.623313,224.850171 200.862861,187.765191 204.296704,164.557981 C207.730548,141.35077 207.730548,97.4593101 187.166439,68.552271 C169.562315,45.2831296 147.506836,30.765706 121,25 Z" id="Path" fill="url(#linearGradient-4)" fill-rule="nonzero"></path>
                <path d="M118.205069,234 C77.7520303,234 53.959044,223.269506 53.7257484,223.037458 C53.4146877,222.728059 49.7774566,220.453279 50.0107522,220.143881 C50.2440477,219.679784 54.0368091,219.525085 54.5034002,219.525085 L54.5811654,219.525085 C55.9809387,219.602434 57.4584771,219.834483 58.9360156,219.989182 C66.1681775,220.762677 74.4112867,221.613523 83.8208737,221.613523 C103.962056,221.613523 122.470169,217.591346 140.667221,209.160243 C142.611351,208.386748 144.633246,208 146.888436,208 C153.031885,208 159.564161,210.939283 166.485262,213.955916 C171.228938,216.044354 176.368049,220.776741 175.979223,220.854091 C163.614559,224.876268 158.658108,234 118.205069,234 Z" id="Path" fill="#212752" fill-rule="nonzero"></path>
                <path d="M55,221.387669 C73.9291585,223.199671 104.215812,227.880678 141.069725,211.195156 C149.583748,208.336638 154.460798,211.195156 162.028503,213.621644 C166.559835,215.383313 170.81905,216.803132 177,216.652132 C173.209447,220.668319 155.869846,233 118.166428,233 C80.4630087,233 56.0044043,222.21817 55,221.387669 Z" id="Path" fill="url(#linearGradient-5)" fill-rule="nonzero"></path>
                <g id="Group-7" transform="translate(167.000000, 193.000000)" fill-rule="nonzero">
                    <path d="M49.2663505,36 C40.9429735,36 29.6910009,33.9579832 23.6796731,32.8991597 C22.6007168,32.6722689 21.5988288,32.4453782 20.8281458,32.3697479 C15.8187059,31.5378151 5.95396282,27.605042 2.40882077,24.5042017 C2.33175247,24.5042017 2.33175247,24.4285714 2.33175247,24.2773109 C-1.13632128,19.6638655 -0.134433308,12.1008403 1.48400111,9.68067227 C2.7941623,7.78991597 16.3581841,0 29.6139326,0 C35.008714,0 39.7869489,1.28571429 43.7174325,3.93277311 L43.7945008,4.00840336 C48.2644625,8.09243697 50.8847849,12.5546218 53.8904488,17.7731092 C55.7400882,20.9495798 57.6667958,24.2773109 60.2871182,27.907563 C60.2871182,27.9831933 60.3641865,27.9831933 60.3641865,28.1344538 C61.2119378,30.0252101 61.2119378,31.6134454 60.3641865,32.8991597 C58.8228204,34.9411765 55.20061,36 49.2663505,36 Z" id="Path" fill="#212752"></path>
                    <path d="M1.3205346,9.33597588 C2.87353173,7.04230058 27.100287,-6.41392788 42.319659,3.75469931 C49.4634458,10.253446 51.8705914,17.9754862 58.7037787,27.6853783 C64.0616189,39.5360341 28.9638836,32.1198172 20.1894498,30.5907004 C15.1422091,29.7496861 5.51362686,25.8504381 2.17468302,22.945116 C-0.931311248,18.8165005 -0.232462537,11.6296512 1.3205346,9.33597588 Z" id="Path" fill="url(#linearGradient-6)"></path>
                </g>
                <g id="Group" transform="translate(97.000000, 129.000000)" fill-rule="nonzero">
                    <circle id="Oval" fill="#040000" cx="21.5" cy="21.5" r="21.5"></circle>
                    <ellipse id="Oval" fill="#FFFFFF" cx="24.94" cy="13.537037" rx="7.74" ry="7.16666667"></ellipse>
                </g>
                <g id="Group-2" transform="translate(61.000000, 186.000000)" fill-rule="nonzero">
                    <path d="M17.4639573,31 C16.6981571,31 16.085517,30.9233566 15.5494569,30.6934264 C7.27881503,27.5510471 2.30111393,10.3829261 1.76505381,8.46684119 C1.6884738,8.1602676 1.76505381,7.85369401 1.84163383,7.62376382 C2.07137388,7.39383362 2.30111393,7.16390343 2.607434,7.16390343 C2.607434,7.16390343 2.68401402,7.16390343 2.83717405,7.16390343 C2.91375407,7.16390343 3.14349412,7.16390343 3.44981419,7.24054683 C3.90929429,7.31719023 4.52193442,7.31719023 5.28773459,7.31719023 C6.35985483,7.31719023 7.43197507,7.08726003 8.27435525,6.78068645 C9.88253561,6.16753927 10.3420157,4.32809773 10.5717558,3.25509017 C10.6483358,2.79522978 10.6483358,2.64194299 10.8780758,2.258726 L10.9546558,2.18208261 C11.1843959,1.87550902 11.490716,1.72222222 11.797036,1.72222222 C12.2565161,1.72222222 12.5628362,1.95215241 12.7925763,2.258726 C13.0223163,2.56529959 14.7070767,5.47774869 18.0000174,6.78068645 C18.6126575,7.01061664 19.3018777,7.24054683 19.8379378,7.24054683 C21.6758582,7.24054683 22.8245585,6.24418266 23.0542985,6.16753927 C23.3606186,5.93760908 23.5903586,5.86096568 23.8200987,5.63103549 C23.8966787,5.63103549 23.8966787,5.63103549 24.0498387,5.63103549 C24.5093188,5.70767888 24.8922189,6.09089587 24.8922189,6.47411286 C25.198539,8.23691099 28.3383197,23.5655905 22.4416584,29.2372019 C21.1397981,30.233566 19.2252977,31 17.4639573,31 Z" id="Path" fill="#212752"></path>
                    <path d="M3.46666667,7.24643644 C3.54530592,7.71327144 8.81413594,25.9976424 16.9926184,29.03207 C18.8013212,29.6545166 21.3177773,29.03207 22.6546447,27.8649825 C28.5525887,22.1851566 24.8565438,5.84593143 24.8565438,5.61251392 L24.8565438,5.61251392 C24.7779045,5.69031976 22.3400876,8.33571811 18.5654035,6.77960143 C14.9479978,5.37909642 12.9033772,2.03344556 12.6674594,1.72222222 L12.6674594,1.72222222 C12.3529024,2.26686306 12.3529024,5.69031976 9.60052849,6.77960143 C6.76951534,7.94668894 3.93850219,7.24643644 3.46666667,7.24643644 Z" id="Path" fill="#DA6A7F"></path>
                    <path d="M25.8191631,2.85335252 C25.7404615,2.77623488 25.6617599,2.77623488 25.5830583,2.77623488 C25.2682518,2.77623488 25.032147,3.00758779 24.7960421,3.2389407 C24.7173405,3.31605833 22.0414855,5.55246976 20.1526467,5.55246976 C19.5230338,5.55246976 18.9721225,5.47535213 18.2638079,5.08976395 C14.95834,3.77876414 13.1482028,0.848293992 12.9120979,0.539823449 C12.6759931,0.231352907 12.3611866,0 11.8889769,0 C11.5741705,0 11.259364,0.0771176356 11.0232591,0.462705814 L10.9445575,0.539823449 C10.8658559,0.771176356 10.7084527,1.0796469 10.629751,1.54235271 C10.3936462,2.62199961 10.0001381,4.47282287 8.26870254,5.08976395 C7.40298475,5.39823449 6.37986373,5.6295874 5.19933948,5.6295874 C4.41232331,5.6295874 3.78271037,5.55246976 3.31050067,5.55246976 C2.9956942,5.55246976 2.20867803,5.47535213 1.34296024,5.24399922 C1.18555701,5.16688159 1.10685539,5.16688159 1.02815378,5.16688159 C0.634645691,5.01264631 0.241137606,4.93552868 0.00503275517,5.47535213 C-0.0736688618,6.32364612 0.792048925,6.40076376 1.10685539,6.47788139 C2.20867803,6.78635193 5.90765403,7.32617538 8.50480739,6.24652848 C11.259364,5.16688159 11.4167672,1.77370562 11.5741705,1.23388217 L11.5741705,1.23388217 C11.8102753,1.54235271 13.6991141,4.78129341 17.4767917,6.24652848 C21.333171,7.7888812 24.7960421,4.85841104 24.8747437,4.70417577 C25.1108486,4.47282287 25.3469534,4.24146996 25.5043567,4.08723469 C25.8978647,3.54741124 26.2126712,3.16182306 25.8191631,2.85335252 Z" id="Path" fill="#212752"></path>
                    <path d="M26,16.9800051 C25.7647059,20.5880968 24.9019608,23.9706828 22.7058824,26.0754029 C21.372549,27.3532687 18.7058824,27.8794487 16.9803922,27.3532687 C13.6862745,26.22574 10.9411765,22.6176484 8.66666667,18.6337138 L8.66666667,18.6337138 C10.8627451,16.9048366 14.0784314,15.7773079 17.7647059,15.5518022 C20.745098,15.3262964 23.4901961,15.8524765 25.6862745,16.829668 C25.8431373,16.829668 25.9215686,16.9800051 26,16.9800051 Z" id="Path" fill="#E88899"></path>
                </g>
                <g id="Group" transform="translate(16.000000, 161.000000)" fill="#000000" fill-rule="nonzero">
                    <path d="M32.5920269,12.3627424 C19.8318766,7.91792371 17.9710213,7.8169051 4.14752509,7.10977485 C2.5525063,6.80671903 1.48916043,4.9883841 1.7549969,3.17004917 L1.7549969,3.17004917 C2.02083336,1.14967703 3.52724,-0.062546256 5.1222588,0.139490958 C13.9834743,-0.668657899 26.4777882,2.1598631 33.5667606,5.39245853 C35.1617794,5.69551435 36.2251253,7.51384928 35.9592888,9.33218421 L35.9592888,9.33218421 C35.6934524,11.3525564 34.1870457,12.5647796 32.5920269,12.3627424 Z" id="Path" opacity="0.9"></path>
                    <path d="M33.7763256,13.350085 C19.7529251,16.0879929 17.8651596,16.7268381 4.11143984,22.8414989 C2.49335516,23.3890805 0.695483291,22.4764446 0.156121731,20.7424362 L0.156121731,20.7424362 C-0.383239829,19.0996915 0.515696104,17.2744196 2.22367438,16.7268381 C10.3140978,11.7986039 23.6183496,7.96553291 31.8885602,7.23542414 C33.5066448,6.68784257 35.3045167,7.60047853 35.8438783,9.33448683 L35.8438783,9.33448683 C36.3832398,11.0684951 35.4843039,12.893767 33.7763256,13.350085 Z" id="Path"></path>
                </g>
                <path d="M67.9904632,40.4251873 C46.3157816,49.7153187 30.6790469,66.7209829 22.3188126,86.0098151 C21.2350785,87.5844136 19.1450199,87.1120341 17.8290571,85.7736253 L17.8290571,85.7736253 C16.5130943,84.4352166 16.9775517,83.0968078 17.7516475,81.2072895 C28.6663979,58.4543406 42.3678931,46.2512019 63.4232982,35.6226617 C65.281128,34.7566325 66.6745004,34.7566325 67.9130537,35.8588515 L67.9130537,35.8588515 C69.2290165,37.1972603 69.4612452,39.5591581 67.9904632,40.4251873 Z" id="Path" fill="#75A1D0" fill-rule="nonzero"></path>
                <path d="M16.8090946,107.674604 C14.6292958,111.792709 13.5393964,116.204963 13.3836965,120.690755 C13.3058465,122.676269 11.2038977,123.26457 9.41334867,122.896882 L9.41334867,122.896882 C7.62279966,122.455657 7,120.690755 7,119.293541 C7,114.954824 8.01204944,110.689645 10.4253981,106.277391 C11.2038977,104.806639 12.6051969,103.703575 14.3957459,104.071263 L14.3957459,104.071263 C16.1862949,104.438951 17.5097442,106.130315 16.8090946,107.674604 Z" id="Path" fill="#82AFD1" fill-rule="nonzero"></path>
            </g>
        </g>
    </g>
</svg>