<svg id="Layer_2" data-name="Layer 2" xmlns="http://www.w3.org/2000/svg" viewBox="0 0 40 40"><defs><style>.cls-1{fill:#fff;}</style></defs><title>brake</title><path class="cls-1" d="M30.41,18.9V12.16A1.5,1.5,0,0,0,29,10.66a1.47,1.47,0,0,0-1.56,1.47V19a.49.49,0,0,1-1,0V9.26a1.49,1.49,0,0,0-1.38-1.5,1.46,1.46,0,0,0-1.56,1.46V18a.49.49,0,0,1-1,0V8.24a1.47,1.47,0,1,0-2.94,0V19a.49.49,0,0,1-1,0V10.24a1.48,1.48,0,0,0-1.37-1.5,1.46,1.46,0,0,0-1.57,1.46v8.7a.5.5,0,0,0,0,.12v4.54l-3.44-4.09a1.52,1.52,0,0,0-1.2-.64,1.36,1.36,0,0,0-.67.17,1.46,1.46,0,0,0-.64,2l4.38,8.74a6.34,6.34,0,0,0,5.69,3.52H25a5.44,5.44,0,0,0,5.43-5.43V19A.49.49,0,0,0,30.41,18.9Z"/></svg>