<svg xmlns="http://www.w3.org/2000/svg" viewBox="0 0 40 40"><defs><style>.cls-1{fill:#fff;}</style></defs><title>closed_eyes</title><g id="Layer_1" data-name="Layer 1"><path class="cls-1" d="M17.7,18.59c0,.05-.19,1.29-.19,1.35-.45,3.1-3.59,4.65-7,4.16s-6-3.09-5.57-6c0-.05.15-1.3.19-1.33,2.24-1.74,2.33,3.84,5.81,4.34S16.46,16,17.7,18.59Z"/><path class="cls-1" d="M22.32,18.59c0,.05.18,1.29.19,1.35.44,3.1,3.59,4.65,7,4.16s6-3.09,5.58-6c0-.05-.15-1.3-.19-1.33-2.25-1.74-2.33,3.84-5.81,4.34S23.56,16,22.32,18.59Z"/><path class="cls-1" d="M4.85,23.42s2.27.66,3.59-.62L6.05,20.54A2.94,2.94,0,0,1,4.85,23.42Z"/><path class="cls-1" d="M35.15,23.42s-2.27.66-3.59-.62L34,20.54A2.94,2.94,0,0,0,35.15,23.42Z"/></g></svg>