<svg xmlns="http://www.w3.org/2000/svg" xmlns:xlink="http://www.w3.org/1999/xlink" viewBox="0 0 30 30"><defs><style>.cls-1{fill:none;}.cls-2{fill:#00b888;}.cls-3{clip-path:url(#clip-path);}.cls-4{clip-path:url(#clip-path-2);}.cls-5{fill:#fff;}.cls-6{clip-path:url(#clip-path-3);}</style><clipPath id="clip-path"><path class="cls-1" d="M17.37,22.64a1,1,0,0,1-.88-.1.93.93,0,0,1-.23-.75,7,7,0,0,1,1.61-3.92,7,7,0,0,1,4.32-1.66.66.66,0,0,1,.46.19c.17.16.15.51.08.82A8,8,0,0,1,17.37,22.64ZM15,17.71a2,2,0,1,1,2-2A2,2,0,0,1,15,17.71Zm-1.49,4.84a1,1,0,0,1-.88.11,8.06,8.06,0,0,1-5.36-5.43.94.94,0,0,1,.08-.82.66.66,0,0,1,.46-.19,6.91,6.91,0,0,1,4.32,1.69,7,7,0,0,1,1.61,3.92.92.92,0,0,1-.23.71ZM7.4,12.39a8.06,8.06,0,0,1,15.2,0c.09.39.12.89-.14,1.12a.85.85,0,0,1-.74.14A21.15,21.15,0,0,0,15,12.39a21.37,21.37,0,0,0-6.72,1.3.85.85,0,0,1-.74-.14A1.34,1.34,0,0,1,7.4,12.39ZM15,5.85a9.15,9.15,0,1,0-.24,18.3h.48A9.15,9.15,0,1,0,15,5.85Z"/></clipPath><clipPath id="clip-path-2"><rect class="cls-1" x="-170.58" y="-157.39" width="480.57" height="270.19"/></clipPath><clipPath id="clip-path-3"><path class="cls-1" d="M-245.63-34.36a1,1,0,0,1-.88-.1.93.93,0,0,1-.23-.75,7,7,0,0,1,1.61-3.92,7,7,0,0,1,4.32-1.66.66.66,0,0,1,.46.19c.17.16.15.51.08.82A8,8,0,0,1-245.63-34.36ZM-248-39.29a2,2,0,0,1-2-2,2,2,0,0,1,2-2,2,2,0,0,1,2,2A2,2,0,0,1-248-39.29Zm-1.49,4.84a1,1,0,0,1-.88.11,8.06,8.06,0,0,1-5.36-5.43.94.94,0,0,1,.08-.82.66.66,0,0,1,.46-.19,6.91,6.91,0,0,1,4.32,1.69,7,7,0,0,1,1.61,3.92.92.92,0,0,1-.23.71Zm-6.11-10.16A8,8,0,0,1-248-50a8,8,0,0,1,7.6,5.37c.09.39.12.89-.14,1.12a.85.85,0,0,1-.74.14A21.15,21.15,0,0,0-248-44.61a21.37,21.37,0,0,0-6.72,1.3.85.85,0,0,1-.74-.14A1.34,1.34,0,0,1-255.6-44.61Zm7.6-6.54a9.18,9.18,0,0,0-9.32,9,9.18,9.18,0,0,0,9.08,9.27h.48a9.18,9.18,0,0,0,9.08-9.27A9.18,9.18,0,0,0-248-51.15Z"/></clipPath></defs><title>drive</title><g id="Layer_1" data-name="Layer 1"><circle class="cls-2" cx="15" cy="15" r="15"/><g class="cls-3"><g class="cls-4"><rect class="cls-5" x="3.92" y="4.09" width="22.16" height="21.81"/></g></g></g></svg>