<svg xmlns="http://www.w3.org/2000/svg" viewBox="0 0 40 40"><defs><style>.cls-1{fill:#fff;}</style></defs><title>j_turn</title><g id="Layer_1" data-name="Layer 1"><path class="cls-1" d="M16.75,34h-3.5V28.21A12.94,12.94,0,0,1,14.32,23a13.9,13.9,0,0,1-1.07-5.59V13.36h3.5v4.09a13.59,13.59,0,0,0,.14,1.93,10.88,10.88,0,0,1,7.64-2.85c5.07,0,8.22,2.41,8.22,6.3s-3.15,6.3-8.22,6.3a11.38,11.38,0,0,1-7.65-2.57,10.11,10.11,0,0,0-.13,1.65Zm1.57-11c1.13,1.51,3,2.64,6.21,2.64,2.15,0,4.72-.49,4.72-2.8S26.68,20,24.53,20A7.24,7.24,0,0,0,18.32,23Z"/><polygon class="cls-1" points="6.5 14.5 23.5 14.5 15 6 6.5 14.5"/></g></svg>