<svg xmlns="http://www.w3.org/2000/svg" xmlns:xlink="http://www.w3.org/1999/xlink" viewBox="0 0 40 40"><defs><style>.cls-1{fill:#fff;}.cls-2{clip-path:url(#clip-path);}.cls-3{clip-path:url(#clip-path-2);}</style><clipPath id="clip-path"><path class="cls-1" d="M10.82,10.82A13,13,0,1,1,7.44,23.25h3.38a9.75,9.75,0,1,0,9.19-13,9.61,9.61,0,0,0-6.86,2.89l5.23,5.24H7V7Z"/></clipPath><clipPath id="clip-path-2"><rect class="cls-1" x="7" y="7" width="26" height="26"/></clipPath></defs><title>left_circle</title><g id="Layer_1" data-name="Layer 1"><path class="cls-1" d="M10.82,10.82A13,13,0,1,1,7.44,23.25h3.38a9.75,9.75,0,1,0,9.19-13,9.61,9.61,0,0,0-6.86,2.89l5.23,5.24H7V7Z"/><g class="cls-2"><rect class="cls-1" x="7" y="7" width="26" height="26"/><g class="cls-3"><rect class="cls-1" x="2" y="2" width="36" height="36"/></g></g></g></svg>