<svg xmlns="http://www.w3.org/2000/svg" viewBox="0 0 40 40"><defs><style>.cls-1{fill:#fff;}</style></defs><title>parallel_park</title><g id="Layer_1" data-name="Layer 1"><path class="cls-1" d="M20.92,9.09v2.33A1.55,1.55,0,0,0,22.47,13h6.84a1.56,1.56,0,0,0,1.55-1.55V9.09Z"/><path class="cls-1" d="M25.49,25.32A.49.49,0,0,1,25,25c-.19-.7-.74-1.42-3.32-1.42A4.71,4.71,0,0,1,17,20.47a.5.5,0,0,1,.34-.62.51.51,0,0,1,.62.34,3.67,3.67,0,0,0,3.78,2.35c2.52,0,3.88.69,4.28,2.15a.49.49,0,0,1-.34.61A.34.34,0,0,1,25.49,25.32Z"/><polygon class="cls-1" points="23.32 24.4 25.57 27.7 27.3 24.1 23.32 24.4"/><path class="cls-1" d="M20.85,15.68,18.78,8.34A2,2,0,0,0,16.32,7L10.6,8.56A2,2,0,0,0,9.22,11l2.07,7.34a2,2,0,0,0,2.46,1.39l5.72-1.61A2,2,0,0,0,20.85,15.68ZM12.54,9.5c-.53.14-1,0-1.09-.22s.3-.6.83-.75,1,0,1.1.22S13.08,9.35,12.54,9.5Zm2.9-.79c-.53.15-1,0-1.1-.22s.3-.6.84-.74,1,0,1.09.22S16,8.57,15.44,8.71Z"/><path class="cls-1" d="M29.31,29.25H22.47a1.54,1.54,0,0,0-1.55,1.55v2.32h9.94V30.8A1.55,1.55,0,0,0,29.31,29.25Zm-4.92,1.57c-.55,0-1-.22-1-.5s.45-.5,1-.5,1,.23,1,.5S24.94,30.82,24.39,30.82Zm3,0c-.55,0-1-.22-1-.5s.45-.5,1-.5,1,.23,1,.5S27.94,30.82,27.39,30.82Z"/></g></svg>