<svg xmlns="http://www.w3.org/2000/svg" xmlns:xlink="http://www.w3.org/1999/xlink" viewBox="0 0 30 30"><defs><style>.cls-1{fill:none;}.cls-2,.cls-3,.cls-6{fill:#fff;}.cls-2{clip-rule:evenodd;}.cls-4{fill:#89d2e8;}.cls-5{clip-path:url(#clip-path);}.cls-6{fill-rule:evenodd;}.cls-7{clip-path:url(#clip-path-2);}.cls-8{clip-path:url(#clip-path-3);}</style><clipPath id="clip-path"><path class="cls-1" d="M17.37-52.36a1,1,0,0,1-.88-.1.93.93,0,0,1-.23-.75,7,7,0,0,1,1.61-3.92,7,7,0,0,1,4.32-1.66.66.66,0,0,1,.46.19c.17.16.15.51.08.82A8,8,0,0,1,17.37-52.36ZM15-57.29a2,2,0,0,1-2-2,2,2,0,0,1,2-2,2,2,0,0,1,2,2A2,2,0,0,1,15-57.29Zm-1.49,4.84a1,1,0,0,1-.88.11,8.06,8.06,0,0,1-5.36-5.43.94.94,0,0,1,.08-.82.66.66,0,0,1,.46-.19,6.91,6.91,0,0,1,4.32,1.69,7,7,0,0,1,1.61,3.92.92.92,0,0,1-.23.71ZM7.4-62.61A8,8,0,0,1,15-68a8,8,0,0,1,7.6,5.37c.09.39.12.89-.14,1.12a.85.85,0,0,1-.74.14A21.15,21.15,0,0,0,15-62.61a21.37,21.37,0,0,0-6.72,1.3.85.85,0,0,1-.74-.14A1.34,1.34,0,0,1,7.4-62.61ZM15-69.15a9.18,9.18,0,0,0-9.32,9,9.18,9.18,0,0,0,9.08,9.27h.48a9.18,9.18,0,0,0,9.08-9.27A9.18,9.18,0,0,0,15-69.15Z"/></clipPath><clipPath id="clip-path-2"><path class="cls-2" d="M24.48,10.21a2.13,2.13,0,0,0-1.59-1.72A32.83,32.83,0,0,0,15,7.63a33.4,33.4,0,0,0-7.9.86,2.12,2.12,0,0,0-1.59,1.72A28.92,28.92,0,0,0,5.17,15a29,29,0,0,0,.34,4.8,2.12,2.12,0,0,0,1.58,1.71,32.47,32.47,0,0,0,7.91.86,33.18,33.18,0,0,0,7.9-.85,2.14,2.14,0,0,0,1.58-1.72A30,30,0,0,0,24.83,15a29.21,29.21,0,0,0-.35-4.76"/></clipPath><clipPath id="clip-path-3"><rect class="cls-3" x="5.17" y="7.6" width="19.66" height="14.81"/></clipPath></defs><title>screen</title><g id="Layer_1" data-name="Layer 1"><circle class="cls-4" cx="15" cy="15" r="15"/><path class="cls-6" d="M24.48,10.21a2.13,2.13,0,0,0-1.59-1.72A32.83,32.83,0,0,0,15,7.63a33.4,33.4,0,0,0-7.9.86,2.12,2.12,0,0,0-1.59,1.72A28.92,28.92,0,0,0,5.17,15a29,29,0,0,0,.34,4.8,2.12,2.12,0,0,0,1.58,1.71,32.47,32.47,0,0,0,7.91.86,33.18,33.18,0,0,0,7.9-.85,2.14,2.14,0,0,0,1.58-1.72A30,30,0,0,0,24.83,15a29.21,29.21,0,0,0-.35-4.76"/><g class="cls-7"><rect class="cls-3" x="5.17" y="7.6" width="19.66" height="14.81"/><g class="cls-8"><rect class="cls-3" x="4.59" y="7.05" width="20.82" height="15.91"/></g></g></g></svg>