<svg xmlns="http://www.w3.org/2000/svg" xmlns:xlink="http://www.w3.org/1999/xlink" viewBox="0 0 40 40"><defs><style>.cls-1{fill:none;}.cls-2{fill:#fff;}.cls-3{isolation:isolate;}.cls-4{clip-path:url(#clip-path);}.cls-5{clip-path:url(#clip-path-2);}.cls-6{clip-path:url(#clip-path-3);}.cls-7{clip-path:url(#clip-path-4);}</style><clipPath id="clip-path"><rect class="cls-1" x="7" y="7" width="26" height="26"/></clipPath><clipPath id="clip-path-2"><path class="cls-2" d="M22.89,7v3.05a10.47,10.47,0,0,1,0,19.9V33A13.27,13.27,0,0,0,33,20,13.27,13.27,0,0,0,22.89,7ZM26.5,20a6.67,6.67,0,0,0-3.61-6V26A6.65,6.65,0,0,0,26.5,20ZM7,15.55v8.9h5.78L20,31.86V8.14l-7.22,7.41Z"/></clipPath><clipPath id="clip-path-3"><rect class="cls-2" x="7" y="7" width="26" height="26"/></clipPath><clipPath id="clip-path-4"><path class="cls-1" d="M20,129.2a6,6,0,1,1,6-6A6,6,0,0,1,20,129.2Zm9.6-15.6H25.8L24.31,112a2.41,2.41,0,0,0-1.77-.78H17.46a2.44,2.44,0,0,0-1.78.78L14.2,113.6H10.4A2.41,2.41,0,0,0,8,116v14.4a2.41,2.41,0,0,0,2.4,2.4H29.6a2.41,2.41,0,0,0,2.4-2.4V116A2.41,2.41,0,0,0,29.6,113.6Zm-9.6,6a3.6,3.6,0,1,0,3.6,3.6A3.6,3.6,0,0,0,20,119.6Z"/></clipPath></defs><title>sounds</title><g id="Layer_1" data-name="Layer 1"><g class="cls-3"><g class="cls-4"><path class="cls-2" d="M22.89,7v3.05a10.47,10.47,0,0,1,0,19.9V33A13.27,13.27,0,0,0,33,20,13.27,13.27,0,0,0,22.89,7ZM26.5,20a6.67,6.67,0,0,0-3.61-6V26A6.65,6.65,0,0,0,26.5,20ZM7,15.55v8.9h5.78L20,31.86V8.14l-7.22,7.41Z"/><g class="cls-5"><rect class="cls-2" x="7" y="7" width="26" height="26"/><g class="cls-6"><rect class="cls-2" x="2" y="2" width="36" height="36"/></g></g></g></g></g></svg>