<?xml version="1.0" encoding="UTF-8" standalone="no"?>
<svg
   xmlns:dc="http://purl.org/dc/elements/1.1/"
   xmlns:cc="http://creativecommons.org/ns#"
   xmlns:rdf="http://www.w3.org/1999/02/22-rdf-syntax-ns#"
   xmlns:svg="http://www.w3.org/2000/svg"
   xmlns="http://www.w3.org/2000/svg"
   xmlns:sodipodi="http://sodipodi.sourceforge.net/DTD/sodipodi-0.dtd"
   xmlns:inkscape="http://www.inkscape.org/namespaces/inkscape"
   inkscape:version="1.0rc1 (09960d6f05, 2020-04-09)"
   sodipodi:docname="test-x-meson.svg"
   viewBox="0 0 16 16"
   height="16"
   width="16"
   id="svg867"
   version="1.1">
  <metadata
     id="metadata873">
    <rdf:RDF>
      <cc:Work
         rdf:about="">
        <dc:format>image/svg+xml</dc:format>
        <dc:type
           rdf:resource="http://purl.org/dc/dcmitype/StillImage" />
        <dc:title></dc:title>
      </cc:Work>
    </rdf:RDF>
  </metadata>
  <defs
     id="defs871" />
  <sodipodi:namedview
     inkscape:current-layer="g875"
     inkscape:window-maximized="0"
     inkscape:window-y="0"
     inkscape:window-x="0"
     inkscape:cy="15.533619"
     inkscape:cx="26.049281"
     inkscape:zoom="7.87"
     showgrid="false"
     id="namedview869"
     inkscape:window-height="679"
     inkscape:window-width="1257"
     inkscape:pageshadow="2"
     inkscape:pageopacity="0"
     guidetolerance="10"
     gridtolerance="10"
     objecttolerance="10"
     borderopacity="1"
     bordercolor="#666666"
     pagecolor="#ffffff" />
  <g
     id="g875"
     inkscape:label="Image"
     inkscape:groupmode="layer">
    <path
       inkscape:connector-curvature="0"
       id="path879"
       d="m 6.9763974,15.918776 c -1.81761,-0.14537 -3.465052,-0.528177 -5.141601,-1.194723 -0.703383,-0.279645 -1.79462756,-0.818031 -1.82652326,-0.90115 -0.037938,-0.09886 0.061992,-1.484553 0.1526828,-2.117212 C 0.74214194,7.651356 2.8009754,4.0358651 5.9852454,1.4777301 6.3999384,1.1445791 7.4891084,0.39478007 7.8883534,0.16760407 l 0.189242,-0.107681 0.450877,0.280277 c 1.048806,0.651965 1.8094216,1.26130003 2.7667636,2.21647603 1.004616,1.002343 1.630483,1.782453 2.33706,2.913017 1.43325,2.2932811 2.317442,5.2257169 2.358093,7.8206409 l 0.0096,0.61414 -0.495576,0.262987 c -1.662561,0.882268 -3.730295,1.498117 -5.7404216,1.70971 -0.560363,0.05899 -2.254203,0.08427 -2.787615,0.0416 z m 1.544914,-3.464987 c 0.407915,-0.289584 1.044554,-0.915625 1.359022,-1.336398 C 10.661007,10.072808 11.101396,8.8926793 11.212369,7.5478806 L 11.240239,7.2101352 10.870044,7.0242124 C 10.377088,6.7766351 9.7615914,6.5663191 9.1952454,6.4519331 c -0.385107,-0.07778 -0.596654,-0.09365 -1.248346,-0.09365 -0.899158,0 -1.398344,0.07812 -2.132767,0.333752 -0.476839,0.1659772 -1.067828,0.4505964 -1.067828,0.5142647 0,0.023356 0.01983,0.2229274 0.04406,0.4434926 0.226217,2.0590352 1.309905,3.8955456 2.950045,4.9994036 0.284427,0.191426 0.209637,0.210141 0.780901,-0.195405 z"
       style="fill:#000000;stroke-width:0.041298" />
  </g>
</svg>
