<?xml version="1.0" encoding="UTF-8"?>
<svg width="76px" height="76px" viewBox="0 0 76 76" version="1.1" xmlns="http://www.w3.org/2000/svg" xmlns:xlink="http://www.w3.org/1999/xlink">
    <!-- Generator: sketchtool 63.1 (101010) - https://sketch.com -->
    <title>EDE86216-9BC2-4FCF-830F-D75B1AD812F3</title>
    <desc>Created with sketchtool.</desc>
    <g id="Dashboard-Launch-Version-v2" stroke="none" stroke-width="1" fill="none" fill-rule="evenodd">
        <g id="KNN-model-is-ready" transform="translate(-176.000000, -492.000000)" fill-rule="nonzero">
            <g id="cluster2" transform="translate(218.000000, 532.500000) rotate(-122.000000) translate(-218.000000, -532.500000) translate(174.000000, 494.000000)">
                <path d="M42.56,22.22 C42.14,24.22 41.76,26.22 41.47,28.22 C41.32,29.22 41.2,30.22 41.08,31.16 C41.0544574,32.1940657 40.8896401,33.2199696 40.59,34.21 L40.89,33.7 C40.6080536,33.9658901 40.4217502,34.3174059 40.36,34.7 C40.2398041,35.1805371 40.3805799,35.6889017 40.7308391,36.0391609 C41.0810983,36.3894201 41.5894629,36.5301959 42.07,36.41 C45.970463,35.2031645 49.8056268,33.7946013 53.56,32.19 C54.76,31.68 54.3,29.86 53.22,29.55 C49.5798173,28.5178678 46.3879958,26.3008363 44.15,23.25 C43.7527755,22.6013906 42.9150343,22.3809323 42.25,22.75 C41.5923134,23.1404272 41.3696852,23.9864145 41.75,24.65 C44.3131584,28.3782474 48.0976091,31.0945635 52.45,32.33 L52.1,29.7 C48.583568,31.223613 44.9884751,32.5588379 41.33,33.7 L43.04,34.7 C42.9906234,34.3219892 42.8184697,33.9706552 42.55,33.7 L42.85,34.21 C42.6700534,33.243171 42.6497847,32.2533852 42.79,31.28 C42.79,30.28 42.89,29.28 42.96,28.28 C43.1,26.28 43.27,24.28 43.51,22.34 C43.58,21.8 42.67,21.68 42.56,22.21 L42.56,22.22 Z" id="Path" fill="#FFFFFF"></path>
                <path d="M44.81,28.69 C44.8166077,28.7397817 44.8166077,28.7902183 44.81,28.84 C44.81,28.84 44.81,28.84 44.75,28.84 C44.69,28.84 44.58,28.89 44.66,28.84 C44.47,28.84 44.29,28.84 44.09,28.89 C44.26,28.89 44.09,28.89 43.99,28.89 L43.99,28.89 C43.9540541,28.9002815 43.9159459,28.9002815 43.88,28.89 C44.04,29 43.88,28.89 43.88,28.89 L43.79,28.83 L43.89,28.9 C43.84,28.85 43.84,28.85 43.89,28.9 C43.94,28.95 43.84,28.8 43.89,28.95 C43.94,29.1 43.89,28.86 43.89,28.95 C43.89,29.04 43.89,28.79 43.89,29.02 C43.89,29.25 43.89,29.11 43.89,29.02 C43.89,28.93 43.89,29.02 43.89,29.02 C43.89,29.02 43.89,29.1 43.89,29.02 L43.89,29.07 C43.89,29.07 44.03,28.94 43.89,29.07 C43.75,29.2 43.89,29.07 43.89,29.07 C44.08,28.94 43.75,29.07 43.96,29.07 C44.17,29.07 43.8,29.07 43.96,29.07 C43.96,29.07 44.14,29.07 43.96,29.07 C43.78,29.07 43.86,29.07 43.91,29.07 C43.96,29.07 43.91,29.07 43.91,29.07 C43.91,29.07 44.03,29.07 43.85,29.07 C43.67,29.07 43.77,29.01 43.85,29.07 C43.93,29.13 43.85,29.07 43.8,28.99 L43.66,28.47 C43.75,30.37 43.79,32.27 43.66,34.17 L44.97,33.17 C44.85,33.17 44.97,33.17 44.97,33.17 L45,33 C44.88,32.93 45,33 45,33 C44.9719011,32.9618138 44.9381862,32.9280989 44.9,32.9 C44.95,32.9 44.99,33.04 44.9,32.9 L44.82,32.77 C44.82,32.72 44.77,32.67 44.75,32.63 C44.73,32.59 44.75,32.77 44.75,32.63 C44.75,32.49 44.64,32.2 44.6,31.98 C44.6,32.2 44.6,31.9 44.6,31.82 C44.6,31.74 44.6,31.57 44.6,31.44 C44.6,30.09 44.66,28.73 44.71,27.39 L42.79,28 C43.9198248,30.2584269 45.8691993,32.000345 48.24,32.87 C48.60643,32.9691148 48.9978877,32.8647204 49.266304,32.596304 C49.5347204,32.3278877 49.6391148,31.93643 49.54,31.57 C49.2511327,30.4187624 48.5988839,29.3912953 47.68,28.64 C47.2978909,28.2904236 46.7121091,28.2904236 46.33,28.64 C45.9804236,29.0221091 45.9804236,29.6078909 46.33,29.99 L46.63,30.29 L46.73,30.41 C46.865937,30.5880266 46.989558,30.7751285 47.1,30.97 C47.16,31.08 47.21,31.19 47.26,31.3 C47.19,31.15 47.31,31.42 47.31,31.44 C47.3944017,31.6670978 47.4579964,31.9013941 47.5,32.14 L49.06,30.94 C48.561295,30.7322886 48.0769007,30.4917618 47.61,30.22 C47.38,30.08 47.16,29.93 46.94,29.77 L46.78,29.65 L46.78,29.65 C46.6812588,29.558001 46.5777848,29.4712163 46.47,29.39 C45.6917946,28.7197834 45.0559207,27.9002881 44.6,26.98 C44.4155031,26.5023415 43.8999973,26.2412247 43.4057516,26.3750829 C42.911506,26.5089411 42.5982301,26.9945196 42.68,27.5 C42.68,28.3 42.68,29.1 42.68,29.9 C42.6450254,30.5928923 42.6450254,31.2871077 42.68,31.98 C42.6104166,33.338385 43.4151619,34.5897639 44.68,35.09 C44.994183,35.1966394 45.3408011,35.140504 45.6052663,34.9401516 C45.8697315,34.7397991 46.0176044,34.4213201 46,34.09 C46.08,32.78 46.11,31.46 46.07,30.14 C46.07,29.82 46.07,29.49 46.07,29.14 C46.0077475,28.74282 45.8828612,28.358035 45.7,28 C45.4278249,27.3975274 44.8310571,27.0074831 44.17,27 C43.1520018,26.981596 42.2543748,27.6641235 42,28.65 C41.8820869,29.2326178 42.0751975,29.8346684 42.51,30.24 C42.9280384,30.5922565 43.4913273,30.7190897 44.02,30.58 C44.5363812,30.5026337 44.9695441,30.1499701 45.15,29.66 C45.1889196,29.4787322 45.1889196,29.2912678 45.15,29.11 C45.1149179,29.0352167 45.071294,28.9647474 45.02,28.9 C45.02,28.82 45.02,28.73 44.93,28.65 C44.84,28.57 44.77,28.65 44.76,28.65 L44.81,28.69 Z" id="Path" fill="#FFFFFF"></path>
                <path d="M62.77,1.12 C61.27,1.97 59.77,2.84 58.34,3.79 C57.64,4.25 56.94,4.72 56.24,5.2 C55.6144092,5.77134754 54.8979146,6.23436527 54.12,6.57 L54.75,6.57 C54.2913572,6.45352855 53.8051738,6.52555572 53.4,6.77 C52.9791232,7.02572942 52.7221714,7.48252179 52.7221714,7.975 C52.7221714,8.46747821 52.9791232,8.92427058 53.4,9.18 C56.3148388,10.9438832 59.3188407,12.5560309 62.4,14.01 C62.9737076,14.349465 63.7044921,14.2572295 64.1758608,13.7858608 C64.6472295,13.3144921 64.739465,12.5837076 64.4,12.01 C63.0219469,9.12544274 62.6386352,5.86553521 63.31,2.74 C63.4421883,2.2612641 63.3089327,1.74837228 62.9604294,1.39452592 C62.6119261,1.04067956 62.101121,0.899636354 61.6204294,1.02452591 C61.1397378,1.14941547 60.7621883,1.52126409 60.63,2 C59.7060855,5.85561761 60.1588605,9.91290628 61.91,13.47 L63.91,11.47 C60.8014833,10.0483121 57.7705594,8.46275166 54.83,6.72 L55.09,9 C55.4185038,8.66628648 55.6048891,8.21824494 55.61,7.75 L55.45,8.34 C55.919219,7.66107798 56.5130668,7.07741046 57.2,6.62 C57.85,6.08 58.51,5.55 59.2,5.03 C60.51,4 61.87,3 63.26,2 C63.4564583,1.84999633 63.5104337,1.57715591 63.3858878,1.36364876 C63.261342,1.1501416 62.9972754,1.06282565 62.77,1.16 L62.77,1.12 Z" id="Path" fill="#FFFFFF"></path>
                <path d="M60,6.31 C59.91,6.37 59.85,6.31 60,6.42 L60,6.36 C59.9758965,6.3338902 59.9490783,6.31042428 59.92,6.29 C59.98,6.35 59.92,6.29 59.92,6.29 L60.01,6.64 L60.01,6.64 C59.9932029,6.35266556 59.8091368,6.10202246 59.54,6 C59.47,6 59.47,6 59.54,6 L59.48,5.95 L59.42,5.88 C59.4866667,5.98 59.4866667,5.98 59.42,5.88 C59.42,5.88 59.27,5.62 59.42,5.88 C59.4155017,5.8434713 59.4155017,5.8065287 59.42,5.77 L59.42,5.92 C59.42,5.61 59.37,5.58 59.42,5.81 C59.42,5.71 59.42,5.74 59.42,5.91 C59.42,5.74 59.3,6.08 59.42,5.91 C59.33,6.03 59.3,6.06 59.35,6.01 C59.4,5.96 59.35,6.01 59.25,6.08 L59.34,6.08 L59.22,6.08 L59.09,6.08 L59.19,6.08 C59.37,6.08 58.96,6 59.14,6.08 C59.14,6.08 59.29,6.08 59.29,6.08 L59.2,6.08 L59.27,6.08 C59.34,6.08 59.27,6.08 59.18,6 L59.26,6.07 C59.37,6.2 59.12,5.86 59.26,6.07 C59.4,6.28 59.19,5.85 59.26,6.07 C59.26,5.88 59.26,5.84 59.26,5.94 C59.26,5.76 59.26,5.72 59.26,5.83 L59.52,5.38 C58.35,6.52 57.16,7.64 55.88,8.67 L57.51,8.88 C57.56,9 57.56,9 57.51,8.88 C57.51,9.03 57.51,9.04 57.51,8.88 C57.51,8.72 57.43,9.05 57.51,8.88 C57.51,8.82 57.67,8.53 57.51,8.73 C57.5495998,8.65452368 57.5929885,8.58109671 57.64,8.51 C57.64,8.45 57.71,8.41 57.74,8.36 C57.77,8.31 57.68,8.44 57.74,8.36 L57.93,8.15 C58.0868305,7.98318787 58.2538151,7.82622232 58.43,7.68 L60.87,5.68 L59.14,4.68 C58.3697808,6.67145478 58.3697808,8.87854522 59.14,10.87 C59.2665678,11.2689957 59.6068305,11.5628589 60.02,11.63 C60.4281475,11.6405134 60.8073351,11.4199655 61,11.06 C61.5902618,10.1756113 61.8715272,9.12086574 61.8,8.06 C61.9355358,7.64764108 61.7895761,7.19493322 61.4387021,6.93940001 C61.087828,6.6838668 60.612172,6.6838668 60.2612979,6.93940001 C59.9104239,7.19493322 59.7644642,7.64764108 59.9,8.06 C59.9,8.16 59.9,8.26 59.9,8.35 C59.9,8.17 59.9,8.43 59.9,8.47 C59.8599561,8.67434098 59.8030959,8.87502375 59.73,9.07 C59.7341965,9.11657232 59.7341965,9.16342768 59.73,9.21 L59.73,9.21 C59.73,9.29 59.65,9.38 59.6,9.46 C59.4983859,9.64071924 59.3847991,9.81444022 59.26,9.98 L61.19,10.23 C61.0430218,9.79102155 60.9228012,9.34353348 60.83,8.89 C60.83,8.76 60.78,8.63 60.76,8.5 C60.76,8.7 60.76,8.5 60.76,8.39 C60.7450689,8.16024232 60.7450689,7.92975768 60.76,7.7 C60.76,7.47 60.76,7.24 60.76,7 L60.76,6.71 C60.76,6.93 60.76,6.54 60.76,6.5 C60.8433602,6.04324677 60.9671814,5.59481323 61.13,5.16 C61.2595498,4.70368513 61.0506944,4.21914067 60.63,4 C60.2227867,3.77628793 59.7177377,3.84093421 59.38,4.16 L58,5.37 C57.54,5.76 57.06,6.12 56.63,6.54 C56.2093078,6.90642713 55.8688586,7.35582016 55.63,7.86 C55.3255672,8.51642053 55.3255672,9.27357947 55.63,9.93 C55.7884698,10.2089211 56.0711324,10.3948834 56.39,10.43 C56.7122883,10.4734411 57.0366823,10.3665386 57.27,10.14 C58,9.57 58.68,9 59.37,8.35 C59.72,8.03 60.06,7.71 60.37,7.35 C60.53,7.19 60.69,7.02 60.84,6.85 C61.0890845,6.57889983 61.2156583,6.21726015 61.19,5.85 C61.13,3.99 58.19,3.37 57.59,5.22 C57.4742593,5.66986112 57.5584576,6.14778973 57.8209658,6.5310134 C58.0834741,6.91423707 58.4987078,7.16540644 58.96,7.22 C59.2584536,7.32958784 59.5935808,7.24181642 59.8,7 L59.8,7 L59.55,7.24 C59.7434468,7.1455886 59.9012659,6.99127663 60,6.8 C60.06,6.68 60.09,6.54 60.14,6.42 C60.1472011,6.38315508 60.133159,6.34538095 60.103639,6.32218667 C60.0741191,6.2989924 60.0340951,6.29428607 60,6.31 Z" id="Path" fill="#FFFFFF"></path>
                <path d="M3.73,38.14 C3.07,39.85 2.44,41.58 1.9,43.34 C1.64,44.18 1.39,45.03 1.16,45.88 C1.03,46.34 0.93,46.8 0.79,47.26 C0.79,47.26 0.6,47.78 0.79,47.53 C0.58352039,47.6417619 0.408217553,47.8033155 0.28,48 C0.201499442,48.1663742 0.131411017,48.3365889 0.07,48.51 C-0.0722149169,48.9932045 0.0621935857,49.5154775 0.42,49.87 C0.784694141,50.209662 1.29664647,50.3414145 1.78,50.22 C5.1466203,49.7321757 8.48472575,49.0645546 11.78,48.22 C12.3315367,48.0594586 12.736304,47.588467 12.8120806,47.0190602 C12.8878572,46.4496533 12.6203549,45.8891962 12.13,45.59 C9.0971654,44.2208626 6.62615912,41.8522266 5.13,38.88 C4.7395728,38.2223134 3.89358547,37.9996852 3.23,38.38 C2.57690302,38.7738763 2.35537799,39.6156714 2.73,40.28 C4.41864321,43.7238465 7.24451335,46.4790699 10.73,48.08 L11.08,45.44 C7.75948682,46.3228806 4.39484043,47.0305245 1,47.56 L2.8,48.9 C2.81537151,48.4404605 2.64610969,47.9938974 2.33,47.66 L2.64,48.19 C2.5814533,47.8087834 2.60878523,47.4193035 2.72,47.05 C2.8,46.65 2.87,46.25 2.95,45.85 C3.11,45.01 3.28,44.18 3.46,43.35 C3.83,41.69 4.22,40.04 4.67,38.35 C4.71309321,38.1016658 4.56076635,37.8611471 4.31784215,37.7939553 C4.07491795,37.7267635 3.82064519,37.8548185 3.73,38.09 L3.73,38.14 Z" id="Path" fill="#FFFFFF"></path>
                <path d="M4.88,43.9 C4.8762557,43.9365711 4.8762557,43.9734289 4.88,44.01 C4.88,44.1 4.95,43.94 4.96,44.01 L4.73,44.01 C4.85,44.01 4.73,44.01 4.73,44.01 C4.98,44.1 4.62,44.01 4.56,43.96 L4.21,43.96 C4.21,43.96 4.37,43.96 4.27,43.96 L4.17,43.96 C4.01,43.96 4.29,44.02 4.17,43.96 C4.05,43.9 4.29,44.1 4.17,43.96 C4.14925265,43.9342166 4.12578345,43.9107473 4.1,43.89 C3.99,43.79 4.21,44.04 4.1,43.95 C4.11481711,44.0090852 4.11481711,44.0709148 4.1,44.13 C4.1,44.01 4.04,44.36 4.1,44.21 C4.1,44.21 4,44.42 4.1,44.3 C4.2,44.18 3.98,44.44 4.1,44.35 C4.22,44.26 4.23,44.25 4.1,44.35 C3.97,44.45 4.1,44.35 4.1,44.35 C4.28,44.25 4.1,44.35 4.04,44.35 C3.98,44.35 4.41,44.26 4.18,44.35 C3.95,44.44 4.42,44.35 4.18,44.35 C3.94,44.35 4.18,44.35 4.18,44.35 C4.18,44.35 3.96,44.24 4.07,44.35 L4,44.12 C4.06,44.18 4,44.17 4,44.12 C4,44.07 4,44.12 4,44.12 L3.86,43.6 L3.71,44.83 L3.65,45.38 C3.65,45.49 3.65,45.6 3.65,45.72 C3.65,45.57 3.65,45.77 3.65,45.82 C3.50333333,46.6066667 3.34333333,47.4 3.17,48.2 L4.7,47.58 L4.58,47.51 C4.48,47.45 4.5,47.51 4.58,47.56 L4.49,47.46 C4.58,47.59 4.6,47.61 4.49,47.52 L4.43,47.4 C4.43,47.3 4.43,47.32 4.43,47.46 C4.39956054,47.3719936 4.37615372,47.2817101 4.36,47.19 C4.36,47.0833333 4.36,47.1033333 4.36,47.25 C4.36,47.25 4.36,47.15 4.36,47.1 C4.36,47.05 4.36,46.9 4.36,46.8 C4.36,46.7 4.36,46.59 4.36,46.49 C4.36,46.39 4.36,46.09 4.36,46.39 C4.38382171,46.1304181 4.42727946,45.8730145 4.49,45.62 C4.49,45.33 4.59,45.03 4.65,44.74 C4.75,44.15 4.87,43.57 4.98,42.98 L2.98,42.98 C3.63102902,45.0936101 5.06085018,46.8808865 6.98,47.98 C7.62,48.32 8.66,47.91 8.57,47.06 C8.46504194,45.9399436 7.99411627,44.8856324 7.23,44.06 C6.90407739,43.8128099 6.4604661,43.7890451 6.11,44 C5.72649749,44.2826135 5.61856472,44.8093255 5.86,45.22 C5.97581568,45.3737081 6.08266013,45.5339747 6.18,45.7 C6.22928686,45.7835599 6.27272423,45.8704346 6.31,45.96 C6.36,46.07 6.37,46.07 6.31,45.96 C6.25,45.85 6.31,46.05 6.31,46.09 C6.37845386,46.2720114 6.43196422,46.4592977 6.47,46.65 L6.47,46.79 C6.47,46.69 6.47,46.67 6.47,46.79 C6.47,46.91 6.47,47.01 6.47,47.12 L8.07,46.21 C7.87,46.08 7.67,45.95 7.48,45.81 L7.19,45.61 C7.39,45.76 7.1,45.53 7.06,45.5 C6.72775937,45.2094804 6.41694975,44.8953287 6.13,44.56 L6.02,44.42 L5.81,44.13 L5.48,43.61 C5.37,43.4 5.26,43.19 5.16,42.98 C5.13250075,42.9285879 5.10909499,42.875089 5.09,42.82 C5.09,42.93 5.09,42.93 5.09,42.82 L4.97,42.49 C4.97,41.9377153 4.52228475,41.49 3.97,41.49 C3.41771525,41.49 2.97,41.9377153 2.97,42.49 C2.85,43.17 2.74,43.85 2.62,44.49 C2.47345297,45.1501195 2.36328693,45.8177925 2.29,46.49 C2.03780597,47.6506916 2.53190571,48.8460942 3.53,49.49 C3.81164184,49.6456346 4.14873236,49.6649083 4.44627801,49.5423895 C4.74382366,49.4198707 4.96960652,49.1688257 5.06,48.86 C5.32,47.66 5.53,46.45 5.68,45.23 C5.68,44.95 5.74,44.67 5.76,44.39 C5.83754854,43.9917287 5.80292796,43.5797438 5.66,43.2 C5.37527336,42.7043642 4.86052555,42.3849952 4.29,42.35 C3.36222457,42.2665513 2.4996837,42.8346671 2.21,43.72 C2.07864684,44.2634305 2.23318148,44.8363394 2.62,45.24 C2.972561,45.5731824 3.46297579,45.7180777 3.94,45.63 C4.44588285,45.6180426 4.88990032,45.2900297 5.05,44.81 C5.12005618,44.6368165 5.12005618,44.4431835 5.05,44.27 C5.05,44.27 4.99,44.21 4.98,44.17 C4.97,44.13 4.98,44.04 4.98,44.01 C4.98,43.9602944 4.93970563,43.92 4.89,43.92 C4.84029437,43.92 4.8,43.9602944 4.8,44.01 L4.88,43.9 Z" id="Path" fill="#FFFFFF"></path>
                <path d="M30.17,53.31 C28.76,51.71 27.32,50.14 25.81,48.65 C25.09,47.93 24.35,47.22 23.61,46.52 C23.2,46.14 22.79,45.78 22.39,45.4 C22.0498124,44.9497344 21.7327365,44.4824646 21.44,44 C21.0860334,43.6583199 20.5795684,43.5258422 20.1036352,43.6504427 C19.627702,43.7750432 19.2511271,44.138703 19.11,44.61 C17.7803338,48.3443599 16.6487588,52.1463183 15.72,56 C15.5766682,56.5649511 15.7806574,57.1612271 16.24,57.52 C16.6995965,57.8831636 17.3350276,57.9268495 17.84,57.63 C20.9227502,55.2453138 24.7229259,53.9762384 28.62,54.03 C29.3876758,54.03 30.01,53.4076758 30.01,52.64 C30.01,51.8723242 29.3876758,51.25 28.62,51.25 C24.0908247,51.121143 19.6589,52.5784079 16.09,55.37 L18.5,56.77 C19.3986584,52.9113003 20.500188,49.1026781 21.8,45.36 L19.75,46.19 C20.28,46.5 20.75,46.48 21.25,46.86 C21.75,47.24 21.99,47.44 22.36,47.74 C23.19,48.41 24.01,49.09 24.82,49.79 C26.41,51.17 28,52.55 29.48,54 C29.6014703,54.1232566 29.7794701,54.1723468 29.9469486,54.1287788 C30.1144272,54.0852107 30.2459404,53.9556034 30.2919486,53.7887788 C30.3379569,53.6219541 30.2914703,53.4432566 30.17,53.32 L30.17,53.31 Z" id="Path" fill="#FFFFFF"></path>
                <path d="M23.68,51.3 C23.63,51.24 23.57,51.2 23.57,51.18 C23.5755757,51.1283901 23.5964726,51.0796306 23.63,51.04 C23.63,51.04 23.72,50.91 23.63,50.98 C23.54,51.05 23.68,50.98 23.68,50.98 C23.7584676,50.8830777 23.8224668,50.7752896 23.87,50.66 C23.87,50.75 23.87,50.71 23.87,50.66 C23.900098,50.622397 23.9268657,50.5822454 23.95,50.54 C23.95,50.6 23.87,50.59 23.95,50.54 C24.03,50.49 24.11,50.41 23.95,50.54 C23.79,50.67 23.95,50.54 23.95,50.54 C23.95,50.54 23.75,50.6 23.95,50.54 L24.06,50.54 C24.21,50.47 23.91,50.54 24,50.54 C24.09,50.54 23.77,50.47 24,50.54 C24.23,50.61 24,50.54 23.93,50.54 C24.08,50.62 23.81,50.43 23.93,50.54 C24.05,50.65 23.81,50.37 23.88,50.47 C23.95,50.57 23.88,50.41 23.88,50.4 C23.88,50.39 23.88,50.49 23.88,50.51 C23.88,50.53 23.88,50.39 23.88,50.45 C23.8749597,50.4965306 23.8749597,50.5434694 23.88,50.59 C23.88,50.75 23.88,50.5 23.88,50.5 C23.88,50.5 23.88,50.63 23.88,50.65 C23.88,50.83 23.88,50.57 23.88,50.6 C23.88,50.63 23.61,50.92 23.88,50.65 C23.88,50.65 23.76,50.74 23.88,50.65 C24,50.56 23.88,50.65 23.88,50.65 C23.88,50.65 24.11,50.57 23.98,50.6 C24.24,50.54 24.13,50.6 23.98,50.6 L24.5,50.74 C22.9826204,49.7469863 21.5204546,48.6720608 20.12,47.52 L19.91,49 C19.97,49 20.27,48.83 20.07,48.89 L20.24,48.89 C20.12,48.89 20.12,48.89 20.24,48.89 C20.52,48.89 20.05,48.83 20.33,48.89 C20.4589588,48.9139193 20.5859719,48.9473438 20.71,48.99 C20.82,48.99 20.83,48.99 20.71,48.99 L20.9,49.08 L21.17,49.23 C21.36,49.35 21.62,49.53 21.75,49.63 C22.64,50.32 23.65,51.13 24.58,51.87 L25.58,50.15 C23.092427,49.6704746 20.515568,50.1529656 18.37,51.5 C18.0090722,51.7191683 17.8126512,52.1316524 17.87,52.55 C17.9303343,52.9663113 18.2269052,53.3097091 18.63,53.43 C19.7346386,53.8700039 20.9521233,53.9401759 22.1,53.63 C22.467839,53.3928855 22.6387605,52.9441302 22.5218653,52.5223906 C22.4049701,52.100651 22.0274187,51.803918 21.59,51.79 C21.42,51.79 21.59,51.79 21.41,51.79 L21.07,51.79 C20.8502531,51.8049247 20.6297469,51.8049247 20.41,51.79 C20.57,51.79 20.24,51.79 20.24,51.79 L20,51.66 L19.73,51.57 L19.58,51.51 L19.52,51.51 L19.52,53.34 C19.77,53.19 20.03,53.06 20.28,52.93 L20.57,52.79 C20.6326528,52.7517774 20.6998412,52.7215427 20.77,52.7 C20.67,52.7 20.69,52.7 20.77,52.7 C21.2535072,52.5094548 21.7518495,52.3589487 22.26,52.25 C22.7008001,52.1089425 23.1578522,52.0249256 23.62,52 C23.8731097,51.9849451 24.1268903,51.9849451 24.38,52 L24.81,52 C24.93,52 24.95,52 24.81,52 L25.03,52 C25.479765,52.107471 25.9476788,51.9138516 26.19,51.52 C26.438945,51.1179171 26.372193,50.5964172 26.03,50.27 C24.88,49.38 23.76,48.43 22.58,47.58 C21.4,46.73 20.01,46.22 18.82,47.06 C18.5457891,47.2277177 18.3624945,47.510802 18.3216684,47.8296344 C18.2808423,48.1484668 18.3868954,48.4686016 18.61,48.7 C19.61,49.57 20.71,50.41 21.82,51.19 C22.3280264,51.5622111 22.8628099,51.8964508 23.42,52.19 C24.0466923,52.4585246 24.7748293,52.2976104 25.23,51.79 C25.9054021,51.0589145 26.0116672,49.967654 25.49,49.12 C25.1772151,48.6324324 24.6304181,48.3460385 24.0515095,48.3665672 C23.4726009,48.3870959 22.9474634,48.7115016 22.67,49.22 C22.3648662,49.6849553 22.3380188,50.2794331 22.6,50.77 C22.8274865,51.0730404 23.1726404,51.2655999 23.55,51.3 C23.64,51.3 23.72,51.22 23.64,51.15 L23.68,51.3 Z" id="Path" fill="#FFFFFF"></path>
                <path d="M75.52,27.91 C76.2962217,27.2771054 77.0125736,26.5741432 77.66,25.81 C78.33,25.11 78.96,24.39 79.58,23.66 C80.86,22.16 82.06,20.61 83.33,19.11 L81.69,18.68 C82.6005646,22.7891175 84.0005574,26.7742288 85.86,30.55 L86.86,29.24 C85.03,28.97 83.21,28.64 81.41,28.24 C80.53,28.05 79.65,27.83 78.78,27.6 C78.3420506,27.5105623 77.9109751,27.3902621 77.49,27.24 C77.28,27.16 77.11,27 76.89,26.92 C76.5650072,26.8145451 76.2149928,26.8145451 75.89,26.92 C75.5224233,27.0247511 75.2375885,27.3159834 75.1410264,27.6857958 C75.0444642,28.0556082 75.1505579,28.4489162 75.42,28.72 C75.6028131,28.9136135 75.829031,29.0609979 76.08,29.15 C76.3551369,29.1862657 76.6324992,29.2029743 76.91,29.2 C77.34,29.27 77.78,29.42 78.21,29.53 C79.12,29.75 80.04,29.95 80.97,30.14 C82.82,30.51 84.69,30.8 86.57,31.04 C87.29,31.13 87.57,30.23 87.34,29.69 C85.5301527,26.0571202 84.247256,22.18486 83.53,18.19 C83.4288581,17.8571573 83.16201,17.6007932 82.8253828,17.5130661 C82.4887555,17.425339 82.1307262,17.5188562 81.88,17.76 C80.57,19.21 79.19,20.6 77.88,22.07 C77.24,22.79 76.6,23.5 76,24.26 C75.3196847,25.0038557 74.707246,25.8070539 74.17,26.66 C73.76,27.42 74.64,28.53 75.45,27.95 L75.52,27.91 Z" id="Path" fill="#FFFFFF"></path>
                <path d="M80,22.41 C79.6328176,22.590799 79.2955582,22.8268806 79,23.11 C78.718001,23.3820118 78.4509432,23.6690991 78.2,23.97 C77.6252855,24.6176175 77.1531454,25.3494347 76.8,26.14 C76.6609861,26.6320105 76.9154874,27.1496401 77.39,27.34 C77.8557528,27.5393978 78.3970365,27.3589699 78.65,26.92 C79.33,25.92 80.04,24.92 80.78,23.92 C81.52,22.92 82.24,22 83,21.12 L81.54,20 C80.12,22.1 78.62,24.17 77.27,26.32 C76.9690048,26.8308634 77.1391367,27.4890048 77.65,27.79 C78.1608634,28.0909951 78.8190048,27.9208634 79.12,27.41 L81.24,24.29 C81.94,23.29 82.61,22.19 83.37,21.19 C83.5863844,20.7722387 83.4822998,20.2601425 83.12,19.96 C82.7468801,19.6661139 82.2122631,19.7006054 81.88,20.04 C80.567345,21.6735529 79.5519084,23.5250322 78.88,25.51 C78.7323045,26.0858663 79.0688851,26.6748825 79.64,26.84 C79.932085,26.9147597 80.242015,26.8674868 80.4985311,26.7090504 C80.7550473,26.5506139 80.9360777,26.2946465 81,26 C81.3611153,25.089586 81.9457739,24.2848206 82.7,23.66 L81,22.37 C80.346721,23.6666019 79.8723943,25.0458499 79.59,26.47 C79.4201908,27.0797203 79.7105915,27.7236524 80.28,28 C80.8737187,28.2501659 81.5609817,28.023924 81.89,27.47 C82.55,26.3 83.19,25.12 83.89,23.97 L81.61,22.97 C81.05,24.55 80.4,26.13 79.95,27.74 C79.7832753,28.3683165 80.1025313,29.0238556 80.7,29.28 C81.2991318,29.5419999 81.9995303,29.3142629 82.33,28.75 C82.77,27.88 83.17,26.98 83.67,26.14 L81.67,26.14 L82.47,27.24 C82.73,27.61 83.08,27.94 83.32,28.31 L84.93,26.69 C84.4575393,26.3438211 83.9516975,26.045676 83.42,25.8 L82.66,25.43 C82.3414327,25.3090803 81.9981316,25.2678841 81.66,25.31 C81.4563235,25.312382 81.2651578,25.4086753 81.1420073,25.5709212 C81.0188568,25.7331671 80.9775204,25.9431862 81.03,26.14 C81.1152538,26.4541501 81.2651134,26.7470574 81.47,27 C81.6822759,27.2095957 81.9095445,27.4034424 82.15,27.58 C82.6500333,28.0121895 83.1889991,28.3971651 83.76,28.73 C84.2713136,29.0242297 84.9213578,28.8956403 85.2821384,28.4288962 C85.6429191,27.9621521 85.6035704,27.3006807 85.19,26.88 C85.0819297,26.7411757 84.9849631,26.594054 84.9,26.44 C84.74,26.21 84.56,25.99 84.39,25.78 L83.54,24.71 C83.2795052,24.4564992 82.9174368,24.3359543 82.5569741,24.382717 C82.1965114,24.4294797 81.8771872,24.6384216 81.69,24.95 C81.22,25.81 80.69,26.61 80.14,27.43 L82.52,28.43 C83.14,26.87 83.57,25.22 84.08,23.62 C84.2847556,23.0069427 83.9883736,22.3388909 83.3964569,22.0792783 C82.8045402,21.8196657 82.1123217,22.0541209 81.8,22.62 C81.14,23.79 80.42,24.93 79.73,26.09 L82.08,27.09 C82.3230661,25.752113 82.6571761,24.4323787 83.08,23.14 C83.1868608,22.6624878 82.9713587,22.1708805 82.5477812,21.9258924 C82.1242036,21.6809043 81.5906176,21.7392553 81.23,22.07 C80.2609,23.0109438 79.5010456,24.1456144 79,25.4 L81,26 C81.5491552,24.2602558 82.3546807,22.6121303 83.39,21.11 L81.75,20.11 C81.05,21.11 80.27,22.11 79.53,23.11 L77.29,26.11 L79.14,27.2 C80.57,25.1 81.85,22.9 83.2,20.75 C83.3296526,20.3485108 83.1933766,19.9088424 82.8593821,19.6510615 C82.5253876,19.3932805 82.0655375,19.3728516 81.71,19.6 C80.88,20.6 80,21.6 79.21,22.6 C78.42,23.6 77.69,24.6 76.97,25.7 L78.72,26.7 C79.01,26.02 79.22,25.32 79.55,24.7 C79.71,24.38 79.88,24.07 80.06,23.77 C80.26,23.45 80.43,23.14 80.6,22.77 C80.6867007,22.6035238 80.6554016,22.4000465 80.5226776,22.2673224 C80.3899535,22.1345984 80.1864762,22.1032993 80.02,22.19 L80,22.41 Z" id="Path" fill="#FFFFFF"></path>
                <path d="M40.85,64.13 C41.621005,64.7400735 42.4480269,65.2757962 43.32,65.73 C44.16,66.24 45.01,66.73 45.88,67.17 C47.61,68.1 49.39,68.93 51.13,69.85 L51.13,68.15 C47.3171428,69.9337637 43.7288429,72.1626048 40.44,74.79 L41.97,75.42 C41.84,73.62 41.77,71.81 41.77,70 C41.77,69.14 41.77,68.27 41.83,67.41 C41.8253846,66.9392751 41.845412,66.4686312 41.89,66 C41.97,65.44 42.19,65.12 42.01,64.54 C41.75,63.73 40.43,63.38 40.01,64.28 C39.8688033,64.5177714 39.7833292,64.7844506 39.76,65.06 C39.76,65.31 39.87,65.52 39.89,65.77 C39.9148376,66.2396719 39.9148376,66.7103281 39.89,67.18 C39.89,68.09 39.89,68.99 39.89,69.89 C39.89,71.74 40.03,73.59 40.2,75.43 C40.208748,75.7857977 40.4263451,76.1030214 40.7551284,76.2392934 C41.0839117,76.3755654 41.4621183,76.3052867 41.72,76.06 C44.8873863,73.517778 48.394673,71.4309087 52.14,69.86 C52.4342169,69.6776607 52.6132173,69.3561376 52.6132173,69.01 C52.6132173,68.6638624 52.4342169,68.3423393 52.14,68.16 C50.43,67.16 48.78,66.16 47.07,65.16 C46.24,64.7 45.42,64.24 44.57,63.83 C43.6804125,63.3175003 42.7466763,62.8857728 41.78,62.54 C41.3698292,62.4304972 40.9371691,62.6095121 40.7242767,62.9768101 C40.5113843,63.344108 40.5711051,63.8085157 40.87,64.11 L40.85,64.13 Z" id="Path" fill="#FFFFFF"></path>
                <path d="M47.14,67.28 C46.6039982,66.7243684 45.9743963,66.2673993 45.28,65.93 C44.5836033,65.5293943 43.832301,65.2329162 43.05,65.05 C42.5112427,64.9196199 41.9639389,65.2304884 41.8,65.76 C41.7267902,66.0186707 41.7608127,66.2959237 41.8943929,66.5292186 C42.027973,66.7625135 42.2498592,66.9321994 42.51,67 C43.61,67.43 44.71,67.9 45.79,68.39 C46.87,68.88 48,69.4 49.1,70 L49.84,68.26 C47.48,67.33 45.13,66.26 42.74,65.46 C42.4654737,65.3834311 42.1717441,65.4195485 41.9239451,65.5603434 C41.6761462,65.7011382 41.4947569,65.9349747 41.42,66.21 C41.2776269,66.7796511 41.6077652,67.3606943 42.17,67.53 L45.59,68.89 C46.71,69.34 47.83,69.73 48.93,70.23 C49.3838146,70.4619548 49.939469,70.3155033 50.22,69.89 C50.4580656,69.4337359 50.3109636,68.8712872 49.88,68.59 C47.9947828,67.6750965 45.9642891,67.0964058 43.88,66.88 C43.3386204,66.8755247 42.8775835,67.272583 42.8017263,67.8086405 C42.7258691,68.344698 43.0586351,68.8540869 43.58,69 C44.5512906,69.1076661 45.4815827,69.4509473 46.29,70 L47.36,68.16 C45.9335756,67.8142674 44.4669693,67.6628975 43,67.71 C42.3598342,67.7176179 41.8221128,68.1935863 41.7368431,68.8280935 C41.6515733,69.4626007 42.0445579,70.0636442 42.66,70.24 C43.94,70.63 45.24,71 46.51,71.44 L46.86,69 C45.2,68.79 43.52,68.5 41.86,68.41 C41.1663077,68.3483005 40.5455984,68.8401556 40.4471082,69.5295869 C40.348618,70.2190182 40.8067795,70.8649977 41.49,71 C42.43,71.23 43.39,71.44 44.32,71.74 L43.8,69.74 L42.9,70.74 C42.6,71.08 42.35,71.49 42.04,71.8 L43.89,73.23 C44.1643666,72.628244 44.3819767,72.0021962 44.54,71.36 C44.61,71.06 44.7,70.76 44.75,70.47 C44.7875014,70.1318736 44.7464351,69.7896541 44.63,69.47 C44.5815616,69.2608341 44.4329601,69.0890807 44.2329327,69.01107 C44.0329053,68.9330593 43.8072592,68.9588562 43.63,69.08 C43.3368553,69.2368734 43.0810289,69.4551785 42.88,69.72 C42.72,69.97 42.6,70.25 42.46,70.52 C42.1473127,71.1001409 41.8927416,71.7097719 41.7,72.34 C41.5488238,72.9080283 41.8387662,73.5007047 42.38,73.73 C42.9215156,73.9491354 43.5421541,73.746478 43.85,73.25 C44.05,72.97 44.38,72.7 44.62,72.41 L45.43,71.41 C45.7294164,71.1091092 45.8475915,70.6724217 45.7407773,70.2615979 C45.6339632,69.8507741 45.3180546,69.5269484 44.91,69.41 C43.97,69.14 43.06,68.77 42.14,68.41 L41.49,71 C43.26,71.28 45.08,71.36 46.86,71.52 C47.4847978,71.5246614 48.0138204,71.0601538 48.09,70.44 C48.2079757,69.8025139 47.8229509,69.1795523 47.2,69 C45.91,68.61 44.64,68.15 43.36,67.72 L43,70.29 C44.3334957,70.2304281 45.6694052,70.2538065 47,70.36 C47.4942697,70.3561257 47.9264247,70.025894 48.06,69.55 C48.1767255,69.0698172 47.9707888,68.5691084 47.55,68.31 C46.5090196,67.6032069 45.329577,67.1259758 44.09,66.91 L43.87,69 C45.6839854,69.1672661 47.4632463,69.6019719 49.15,70.29 L49.66,68.46 C48.54,68.03 47.46,67.46 46.37,67.02 L43,65.56 L42.17,67.56 C44.52,68.49 46.95,69.28 49.33,70.13 C49.7537587,70.1551889 50.1472404,69.9100858 50.3114702,69.518634 C50.4756999,69.1271823 50.3748829,68.674701 50.06,68.39 C48.93,67.81 47.82,67.18 46.66,66.65 C45.5,66.12 44.27,65.58 43.05,65.09 L42.51,67.09 C43.23,67.23 43.96,67.28 44.68,67.45 C45.4,67.62 46.04,67.89 46.68,68.07 C46.8630784,68.1103679 47.0512094,68.0274695 47.1449614,67.8651186 C47.2387134,67.7027676 47.2164751,67.4983883 47.09,67.36 L47.14,67.28 Z" id="Path" fill="#FFFFFF"></path>
                <path d="M41,48.94 C42.00961,48.9065096 43.0139255,48.7792964 44,48.56 C45,48.42 45.89,48.23 46.83,48.04 C48.75,47.64 50.65,47.15 52.56,46.75 L51.42,45.3 C49.6180685,49.1073645 48.2753068,53.1155083 47.42,57.24 L48.91,56.85 C47.63,55.5166667 46.4,54.1366667 45.22,52.71 C44.66,52.03 44.1,51.33 43.56,50.61 C43.2705266,50.3007416 43.0094736,49.9660583 42.78,49.61 C42.68,49.42 42.66,49.19 42.55,49 C42.3434798,48.6979797 42.0343253,48.4812163 41.68,48.39 C41.3649242,48.3036298 41.027624,48.3673731 40.7657962,48.5627669 C40.5039684,48.7581608 40.3468687,49.0633727 40.34,49.39 C40.3305012,49.70668 40.4215175,50.0182359 40.6,50.28 C40.7850963,50.4537188 40.9822555,50.6141195 41.19,50.76 C41.4814898,51.0928831 41.7520112,51.443559 42,51.81 C42.58,52.54 43.18,53.27 43.8,53.98 C45.02,55.41 46.3,56.78 47.64,58.11 C47.8635321,58.3354649 48.1902446,58.4247784 48.4973893,58.3443848 C48.804534,58.2639912 49.0455935,58.0260662 49.13,57.72 C49.910236,53.7416033 51.2572963,49.895746 53.13,46.3 C53.3231701,45.9496904 53.2889799,45.5179661 53.0430783,45.2024286 C52.7971767,44.8868912 52.3868869,44.7482651 52,44.85 C50.06,45.2 48.12,45.45 46.18,45.85 C45.23,46.03 44.29,46.21 43.36,46.43 C42.3743443,46.612869 41.4071198,46.8839597 40.47,47.24 C39.56,47.64 40.09,48.96 40.94,48.98 L41,48.94 Z" id="Path" fill="#FFFFFF"></path>
                <path d="M47.8,47.35 C47.0008264,47.2547415 46.1909922,47.3055679 45.41,47.5 C44.590374,47.6396168 43.7975221,47.90615 43.06,48.29 C42.06,48.85 42.73,50.52 43.84,50.15 C44.95,49.78 46.22,49.39 47.43,49.06 C48.64,48.73 49.83,48.38 51.06,48.15 L50.55,46.32 C48.15,47.1 45.7,47.82 43.32,48.69 C42.7658656,48.8633133 42.4389156,49.4343859 42.57,50 C42.7349429,50.5656991 43.3196064,50.8978943 43.89,50.75 L47.48,49.58 C48.07,49.39 48.69,49.22 49.27,48.99 C49.8586873,48.7687443 50.4596933,48.5817647 51.07,48.43 C51.4277797,48.1910043 51.5925776,47.7499458 51.4791763,47.3348972 C51.365775,46.9198485 50.9995995,46.6238648 50.57,46.6 C48.6186665,47.0781946 46.764697,47.8901521 45.09,49 C44.5736138,49.3009952 44.3990048,49.9636138 44.7,50.48 C45.0009952,50.9963862 45.6636138,51.1709952 46.18,50.87 C47.0102196,50.3561829 47.9553195,50.0571877 48.93,50 L48.37,48 C47.0552857,48.6414349 45.8340618,49.4589484 44.74,50.43 C44.3686269,50.8507176 44.3118491,51.4632603 44.5995649,51.9450702 C44.8872808,52.4268801 45.4534766,52.6674102 46,52.54 C47.24,52.02 48.48,51.47 49.74,50.99 L48.74,48.71 C47.33,49.62 45.85,50.46 44.5,51.47 C43.8960345,51.8447718 43.6897763,52.6259198 44.03,53.25 C44.4116486,53.8510712 45.1922929,54.0560449 45.82,53.72 C46.59,53.34 47.45,52.89 48.17,52.61 L46.68,51.47 L46.68,52.83 C46.68,53.28 46.68,53.73 46.68,54.18 L49,53.87 C48.8183169,53.2243235 48.5738159,52.5979989 48.27,52 C48.15,51.75 48.05,51.5 47.91,51.26 C47.7119069,50.9667879 47.4482851,50.723708 47.14,50.55 C46.9616358,50.4337296 46.7381357,50.4106462 46.539773,50.4880077 C46.3414103,50.5653691 46.1925511,50.7336727 46.14,50.94 C45.9980015,51.2740806 45.9496053,51.6405089 46,52 C46.05,52.32 46.12,52.63 46.19,52.95 C46.3372804,53.5934884 46.5414155,54.2226262 46.8,54.83 C47.0702874,55.2899609 47.6155698,55.5113538 48.13,55.37 C48.6581736,55.2191967 49.0165295,54.7290316 49,54.18 C49,53.73 49.05,53.28 49,52.83 L49,51.47 C48.9903251,51.0568293 48.7669723,50.6782652 48.41,50.47 C48.0412684,50.2594683 47.5887316,50.2594683 47.22,50.47 C46.51,50.78 45.59,51.07 44.77,51.35 L45.77,53.74 C47.21,52.88 48.57,51.84 49.95,50.89 C50.3358468,50.6649227 50.5723067,50.2510958 50.5703074,49.804404 C50.5683082,49.3577122 50.3281535,48.9460185 49.9403074,48.724404 C49.5524613,48.5027895 49.0758468,48.5049227 48.69,48.73 C47.69,49.18 46.38,49.63 45.23,50.08 L46.48,52.23 C47.4009384,51.383704 48.376363,50.5986876 49.4,49.88 C49.8637458,49.6457867 50.1104765,49.1276524 50,48.62 C49.8693885,48.1421032 49.4354235,47.8104884 48.94,47.81 C48.2634836,47.872364 47.5940524,47.9962088 46.94,48.18 C46.2949691,48.3802136 45.6770002,48.6589713 45.1,49.01 L46.19,50.88 C47.6902189,49.8290707 49.3381953,49.0067676 51.08,48.44 L50.58,46.61 C49.9875767,46.8247288 49.3832352,47.0050296 48.77,47.15 C48.16,47.28 47.56,47.49 46.96,47.66 L43.33,48.66 L43.9,50.73 C46.3,50 48.68,49 51.06,48.15 C51.3920614,48.0633876 51.6515992,47.8044219 51.7389443,47.4725524 C51.8262893,47.140683 51.7278625,46.7875042 51.4814621,46.5486458 C51.2350617,46.3097874 50.8789947,46.2223837 50.55,46.32 C49.33,46.59 48.1,46.81 46.89,47.13 C45.68,47.45 44.49,47.8 43.3,48.19 L44.08,50.05 C44.71,49.69 45.3,49.27 45.96,48.95 C46.62,48.63 47.26,48.43 47.9,48.12 C48.0393168,48.0300031 48.1144542,47.8679054 48.0930937,47.7034294 C48.0717332,47.5389534 47.9576833,47.4014255 47.8,47.35 L47.8,47.35 Z" id="Path" fill="#FFFFFF"></path>
                <path d="M63.18,68.63 L63.39,62 C63.46,59.79 63.66,57.58 63.71,55.37 L62.01,56.37 C66.45,58.37 70.87,60.45 75.31,62.45 L75.63,60.05 C73,60.8 70.9,62.62 69,64.56 C67.3,66.29 65.45,68.56 63,69.23 L64.61,70.85 C64.9672311,69.3308494 65.1019702,67.7678749 65.01,66.21 C64.9083515,64.6969514 64.4820182,63.2235435 63.76,61.89 C63.46,61.31 62.4,61.55 62.48,62.23 C62.8734035,64.8703939 62.7374295,67.5626785 62.08,70.15 C61.9595748,70.6586464 62.1482563,71.1906714 62.5622462,71.5097887 C62.9762361,71.8289059 63.5387654,71.8759393 64,71.63 C66.3610681,70.4296338 68.4987326,68.8331502 70.32,66.91 C72.08,65.2 73.91,63.29 76.32,62.56 C77.32,62.26 77.73,60.63 76.63,60.15 C72.14,58.21 67.63,56.33 63.14,54.39 C62.7852274,54.196778 62.3550866,54.2038778 62.006884,54.4087028 C61.6586814,54.6135278 61.4434873,54.9860369 61.44,55.39 C61.44,57.6 61.67,59.81 61.72,62.02 L61.89,68.65 C61.89,69.0034622 62.1765378,69.29 62.53,69.29 C62.8834622,69.29 63.17,69.0034622 63.17,68.65 L63.18,68.63 Z" id="Path" fill="#FFFFFF"></path>
                <path d="M63.64,55.4 C63.2572809,56.4542172 62.9923368,57.5475307 62.85,58.66 C62.6552896,59.7897006 62.6249759,60.9416222 62.76,62.08 C62.93,63.17 64.67,62.89 64.66,61.82 C64.6381446,60.2469233 65.0093693,58.6932792 65.74,57.3 L63.81,56.77 C63.6,60.04 63.4,63.31 63.24,66.59 C63.262508,67.217861 63.7340642,67.7381968 64.3566871,67.8222014 C64.97931,67.9062061 65.5719029,67.529446 65.76,66.93 C66.4938136,63.6477057 66.8560911,60.293284 66.84,56.93 C66.7839364,56.3229306 66.2746527,55.8585127 65.665,55.8585127 C65.0553473,55.8585127 64.5460636,56.3229306 64.49,56.93 C64.4,59.83 64.2,62.73 64.09,65.64 C64.0989506,66.2901692 64.5834513,66.8353723 65.2280655,66.920652 C65.8726797,67.0059317 66.4822872,66.6054744 66.66,65.98 C67.5488865,63.0073806 68.1943508,59.9673442 68.59,56.89 L65.9,56.89 C66.11,59.08 66.29,61.27 66.55,63.46 C66.5674742,64.1478427 67.0788606,64.7226241 67.76,64.82 C68.4468222,64.9197984 69.0997726,64.4902257 69.28,63.82 L70.1,60 L67.85,60.6 C68.29,61.14 68.68,61.73 69.09,62.3 C69.4224105,62.8330862 70.0603002,63.0914719 70.67,62.94 C71.268336,62.7651397 71.677089,62.2133232 71.67,61.59 C71.67,61.04 71.56,60.49 71.51,59.94 L69.03,60.61 C69.7685972,61.8698201 71.1934685,62.5605472 72.64,62.36 L71,60.73 C70.7475753,61.2945931 70.4103491,61.8172937 70,62.28 C68.7505979,63.8971911 67.1984123,65.2557781 65.43,66.28 C64.7942256,66.6927773 64.5947616,67.5321406 64.976872,68.1868053 C65.3589824,68.84147 66.1879231,69.0805808 66.86,68.73 C67.837644,68.2659679 68.3239642,67.1525507 68,66.12 C67.9093528,65.8066198 67.6611323,65.5636485 67.3458864,65.4797194 C67.0306405,65.3957903 66.6944677,65.4831764 66.46,65.71 C66.2806789,65.896937 66.0516998,66.0287734 65.8,66.09 L66.89,68.68 C68.1955745,67.7951492 69.3995263,66.7689396 70.48,65.62 C71.0189516,65.0445324 71.5263605,64.4403153 72,63.81 C72.44,63.23 72.8,62.57 73.27,62.02 C73.597564,61.6837051 73.7252499,61.2005125 73.6065814,60.7462986 C73.4879129,60.2920847 73.1401977,59.9330959 72.69,59.8 C72.21,59.7 71.69,59.7 71.38,59.27 C71.0686315,58.7653156 70.4625747,58.5253056 69.8900922,58.6799682 C69.3176097,58.8346308 68.9148653,59.3471798 68.9,59.94 C68.9,60.49 68.9,61.04 68.9,61.59 L71.29,60.59 C70.85,60.04 70.39,59.51 69.97,58.95 C69.6894991,58.4901139 69.1639973,58.239128 68.63,58.31 C68.087437,58.3832351 67.6439934,58.7791669 67.51,59.31 L66.6,63.12 L69.33,63.49 C69.13,61.29 68.84,59.11 68.59,56.92 C68.5297587,56.222005 67.9455898,55.6860819 67.245,55.6860819 C66.5444102,55.6860819 65.9602413,56.222005 65.9,56.92 C65.5340338,59.7617392 64.9455596,62.5703661 64.14,65.32 L66.7,65.67 C66.78,62.76 66.7,59.86 66.84,56.96 L64.49,56.96 C64.4412424,60.1018713 64.0387042,63.2282506 63.29,66.28 L65.81,66.62 C65.87,63.35 65.88,60.07 65.89,56.8 C65.89,55.8 64.41,55.32 63.95,56.28 C63.1004944,58.0115973 62.6786967,59.9216891 62.72,61.85 L64.63,61.59 C64.54,61.09 64.34,60.59 64.24,60.11 C64.1581535,59.6299522 64.1014098,59.145961 64.07,58.66 C63.9965324,57.6323517 64.0334097,56.5997891 64.18,55.58 C64.2067949,55.4835383 64.1800927,55.3801091 64.1099519,55.3086731 C64.0398111,55.2372372 63.9368877,55.2086474 63.8399519,55.2336731 C63.7430162,55.2586989 63.6667949,55.3335383 63.64,55.43 L63.64,55.4 Z" id="Path" fill="#FFFFFF"></path>
                <path d="M29.16,37.11 L23.43,33.76 C21.53,32.65 19.69,31.41 17.77,30.32 L17.77,32.26 C21.66,29.32 25.59,26.44 29.47,23.49 L27.54,22 C27.1000745,24.667776 27.3619913,27.4041169 28.3,29.94 C29.01,32.28 30.17,35.03 29.59,37.51 L31.78,36.93 C30.6278997,35.8940956 29.3309267,35.0316928 27.93,34.37 C26.5463927,33.7207368 25.0383392,33.3795482 23.51,33.37 C22.68,33.37 22.65,34.44 23.32,34.72 C25.7683833,35.6157078 28.0125327,36.9927995 29.92,38.77 C30.2982339,39.1376958 30.8590646,39.2449003 31.3462489,39.0426318 C31.8334332,38.8403633 32.153417,38.3674635 32.16,37.84 C32.2432708,35.2133022 31.874573,32.5918269 31.07,30.09 C30.4,27.72 29.57,25.17 30.07,22.69 C30.2144657,22.1198676 29.9642988,21.5229354 29.4565191,21.2261509 C28.9487394,20.9293664 28.3058623,21.0043369 27.88,21.41 C24.03,24.41 20.24,27.48 16.4,30.48 C16.15427,30.7277945 16.0368179,31.0752251 16.0817872,31.4212932 C16.1267565,31.7673613 16.3291014,32.0732363 16.63,32.25 C18.63,33.25 20.63,34.17 22.63,35.18 L28.54,38.18 C28.846518,38.3594925 29.2405075,38.256518 29.42,37.95 C29.5994925,37.643482 29.496518,37.2494925 29.19,37.07 L29.16,37.11 Z" id="Path" fill="#FFFFFF"></path>
                <path d="M17.73,30.37 C18.4655748,31.1978165 19.28683,31.9453263 20.18,32.6 C21.091722,33.317757 22.102102,33.9004094 23.18,34.33 C23.622733,34.3839291 24.047659,34.1381465 24.2216676,33.7274863 C24.3956762,33.316826 24.2766966,32.8405749 23.93,32.56 C22.524076,31.8320999 21.3265002,30.7584112 20.45,29.44 L19,30.86 C21.77,32.61 24.54,34.35 27.34,36.05 C28.56,36.79 30.01,35.05 28.89,34.05 C26.3639119,31.8362387 23.5964592,29.914117 20.64,28.32 C20.0984002,28.0849559 19.4665417,28.2902559 19.166529,28.7987521 C18.8665162,29.3072483 18.9923634,29.9595946 19.46,30.32 C21.96,31.79 24.41,33.32 26.91,34.83 C27.4757808,35.1396265 28.1827528,34.9913689 28.5764749,34.480527 C28.9701969,33.969685 28.9335115,33.2482671 28.49,32.78 C26.3222676,30.5945238 23.9813002,28.5879803 21.49,26.78 L20.13,29.1 C22.27,30.01 24.39,30.95 26.54,31.81 C27.83,32.33 28.91,30.36 27.89,29.48 L24.89,26.93 L24.3,29.18 C24.98,29.07 25.68,29 26.36,28.91 C26.9766465,28.8903787 27.5174197,28.4927513 27.72,27.91 C27.8848005,27.294181 27.6190076,26.6440107 27.07,26.32 C26.57,26.09 26.07,25.89 25.54,25.67 L24.87,28.15 C26.3237294,28.1249068 27.6205247,27.2301575 28.16,25.88 L25.94,26.46 C26.3192117,26.9701949 26.6223713,27.5327244 26.84,28.13 C27.0930426,28.7411741 27.3133546,29.3653916 27.5,30 C27.8642505,31.2864263 28.0658216,32.6134361 28.1,33.95 C28.1159275,34.7275514 28.7424486,35.3540725 29.52,35.37 C30.301976,35.3645505 30.9345505,34.731976 30.94,33.95 C30.9919089,32.8985282 30.2849892,31.9601764 29.26,31.72 C28.62,31.59 27.87,32.15 28.12,32.86 C28.1883342,33.0951359 28.1883342,33.3448641 28.12,33.58 L30.9,33.95 C30.7378095,32.3746101 30.4024508,30.8218996 29.9,29.32 C29.6567201,28.5718135 29.3729686,27.8373977 29.05,27.12 C28.75,26.45 28.34,25.82 28.05,25.12 C27.919388,24.6681592 27.5614432,24.3178758 27.1068825,24.1970692 C26.6523219,24.0762625 26.1677019,24.202621 25.83,24.53 C25.49,24.94 25.22,25.39 24.76,25.44 C24.162696,25.4634281 23.6472585,25.8661136 23.48,26.44 C23.3240741,27.0202108 23.5733915,27.6332865 24.09,27.94 C24.58,28.19 25.09,28.47 25.55,28.71 L26,26.13 C25.2,26.28 24.4,26.45 23.59,26.57 C23.1301191,26.7003095 22.7734284,27.0640858 22.6521887,27.5264406 C22.530949,27.9887954 22.6632369,28.4807927 23,28.82 L25.9,31.43 L27.59,29.24 C25.46,28.33 23.3,27.49 21.15,26.63 C20.5018865,26.4514984 19.8218232,26.7808372 19.56,27.4 C19.3091969,28.0191964 19.5415742,28.7290035 20.11,29.08 C22.4391268,30.7580677 24.6295214,32.6207391 26.66,34.65 L28.25,32.65 C25.73,31.19 23.17,29.83 20.66,28.36 L19.48,30.36 C22.2177469,31.9064181 24.7736787,33.754605 27.1,35.87 L28.65,33.87 C25.81,32.25 22.94,30.67 20.06,29.1 C19.22,28.64 18,29.63 18.64,30.52 C19.7458448,32.0958477 21.2180906,33.379344 22.93,34.26 L23.68,32.49 C23.19,32.33 22.68,32.28 22.18,32.12 C21.6863441,31.9535448 21.2022716,31.7599158 20.73,31.54 C19.7993696,31.1029575 18.9149397,30.5736396 18.09,29.96 C17.82,29.76 17.55,30.18 17.75,30.4 L17.73,30.37 Z" id="Path" fill="#FFFFFF"></path>
                <path d="M62.42,40.11 L67.56,35.9 C69.28,34.49 71.09,33.19 72.79,31.77 L70.9,31.27 C72.31,35.94 73.65,40.64 75.06,45.27 L77,43.82 C74.67,42.33 72,42 69.25,41.82 C66.79,41.67 63.89,41.76 61.76,40.33 L61.76,42.59 C63.1183421,41.8628908 64.3645412,40.943398 65.46,39.86 C66.5253386,38.7875886 67.3472963,37.498377 67.87,36.08 C68.12,35.43 67.16,34.92 66.72,35.41 C64.9692159,37.4497082 62.8313125,39.1219634 60.43,40.33 C60.0341916,40.5689827 59.7922756,40.9976397 59.7922756,41.46 C59.7922756,41.9223603 60.0341916,42.3510173 60.43,42.59 C61.6458973,43.1547202 62.9202285,43.5839686 64.23,43.87 C65.5798546,44.1089107 66.9419616,44.2724971 68.31,44.36 C70.82,44.56 73.48,44.71 75.67,46.07 C76.1312508,46.3323388 76.7047527,46.2929742 77.1258332,45.970073 C77.5469137,45.6471719 77.733704,45.1035145 77.6,44.59 C76.13,39.94 74.6,35.3 73.09,30.65 C72.9738213,30.2692665 72.6690102,29.9756897 72.2841842,29.8738839 C71.8993581,29.7720781 71.4892503,29.8765229 71.2,30.15 C69.56,31.62 68.03,33.22 66.4,34.71 L61.51,39.2 C60.89,39.77 61.79,40.62 62.42,40.11 L62.42,40.11 Z" id="Path" fill="#FFFFFF"></path>
                <path d="M72.71,31.77 C71.6890423,32.1559898 70.7132643,32.6522618 69.8,33.25 C69.3525248,33.5601586 68.921913,33.8939662 68.51,34.25 C68.0250955,34.5901527 67.5761104,34.9788265 67.17,35.41 C66.9300839,35.8050713 66.992187,36.3130892 67.3202074,36.6387327 C67.6482278,36.9643761 68.156684,37.0227829 68.55,36.78 C69.7247513,35.7112616 71.1533709,34.960806 72.7,34.6 L71.9,32.71 C69.22,34.71 66.54,36.81 63.9,38.9 C63.4532698,39.3582796 63.4136751,40.07608 63.8072897,40.5807141 C64.2009043,41.0853482 64.9067448,41.221709 65.46,40.9 C68.4046111,39.2949222 71.1587011,37.3626982 73.67,35.14 C74.1250012,34.6802026 74.1250012,33.9397974 73.67,33.48 C73.2038958,33.0406059 72.4761042,33.0406059 72.01,33.48 C69.77,35.33 67.44,37.08 65.18,38.9 C64.7182392,39.3650957 64.6712477,40.0998715 65.07,40.62 C65.478227,41.1250684 66.1882159,41.2679064 66.76,40.96 C69.4782281,39.731899 72.0933195,38.287245 74.58,36.64 L73,34.54 C71.49,36.14 70,37.71 68.47,39.34 C67.9958787,39.8406775 67.9569217,40.6120308 68.378186,41.1579295 C68.7994503,41.7038282 69.5554797,41.8616989 70.16,41.53 L73.58,39.64 L71.58,38.11 C71.43,38.92 71.22,39.71 71.04,40.5 C70.8932014,41.1096307 71.1636455,41.743376 71.7053669,42.0591881 C72.2470884,42.3750002 72.9318219,42.298103 73.39,41.87 C73.78,41.48 74.14,41.06 74.52,40.66 L72.3,39.37 C71.8739034,40.6416296 72.1986073,42.0448142 73.14,43 L73.72,40.78 C72.389274,41.1651907 70.9926217,41.2673847 69.62,41.08 C68.2562402,40.9659161 66.9123074,40.6803304 65.62,40.23 C64.8642094,40.0320355 64.0894361,40.4773076 63.88,41.23 C63.6814945,41.9882758 64.1259365,42.7660493 64.88,42.98 C65.8549622,43.3560212 66.9585114,42.9655346 67.48,42.06 C67.6437526,41.7763924 67.6443994,41.4271167 67.4816982,41.1429046 C67.3189971,40.8586925 67.0174789,40.6823953 66.69,40.68 C66.55,40.68 66.52,40.68 66.58,40.68 L66.32,40.57 C66.16,40.51 66.13,40.51 66.22,40.57 C66.1309163,40.5262353 66.0470529,40.4725627 65.97,40.41 L64.85,43 C66.3800414,43.3976175 67.9498556,43.6223559 69.53,43.67 C70.2759893,43.7149772 71.0240107,43.7149772 71.77,43.67 C72.54,43.61 73.31,43.45 74.08,43.45 C74.5537849,43.4442946 74.9893338,43.1888053 75.2255191,42.7780485 C75.4617043,42.3672916 75.463408,41.8623413 75.23,41.45 L74.92,40.95 C74.8,40.75 74.92,40.95 74.84,40.73 C74.7951363,40.5358919 74.7951363,40.3341081 74.84,40.14 C74.9848472,39.5624465 74.7312058,38.95859 74.2173817,38.657702 C73.7035577,38.356814 73.0528185,38.4310784 72.62,38.84 C72.21,39.21 71.78,39.56 71.38,39.94 L73.73,41.31 C73.87,40.5 73.98,39.69 74.16,38.89 C74.2890878,38.3603999 74.0919255,37.8046589 73.6579332,37.4748247 C73.2239409,37.1449906 72.6357008,37.1038258 72.16,37.37 L68.69,39.18 L70.38,41.37 C71.9,39.78 73.38,38.12 74.84,36.5 C75.3103305,36.0176096 75.3530036,35.2622963 74.94,34.73 C74.5295951,34.1998319 73.7905204,34.0545802 73.21,34.39 C70.734863,36.0563305 68.1298105,37.5210455 65.42,38.77 L67,40.77 C69.24,38.92 71.4,36.99 73.65,35.16 L72,33.49 C69.5870195,35.5155894 66.9537893,37.2632492 64.15,38.7 L65.71,40.7 C68.21,38.61 70.71,36.47 73.15,34.33 C73.95,33.63 73.09,32.33 72.15,32.59 C70.2855019,33.0942038 68.5702601,34.0410173 67.15,35.35 L68.53,36.72 C68.85,36.32 69.08,35.86 69.39,35.45 C69.7225861,35.0323245 70.0798926,34.6349462 70.46,34.26 C71.2023656,33.5071656 72.0237851,32.8366191 72.91,32.26 C73.16,32.1 73,31.63 72.69,31.75 L72.71,31.77 Z" id="Path" fill="#FFFFFF"></path>
                <g id="Group" opacity="0.3" transform="translate(7.000000, 5.000000)" fill="#FFDD15">
                    <path d="M52,3.84 C49.1260702,11.7030779 45.6629053,19.3380861 41.64,26.68 L43.22,26 C35.22,24.53 26.46,23 18.74,26.4 C11.74,29.4 7.83,36.7 0.85,39.67 C0.389537014,39.9519884 0.137650633,40.4781371 0.206748473,41.0136454 C0.275846313,41.5491536 0.653039263,41.9941308 1.17,42.15 C16.3376261,45.4675633 30.1072722,53.3968115 40.59,64.85 C41.47,65.85 43.37,64.85 42.87,63.53 C40.3720325,57.4235016 39.4703637,50.7814373 40.25,44.23 L38.58,45.17 C46.7419283,47.7747256 54.281293,52.0294461 60.73,57.67 C61.2611364,58.1206914 62.0356719,58.1367207 62.5850001,57.7083899 C63.1343282,57.2800592 63.307607,56.5249853 63,55.9 C61.2460423,52.7036001 59.8508984,49.3230593 58.84,45.82 C58.0174108,42.5290824 58.079509,39.0791821 59.02,35.82 C60.87,29.36 65.16,24 69.59,19.1 C69.9639913,18.7860609 70.0565715,18.2479336 69.8089986,17.8270596 C69.5614257,17.4061857 69.0461019,17.225649 68.59,17.4 C58.12,19.85 47.59,22.24 37.19,24.79 L38.52,26.52 C43.8887955,18.971511 48.4251893,10.8643416 52.05,2.34 L49.9,2.34 C51.9,6.34 53.96,10.34 56.08,14.34 L59.08,20.09 L60.7,23.18 L61.4,24.51 L61.86,25.39 C62.08,26.12 62.69,26.39 63.7,26.29 C64.36,24.54 61.55,23.78 60.9,25.52 C59.99,27.95 64.17,28.98 64.82,26.4 C65.14,25.14 64.29,23.91 63.73,22.86 L61.4,18.44 C58.31,12.64 55.24,6.83 52.05,1.09 C51.7860592,0.67478442 51.3060426,0.449374533 50.81797,0.511453941 C50.3298974,0.573533348 49.9215932,0.911931416 49.77,1.38 C46.4264622,9.92915929 41.9678701,17.9990093 36.51,25.38 C35.86,26.27 36.92,27.38 37.84,27.11 C48.3,24.63 58.71,21.99 69.15,19.41 L68.15,17.71 C63.67,23.13 58.59,28.71 56.53,35.57 C54.21,43.28 57.03,50.57 60.53,57.42 L62.83,55.65 C56.0651732,49.6169517 48.0354591,45.1749822 39.33,42.65 C38.9218511,42.5461548 38.4886235,42.634371 38.1535808,42.8895489 C37.8185381,43.1447267 37.6183593,43.5389306 37.61,43.96 C36.8986042,50.8710468 37.809411,57.852758 40.27,64.35 L42.52,63 C31.7010749,51.2067008 17.5163089,43.0268074 1.89,39.57 L1.89,42.19 C8.61,39.39 12.52,32.83 18.89,29.59 C26.14,25.93 34.82,27.39 42.45,28.73 C43.0601597,28.8882113 43.7019495,28.6282458 44.03,28.09 C48.2712976,20.597275 51.7327502,12.6892129 54.36,4.49 C54.83,3 52.56,2.4 52,3.84 Z" id="Path"></path>
                    <path d="M5.88,38.68 L5.75,41.17 C5.76391329,41.700308 6.1243803,42.1585536 6.63649638,42.2969634 C7.14861246,42.4353732 7.69084147,42.2210994 7.97,41.77 C8.79852941,40.4737121 9.26150353,38.9776838 9.31,37.44 L6.89,38.09 C7.55862463,39.204442 8.01942592,40.4309866 8.25,41.71 C8.56,43.29 11.09,42.91 11.04,41.33 C10.99,39.75 11.04,37.88 10.9,36.16 L8,37 C9,39.14 9.88,41.33 10.82,43.49 C11.58,45.24 14.16,44.22 14.2,42.58 C14.1783382,40.4849578 14.0515119,38.392324 13.82,36.31 L10.2,36.8 L13.35,44.36 C13.6261424,45.3292597 14.6357403,45.8911423 15.605,45.6149999 C16.5742597,45.3388576 17.1361423,44.3292597 16.86,43.36 C16.47,40.63 16.11,37.9 15.74,35.17 L12.38,36.58 C13.4758092,38.9690593 14.3527329,41.4525606 15,44 L18.62,43 C17.54,39.74 16.44,36.49 15.35,33.23 L11.88,34.7 C14.1000793,38.6011215 15.9065498,42.7234939 17.27,47 L21.19,45.92 C19.4575588,41.588361 18.3107754,37.0449462 17.78,32.41 L14.13,33.41 C16.5558075,37.4726798 18.7363701,41.6768579 20.66,46 C21.66,48.12 24.92,46.6 24.34,44.45 C23.14,39.9833333 21.9233333,35.5 20.69,31 L16.89,32.6 C19.63,38.94 22.4,45.2633333 25.2,51.57 C26.15,53.73 29.89,52.18 29.05,49.94 L21.05,28.94 L17.25,30.54 C20.17,35.8733333 23.0733333,41.2066667 25.96,46.54 C28.56,51.34 31.2,56.14 34.96,60.13 C35.735588,60.887406 36.9498747,60.9598372 37.81,60.3 C38.6444539,59.6220142 38.8795014,58.4467769 38.37,57.5 C33.8502705,47.2444148 28.8001135,37.2308849 23.24,27.5 L19.74,29.5 C25.63,38.5 31.45,47.56 37.28,56.61 C38.46,58.43 41.88,57.29 40.99,55.05 C36.9041022,44.7322635 32.2331873,34.6559082 27,24.87 L23.67,26.82 C27.29,31.82 30.76,36.88 34.3,41.91 C34.8098081,42.7740301 35.8808503,43.1266788 36.8042593,42.7345462 C37.7276684,42.3424136 38.2176882,41.3268481 37.95,40.36 C37.0253807,35.3473943 35.2317238,30.5349788 32.65,26.14 C31.36,23.92 27.95,25.91 29.21,28.14 C31.41,32.05 33.59,35.95 35.69,39.91 C36.76,41.91 40.3,40.54 39.46,38.32 C39.06,37.32 38.68,36.22 38.26,35.18 C37.9176672,34.0745728 36.7743819,33.4262731 35.65,33.7 C34.5272497,34.0205602 33.8686953,35.1819298 34.17,36.31 C34.9552641,39.3546992 35.0847894,42.5314789 34.55,45.63 L38.55,46.17 C38.48,39.6 38.2,33.07 37.55,26.54 C37.4814944,25.6435178 36.7340959,24.9510534 35.835,24.9510534 C34.9359041,24.9510534 34.1885056,25.6435178 34.12,26.54 L34.43,26.23 C33.31,26.33 32.17,27.62 32.99,28.74 L40.38,38.81 C41.57,40.43 44.6,39.56 43.88,37.34 C43.16,35.12 42.36,32.77 41.57,30.49 C40.78,28.21 37.03,29.09 37.77,31.49 L40.68,41.12 L43.1,38.7 L40.29,38.14 L41.73,40.04 C41.2766667,35.6933333 40.8133333,31.36 40.34,27.04 L36.73,28.04 C40.73,33.79 44.41,39.72 48.22,45.57 C49.55,47.57 53.33,46.35 52.38,43.82 C50.98,40.13 48.5,35.82 43.82,36.63 C40.22,37.28 37.82,42.48 41.37,44.82 C42.7199878,45.7028783 44.4471179,45.7682707 45.86,44.99 C47.4393488,43.9641756 48.0478889,41.9483867 47.3,40.22 C45.84,35.84 44.03,31.54 42.42,27.22 L39.1,28.62 C43.57,36.62 48.23,44.39 53.4,51.91 C54.0416765,52.5998772 55.0778174,52.7483607 55.887415,52.2664573 C56.6970127,51.7845539 57.0604909,50.8029639 56.76,49.91 C52.18,40.26 46.39,31.28 40.65,22.3 L37.28,24.3 C42.07,31.5 46.63,38.84 51.39,46.05 C52.63,47.92 56.14,46.78 55.25,44.42 C52.1089787,36.1285094 48.5066869,28.0191797 44.46,20.13 L40.92,22.2 L50.55,38.54 C51.71,40.54 55.06,39.22 54.31,36.95 C52.05,30.1166667 49.7866667,23.2866667 47.52,16.46 L43.74,18.05 L51.87,33.73 C52.94,35.81 56.48,34.37 55.69,32.11 C53.75,26.5433333 51.8133333,20.97 49.88,15.39 L46,17 L53.53,31.11 C54.66,33.24 58.34,31.78 57.53,29.44 C54.59,21.44 51.95,13.44 49.74,5.17 L45.96,6.77 C49.46,13.88 53.15,20.9 57.27,27.68 C58.54,29.76 62.35,28.4 61.38,25.94 C59.38,20.73 57.12,15.59 54.98,10.42 L50.98,12.09 L58.77,26 C59.2487969,26.7787988 60.179983,27.1536713 61.0648289,26.9238412 C61.9496747,26.6940111 62.5807256,25.9133628 62.62,25 C62.6523966,24.0916578 63.2932188,23.3193848 64.18,23.12 L62.11,19.57 C52.6936495,29.0083797 50.1158231,43.2959925 55.64,55.43 C56.2693994,56.4944232 57.6374001,56.8553615 58.71,56.24 C59.7576628,55.5932514 60.1139522,54.238472 59.52,53.16 C55,43.18 57.61,30.28 65.11,22.53 C66.54,21.06 65.11,18.32 63.05,18.98 C60.4034376,19.8013842 58.568629,22.2103232 58.48,24.98 L62.34,23.93 C59.7933333,19.2633333 57.25,14.5966667 54.71,9.93 C53.56,7.83 49.82,9.28 50.71,11.6 C52.82,16.79 54.83,22 57,27.17 L61.1,25.44 C56.7663268,18.7983076 52.8842339,11.8726806 49.48,4.71 C48.48,2.54 45.13,4.1 45.71,6.3 C47.8171845,14.5326213 50.350598,22.6502254 53.3,30.62 L57.3,28.95 L49.7,14.89 C48.58,12.8 45.01,14.22 45.82,16.52 L51.7,33.23 L55.52,31.62 L47.31,16 C46.24,13.94 42.79,15.35 43.54,17.59 L50.35,38 L54.1,36.42 L44.46,20.13 C43.11,17.85 39.72,19.86 40.92,22.2 C44.8002439,29.7591779 48.2263231,37.5429895 51.18,45.51 L55,43.89 C50.3,36.65 45.37,29.55 40.65,22.3 C39.29,20.21 35.94,22.13 37.28,24.3 C42.93,33.3 48.52,42.42 53.35,51.93 L56.71,49.93 C51.3756538,42.5346533 46.5255175,34.8018259 42.19,26.78 C41.24,24.99 38.19,26.21 38.87,28.18 L41.47,35.71 C41.91,36.97 42.36,38.22 42.77,39.48 C42.9191097,40.0954569 43.1095415,40.7001613 43.34,41.29 C43.62,41.85 43.34,41.63 43.8,41.29 C43.9,41.22 43.95,41.29 43.99,41.29 C43.67,41.09 43.68,41.13 43.99,41.41 C44.1,41.41 44.11,41.49 43.99,41.7 C43.93,41.7 44.11,41.33 44.22,41.3 C44.4002784,41.2255919 44.5955661,41.194757 44.79,41.21 C46.61,41.47 47.5,44.21 48.1,45.58 L52.03,43.28 C48.03,37.57 43.85,31.91 39.95,26.1 C38.95,24.65 36.15,25.01 36.35,27.1 C36.7766667,31.4466667 37.22,35.78 37.68,40.1 C37.6976422,41.0012519 38.3160044,41.7793236 39.19,42 L42,42.55 C42.679631,42.7172604 43.3972504,42.5170729 43.8921617,42.0221617 C44.3870729,41.5272504 44.5872604,40.809631 44.42,40.13 L41.52,30.5 L37.72,31.5 C38.51,33.78 39.31,36.05 40.14,38.32 L43.34,36.46 L35.55,26.68 L34.38,29.52 C35.8496398,29.4610945 37.1003803,28.4310728 37.44,27 L34.07,26.55 C34.26,33.09 34.45,39.64 34.42,46.18 C34.42,48.43 38,49.05 38.42,46.73 C39.1741599,42.9115576 39.0957088,38.9753601 38.19,35.19 L34.1,36.32 C34.58,37.53 35.1,38.72 35.62,39.92 L39.18,37.84 C36.92,33.97 34.74,30.06 32.58,26.14 L29.14,28.14 C31.4844956,32.2704341 33.1268333,36.7615179 34,41.43 L37.66,39.89 C34.07,34.89 30.41,29.89 26.91,24.89 C26.359213,23.9980912 25.1971955,23.7089009 24.2926109,24.2386125 C23.3880264,24.7683242 23.0716553,25.9232376 23.58,26.84 C28.58,36.38 33.08,46.19 37.11,56.18 L40.81,54.61 C34.95,45.59 29.1033333,36.5566667 23.27,27.51 C22.7177152,26.5435017 21.4864983,26.2077153 20.52,26.76 C19.5535017,27.3122848 19.2177153,28.5435017 19.77,29.51 C25.26409,39.2869457 30.2441961,49.3439561 34.69,59.64 L38.1,57 C34.5,53.16 32,48.48 29.45,43.9 C26.59,38.74 23.7333333,33.5766667 20.88,28.41 C19.78,26.41 16.23,27.77 17.08,30.01 L25,51.06 L28.84,49.44 C26.0666667,43.1466667 23.28,36.8466667 20.48,30.54 C19.48,28.36 16.06,29.93 16.68,32.15 C17.93,36.62 19.18,41.08 20.46,45.54 L24.14,44 C22.14,39.72 19.88,35.54 17.52,31.43 C16.59,29.83 13.7,30.43 13.86,32.43 C14.2318524,37.6211212 15.4548363,42.7157613 17.48,47.51 C18.38,49.6 21.97,48.1 21.19,45.94 C19.5407871,41.390337 17.5171886,36.9852474 15.14,32.77 C14.14,30.94 10.97,32.16 11.67,34.23 C12.77,37.4766667 13.88,40.7333333 15,44 C15.77,46.27 19.26,45.36 18.62,43 C17.8453954,40.1609893 16.8110291,37.3993317 15.53,34.75 C15.0637929,33.9476664 14.0686034,33.6245529 13.22,34 C12.3834363,34.3672484 11.9320074,35.282763 12.15,36.17 C12.55,38.89 12.9366667,41.6166667 13.31,44.35 L16.82,43.35 L13.72,35.78 C13.4569515,34.9155953 12.6188751,34.3582745 11.72,34.45 C10.8082582,34.5743257 10.1264843,35.3498436 10.12,36.27 C10.26,38.51 10.28,40.8 10.63,43.02 L13.95,41.62 C12.87,39.54 11.75,37.47 10.72,35.36 C10.3645939,34.7172349 9.61721209,34.3989973 8.90753207,34.5882453 C8.19785206,34.7774933 7.70816624,35.4256156 7.72,36.16 C7.83,37.88 8.03,39.61 8.18,41.33 L11,41 C10.6345229,39.5098984 10.0045328,38.0975012 9.14,36.83 C8.83348267,36.3402178 8.24227911,36.1090895 7.68484973,36.2611157 C7.12742034,36.4131419 6.73541781,36.9124173 6.72,37.49 C6.74892766,38.584189 6.47186527,39.6647323 5.92,40.61 L8.15,41.22 L8.15,38.68 C8.09522171,38.099633 7.60794642,37.6561838 7.025,37.6561838 C6.44205358,37.6561838 5.95477829,38.099633 5.9,38.68 L5.88,38.68 Z" id="Path"></path>
                </g>
            </g>
        </g>
    </g>
</svg>