<?xml version="1.0" encoding="UTF-8"?>
<svg width="105px" height="114px" viewBox="0 0 105 114" version="1.1" xmlns="http://www.w3.org/2000/svg" xmlns:xlink="http://www.w3.org/1999/xlink">
    <!-- Generator: sketchtool 63.1 (101010) - https://sketch.com -->
    <title>5DD9B962-2B57-4122-8F15-4642819FC66D</title>
    <desc>Created with sketchtool.</desc>
    <g id="Dashboard-Launch-Version-v2" stroke="none" stroke-width="1" fill="none" fill-rule="evenodd">
        <g id="KNN-model-is-ready" transform="translate(-44.000000, -195.000000)" fill-rule="nonzero">
            <g id="cluster8" transform="translate(44.000000, 194.000000)">
                <path d="M43.29,48.69 C49.9,50.69 56.7,51.63 63.53,50.14 L62.05,46.62 C56.17,50.62 50.44,54.8 44.68,58.95 L47.62,60.64 C48.06,57.26 50.11,54.26 51.8,51.39 C53.66,48.23 55.36,45.06 55.58,41.32 L51.84,41.32 C52.0297728,44.4706413 52.8099812,47.5575527 54.14,50.42 C55.47,53.11 57.45,55.36 58.91,57.95 L60.45,55.95 C58.91,55.53 57.31,55.38 55.77,54.95 C54.1926738,54.4973355 52.662348,53.8945814 51.2,53.15 C49.729235,52.4324267 48.3062815,51.620742 46.94,50.72 C45.5195891,49.8775224 44.2765263,48.7669172 43.28,47.45 L42.06,50.45 L44.06,49.88 C46.52,49.2 45.47,45.58 43.06,46.09 L41,46.52 C39.2,46.9 39.11,49.36 40.51,50.24 C42.1,51.24 43.51,52.59 45.03,53.67 C46.4586322,54.6906725 47.9903379,55.5587508 49.6,56.26 C51.2165472,56.9593759 52.8891249,57.521362 54.6,57.94 C56.3862893,58.4538862 58.2423419,58.6833618 60.1,58.62 C61.1,58.52 62.1,57.13 61.1,56.31 C59,54.59 58,51.83 57.23,49.31 C56.4156506,46.7047561 55.8629202,44.0248512 55.58,41.31 C55.58,40.2772275 54.7427725,39.44 53.71,39.44 C52.6772275,39.44 51.84,40.2772275 51.84,41.31 C51.69,44.7 49.84,47.66 48.07,50.45 C46.18,53.45 44.27,56.54 43.78,60.11 C43.5867638,60.8746218 43.860915,61.6814097 44.48,62.17 C45.1025251,62.6644249 45.9653671,62.7240683 46.65,62.32 C52.46,58.24 58.3,54.19 64,49.94 C64.7993087,49.4286875 65.129323,48.4261121 64.79,47.54 C64.4143716,46.6572473 63.4473779,46.1844001 62.52,46.43 C56.52,48.04 50.02,47.43 43.91,46.43 C43.321227,46.3171987 42.7445665,46.6756066 42.5850632,47.253479 C42.42556,47.8313514 42.7367264,48.4348156 43.3,48.64 L43.29,48.69 Z" id="Path" fill="#FFFFFF"></path>
                <path d="M49.25,83.83 C55.08,80.21 60.25,75.74 63.65,69.66 L60.07,68.66 C59.2,75.66 58.58,82.79 57.9,89.86 L61.24,88.48 C59,85.93 58,82.49 57,79.29 C55.86,75.83 54.63,72.41 52,69.79 L49.68,72.73 C52.1012143,74.6007533 54.8571672,75.9923059 57.8,76.83 C60.65,77.57 63.6,77.56 66.46,78.16 L66.13,75.68 C64.76,76.59 63.56,77.73 62.13,78.62 C60.8176123,79.4539086 59.4358394,80.1732334 58,80.77 C56.4896691,81.4061607 54.939766,81.9439504 53.36,82.38 C51.8218159,82.8963707 50.2005594,83.1202262 48.58,83.04 L49.79,86.04 L50.72,84.13 C51.8,81.87 48.58,79.91 47.32,82.13 L46.27,83.97 C45.8783954,84.6898093 45.9482685,85.5728687 46.4482027,86.2221339 C46.948137,86.8713991 47.7840125,87.1646367 48.58,86.97 C50.32,86.45 52.19,86.3 53.96,85.87 C55.821469,85.4362338 57.6316169,84.8060342 59.36,83.99 C60.9686886,83.2154478 62.504818,82.2984555 63.95,81.25 C65.4862309,80.2214728 66.8526511,78.9596428 68,77.51 C68.77,76.43 67.51,75.34 66.47,75.51 C63.9,75.92 61.02,74.72 58.76,73.64 C56.2389643,72.4882249 53.8317192,71.1021339 51.57,69.5 C49.84,68.24 47.8,70.99 49.31,72.43 C51.82,74.84 52.85,78.17 53.81,81.43 C54.81,84.98 56.02,88.43 58.48,91.29 C59.71,92.7 61.67,91.43 61.83,89.9 C62.57,82.84 63.38,75.78 63.93,68.7 C64.07,66.82 61.17,66.05 60.34,67.7 C57.51,73.45 52.74,77.97 47.87,82.02 C46.87,82.85 48.17,84.5 49.26,83.82 L49.25,83.83 Z" id="Path" fill="#FFFFFF"></path>
                <path d="M91.66,63.57 C92.76,70.43 94.95,76.88 99.31,82.38 L101.64,79.38 C95.48,75.85 89.19,72.54 82.94,69.18 L82.47,72.76 C89.26,70.47 96.6,74.22 103.34,71.43 L101.9,68.01 C99.1588402,69.5699111 96.7419383,71.6405714 94.78,74.11 C92.97,76.48 91.78,79.22 90.13,81.66 L92.62,81.99 C92.32,80.43 91.75,78.93 91.47,77.35 C91.1953848,75.7283537 91.0748475,74.0843584 91.11,72.44 C91.11,69.36 91.17,65.56 92.81,62.84 L89.61,63.26 C90.07,63.79 90.54,64.31 91.01,64.84 C92.47,66.48 95.48,64.24 94.1,62.45 L92.49,60.37 C91.9075232,59.7853914 91.0257804,59.6185752 90.27,59.95 C89.5203737,60.2803147 89.0265988,61.0112571 89,61.83 C88.8,63.66 88.18,65.47 87.91,67.3 C87.6256169,69.0649232 87.5150874,70.8534911 87.58,72.64 C87.6877528,74.3869775 87.9352102,76.122523 88.32,77.83 C88.6431953,79.6484976 89.2541942,81.4038534 90.13,83.03 C90.4168593,83.4884395 90.9450566,83.7370755 91.48116,83.6660256 C92.0172635,83.5949758 92.4624604,83.2173357 92.62,82.7 C93.24,80.1 95.35,77.96 97.26,76.22 C99.2646928,74.3442433 101.448473,72.6695651 103.78,71.22 C104.384795,70.8981808 104.765195,70.2714057 104.77157,69.5863472 C104.777786,68.9012887 104.408968,68.2676288 103.810189,67.9347497 C103.21141,67.6018705 102.478538,67.6230682 101.9,67.99 C98.8,69.33 95.21,68.9 91.96,68.54 C88.42,68.14 84.87,67.84 81.43,68.96 C80.7020183,69.2078799 80.1806414,69.8512075 80.0889315,70.614746 C79.9972215,71.3782845 80.3514242,72.1267794 81,72.54 C87.22,75.96 93.42,79.44 99.74,82.68 C100.567372,83.1124874 101.585689,82.8907605 102.158347,82.1534326 C102.731005,81.4161046 102.693804,80.3745925 102.07,79.68 C97.97,74.97 95.71,68.87 93.92,62.98 C93.7515531,62.366964 93.1180361,62.0065533 92.505,62.1750001 C91.891964,62.3434469 91.5315532,62.976964 91.7,63.59 L91.66,63.57 Z" id="Path" fill="#FFFFFF"></path>
                <path d="M30.32,100.52 C33.2098721,101.743282 36.1642512,102.808194 39.17,103.71 C40.7,104.2 42.17,104.65 43.77,105.06 C44.46,105.24 45.14,105.45 45.77,105.67 C46.0433333,105.896667 46.0733333,105.896667 45.86,105.67 L45.51,105.82 C45.0880817,105.942447 44.6794001,106.106589 44.29,106.31 C38.6099923,108.509542 32.5896442,109.700752 26.5,109.83 L27.42,112.06 C29.4830135,109.363994 31.6965328,106.786562 34.05,104.34 C36.46,101.96 39.05,99.74 41.56,97.49 L39.31,96.83 C39.68,99.6 40.05,102.36 40.31,105.15 L40.69,109.15 C40.8996407,110.553433 40.9999424,111.971031 40.99,113.39 L43.24,112.45 C41.98,111.28 40.4,110.45 39.08,109.28 C37.7031305,108.104755 36.4130961,106.831431 35.22,105.47 C32.7990801,102.953241 30.8422856,100.028206 29.44,96.83 C28.58,94.5 25.11,96.07 26.36,98.13 C27.36,99.78 28.22,101.48 29.3,103.08 C30.3886415,104.689636 31.6023961,106.211009 32.93,107.63 C34.1946328,108.982513 35.5548007,110.242422 37,111.4 C38.494225,112.746665 40.1790505,113.86539 42,114.72 C43,115.1 43.87,113.99 43.62,113.1 C43.3362093,111.752995 43.1623041,110.385164 43.1,109.01 L42.64,104.77 C42.35,102.02 42.17,99.26 42,96.5 C42.0013424,95.9525601 41.6766555,95.4568745 41.1742681,95.2393908 C40.6718806,95.0219071 40.08825,95.1243815 39.69,95.5 C36.9907949,97.6540513 34.4754552,100.028907 32.17,102.6 C29.7878548,105.079153 27.5348752,107.679259 25.42,110.39 C25.1690286,110.795016 25.1577548,111.304363 25.3905601,111.720086 C25.6233655,112.13581 26.0635348,112.392349 26.54,112.39 C30.1499897,112.171815 33.7319814,111.619452 37.24,110.74 C39.0604651,110.270903 40.8560843,109.71019 42.62,109.06 C43.41,108.76 44.18,108.45 44.95,108.13 C45.734538,107.870818 46.483661,107.514733 47.18,107.07 C47.6474554,106.714627 47.9108858,106.152582 47.8849464,105.565955 C47.8590071,104.979327 47.5469973,104.442727 47.05,104.13 C46.4676693,103.723763 45.82235,103.416307 45.14,103.22 C44.2,102.87 43.27,102.51 42.32,102.22 C38.6205675,100.896759 34.839321,99.8144946 31,98.98 C30.13,98.81 29.42,100.12 30.35,100.52 L30.32,100.52 Z" id="Path" fill="#FFFFFF"></path>
                <path d="M43.09,6.33 C46.0019457,7.54899673 48.9760637,8.61380443 52,9.52 C53.52,10 55,10.45 56.59,10.86 C57.29,11.05 57.97,11.26 58.65,11.48 C58.91,11.7 58.94,11.7 58.73,11.48 L58.39,11.63 C57.9692126,11.7514815 57.560755,11.9121862 57.17,12.11 C51.4742223,14.3099835 45.4350318,15.4880319 39.33,15.59 L40.2,17.83 C42.2626016,15.1397275 44.4726543,12.565784 46.82,10.12 C49.23,7.74 51.82,5.51 54.34,3.27 L52.08,2.67 C52.46,5.45 52.82,8.21 53.08,10.99 L53.46,14.99 C53.6742627,16.389563 53.774592,17.8042061 53.76,19.22 L56,18.32 C54.74,17.14 53.15,16.32 51.83,15.14 C50.4683451,13.9619678 49.1887033,12.6923493 48,11.34 C45.5744773,8.79118199 43.6208178,5.83191269 42.23,2.6 C41.37,0.27 37.89,1.83 39.14,3.9 C40.13,5.54 41,7.25 42.07,8.83 C43.1640535,10.4387929 44.3774708,11.9630858 45.7,13.39 C46.9724499,14.7541911 48.3391462,16.0273238 49.79,17.2 C51.2636978,18.5445234 52.9284315,19.6633323 54.73,20.52 C55.73,20.89 56.6,19.79 56.36,18.89 C56.0793231,17.5522871 55.9021321,16.1949367 55.83,14.83 L55.38,10.6 C55.08,7.84 54.91,5.09 54.73,2.33 C54.7276326,1.7867385 54.4044814,1.29619871 53.9062678,1.0795841 C53.4080542,0.862969503 52.8289124,0.961207987 52.43,1.33 C49.7333092,3.48694477 47.2181996,5.86158285 44.91,8.43 C42.5241657,10.9086544 40.2678319,13.5087787 38.15,16.22 C37.898038,16.6265428 37.8876671,17.1380904 38.1229449,17.5545111 C38.3582226,17.9709319 38.8017474,18.2260285 39.28,18.22 C42.8977897,18.0006711 46.4869301,17.4415419 50,16.55 C51.8157792,16.0716962 53.6049518,15.4975587 55.36,14.83 C56.14,14.54 56.92,14.23 57.69,13.9 C58.474538,13.640818 59.223661,13.2847327 59.92,12.84 C60.3864399,12.4830605 60.6480943,11.9200043 60.6201572,11.3333258 C60.5922202,10.7466474 60.2782467,10.2110021 59.78,9.9 C59.1964984,9.4957792 58.5515216,9.18848656 57.87,8.99 C56.94,8.65 56,8.28 55.06,7.99 C51.3589935,6.69291145 47.5777151,5.63736025 43.74,4.83 C42.87,4.65 42.16,5.96 43.09,6.37 L43.09,6.33 Z" id="Path" fill="#FFFFFF"></path>
                <path d="M27.22,29.66 C30.1308095,28.0825798 32.9548701,26.3500887 35.68,24.47 C37.07,23.54 38.41,22.57 39.75,21.59 C39.983479,21.3956107 40.2307992,21.2184759 40.49,21.06 C40.6431982,20.9505019 40.8165146,20.8723396 41,20.83 L40.84,20.94 C40.7270508,21.6865109 40.5011301,22.4114804 40.17,23.09 C38.3326326,28.6188803 35.5700578,33.7957493 32,38.4 L34.18,38.98 C33.3798461,35.7320088 32.7721224,32.4396157 32.36,29.12 C32.03,25.82 31.94,22.5 31.76,19.19 L29.76,20.35 C32.13,21.78 34.5,23.2 36.81,24.73 L40.18,26.96 C41.4408679,27.6858874 42.6413947,28.5118767 43.77,29.43 L44.35,27.22 C42.56,27.53 40.81,28.22 39,28.52 C37.3247079,28.8166813 35.6304306,28.9937951 33.93,29.05 C30.3976273,29.3122982 26.8466664,28.9500934 23.44,27.98 C21.32,27.27 20.44,30.98 22.54,31.24 C26.45,31.76 30.16,32.42 34.12,32.13 C36.022079,31.9922933 37.9129088,31.7283789 39.78,31.34 C41.7115612,31.0284045 43.5919986,30.4565363 45.37,29.64 C45.774917,29.4007048 46.0233354,28.9653402 46.0233354,28.495 C46.0233354,28.0246598 45.774917,27.5892952 45.37,27.35 C44.1060044,26.7059202 42.8925423,25.9671457 41.74,25.14 L38.14,22.83 C35.75,21.29 33.43,19.66 31.14,18.02 C30.7225905,17.8035032 30.2233158,17.8161992 29.8174492,18.0536312 C29.4115827,18.2910631 29.1558396,18.7200524 29.14,19.19 C29.1217862,22.6295811 29.3893733,26.0647297 29.94,29.46 C30.3672431,32.8922115 30.9713804,36.3000795 31.75,39.67 C31.9025899,40.1631382 32.3286372,40.5220793 32.8405196,40.5887531 C33.3524019,40.6554268 33.8561799,40.4175974 34.13,39.98 C36.1629742,37.1206668 37.9239809,34.0774062 39.39,30.89 C40.1,29.33 40.75,27.73 41.32,26.11 C41.9796737,24.4593086 42.4753933,22.7477363 42.8,21 C42.9117489,20.4179777 42.7230703,19.8187952 42.2980012,19.4058134 C41.8729321,18.9928316 41.2685573,18.821512 40.69,18.95 C39.9966408,19.0916592 39.3397467,19.3741577 38.76,19.78 C37.9,20.29 37.02,20.78 36.17,21.33 C32.7168329,23.4387982 29.4093725,25.7774065 26.27,28.33 C25.5,28.96 26.48,30.07 27.27,29.65 L27.22,29.66 Z" id="Path" fill="#FFFFFF"></path>
                <path d="M6.16,72.05 C8.32867532,71.9916736 10.4692776,71.5445858 12.48,70.73 C14.48,70.02 16.58,69.32 18.62,68.57 L17,66.51 C15.55,68.73 13.76,70.79 12.13,72.88 L9.68,76.03 C8.91116249,77.1215861 8.06215101,78.1544386 7.14,79.12 L9.6,80.55 C9.99085158,79.0451359 10.2518094,77.5094994 10.38,75.96 C10.61,74.35 10.82,72.74 11.02,71.13 C11.39,67.98 11.69,64.82 12.1,61.68 L9.1,62.48 C10.8,64.72 12.65,66.81 14.49,68.92 C15.49,70.01 16.38,71.12 17.36,72.19 C17.640963,72.5740183 17.9519379,72.9351504 18.29,73.27 C18.2898023,73.1988698 18.3106807,73.1292751 18.35,73.07 C18.56,72.9 18.59,72.86 18.43,72.96 C18.28591,72.9839773 18.1450078,73.0242351 18.01,73.08 C16.9020537,73.1664557 15.7877937,73.122825 14.69,72.95 C13.33,72.85 11.98,72.72 10.63,72.53 C7.85,72.16 5.14,71.4 2.37,71 C1.37708077,70.79649 0.388901486,71.3679154 0.07,72.33 C-0.188032495,73.335246 0.395102806,74.3645682 1.39,74.66 C3.02383489,75.1404579 4.69705321,75.4751016 6.39,75.66 C8.09,75.91 9.81,76.11 11.53,76.24 C13.25,76.37 14.88,76.44 16.53,76.46 C17.7975658,76.5871152 19.0744195,76.3366153 20.2,75.74 C21.4462617,74.9619866 21.9457199,73.3958886 21.38,72.04 C20.81,70.56 19.44,69.32 18.38,68.14 C16.16,65.59 14,62.98 11.61,60.59 C11.1520974,60.1486782 10.4762985,60.0204403 9.88855901,60.2633437 C9.30081954,60.5062471 8.91273357,61.0741717 8.9,61.71 C8.8069137,64.8021915 8.54317903,67.8868857 8.11,70.95 C7.9,72.49 7.67,74.02 7.43,75.55 C7.08044108,77.078493 6.83322567,78.6286004 6.69,80.19 C6.70581346,80.8453341 7.15083549,81.4121902 7.78368664,81.5831062 C8.41653778,81.7540222 9.08642411,81.4882727 9.43,80.93 C10.1711419,79.81968 10.9863251,78.7606101 11.87,77.76 L14.34,74.59 C15.96,72.49 17.48,70.24 19.22,68.24 C19.703113,67.7944348 19.8173507,67.0755712 19.4961626,66.5021911 C19.1749746,65.9288109 18.5022947,65.6507518 17.87,65.83 C15.77,66.33 13.67,66.83 11.58,67.41 C9.45357152,67.8428027 7.42161991,68.6521967 5.58,69.8 C5.12890062,70.0791585 4.91462685,70.6213875 5.0530366,71.1335036 C5.19144635,71.6456197 5.64969202,72.0060867 6.18,72.02 L6.16,72.05 Z" id="Path" fill="#FFFFFF"></path>
                <path d="M63.49,21.04 C64.9511577,22.7563409 66.7176284,24.1871483 68.7,25.26 C70.6066667,26.4066667 72.52,27.5533333 74.44,28.7 L75.13,26.12 C72.47,26.12 69.81,26.12 67.13,26.12 C64.45,26.12 61.77,26.19 59.13,25.92 L59.91,28.83 C65,26.01 69.91,22.83 74.81,19.74 L72.5,17.91 C71.96,20.78 71.66,23.67 71.32,26.56 C71.16,27.93 71.04,29.31 70.86,30.68 C70.8161378,30.8511418 70.7827426,31.0247968 70.76,31.2 C70.76,31.31 70.76,31.33 70.76,31.27 C70.852694,31.1354682 70.9857757,31.0339058 71.14,30.98 C71.14,30.83 70.6,30.45 70.47,30.3 C68.8303963,28.3700681 67.3362924,26.3211068 66,24.17 C64.55,21.96 63.39,19.57 61.93,17.39 C61.3782542,16.5395329 60.2559974,16.2720361 59.3799421,16.782178 C58.5038868,17.29232 58.182646,18.4003901 58.65,19.3 C59.3338442,20.695508 60.129789,22.0332302 61.03,23.3 C61.89,24.6333333 62.7866667,25.92 63.72,27.16 C64.6533333,28.4 65.5866667,29.6233333 66.52,30.83 C67.3535084,32.0351372 68.425661,33.0562349 69.67,33.83 C71.070118,34.6017174 72.829431,34.1398978 73.67,32.78 C74.39,31.53 74.36,29.85 74.52,28.46 C74.91,25.09 75.38,21.72 75.52,18.33 C75.5170398,17.7670074 75.2147241,17.2481225 74.7264109,16.967909 C74.2380976,16.6876954 73.6375681,16.688492 73.15,16.97 C68.4422387,20.4055462 63.4776486,23.4745656 58.3,26.15 C57.7246591,26.5066375 57.4520517,27.1989477 57.6297679,27.8521126 C57.8074842,28.5052776 58.3932781,28.9640297 59.07,28.98 C61.72,28.79 64.41,28.98 67.07,28.98 C69.73,28.98 72.4,28.98 75.07,28.98 C75.6823712,28.95729 76.2088074,28.5389641 76.3692677,27.9475533 C76.529728,27.3561425 76.2869172,26.7291061 75.77,26.4 C74.02,25.09 72.25,23.8 70.49,22.51 C68.7992438,21.1162492 66.8625702,20.0512483 64.78,19.37 C63.87,19.13 62.78,20.25 63.43,21.13 L63.49,21.04 Z" id="Path" fill="#FFFFFF"></path>
                <g id="Group" opacity="0.3" transform="translate(9.000000, 11.000000)" fill="#FFDD15">
                    <path d="M58.75,16.15 C55.622188,20.3241508 52.8110109,24.7264341 50.34,29.32 C47.7,33.9 45.15,38.55 42.34,43.05 C42.1101277,43.4518369 42.0772868,43.9369144 42.250899,44.3660681 C42.4245112,44.7952219 42.7853891,45.1210222 43.23,45.25 C58.0911352,48.6259053 72.3696834,54.1863501 85.6,61.75 L86,58.83 C76.42,62.37 66.77,65.98 56.6,67.4 C55.4335831,67.5980835 54.2530881,67.701753 53.07,67.71 C51.7865828,67.6263224 50.4977802,67.6934475 49.23,67.91 C46.992469,68.3919738 44.9099545,69.4229216 43.17,70.91 C41.5008752,72.395853 39.9619303,74.0217818 38.57,75.77 C36.9233333,77.71 35.3133333,79.69 33.74,81.71 C30.2900565,86.1515916 27.0659735,90.7640994 24.08,95.53 C22.99,97.28 25.74,98.87 26.84,97.14 C29.01,93.71 28.12,89.9 26.34,86.49 C24.49,82.91 21.72,79.69 19.13,76.62 C16.4723551,73.4808781 13.6306894,70.5023048 10.62,67.7 C9.19,66.37 7.62,65.17 6.25,63.78 C5.25,62.78 4.43,61.68 5.44,60.37 C6.63,58.83 8.05,57.44 9.16,55.83 C10.2464791,54.1697882 11.1962705,52.4240449 12,50.61 C13.77,46.83 15.16,42.83 16.63,38.89 C19.44,31.42 22.73,24.2 27.88,18.03 C33.2292293,11.7671639 39.9827486,6.85707089 47.59,3.7 L45.59,3.44 C46.72,4.79 47.69,6.25 48.87,7.57 C50.05,8.89 51.24,10.15 52.48,11.39 C54.9730049,13.8565777 57.6181929,16.1644374 60.4,18.3 C61.0948053,18.9603193 62.1851947,18.9603193 62.88,18.3 C63.2097595,17.9716052 63.3951316,17.5253864 63.3951316,17.06 C63.3951316,16.5946136 63.2097595,16.1483948 62.88,15.82 C60.1692652,13.7137506 57.5847998,11.449839 55.14,9.04 C53.95,7.85 52.79,6.63 51.68,5.38 C50.57,4.13 49.21,2.83 48.18,1.44 C47.7952992,0.798693448 47.0330106,0.48888633 46.31,0.68 C39.3109412,3.38218859 32.9398858,7.49002187 27.59,12.75 C21.71,18.37 17.66,25.13 14.59,32.59 C12.91,36.64 11.47,40.77 9.86,44.84 C8.55732389,48.5595406 6.67401386,52.0494018 4.28,55.18 C3.04,56.68 1.43,57.97 0.81,59.88 C0.274304332,61.7994579 0.690749844,63.8593759 1.93,65.42 C3.16094243,66.8925646 4.54170384,68.2331097 6.05,69.42 C7.65,70.83 9.21,72.27 10.72,73.78 C13.9889581,77.0083812 17.0296158,80.4600289 19.82,84.11 C21.87,86.81 26.47,91.82 24.09,95.47 L26.85,97.08 C29.44,93.08 32.2,89.08 35.15,85.32 C37.9320109,81.5130719 41.0296189,77.9471431 44.41,74.66 C45.9106487,73.2202521 47.7908951,72.2384998 49.83,71.83 C52.14,71.4 54.42,70.95 56.74,70.59 C61.5382915,69.7987378 66.2787261,68.6896298 70.93,67.27 C76.3,65.7 81.56,63.83 86.82,61.91 C87.425608,61.7264557 87.8675325,61.2051636 87.9494719,60.5776802 C88.0314113,59.9501968 87.7381681,59.3329033 87.2,59 C73.9097618,50.9682727 59.3108443,45.3358594 44.07,42.36 L44.97,44.56 C47.52,39.93 50.31,35.43 52.97,30.88 C55.7638007,26.4750009 58.2207936,21.8652144 60.32,17.09 C60.3849163,16.6825674 60.1929514,16.2770907 59.8366609,16.0690702 C59.4803704,15.8610497 59.0329011,15.8931921 58.71,16.15 L58.75,16.15 Z" id="Path"></path>
                    <path d="M49.81,5.06 C46.4,4.7 42.99,4.47 39.56,4.37 C36.76,4.29 36.35,8.37 38.92,9.15 C42.9733333,10.41 47.0433333,11.6366667 51.13,12.83 L51.83,7.66 L35.83,6.76 C32.64,6.59 32.18,11.32 35.1,12.19 C41.94,14.2633333 48.79,16.31 55.65,18.33 L56.41,12.71 C48.8633333,12.1233333 41.31,11.8833333 33.75,11.99 C32.3042521,12.0060914 31.0879704,13.0777802 30.89,14.51 C30.6838342,15.9542774 31.5902116,17.3245826 33,17.7 C40.8333333,18.9533333 48.67,20.1833333 56.51,21.39 L57.29,15.64 C48.1664267,15.1245809 39.0159948,15.3553483 29.93,16.33 C28.4139215,16.3813973 27.1513573,17.5092879 26.93,19.01 C26.77,20.38 27.61,22.15 29.14,22.39 C36.1866667,23.4966667 43.24,24.5833333 50.3,25.65 L51.15,19.36 L22.75,20.44 C21.5331336,20.3728354 20.3788296,20.9838494 19.7501757,22.0279132 C19.1215219,23.071977 19.1215219,24.378023 19.7501757,25.4220868 C20.3788296,26.4661506 21.5331336,27.0771646 22.75,27.01 C30.9166667,27.7833333 39.0733333,28.5266667 47.22,29.24 L46.34,22.74 C39.4670185,24.2731419 32.460022,25.1272452 25.42,25.29 C23.7479049,25.3004757 22.33959,26.5423535 22.12,28.2 C21.94,29.68 22.85,31.65 24.52,31.89 C31.0440327,32.8393765 37.6594222,32.9904895 44.22,32.34 L43.32,25.68 C36.0933333,26.6866667 28.8566667,27.6866667 21.61,28.68 C19.78,28.92 18.18,30.08 18.18,32.11 C18.1962092,33.9992169 19.7208383,35.528291 21.61,35.55 C28.61,35.28 35.5,35.04 42.44,34.74 L41.5,27.79 C35.17481,29.7826567 28.581643,30.7943959 21.95,30.79 L21.95,38.02 L42.95,36.38 L41.95,29.15 L21,33.83 L23,41.02 C29.5401764,39.2622348 36.240563,38.1667216 43,37.75 L42,30.32 C33.4491729,33.2690477 24.7345489,35.719827 15.9,37.66 C14.0461708,38.1816207 12.8629295,39.9927915 13.13,41.9 C13.36,43.59 15.02,45.5 16.93,45.24 C24.5,44.24 32.06,43.05 39.63,41.95 L37.63,34.52 L14.56,41.83 C12.5843833,42.4350904 11.4448489,44.4981735 11.9846197,46.4926266 C12.5243905,48.4870797 14.5488695,49.6938668 16.56,49.22 L43.87,42.4 L40.94,35.4 C29.2533333,40.7333333 17.56,46.0333333 5.86,51.3 C4.16,52.07 3.61,54.49 4.3,56.06 C5.03237644,57.8220104 6.95788072,58.767647 8.8,58.27 L39.6,48.59 L37.6,41.2 L20.52,47.8 C17.9,48.8 15.26,49.8 12.68,50.86 C9.91,52.02 7.41,53.49 5.83,56.14 C4.25,58.79 6.94,62.97 10.17,61.78 L45.4,48.92 L42.4,41.92 L9.71,57.58 C7.89762371,58.6632539 7.28803001,60.9992881 8.34,62.83 C9.43640591,64.6174976 11.7453775,65.2255855 13.58,64.21 C25.76,58.4 37.79,52.7 51.19,50.21 L49.19,42.85 C36.15,48.2966667 23.1133333,53.7433333 10.08,59.19 C8.17,60 6.8,61.73 7.4,63.92 C7.98270516,65.9482803 10.0796486,67.1389176 12.12,66.6 L47.12,55.31 L45,47.83 C34.0466667,52.1033333 23.09,56.3933333 12.13,60.7 L15.13,67.82 L45.42,54.41 C47.18,53.64 47.68,51.18 47,49.58 C46.2286314,47.8221897 44.302721,46.8761285 42.44,47.34 C31.9192515,48.9688624 21.6013403,51.7109193 11.66,55.52 C10.2609362,55.8072763 9.13690689,56.8473017 8.74204132,58.2198862 C8.34717574,59.5924707 8.74672408,61.0707996 9.77926114,62.0575996 C10.8117982,63.0443996 12.3067009,63.3766056 13.66,62.92 C27.0997404,60.4653017 40.2732966,56.7282177 53,51.76 C54.89,51.02 56.41,49.12 55.72,46.97 C55.12,45.12 52.97,43.48 50.93,44.25 L18.93,56.47 L21,64.2 C30.9577073,60.0728135 41.196999,56.6608302 51.64,53.99 L48.54,46.63 C39.9993318,51.4517477 31.1955734,55.7918637 22.17,59.63 C20.33,60.4 19.83,63.02 20.52,64.63 C21.2902509,66.4924021 23.3257799,67.4908827 25.27,66.96 L55.12,56.22 C57.12,55.51 58.66,53.43 57.95,51.22 C57.31,49.22 55.11,47.64 52.95,48.39 C40.3279752,52.8757309 27.9390557,57.9921677 15.83,63.72 C13.99,64.58 13.43,67.09 14.16,68.81 C14.9443606,70.7079406 17.0197904,71.7242151 19,71.18 L50.36,61.98 L48.17,54.05 L20.86,62.5 C19.4309376,62.8912058 18.3191354,64.0150906 17.9433984,65.4482978 C17.5676614,66.881505 17.985073,68.4062964 19.0383984,69.4482978 C20.0917237,70.4902992 21.6209376,70.8912058 23.05,70.5 L41.81,65.24 L39.6,57.24 L21.29,64.4 C19.3077496,64.9857571 18.0391245,66.9182959 18.29,68.97 C18.5510951,71.0324006 20.3011561,72.5813543 22.38,72.59 C29.5617186,72.3254248 36.6664718,71.0149701 43.47,68.7 L41.32,60.83 C33.278103,63.7084046 25.4287188,67.0986705 17.82,70.98 C16.0559241,72.0003764 15.341008,74.1838853 16.16,76.05 C16.9582644,77.902572 18.9855138,78.8992323 20.94,78.4 L41.78,74.29 L39.63,66.5 C33.4566667,69.0666667 27.2066667,71.44 20.88,73.62 C19.4938095,73.9987015 18.4149514,75.0881599 18.0498213,76.4779869 C17.6846911,77.8678139 18.0887609,79.3468616 19.1098213,80.357987 C20.1308817,81.3691124 21.6138095,81.7587016 23,81.38 L33.66,78.57 L30.57,71.24 L23.17,74.88 C19.65,76.62 21.31,82.52 25.17,82.31 C27.8589318,82.1750017 30.521634,81.7149888 33.1,80.94 L29.25,74.34 L24.35,78.48 C23.3488548,79.4737894 22.9659536,80.9326433 23.35,82.29 L24.69,87.63 C25.6,91.27 31.36,91.41 32.19,87.63 C32.95,84.15 31.44,81.4 29.29,78.78 C29.12,78.57 28.94,78.36 28.76,78.16 C28.58,77.96 28.11,77.35 28.54,77.94 C28.2245808,77.5098781 27.9500535,77.0512167 27.72,76.57 C27.47,76.04 27.85,77.06 27.72,76.51 C27.53,75.68 27.64,76.39 27.64,76.39 C27.64,76.39 27.79,75.8 27.58,76.47 C27.8,75.76 27.47,76.71 27.36,76.83 C28.1672272,75.9782278 28.5479982,74.8082473 28.3967146,73.6445271 C28.245431,72.4808069 27.5781766,71.4470697 26.58,70.83 C24.3823344,69.3370224 21.8140186,68.4820709 19.16,68.36 L20.16,75.9 C22.9512368,74.874531 25.3458089,72.991081 27,70.52 C28.29,68.63 27.09,65.25 24.71,64.88 L20,64.16 L20,71.55 C27.74,68.67 35.51,65.7 42.07,60.55 C43.64,59.33 45.07,57.96 46.53,56.63 C47.6572097,55.529434 48.9981741,54.6717614 50.47,54.11 C52.0981217,53.565353 53.8170817,53.344538 55.53,53.46 C57.4864196,53.5097195 59.438993,53.6599174 61.38,53.91 L59.38,46.64 L47.83,51.54 C46.03,52.31 45.53,54.86 46.21,56.47 C46.9348951,58.3550152 48.9761179,59.3777936 50.92,58.83 C55.4432164,57.1971665 60.0786529,55.8937633 64.79,54.93 L61.7,47.61 C55.43,50.61 49.14,53.55 42.89,56.61 C41.2404792,57.6876043 40.5967182,59.7900672 41.3601063,61.6064891 C42.1234944,63.422911 44.0759063,64.4342797 46,64.01 L64.11,58.34 L61,50.97 L46.4,58.22 C42.4,60.22 45.19,66.99 49.49,65.53 L67.13,59.53 L64.07,52.28 C57.7833333,55.16 51.61,58.2666667 45.55,61.6 C43.7120016,62.7192834 43.0889604,65.0921424 44.14,66.97 C45.2592834,68.8079984 47.6321424,69.4310396 49.51,68.38 C54.7662221,65.6476151 60.1675796,63.2039849 65.69,61.06 L62.69,53.95 L47.69,61.02 C46.0276391,61.9972491 45.3542795,64.060217 46.12,65.83 C46.8846663,67.5884705 48.8117023,68.5329299 50.67,68.06 C57.873574,66.7232553 64.9951186,64.9770913 72,62.83 L70,55.52 C66.4791135,56.898807 63.0804625,58.5713715 59.84,60.52 C58.2507881,61.4741264 57.6033533,63.4505062 58.32,65.16 C59.0270656,66.8860776 60.9110607,67.8130547 62.71,67.32 L72.43,63.91 L69.62,57.24 L63.94,59.7 L67.58,65.93 C72.1807035,63.6268337 77.1251682,62.0867545 82.22,61.37 L81.29,54.51 L73,57.63 L77.28,61.91 C77.8955482,59.8330708 77.6513503,57.5959557 76.6022127,55.7007394 C75.5530751,53.8055231 73.7868722,52.4109465 71.7,51.83 C69.8526075,51.3191366 67.9408634,52.4026075 67.43,54.25 C66.9191366,56.0973925 68.0026075,58.0091366 69.85,58.52 C70.13,58.59 70.24,58.61 69.91,58.52 C69.91,58.52 70.62,58.98 70.34,58.75 C70.06,58.52 70.52,58.96 70.56,59.01 C70.6,59.06 70.7,59.17 70.56,59.01 C70.42,58.85 70.43,58.89 70.63,59.19 C70.63,59.55 70.93,59.41 70.63,59.19 C70.75,59.27 70.76,59.71 70.69,59.19 C70.69,59.29 70.69,60.12 70.69,59.66 C70.69,59.2 70.54,60.08 70.53,60.11 C69.71,62.49 72.37,65.31 74.81,64.39 L83.04,61.26 C84.6995564,60.7688189 85.7582486,59.1469024 85.54,57.43 C85.31,55.9 83.85,54.18 82.11,54.43 C75.7714572,55.2147539 69.5997697,57.0108905 63.83,59.75 C62.2729041,60.6625106 61.6385204,62.5913801 62.35,64.25 C63,65.73 64.93,67.04 66.61,66.34 L72.32,63.96 C74.14,63.2 75.44,61.54 74.87,59.47 C74.3553301,57.5425756 72.4019555,56.3732086 70.46,56.83 L60.7,60.11 L63.57,66.91 C66.2607028,65.3161721 69.0806325,63.9513663 72,62.83 C73.979479,62.2262186 75.139682,60.1782845 74.64,58.17 C74.0751728,56.1668549 72.0173693,54.978296 70,55.49 C62.9787025,57.5803731 55.8521613,59.2994217 48.65,60.64 L51.65,67.64 L66.65,60.64 C68.2904026,59.6450124 68.9541799,57.5983657 68.21,55.83 C67.52,54.2 65.44,52.89 63.63,53.58 C57.46318,55.9179507 51.4276552,58.5885369 45.55,61.58 L49.55,68.36 C55.6166667,65.0266667 61.8033333,61.9433333 68.11,59.11 C69.91,58.3 70.43,55.81 69.74,54.11 C68.9508081,52.2758078 66.9142747,51.3219884 65,51.89 L47.36,57.83 L50.44,65.15 L65.1,57.94 C67.1379306,57.0839586 68.0960412,54.7379307 67.2399998,52.7000001 C66.3839585,50.6620694 64.0379307,49.7039587 62,50.56 L43.87,56.16 L47,63.6 C53.26,60.6 59.5,57.6 65.75,54.53 C67.4702943,53.5081113 68.170852,51.3722647 67.39,49.53 C66.5972231,47.6998248 64.5924921,46.7165318 62.66,47.21 C57.9567511,48.2098667 53.33149,49.5466473 48.82,51.21 L51.82,58.43 L63.32,53.43 C64.8456624,52.534256 65.5797571,50.7256762 65.11,49.02 C64.6010996,47.3744248 63.1200764,46.2207436 61.4,46.13 C57.24,45.69 52.9,45.36 48.83,46.58 C44.48,47.88 41.64,50.97 38.32,53.84 C32.67,58.71 25.09,61.52 18,64.16 C16.3608627,64.6405471 15.218065,66.1225498 15.17,67.83 C15.24,69.39 16.29,71.27 17.98,71.53 L22.66,72.26 L20.37,66.63 C19.79,67.48 20.75,66.35 20.01,67.08 C19.7414059,67.3619058 19.457652,67.6289682 19.16,67.88 C19.63,67.51 18.7,68.15 18.66,68.17 C18.62,68.19 17.58,68.68 18.16,68.45 C16.3144456,68.9622927 15.1285947,70.7562478 15.3804131,72.6549585 C15.6322315,74.5536692 17.2447109,75.9764929 19.16,75.99 C20.31,76.07 18.69,75.81 19.81,76.07 C20.2191825,76.1654033 20.6230721,76.2822309 21.02,76.42 C20.52,76.24 21.65,76.74 21.64,76.73 C22.0064857,76.9354786 22.3604424,77.1625451 22.7,77.41 L21.92,71.41 C19.39,74.08 19.61,77.69 21.24,80.78 C22.0013525,82.0093954 22.8679353,83.1704157 23.83,84.25 C24.26,84.8 23.44,83.57 24.09,84.62 C24.27,84.9 24.45,85.18 24.61,85.47 C24.77,85.76 24.73,85.71 24.61,85.47 L24.72,85.83 C24.82,85.06 24.51,86.41 24.72,85.61 L32.22,85.61 L30.94,80.25 L29.94,84.06 L34.89,79.97 C36.1412385,78.6940577 36.3943126,76.7429384 35.51,75.19 C34.6055201,73.6150903 32.753533,72.8471932 31,73.32 C29.1103711,73.9135448 27.1494137,74.2499011 25.17,74.32 L27.17,81.74 L34.6,78.15 C36.3328406,77.1412634 37.0511098,75.0054414 36.2799309,73.1546121 C35.5087521,71.3037828 33.4864285,70.3098745 31.55,70.83 L20.88,73.63 L23,81.38 C29.3266667,79.22 35.58,76.86 41.76,74.3 C43.7,73.49 45.31,71.58 44.58,69.3 C43.941394,67.1695397 41.7335815,65.9243335 39.58,66.48 L18.78,70.58 L21.91,78 C28.890771,74.4283423 36.0997897,71.3215826 43.49,68.7 C45.49,67.98 47.05,65.89 46.34,63.7 C45.7142898,61.5579921 43.5002225,60.3004018 41.34,60.86 C35.2306561,62.9266673 28.8469011,64.0692718 22.4,64.25 L23.51,72.44 L41.81,65.22 C43.81,64.43 45.45,62.41 44.71,60.11 C44.0654333,57.9250624 41.8063363,56.6429918 39.6,57.21 L20.86,62.5 L23.05,70.5 L50.33,62 C51.7465581,61.6087942 52.8468059,60.4915804 53.2162907,59.0692022 C53.5857756,57.646824 53.1683639,56.1353745 52.1212907,55.1042022 C51.0742175,54.0730298 49.5565581,53.6787942 48.14,54.07 L16.8,63.3 L20,70.77 C31.4536664,65.3305289 43.1753309,60.4743154 55.12,56.22 L53,48.41 L23.13,59.19 L26.24,66.56 C35.2693167,62.7300298 44.0735295,58.3896898 52.61,53.56 C56.61,51.29 53.9,45.07 49.5,46.19 C39.042873,48.8529776 28.798016,52.2890993 18.85,56.47 C16.93,57.28 15.33,59.16 16.06,61.4 C16.67,63.29 18.89,65.01 20.98,64.2 L53,51.76 L50.93,44.25 C38.2501016,49.3112748 25.0941434,53.0868707 11.66,55.52 L13.66,62.92 C23.6241824,59.1378067 33.9623038,56.4258935 44.5,54.83 L41.5,47.76 L11.2,61.09 C9.43,61.87 8.93,64.35 9.61,65.96 C10.29,67.57 12.39,68.96 14.21,68.22 C25.17,63.96 36.1266667,59.6566667 47.08,55.31 C48.97,54.57 50.49,52.68 49.8,50.53 C49.1729297,48.4964744 47.0634798,47.3099088 45,47.83 C33.36,51.6166667 21.72,55.4033333 10.08,59.19 L12.08,66.6 L51.19,50.17 C53.09,49.38 54.46,47.65 53.86,45.47 C53.2515299,43.4746238 51.180591,42.311373 49.16,42.83 C35.27,45.44 22.38,51.56 9.71,57.6 L13.58,64.23 L46.32,48.54 C50.2,46.67 47.46,40 43.32,41.54 L8.12,54.45 L12.47,60.1 C12.6,59.88 12.73,59.66 12.47,59.98 C12.62,59.79 12.8,59.64 12.96,59.46 C13.65,58.72 12.7,59.59 13.17,59.27 C13.37,59.13 13.58,59 13.79,58.88 C14.22,58.63 14.66,58.41 15.11,58.2 C15.73,57.91 14.3,58.51 15.4,58.07 L16.1,57.83 L23.95,54.83 L39.64,48.74 C41.6385898,48.1269467 42.8104612,46.0597129 42.31,44.03 C41.7317877,42.0030924 39.6378549,40.8116402 37.6,41.35 L6.82,51 L9.75,58 C21.4433333,52.6666667 33.1333333,47.3633333 44.82,42.09 C46.52,41.32 47.07,38.91 46.37,37.33 C45.6311315,35.5798141 43.7158411,34.6413645 41.88,35.13 L14.56,41.83 L16.56,49.22 L39.56,41.91 C41.5845408,41.3093458 42.7724733,39.2161116 42.25,37.17 C41.64,34.96 39.58,34.17 37.51,34.48 C30.28,35.48 23.04,36.48 15.83,37.62 L17.88,45.07 C26.7232247,43.0890506 35.4444578,40.5982237 44,37.61 C45.8026467,37.0835853 46.9528753,35.3221652 46.71,33.46 C46.4737069,31.5894906 44.8853679,30.1852448 43,30.18 C35.5636591,30.6631234 28.1939394,31.8858268 21,33.83 C19.0145364,34.3822848 17.8527154,36.4395363 18.4050001,38.425 C18.9572848,40.4104636 21.0145363,41.5722847 23,41.02 L43.91,36.2 C47.91,35.28 47.11,28.63 42.91,28.97 C35.91,29.5633333 28.91,30.1533333 21.91,30.74 C20.5731183,30.6696622 19.3065602,31.342881 18.6169845,32.4903501 C17.9274088,33.6378192 17.9274088,35.0721808 18.6169845,36.2196499 C19.3065602,37.367119 20.5731183,38.0403378 21.91,37.97 C29.1848119,37.925261 36.4106013,36.7754737 43.34,34.56 C45.029972,34.0669497 46.1082526,32.4155672 45.88,30.67 C45.6501318,28.9208355 44.164176,27.6099492 42.4,27.6 C35.46,27.92 28.52,28.28 21.57,28.6 L22.49,35.34 C30.0233333,34.2666667 37.5533333,33.2133333 45.08,32.18 C46.73,31.96 47.73,29.93 47.51,28.46 C47.2985144,26.7813774 45.8718914,25.5218364 44.18,25.52 C37.9243327,26.1653928 31.6145532,26.0747736 25.38,25.25 L25.38,31.97 C33.0259347,31.7343882 40.6327641,30.7801864 48.1,29.12 C49.6882168,28.6751229 50.7015803,27.1230091 50.47,25.49 C50.2353075,23.8667302 48.8598342,22.6520815 47.22,22.62 C39.0733333,21.8733333 30.9166667,21.1466667 22.75,20.44 L22.75,27.01 C32.2033333,26.59 41.6533333,26.1733333 51.1,25.76 C52.6893692,25.7353917 54.0229836,24.5546758 54.24,22.98 C54.41,21.57 53.54,19.71 51.95,19.47 C44.8766667,18.43 37.8033333,17.43 30.73,16.47 L29.91,22.53 C38.9787167,21.3424678 48.1387884,21.0076698 57.27,21.53 C60.51,21.72 61.33,16.3 58.05,15.78 C50.21,14.48 42.37,13.25 34.53,12.09 L33.75,17.83 C41.2966667,17.67 48.84,17.8733333 56.38,18.44 C59.67,18.69 60.16,13.7 57.14,12.82 C50.2733333,10.8266667 43.4066667,8.83 36.54,6.83 L35.8,12.26 L51.8,12.9 C54.8,13.02 55.34,8.5 52.5,7.72 C48.4,6.6 44.2933333,5.50666667 40.18,4.44 L39.53,9.21 C42.95,9.13666667 46.3666667,9.2 49.78,9.4 C50.9873487,9.41117501 51.978099,8.44720173 52,7.24 C51.9735413,6.04715066 51.0128493,5.08645867 49.82,5.06 L49.81,5.06 Z" id="Path"></path>
                </g>
            </g>
        </g>
    </g>
</svg>