<?xml version="1.0" encoding="UTF-8"?>
<svg width="112px" height="105px" viewBox="0 0 112 105" version="1.1" xmlns="http://www.w3.org/2000/svg" xmlns:xlink="http://www.w3.org/1999/xlink">
    <!-- Generator: sketchtool 63.1 (101010) - https://sketch.com -->
    <title>89530417-0049-4B45-B49E-3AB91B4B6955</title>
    <desc>Created with sketchtool.</desc>
    <g id="Dashboard-Launch-Version-v2" stroke="none" stroke-width="1" fill="none" fill-rule="evenodd">
        <g id="KNN-model-is-ready" transform="translate(-41.000000, -346.000000)" fill-rule="nonzero">
            <g id="cluster7" transform="translate(41.000000, 346.000000)">
                <path d="M47,57.94 C50.1,51.82 52.25,45.3 52,38.35 L48.41,39.35 C51.33,45.82 54.48,52.19 57.57,58.59 L59.78,55.71 C56.49,54.71 53.92,52.28 51.35,50.09 C48.57,47.73 45.74,45.4 42.11,44.55 L41.61,48.22 C44.6556531,48.5490485 47.7360346,48.3013967 50.69,47.49 C53.51,46.64 56.02,45.1 58.78,44.12 L57.25,42.12 C56.56,43.59 56.14,45.12 55.42,46.62 C54.6893624,48.0996512 53.8293481,49.5118147 52.85,50.84 C51.9049428,52.166369 50.8655876,53.4229528 49.74,54.6 C48.7027861,55.8241952 47.4441555,56.8419558 46.03,57.6 L48.61,59.6 C48.55,58.89 48.48,58.19 48.41,57.48 C48.41,56.3754305 47.5145695,55.48 46.41,55.48 C45.3054305,55.48 44.41,56.3754305 44.41,57.48 C44.41,58.19 44.41,58.89 44.48,59.6 C44.54,61.27 46.72,62.41 47.96,61.04 C49.2,59.67 50.74,58.55 52.05,57.24 C53.3913593,55.9230186 54.5943028,54.4721146 55.64,52.91 C56.5961711,51.4307991 57.4225853,49.8716533 58.11,48.25 C58.9315866,46.5369706 59.4750623,44.7040063 59.72,42.82 C59.81,41.55 58.22,41.16 57.4,41.82 C55.4,43.52 52.34,44.02 49.83,44.26 C47.081406,44.5733207 44.3100729,44.636914 41.55,44.45 C39.45,44.28 39,47.67 41.06,48.12 C44.45,48.87 47.06,51.12 49.57,53.42 C52.3,55.91 55.1,58.32 58.68,59.42 C60.44,59.98 61.58,57.98 60.89,56.54 C57.89,50.12 54.89,43.67 51.68,37.34 C50.84,35.68 47.92,36.41 48.09,38.34 C48.65,44.73 46.94,51.05 44.88,57.05 C44.7355945,57.6038407 45.0204558,58.1795767 45.5483379,58.4007844 C46.0762201,58.6219922 46.686428,58.4213328 46.98,57.93 L47,57.94 Z" id="Path" fill="#FFFFFF"></path>
                <path d="M82.76,58.12 C80.2,51.78 76.76,45.85 71.36,41.51 L69.49,44.73 C76.28,46.8 83.14,48.62 89.99,50.51 L89.52,46.93 C83.42,50.68 75.42,48.64 69.52,52.87 L71.78,55.81 C74.0863948,53.7064082 75.964205,51.1766276 77.31,48.36 C78.54,45.61 79.08,42.66 80.18,39.87 L77.7,40.2 C78.33,41.65 79.23,42.96 79.83,44.43 C80.4595147,45.979586 80.9481561,47.5827314 81.29,49.22 C81.93,52.22 82.73,55.92 81.72,58.94 L84.72,57.72 C84.15,57.3 83.58,56.9 83,56.49 C81.2,55.2 78.89,58.15 80.62,59.58 L82.25,60.92 C82.8435396,61.4912589 83.719315,61.6562031 84.48,61.34 C85.2375141,61.0335747 85.7324297,60.2971403 85.73,59.48 C85.52,57.59 85.73,55.67 85.56,53.77 C85.4607448,51.918114 85.1691767,50.08157 84.69,48.29 C84.1884207,46.5429177 83.5428769,44.8404213 82.76,43.2 C82.0370557,41.5039301 81.0479383,39.9341705 79.83,38.55 C79.4293507,38.1772178 78.8462731,38.0764044 78.343717,38.2930234 C77.8411609,38.5096424 77.5140888,39.0027618 77.51,39.55 C77.51,42.21 75.87,44.79 74.4,46.89 C72.8555097,49.1620649 71.0938989,51.2786771 69.14,53.21 C67.65,54.64 69.66,57.43 71.41,56.14 C74.21,54.08 77.62,53.56 81,53.14 C84.66,52.72 88.33,52.25 91.54,50.31 C92.1846839,49.8794364 92.522474,49.1150923 92.4068459,48.3485205 C92.2912177,47.5819486 91.7430018,46.9512479 91,46.73 C84.2,44.79 77.39,42.78 70.51,41 C68.29,40.43 67.32,43.27 69.03,44.51 C74.03,48.19 77.61,53.65 80.66,58.99 C81.28,60.08 83.25,59.34 82.76,58.1 L82.76,58.12 Z" id="Path" fill="#FFFFFF"></path>
                <path d="M69.94,12.76 C76.83,12.87 83.63,11.88 89.77,8.56 L87.43,5.56 C82.9,11 78.56,16.62 74.17,22.2 L77.44,23.06 C76.92,19.67 78.06,16.23 78.88,12.98 C79.79,9.44 80.54,5.98 79.72,2.29 L76.11,3.29 C77.1687643,6.26905746 78.776522,9.02327542 80.85,11.41 C82.85,13.61 85.39,15.22 87.51,17.3 L88.51,14.98 C86.89,14.98 85.29,15.32 83.66,15.31 C82.0535317,15.3038318 80.4507084,15.1565996 78.87,14.87 C77.2227707,14.5828098 75.5959945,14.1886422 74,13.69 C72.4363037,13.2783223 70.9640261,12.576107 69.66,11.62 L69.25,14.82 L71,13.71 C71.7479825,13.0821218 71.933143,12.0058672 71.4379972,11.1641193 C70.9428514,10.3223714 69.9122038,9.961298 69,10.31 C68.37,10.64 67.74,10.96 67.12,11.31 C66.4539154,11.7505271 66.1024481,12.5363346 66.2180821,13.3265002 C66.3337161,14.1166658 66.8956153,14.7688098 67.66,15 C69.38,15.5 71.01,16.36 72.66,17 C74.4377145,17.6365749 76.27805,18.0824121 78.15,18.33 C79.8935849,18.5567017 81.6542345,18.6236465 83.41,18.53 C85.2371629,18.5350697 87.0533966,18.2481183 88.79,17.68 C89.73,17.31 90.32,15.68 89.12,15.2 C86.65,14.13 84.9,11.77 83.5,9.56 C81.9942884,7.27661388 80.7148972,4.85179922 79.68,2.32 C79.4038576,1.32312606 78.371874,0.738857698 77.375,1.01500007 C76.3781261,1.29114243 75.7938577,2.32312604 76.07,3.32 C76.89,6.7 75.9,10.09 74.96,13.32 C73.96,16.89 73.09,20.39 73.63,24.13 C73.8369731,24.7840051 74.3646825,25.2863069 75.0280969,25.4607829 C75.6915112,25.6352589 76.3980581,25.4575626 76.9,24.99 C81.44,19.32 86.03,13.68 90.42,7.89 C91.62,6.3 89.33,4.32 87.78,5.25 C82.46,8.47 76.09,9.71 69.94,10.47 C69.3489544,10.5252958 68.8971214,11.0213734 68.8971214,11.615 C68.8971214,12.2086266 69.3489544,12.7047042 69.94,12.76 Z" id="Path" fill="#FFFFFF"></path>
                <path d="M96,79.43 C97.6917384,76.7882131 99.2406278,74.0576279 100.64,71.25 C101.34,69.91 102,68.57 102.64,67.25 C102.83,66.84 103.24,65.37 103.64,65.25 L103.64,65.1 C103.64,65.24 103.71,65.39 103.74,65.53 C103.83,65.92 103.91,66.31 103.99,66.7 C105.208968,72.6869218 105.351191,78.8431736 104.41,84.88 L106.59,84.3 C104.32096,81.8461611 102.197336,79.261751 100.23,76.56 C98.34,73.83 96.62,70.97 94.88,68.14 L93.72,70.14 C96.49,70.24 99.25,70.34 102.01,70.56 L105.94,70.88 C107.418751,70.9039364 108.893315,71.0443711 110.35,71.3 L110,68.82 C108.58,69.91 107.39,71.34 106,72.49 C104.61316,73.6306265 103.146038,74.6699772 101.61,75.6 C98.6000104,77.5810288 95.261188,79.0100177 91.75,79.82 C89.6,80.22 90.62,83.87 92.65,83.08 C96.3,81.66 99.86,80.42 103.17,78.26 C104.743405,77.2345291 106.246735,76.1053615 107.67,74.88 C109.250078,73.6762841 110.642021,72.2438967 111.8,70.63 C112.032608,70.2192005 112.031892,69.71631 111.798114,69.3061747 C111.564337,68.8960395 111.131994,68.6391764 110.66,68.63 C109.274083,68.6798862 107.886393,68.6196972 106.51,68.45 L102.16,68.16 C99.32,67.98 96.5,67.67 93.67,67.36 C92.59,67.25 92.07,68.58 92.51,69.36 C94.1810571,72.3938108 96.1009777,75.2837262 98.25,78 C100.274095,80.7739401 102.436843,83.4440002 104.73,86 C105.107648,86.3597698 105.661734,86.4634252 106.143899,86.264505 C106.626064,86.0655848 106.945882,85.6013955 106.96,85.08 C107.377239,81.4007751 107.427487,77.6891716 107.11,74 C106.95,72.2 106.7,70.39 106.37,68.61 C106.2,67.69 106,66.79 105.78,65.89 C105.673043,65.1911993 105.449966,64.5152077 105.12,63.89 C102.96,60.77 100,67.33 99.32,68.62 C97.5150144,71.9283557 95.8860775,75.3297629 94.44,78.81 C94.08,79.74 95.44,80.22 95.99,79.46 L96,79.43 Z" id="Path" fill="#FFFFFF"></path>
                <path d="M5.39,50.64 C7.07137173,47.9974529 8.61023535,45.266888 10,42.46 C10.69,41.12 11.36,39.78 12,38.41 C12.19,38 12.6,36.53 13,36.35 L13,36.21 C13,36.35 13.07,36.49 13.1,36.64 C13.19,37.03 13.27,37.42 13.35,37.81 C14.5783575,43.7983596 14.7341063,49.9572076 13.81,56 L16,55.41 C13.7280486,52.9587008 11.60428,50.3741145 9.64,47.67 C7.74,44.93 6,42.08 4.28,39.25 L3.12,41.25 C5.88,41.35 8.64,41.45 11.4,41.67 L15.34,41.98 C16.8187213,42.0122367 18.292904,42.1559779 19.75,42.41 L19.44,40 C18.01,41.09 16.83,42.51 15.44,43.67 C14.0541119,44.8072784 12.5905578,45.8464687 11.06,46.78 C8.04910099,48.7593365 4.71059148,50.1881914 1.2,51 C-0.95,51.39 0.07,55 2.1,54.26 C5.74,52.83 9.3,51.59 12.62,49.44 C14.1934052,48.4145291 15.6967348,47.2853615 17.12,46.06 C18.6965302,44.8555257 20.0850671,43.4231757 21.24,41.81 C21.4791014,41.4000145 21.4816084,40.8936833 21.2465786,40.4813502 C21.0115487,40.0690171 20.5746025,39.8131743 20.1,39.81 C18.7317761,39.8708127 17.3608888,39.824002 16,39.67 L11.65,39.38 C8.81,39.19 5.99,38.89 3.16,38.58 C2,38.46 1.52,39.8 2,40.61 C3.66529564,43.6404341 5.57495843,46.5300114 7.71,49.25 C9.8,51.96 11.84,54.77 14.19,57.25 C14.5719471,57.6016047 15.1236204,57.698948 15.6028111,57.4991062 C16.0820018,57.2992643 16.401097,56.838848 16.42,56.32 C16.8399011,52.6309055 16.8901506,48.9090862 16.57,45.21 C16.41,43.3966667 16.16,41.5966667 15.82,39.81 C15.65,38.9 15.46,37.99 15.24,37.09 C15.1341536,36.3909335 14.9110165,35.7147603 14.58,35.09 C12.41,31.96 9.45,38.52 8.78,39.82 C6.9523196,43.1209249 5.30652881,46.5193327 3.85,50 C3.49,50.93 4.85,51.4 5.39,50.65 L5.39,50.64 Z" id="Path" fill="#FFFFFF"></path>
                <path d="M25.59,70.48 C24.5322931,67.3367662 23.3072096,64.2523599 21.92,61.24 C21.24,59.7 20.52,58.19 19.77,56.69 C19.5940814,56.3689467 19.4436199,56.0345877 19.32,55.69 C19.2780956,55.5773478 19.251198,55.4596709 19.24,55.34 C19.24,55.1666667 19.24,55.1866667 19.24,55.4 C19.9554283,55.625288 20.6305126,55.9628302 21.24,56.4 C26.4664325,59.2350864 31.1679164,62.9455381 35.14,67.37 L36.07,65.14 C32.6847206,65.3682797 29.2891137,65.4016681 25.9,65.24 C22.52,64.99 19.16,64.5 15.79,64.1 L16.79,66.4 C18.61,64.31 20.42,62.22 22.33,60.21 L25.11,57.27 C26.027329,56.1504575 27.0303544,55.1039676 28.11,54.14 L26.1,53 C26.1,54.79 26.45,56.59 26.46,58.39 C26.4733249,60.1253142 26.3664022,61.8594666 26.14,63.58 C25.8091837,67.1025625 24.8578607,70.538836 23.33,73.73 C23.0049941,74.2959326 23.0371428,74.9988762 23.4124491,75.5327804 C23.7877554,76.0666846 24.4383001,76.3349287 25.0808464,76.2207234 C25.7233926,76.1065182 26.2416588,75.6305313 26.41,75 C26.99,73.16 27.71,71.37 28.2,69.5 C28.6681737,67.6768491 29.0023983,65.8219026 29.2,63.95 C29.4014159,62.0939302 29.4682571,60.2257182 29.4,58.36 C29.4326875,56.4241611 29.2005375,54.4929425 28.71,52.62 C28.559256,52.1168907 28.1265558,51.7496081 27.6056404,51.6826023 C27.0847249,51.6155966 26.5731607,51.8614179 26.3,52.31 C25.4167156,53.4618296 24.4472634,54.5449417 23.4,55.55 L20.66,58.55 C18.78,60.55 16.82,62.55 14.86,64.49 C14.5293414,64.8329881 14.4022672,65.3239937 14.5250228,65.7843272 C14.6477784,66.2446608 15.0024638,66.6071971 15.46,66.74 C18.8428351,67.3583496 22.2714383,67.6928475 25.71,67.74 C29.1677872,67.9149989 32.6322128,67.9149989 36.09,67.74 C36.6054037,67.7186799 37.0611645,67.3990812 37.256815,66.92178 C37.4524655,66.4444789 37.3521529,65.8969401 37,65.52 C34.505591,63.0013857 31.7840484,60.7183696 28.87,58.7 C27.3547962,57.6523102 25.7860003,56.6843298 24.17,55.8 C22.750452,54.9241897 21.2461689,54.193825 19.68,53.62 C19.1413702,53.4295296 18.5439237,53.5107577 18.0756977,53.8381191 C17.6074717,54.1654805 17.3260479,54.6987168 17.32,55.27 C17.329225,55.9618096 17.4860543,56.6436761 17.78,57.27 C18.15,58.27 18.5,59.27 18.9,60.19 C20.3605024,63.9436005 22.0641137,67.5980136 24,71.13 C24.2187875,71.488766 24.6668992,71.6338165 25.0544195,71.471308 C25.4419398,71.3087995 25.6525537,70.8875091 25.55,70.48 L25.59,70.48 Z" id="Path" fill="#FFFFFF"></path>
                <path d="M63.67,98.56 C64.0053367,96.3356612 63.9341836,94.0689278 63.46,91.87 C63.1,89.69 62.76,87.51 62.37,85.34 L60,86.71 C61.92,88.55 63.66,90.63 65.44,92.6 L68,95.45 C68.986597,96.4310892 69.899098,97.4839751 70.73,98.6 L72.73,96.6 C71.2598527,95.9125579 69.730216,95.3602821 68.16,94.95 C66.68,94.47 65.16,93.95 63.71,93.55 C60.71,92.65 57.63,91.82 54.61,90.87 L54.99,93.77 C57.5,92.48 59.89,90.98 62.31,89.52 C63.52,88.79 64.73,88.07 65.92,87.31 C66.1979787,87.1715543 66.4624549,87.0075121 66.71,86.82 C66.94,86.61 66.85,86.82 66.83,86.65 C66.7475418,86.6210485 66.6841962,86.5539767 66.66,86.47 L66.66,86.67 C66.6496584,86.8598593 66.6496584,87.0501407 66.66,87.24 C66.4742352,88.4048823 66.2035129,89.5546165 65.85,90.68 C65.51,91.99 65.13,93.28 64.72,94.56 C63.87,97.19 62.72,99.68 61.83,102.3 C61.17,104.3 64.3,105.66 65.3,103.76 C66.7289947,100.769459 67.8126481,97.625857 68.53,94.39 C68.95,92.76 69.32,91.11 69.64,89.46 C69.9923685,88.2023941 70.0369568,86.8784641 69.77,85.6 C69.3946225,84.2336856 68.1144679,83.3163109 66.7,83.4 C65.06,83.51 63.47,84.77 62.11,85.59 C59.19,87.36 56.22,89.05 53.43,91.01 C52.43,91.72 52.35,93.63 53.81,93.91 C56.8525509,94.5326809 59.8573684,95.3272882 62.81,96.29 C64.24,96.74 65.66,97.21 67.08,97.7 C68.5644411,98.3214146 70.0876412,98.8458497 71.64,99.27 C72.95,99.52 74.29,97.85 73.07,96.81 C72.0552415,95.8513284 71.1095492,94.8220944 70.24,93.73 L67.55,90.73 C65.72,88.73 63.75,86.73 62.01,84.68 C61.6024461,84.2911319 61.0035613,84.1799399 60.4835824,84.3965978 C59.9636036,84.6132556 59.6208564,85.1167942 59.61,85.68 C59.74,87.89 59.93,90.09 60.1,92.29 C60.1660195,94.5294141 60.636948,96.7383735 61.49,98.81 C61.7353466,99.2183232 62.1989891,99.4428605 62.671472,99.3821746 C63.1439548,99.3214887 63.535805,98.9870717 63.67,98.53 L63.67,98.56 Z" id="Path" fill="#FFFFFF"></path>
                <path d="M23.49,33.11 C25.3713662,31.9779822 27.0260982,30.5063557 28.37,28.77 C29.81,27.1233333 31.24,25.4566667 32.66,23.77 L30.35,22.43 C29.91,25.06 29.46,27.68 28.99,30.31 C28.6025787,32.9454209 28.0785395,35.5589413 27.42,38.14 L30.36,38.14 C28.46,32.64 26.21,27.27 23.97,21.9 L22,23.88 C24.69,24.88 27.45,25.67 30.2,26.48 C31.5,26.87 32.8,27.23 34.08,27.62 C34.2197456,27.6571101 34.3567424,27.7038895 34.49,27.76 C34.37,27.85 34.39,27.25 34.41,27.25 C34.43,27.25 33.64,27.92 33.59,27.95 C31.3323729,29.2359169 28.9941903,30.3749459 26.59,31.36 C24.12,32.43 21.52,33.17 19.06,34.26 C18.2376992,34.7387738 17.9027699,35.7564438 18.28,36.63 C18.6474681,37.5043488 19.6034411,37.9737997 20.52,37.73 C22.1425728,37.2875668 23.7248664,36.7088421 25.25,36 C26.63,35.41 27.98,34.79 29.32,34.12 C30.66,33.45 32.16,32.66 33.55,31.86 C34.8992569,31.2294541 36.0990963,30.3193486 37.07,29.19 C38.0098092,27.9968152 37.8656282,26.2797511 36.74,25.26 C35.65,24.26 33.92,23.98 32.54,23.57 C29.33,22.57 26.14,21.57 22.87,20.86 C22.2552644,20.7120353 21.6110492,20.9399717 21.2261611,21.4416236 C20.841273,21.9432755 20.7879119,22.6245396 21.09,23.18 C23.6024474,28.2832571 25.7186877,33.5721863 27.42,39 C27.6298394,39.7282328 28.3411785,40.1931094 29.092393,40.0929475 C29.8436075,39.9927856 30.4082946,39.3577721 30.42,38.6 C30.68,36.03 31.28,33.48 31.72,30.94 C32.16,28.4 32.6,25.78 33,23.2 C33.1399116,22.5995842 32.8705953,21.9783114 32.3367437,21.6699661 C31.8028921,21.3616208 31.1301686,21.4387843 30.68,21.86 C29.1,23.36 27.53,24.86 25.96,26.38 C24.2869957,27.8104811 22.8905578,29.5356919 21.84,31.47 C21.5735298,31.9384268 21.6520202,32.5270423 22.031924,32.9092768 C22.4118278,33.2915112 22.9999522,33.3736002 23.47,33.11 L23.49,33.11 Z" id="Path" fill="#FFFFFF"></path>
                <g id="Group" opacity="0.3" transform="translate(12.000000, 8.000000)" fill="#FFDD15">
                    <path d="M18.17,22.18 C21.7402387,25.9618997 25.5912063,29.4685534 29.69,32.67 C33.69,36.01 37.76,39.27 41.69,42.67 C42.018191,42.9968374 42.4789664,43.1537277 42.9384138,43.0950748 C43.3978612,43.036422 43.8044442,42.7688051 44.04,42.37 C49.9116043,28.3461718 57.8200859,15.2653344 67.51,3.55 L64.86,2.84 C66.7,13 68.57,23.11 68.15,33.43 C68.1273579,34.658089 68.0036063,35.882227 67.78,37.09 C67.4807281,38.3500353 67.3695241,39.6474149 67.45,40.94 C67.6450787,43.2391201 68.3967016,45.4562361 69.64,47.4 C72.09,51.3 75.43,54.81 78.51,58.21 C82.21,62.2633333 86.1,66.1233333 90.18,69.79 C91.71,71.16 93.96,68.93 92.44,67.53 C86.44,62.09 77.64,67.59 71.98,70.82 C68.3420171,72.889762 64.8323,75.1772559 61.47,77.67 C59.81,78.91 58.24,80.25 56.6,81.51 C55.43,82.41 53.86,83.6 52.6,82.33 C51.34,81.06 50.34,79.43 49.03,78.14 C47.5810528,76.7353085 46.0228193,75.4479267 44.37,74.29 C41,71.91 37.43,69.91 33.9,67.84 C27,63.77 20.33,59.37 15,53.25 C9.55525539,46.8427293 5.75240329,39.2061355 3.92,31 L3.16,32.87 C4.72,31.97 6.35,31.25 7.88,30.3 C9.41,29.35 10.88,28.36 12.35,27.3 C15.2696527,25.224062 18.0582954,22.9697701 20.7,20.55 C22.38,19.02 19.89,16.55 18.21,18.07 C15.6836083,20.3822376 13.0114519,22.5299834 10.21,24.5 C8.87,25.44 7.5,26.35 6.1,27.21 C4.7,28.07 3.1,29.21 1.51,29.99 C0.873968381,30.3791986 0.565803434,31.1374466 0.75,31.86 C2.24591944,39.3638906 5.31313241,46.4661926 9.75,52.7 C14.38,59.39 20.41,64.48 27.27,68.77 C30.9,71.04 34.63,73.11 38.27,75.36 C41.6626164,77.3118744 44.7295737,79.7816354 47.36,82.68 C48.55,84.08 49.47,85.76 51.17,86.62 C53.1038463,87.5022325 55.3481998,87.3750524 57.17,86.28 C59.0105662,85.1629116 60.738631,83.870212 62.33,82.42 C63.94,81.14 65.6,79.93 67.33,78.76 C71.2645236,76.0328803 75.3845274,73.5835999 79.66,71.43 C82.34,70.08 87.4,67.09 90.2,69.73 L92.46,67.47 C89,64.2833333 85.6666667,60.95 82.46,57.47 C79.2345635,54.133277 76.2755093,50.5489764 73.61,46.75 C72.3386889,45.0377622 71.5699098,43.0049995 71.39,40.88 C71.3,38.46 71.3,36.04 71.39,33.61 C71.4384047,28.616356 71.1510905,23.6251054 70.53,18.67 C69.85,13.12 68.89,7.56 67.92,2 C67.7645476,1.45752342 67.3348256,1.03705113 66.7890953,0.893437904 C66.243365,0.749824672 65.6623383,0.904310439 65.26,1.3 C54.9697293,13.1180435 46.8452051,26.6589172 41.26,41.3 L43.77,40.63 C39.65,37.32 35.7,33.79 31.69,30.36 C27.8222824,26.8296204 23.6902338,23.6002037 19.33,20.7 C18.33,20.1 17.47,21.42 18.17,22.21 L18.17,22.18 Z" id="Path"></path>
                    <path d="M5.64,28.75 C4.7,32.03 3.89,35.3633333 3.21,38.75 C2.90591595,39.9210631 3.50592364,41.1380999 4.62,41.61 C5.72962731,42.0664653 7.00617732,41.6409486 7.62,40.61 C9.56,36.83 11.4666667,33.0366667 13.34,29.23 L8.52,27.23 C7.33333333,32.41 6.13,37.5933333 4.91,42.78 C4.24,45.7 8.5,47.78 9.97,44.91 C13.1833333,38.53 16.3733333,32.1366667 19.54,25.73 L14.32,23.53 C12.44,30.8633333 10.9066667,38.2466667 9.72,45.68 C9.33371091,47.2170961 10.2097012,48.7894988 11.72,49.27 C13.2538371,49.6502844 14.8196803,48.7755117 15.3,47.27 C17.9,39.7566667 20.4666667,32.2333333 23,24.7 L17.36,23.15 C15.2207294,32.3037803 13.8426929,41.6189055 13.24,51 C13.2306813,52.5360952 14.3831952,53.8310547 15.91,54 C17.4267753,54.1944942 18.8598869,53.2574597 19.29,51.79 C21.6033333,45.03 23.89,38.2633333 26.15,31.49 L19.86,30.64 C18.62,39.7666667 17.3866667,48.8666667 16.16,57.94 C15.92,59.7 16.59,61.47 18.46,61.94 C20.1945071,62.370982 21.9599294,61.3558642 22.46,59.64 C24.6466667,51.7733333 26.7933333,43.8933333 28.9,36 L22.4,35.12 C22.7592459,42.1358505 22.4242849,49.1700319 21.4,56.12 C20.9631167,57.9015758 21.9883377,59.7154283 23.74,60.26 C25.5274469,60.7176967 27.3566996,59.6793528 27.88,57.91 C29.8872436,51.629783 31.1229884,45.1286908 31.56,38.55 L24.78,38.55 C24.52,46.15 24.2333333,53.75 23.92,61.35 C23.931504,63.0693319 25.2141893,64.5144906 26.92,64.73 C28.43,64.9 30.46,63.98 30.69,62.26 C31.69,55.07 32.69,47.88 33.61,40.68 L26.51,40.68 C27.4089383,47.2512959 27.3010325,53.9212214 26.19,60.46 L33.29,61.46 C33.9566667,54.46 34.6233333,47.46 35.29,40.46 L27.94,40.46 L29,61.88 L36.46,61.88 C35.8364895,54.8230735 35.9135323,47.7217381 36.69,40.68 L29.26,41.68 C30.6264873,50.2893851 31.4945994,58.9705062 31.86,67.68 C31.86,69.8118191 33.5881809,71.54 35.72,71.54 C37.8518191,71.54 39.58,69.8118191 39.58,67.68 C39.88,60.39 40,53.08 40.2,45.78 L32.64,46.78 C33.7266667,54.74 34.82,62.7 35.92,70.66 C36.18,72.54 38.46,73.66 40.13,73.4 C42.0263844,73.1629989 43.4496245,71.5511367 43.45,69.64 L41.45,41.56 L33.98,42.56 C37.2,54.9933333 40.4066667,67.42 43.6,79.84 C44.1201441,81.6688078 45.9060686,82.8366917 47.79,82.58 C49.46,82.35 51.34,80.71 51.1,78.83 L46.86,46.83 L39.33,47.83 C40.5033333,53.7433333 41.6766667,59.65 42.85,65.55 C43.4,68.32 43.85,71.11 44.52,73.86 C44.9765606,76.5277678 46.2728119,78.9801353 48.22,80.86 C49.4704182,82.0369909 51.3457808,82.2520378 52.8301687,81.3886457 C54.3145567,80.5252537 55.0548427,78.7888187 54.65,77.12 L47.93,40.19 L40.52,42.19 C43.7866667,53.8433333 47.06,65.49 50.34,77.13 C50.6607085,78.4911138 51.6977403,79.5692489 53.0453667,79.9425956 C54.3929931,80.3159422 55.8369772,79.9251481 56.8123744,78.9231077 C57.7877716,77.9210672 58.1395194,76.4670784 57.73,75.13 C54.11,62.13 50.48,49.13 50.3,35.72 L42.79,36.72 C45.9433333,50.4933333 49.0833333,64.2666667 52.21,78.04 C52.797199,80.0647368 54.8903888,81.2532429 56.93,80.72 C59.14,80.11 59.93,78.06 59.62,76 C57.9066667,63.8666667 56.2033333,51.7366667 54.51,39.61 L47,41.69 C49.3266667,53.23 51.66,64.7666667 54,76.3 L61.52,74.23 L53.52,42.08 C52.45,37.79 46,38.8 45.92,43.08 C45.7203924,54.0682225 46.6891663,65.0465432 48.81,75.83 C49.3222927,77.6755544 51.1162478,78.8614053 53.0149585,78.6095869 C54.9136692,78.3577685 56.3364929,76.7452891 56.35,74.83 C56.2325734,60.8561929 54.7759115,46.9258165 52,33.23 C51.4213782,31.1616383 49.2827238,29.947204 47.21,30.51 C45.1732491,31.1285976 43.9777301,33.2339417 44.49,35.3 L51,69 L58.73,66.87 C56.453214,56.7049622 54.9191629,46.3877164 54.14,36 L46.22,37 C49.4990999,46.239564 52.2502063,55.658097 54.46,65.21 C55.0668062,67.3650565 57.3036398,68.622157 59.46,68.02 C61.5864365,67.3771723 62.8265066,65.1706418 62.27,63.02 C60.4233333,52.6533333 58.5966667,42.2566667 56.79,31.83 C56.1826279,29.6741791 53.9509218,28.4110334 51.79,29 C49.6785026,29.6597403 48.452644,31.8566195 49,34 C51.18,46.8733333 53.9933333,59.6066667 57.44,72.2 C58.0090236,74.1335586 59.9018587,75.3643258 61.9,75.1 C63.73,74.86 65.67,73.1 65.44,71.1 L61.78,38.63 L53.56,38.63 L57.18,67 C57.46,69.14 58.89,71.24 61.32,71.13 C63.37,71.04 65.69,69.3 65.45,67 L63.51,47.58 L55.35,48.69 L59.28,68 C59.783186,69.7969107 61.41403,71.0445063 63.28,71.06 C64.95,70.98 67.04,69.84 67.28,68 C67.8279468,64.2653598 68.0920365,60.4945592 68.07,56.72 C68.0040716,52.9510202 67.6698935,49.1915162 67.07,45.47 L59.21,47.6 C60.608458,55.6741191 62.5223719,63.6504305 64.94,71.48 C65.5048596,73.4120502 67.3943818,74.6434242 69.39,74.38 C71.4058884,74.1312381 72.9152907,72.4111215 72.9,70.38 L72.44,49.14 L64.51,50.21 C65.9766667,56.7433333 67.24,63.31 68.3,69.91 C68.61,71.91 70.92,73.03 72.71,72.79 C74.7139682,72.5273284 76.2071416,70.8110371 76.19,68.79 L75.26,57.79 L67.38,58.86 C68.14,61.5 68.92,64.14 69.7,66.78 C70.2514355,68.6799648 72.108976,69.8914043 74.07,69.63 C76.17,69.35 77.28,67.72 77.52,65.72 C77.8116601,63.3957808 77.8116601,61.0442192 77.52,58.72 L70.16,60.72 L73.4,66.27 C74.0966243,67.4766306 75.3867332,68.2171073 76.78,68.21 L82.28,67.81 C84.207551,67.775668 85.8255984,66.3482283 86.1,64.44 C86.315823,62.5314131 85.1445784,60.7388632 83.31,60.17 C80.37,58.97 77.2,60.28 74.64,61.77 L73.2,62.6 C72.89,62.77 72.83,62.73 73.2,62.6 C72.93,62.69 72.66,62.78 72.39,62.85 C72.28,62.85 71.61,62.95 72.08,62.93 C72.55,62.91 71.74,62.93 71.63,62.93 C71.95,62.93 72.18,63.07 71.76,62.93 C72.1381884,63.0452506 72.4615979,63.2940272 72.67,63.63 C71.22,61.63 68.54,60.96 66.67,62.85 C64.7894331,64.704823 63.4601647,67.0448893 62.83,69.61 L70.23,69.61 C69.6829517,67.0385733 68.3765742,64.6905777 66.48,62.87 C65.5007171,61.8956675 64.0772483,61.5154896 62.7425754,61.8718143 C61.4079026,62.228139 60.3633409,63.2672201 60,64.6 L58.48,69.08 L65.87,69.08 C64.43,61.33 62.87,53.51 59.19,46.45 C57.53,43.28 54.87,40.28 54.19,37.16 C53.9449188,35.6263964 53.9449188,34.0636036 54.19,32.53 C54.5828319,30.4286769 55.0970261,28.3518668 55.73,26.31 L48.13,26.31 L51,38.53 C51.6019846,40.6169011 53.7593421,41.8420671 55.86,41.29 C57.9193507,40.6534051 59.1282297,38.524727 58.62,36.43 C57.8717758,32.0438019 57.4472966,27.6084949 57.35,23.16 L49.48,24.22 C51.34,30.92 53.17,37.61 55.07,44.3 C55.6282338,46.2472087 57.5334532,47.4875194 59.54,47.21 C61.33,46.97 63.33,45.21 63.07,43.21 L60.57,24.4 L52.64,25.47 L57.27,41.12 C57.8814458,43.2308037 60.0646657,44.4688491 62.19,43.91 C64.2798813,43.276667 65.5125839,41.1227275 65,39 L62.13,20.6 L54.47,22.7 C56.2233333,29.3666667 58.2233333,35.9866667 60.47,42.56 C61.2111989,44.4254835 63.2391216,45.4325636 65.1733377,44.8957095 C67.1075538,44.3588553 68.3263165,42.4506368 68,40.47 C66.1221889,34.4952198 64.5699078,28.4229632 63.35,22.28 L55.85,24.35 L60.23,40.35 C61.36,44.51 67.86,43.72 67.8,39.35 C67.7248869,32.0108057 67.2273975,24.6820187 66.31,17.4 L58.87,18.4 C59.5710921,21.7808698 60.5579698,25.0961097 61.82,28.31 C62.1772656,29.5925835 63.1916427,30.5871405 64.4810254,30.9190312 C65.7704081,31.2509219 67.1389083,30.869724 68.0710254,29.9190312 C69.0031425,28.9683384 69.3572656,27.5925835 69,26.31 L67.32,16.2 L60.32,18.14 L61.76,24.14 L68.76,22.22 C67.19856,17.0027541 66.52253,11.560713 66.76,6.12 L59.9,7.05 C60.46,9.92 61.03,12.8 61.59,15.68 L66.7,11.75 C62.91,9.66 57.45,10.99 55.63,15.14 C54.7322758,16.8033428 55.2737934,18.8777044 56.87,19.89 C58.35,20.75 60.87,20.37 61.62,18.64 C61.7192252,18.4097831 61.8327811,18.1860111 61.96,17.97 C62.1,17.74 61.73,18.05 61.96,17.97 C62.19,17.89 62.1,17.82 61.83,18.03 L62.08,17.87 L62.35,17.72 C62.02,17.84 61.98,17.86 62.21,17.78 L62.8,17.62 L62.62,17.62 L62.92,17.62 C63.27,17.34 63.14,17.94 62.92,17.62 C63.25,17.73 63.3,17.73 63.07,17.62 C62.84,17.51 62.89,17.54 63.2,17.7 C64.4254518,18.3618773 65.9255269,18.2413251 67.0295517,17.3922415 C68.1335765,16.5431578 68.6351413,15.1242883 68.31,13.77 C67.76,10.89 67.2,8.01 66.65,5.13 C66.1846614,3.45137147 64.5439614,2.38041845 62.82,2.63 C61.1150123,2.8844792 59.8451897,4.33630975 59.82,6.06 C59.5301159,12.1280263 60.2051804,18.2036075 61.82,24.06 C62.1629749,25.3104296 63.1469931,26.2828992 64.4013844,26.611089 C65.6557757,26.9392788 66.9899681,26.5733288 67.9013844,25.651089 C68.8128007,24.7288491 69.162975,23.3904296 68.82,22.14 L67.46,16.14 C66.9018682,14.2135299 64.9104326,13.0825364 62.97,13.59 C60.88,14.16 60.12,16.12 60.42,18.08 L61.96,28.26 L69.14,26.26 C67.9206824,23.0110136 66.9740773,19.6661194 66.31,16.26 C65.7427669,14.4257205 63.8846682,13.3134479 62,13.68 C60.31,13.91 58.5,15.53 58.71,17.4 C59.5613635,24.6770038 60.0286781,31.9938147 60.11,39.32 L67.68,38.32 L63.37,22.32 C62.7983852,20.2489323 60.6560678,19.0333855 58.585,19.6050002 C56.5139323,20.1766149 55.2983854,22.3189322 55.87,24.39 C57.0662489,30.5383549 58.5951621,36.6172869 60.45,42.6 L68,40.47 C65.78,33.9233333 63.8066667,27.2966667 62.08,20.59 C61.4824098,18.4891897 59.3101151,17.2561454 57.2,17.82 C55.133793,18.4611107 53.9212513,20.5972853 54.43,22.7 L57.23,41.12 L65,39 L60.43,23.32 C59.8658763,21.3976548 57.9866916,20.1717308 56,20.43 C54.22,20.67 52.25,22.43 52.5,24.43 L54.89,43.24 L62.89,42.16 C61.02,35.47 59.09,28.8 57.18,22.16 C55.96,17.91 49.18,18.61 49.31,23.23 C49.5014777,28.3642408 50.0663025,33.477743 51,38.53 L58.62,36.43 L55.68,24.23 C54.77,20.42 49.19,20.63 48.16,24.23 C46.89,28.69 45.8,33.23 46.5,37.89 C47.14,42.09 49.69,45.23 51.76,48.78 C55.61,55.39 57.06,63.38 58.49,71.12 C58.9517644,72.7831184 60.4639727,73.9356663 62.19,73.94 C63.8956274,73.8833984 65.3775018,72.750909 65.88,71.12 L67.41,66.64 L61,68.33 C61.2870087,68.593475 61.5543869,68.8775644 61.8,69.18 C61.46,68.74 62.11,69.74 62.18,69.86 C62.2798522,70.0280373 62.3699998,70.2016549 62.45,70.38 C62.34,70.12 62.33,70.12 62.45,70.38 C62.5970332,70.8113823 62.7139802,71.2524399 62.8,71.7 C63.56,75.44 69.33,75.27 70.2,71.7 C70.3,71.31 70.4,70.94 70.53,70.57 C70.66,70.2 70.71,70.07 70.6,70.4 C70.6799695,70.2184002 70.7701125,70.0414529 70.87,69.87 C71.1330373,69.279364 71.5181489,68.7511136 72,68.32 L66,67.54 C68.0503752,70.3648405 71.751181,71.4462981 75,70.17 C76.389102,69.6212479 77.7275371,68.9520303 79,68.17 C79.3,68.01 79.61,67.84 79.92,67.71 C80.23,67.58 79.71,67.71 80.3,67.59 C81.07,67.36 79.99,67.4 80.76,67.51 C80.07,67.41 80.97,67.63 81.17,67.71 L82.17,60.07 L76.67,60.41 L80.05,62.35 L77,56.83 C76.083447,55.2703373 74.2341878,54.5199727 72.49,55 C70.97,55.49 69.39,57.06 69.59,58.81 C69.8816601,61.1342192 69.8816601,63.4857808 69.59,65.81 L77.42,64.75 C76.67,62.1 75.92,59.46 75.15,56.81 C74.6050899,54.8893313 72.7273778,53.6645509 70.75,53.94 C68.7726673,54.2042883 67.2923397,55.8851214 67.28,57.88 L68.19,68.88 L76.09,67.81 C75.0366667,61.1966667 73.7866667,54.63 72.34,48.11 C71.34,43.65 64.34,44.65 64.4,49.18 L64.83,70.42 L72.83,69.34 C70.4288471,61.506023 68.5316346,53.526374 67.15,45.45 C66.78,43.34 64.08,41.97 62.15,42.61 C60.0245823,43.2574177 58.7740635,45.4513103 59.3,47.61 C59.5,48.89 59.64,50.26 59.76,51.83 C59.88,53.4 59.93,55.07 59.94,56.69 C59.95,58.31 59.94,59.77 59.79,61.3 C59.79,62.11 59.67,62.92 59.59,63.72 C59.59,64.13 59.51,64.53 59.46,64.93 C59.46,65.04 59.3,66.24 59.37,65.75 L67.37,65.75 L63.37,46.49 C62.813984,44.4904543 60.8663141,43.2090925 58.81,43.49 C56.94,43.74 55,45.49 55.21,47.57 L57.21,66.95 L65.48,66.95 L61.78,38.63 C61.5,36.5 60.09,34.41 57.67,34.52 C55.67,34.61 53.3,36.34 53.56,38.63 L57.28,71.09 L65.28,70.01 C61.8133333,57.43 58.9766667,44.7033333 56.77,31.83 L49,34 C50.8333333,44.42 52.66,54.8366667 54.48,65.25 L62.25,63.1 C60.0376486,53.5444241 57.2831938,44.1225195 54,34.88 C53.4355063,32.9589756 51.5548059,31.736308 49.57,32 C47.5580843,32.2534143 46.0541032,33.9722498 46.07,36 C46.9199247,47.1083267 48.5911599,58.1384786 51.07,69 C51.6900125,71.1076681 53.8773681,72.3366691 56,71.77 C58.0988354,71.136478 59.3309346,68.9671033 58.8,66.84 L52,33.23 L44.51,35.3 C47.2421472,48.3046482 48.6559657,61.5516584 48.73,74.84 L56.26,73.84 C54.3214524,63.7161425 53.4633089,53.4150684 53.7,43.11 L46.11,44.11 L54.05,76.3 C54.6464499,78.3530855 56.7747162,79.5527346 58.84,79 C60.8807725,78.3855933 62.0814054,76.2789883 61.57,74.21 C59.23,62.67 56.8766667,51.1333333 54.51,39.6 C53.9269294,37.5406565 51.7964983,36.3328179 49.73,36.89 C47.52,37.6 46.73,39.5 47.02,41.67 C48.7466667,53.79 50.4766667,65.91 52.21,78.03 L59.62,76.03 C56.46,62.2433333 53.3066667,48.4666667 50.16,34.7 C49.16,30.48 42.6,31.43 42.65,35.7 C42.84,49.86 46.56,63.6 50.34,77.15 L57.73,75.15 C54.47,63.5033333 51.2033333,51.8566667 47.93,40.21 C47.6123896,38.8419654 46.5732838,37.7564461 45.2204244,37.3793963 C43.8675651,37.0023465 42.4167849,37.3939201 41.4373653,38.4004649 C40.4579458,39.4070096 40.1061418,40.8679432 40.52,42.21 C42.7466667,54.5166667 44.9733333,66.8266667 47.2,79.14 L53.63,75.4 C53.44,75.25 53.27,75.08 53.09,74.91 C52.62,74.46 53.09,75.02 52.93,74.7 L52.57,74.07 C52.28,73.54 52.74,74.55 52.57,73.98 C52.2206878,72.9826614 51.949863,71.9595457 51.76,70.92 C51.18,68.13 50.64,65.34 50.09,62.55 L46.69,45.82 C46.1731124,43.9841947 44.3784588,42.8133969 42.49,43.08 C40.8,43.31 38.91,44.95 39.16,46.84 L43.44,78.84 L50.93,77.84 C47.71,65.4066667 44.4966667,52.9766667 41.29,40.55 C40.29,36.48 33.51,37.2 33.81,41.55 L35.81,69.63 L43.34,68.63 C42.24,60.57 41.18,52.79 40.09,44.74 C39.83,42.85 37.53,41.74 35.86,41.98 C33.9635024,42.2377055 32.5422378,43.8462025 32.52,45.76 C32.3,53.06 32.01,60.36 31.88,67.66 L39.6,67.66 C39.1415594,58.2765639 38.1398812,48.9275675 36.6,39.66 C36.3,37.81 34.14,36.72 32.45,36.95 C30.598796,37.2223699 29.2134159,38.7893699 29.17,40.66 C28.4121121,47.7103286 28.3551668,54.8184338 29,61.88 C29.18,63.82 30.59,65.71 32.73,65.61 C34.7787656,65.5830745 36.4330745,63.9287656 36.46,61.88 L35.3,40.45 C35.3000001,39.1352626 34.598596,37.9203951 33.46,37.2630264 C32.3214041,36.6056577 30.9185959,36.6056577 29.78,37.2630264 C28.641404,37.9203951 27.9399999,39.1352626 27.94,40.45 C27.3133333,47.4366667 26.69,54.4366667 26.07,61.45 C25.71,65.45 32.49,66.45 33.17,62.45 C34.4209923,54.9623108 34.5187909,47.3272757 33.46,39.81 C33.22,38 31.12,37 29.58,37.22 C27.8499375,37.4852832 26.5574698,38.9503606 26.51,40.7 C25.62,47.59 24.78,54.48 23.92,61.37 L30.79,61.37 C31.03,53.77 31.2866667,46.17 31.56,38.57 C31.5383952,36.7067771 30.0332229,35.2016048 28.17,35.18 C26.3155512,35.222283 24.822283,36.7155512 24.78,38.57 C24.3428184,44.5384965 23.2084313,50.4352954 21.4,56.14 L27.88,57.93 C28.9724471,50.3689909 29.3474497,42.721617 29,35.09 C28.83,31.45 23.51,30.49 22.5,34.21 C20.36,42.1166667 18.24,50.0266667 16.14,57.94 L22.6,58.82 C23.8133333,49.44 25.0266667,40.0633333 26.24,30.69 C26.44,29.14 24.87,27.69 23.46,27.55 C21.9040463,27.3737097 20.4457583,28.3388772 20,29.84 C17.7533333,36.6133333 15.5366667,43.4 13.35,50.2 L19.35,51.02 C19.739215,42.1516739 20.9612578,33.3395733 23,24.7 C23.88,21.02 18.58,19.6 17.36,23.15 C14.7866667,30.65 12.24,38.16 9.72,45.68 L15.33,47.23 C16.4833333,39.7433333 17.9833333,32.35 19.83,25.05 C20.6,22.05 16.08,19.84 14.6,22.84 C11.4466667,29.26 8.31,35.6866667 5.19,42.12 L10.25,44.25 C11.3833333,39.0233333 12.51,33.7933333 13.63,28.56 C13.9639346,27.2899099 13.3172828,25.9668263 12.11,25.45 C10.8978151,24.9307173 9.48858662,25.3933212 8.82,26.53 C7,30.3833333 5.21333333,34.2433333 3.46,38.11 L7.9,40 C8.42,36.6066667 9.08666667,33.2433333 9.9,29.91 C10.53,27.19 6.47,26.05 5.69,28.76 L5.64,28.75 Z" id="Path"></path>
                </g>
            </g>
        </g>
    </g>
</svg>