<?xml version="1.0" encoding="UTF-8"?>
<svg width="51px" height="30px" viewBox="0 0 51 30" version="1.1" xmlns="http://www.w3.org/2000/svg" xmlns:xlink="http://www.w3.org/1999/xlink">
    <!-- Generator: Sketch 58 (84663) - https://sketch.com -->
    <title>code icon</title>
    <desc>Created with Sketch.</desc>
    <g id="Dashboard-Launch-Version-v2" stroke="none" stroke-width="1" fill="none" fill-rule="evenodd">
        <g id="Code-Mode-with-projects" transform="translate(-757.000000, -258.000000)" fill="#FFFFFF" fill-rule="nonzero">
            <g id="coding-project-copy-2" transform="translate(698.000000, 232.000000)">
                <path d="M75.2437262,51.4604307 L65.160076,40.9999755 L75.2437262,30.5395203 C76.2520913,29.4934748 76.2520913,27.8305307 75.2437262,26.7844852 C74.7657776,26.2825227 74.1139694,26 73.4338403,26 C72.7537112,26 72.101903,26.2825227 71.6239544,26.7844852 L59.7562738,39.0956362 C58.7479087,40.1416818 58.7479087,41.8314476 59.7562738,42.8774931 L71.6239544,55.2154659 C72.6323194,56.2615114 74.2353612,56.2615114 75.2437262,55.2154659 C76.2520913,54.1694203 76.2520913,52.5064762 75.2437262,51.4604307 L75.2437262,51.4604307 Z M93.7562287,51.4604381 L103.839907,41 L93.7562287,30.5395619 C93.2723465,30.0437541 93,29.3675903 93,28.6620474 C93,27.9565044 93.2723465,27.2803406 93.7562287,26.7845329 C94.7645965,25.738489 96.3676427,25.738489 97.3760106,26.7845329 L109.243724,39.0956638 C110.252092,40.1417076 110.252092,41.8314707 109.243724,42.8775145 L97.3760106,55.2154671 C96.3676427,56.261511 94.7645965,56.261511 93.7562287,55.2154671 C93.2723465,54.7196594 93,54.0434956 93,53.3379526 C93,52.6324097 93.2723465,51.9562459 93.7562287,51.4604381 L93.7562287,51.4604381 Z" id="code-icon"></path>
            </g>
        </g>
    </g>
</svg>