<?xml version="1.0" encoding="UTF-8"?>
<svg width="113px" height="36px" viewBox="0 0 113 36" version="1.1" xmlns="http://www.w3.org/2000/svg" xmlns:xlink="http://www.w3.org/1999/xlink">
    <!-- Generator: Sketch 58 (84663) - https://sketch.com -->
    <title>block icon</title>
    <desc>Created with Sketch.</desc>
    <g id="Dashboard-Launch-Version-v2" stroke="none" stroke-width="1" fill="none" fill-rule="evenodd">
        <g id="Code-Mode-with-projects" transform="translate(-526.000000, -261.000000)" stroke="#FFFFFF" stroke-width="5">
            <g id="coding-project-copy" transform="translate(498.000000, 232.000000)">
                <path d="M138.295921,52.9130612 C138.295921,54.5692449 136.944466,55.9117143 135.277611,55.9117143 L53.8042654,55.9117143 L48.5740819,61.1078367 C47.3953032,62.2789388 45.4842249,62.2789388 44.3056311,61.1078367 L39.0752627,55.9117143 L34.0183095,55.9117143 C32.3514543,55.9117143 31,54.5692449 31,52.9130612 L31,34.9984694 C31,33.3424694 32.3514543,32 34.0183095,32 L38.857662,32 L43.0553048,36.1703061 C44.2340835,37.3414082 46.1451618,37.3414082 47.3239405,36.1703061 L51.5215833,32 L135.277611,32 C136.944466,32 138.295921,33.3424694 138.295921,34.9984694 L138.295921,52.9130612 Z" id="block-icon"></path>
            </g>
        </g>
    </g>
</svg>