<?xml version="1.0" encoding="UTF-8"?>
<svg width="28px" height="19px" viewBox="0 0 28 19" version="1.1" xmlns="http://www.w3.org/2000/svg" xmlns:xlink="http://www.w3.org/1999/xlink">
    <!-- Generator: Sketch 53.2 (72643) - https://sketchapp.com -->
    <title>24px</title>
    <desc>Created with Sketch.</desc>
    <g id="Dashboard-Launch-Version-v2" stroke="none" stroke-width="1" fill="none" fill-rule="evenodd">
        <g id="24px" transform="translate(-1.000000, -5.000000)">
            <polygon id="Path" points="0 0 30 0 30 30 0 30"></polygon>
            <path d="M15,5 C8.63636364,5 3.20181818,8.93933333 1,14.5 C3.20181818,20.0606667 8.63636364,24 15,24 C21.3636364,24 26.7981818,20.0606667 29,14.5 C26.7981818,8.93933333 21.3636364,5 15,5 Z M15,20.8333333 C11.4872727,20.8333333 8.63636364,17.996 8.63636364,14.5 C8.63636364,11.004 11.4872727,8.16666667 15,8.16666667 C18.5127273,8.16666667 21.3636364,11.004 21.3636364,14.5 C21.3636364,17.996 18.5127273,20.8333333 15,20.8333333 Z M15,10.7 C12.8872727,10.7 11.1818182,12.3973333 11.1818182,14.5 C11.1818182,16.6026667 12.8872727,18.3 15,18.3 C17.1127273,18.3 18.8181818,16.6026667 18.8181818,14.5 C18.8181818,12.3973333 17.1127273,10.7 15,10.7 Z" id="Shape" fill="#4E4E4E" fill-rule="nonzero"></path>
        </g>
    </g>
</svg>