<?xml version="1.0" encoding="UTF-8"?>
<svg width="168px" height="168px" viewBox="0 0 168 168" version="1.1" xmlns="http://www.w3.org/2000/svg" xmlns:xlink="http://www.w3.org/1999/xlink">
    <!-- Generator: Sketch 58 (84663) - https://sketch.com -->
    <title>Group 9 Copy</title>
    <desc>Created with Sketch.</desc>
    <g id="Dashboard-Launch-Version-v2" stroke="none" stroke-width="1" fill="none" fill-rule="evenodd">
        <g id="Group-9-Copy">
            <g id="Group-6-Copy" fill="#000000" fill-opacity="0.2">
                <path d="M84,86.12 L142.327788,144.447358 C127.218679,159.029914 106.656877,168 84,168 C61.3431226,168 40.781321,159.029914 25.6722116,144.447358 L84,86.12 Z M168,84 C168,106.656877 159.029914,127.218679 144.447358,142.327788 L86.12,84 L144.447358,25.6722116 C159.029914,40.781321 168,61.3431226 168,84 Z M23.5526419,25.6722116 L81.879,83.999 L23.5526419,142.327788 C8.97008606,127.218679 3.63797881e-12,106.656877 3.63797881e-12,84 C3.63797881e-12,61.3431226 8.97008606,40.781321 23.5526419,25.6722116 Z M84,0 C106.656877,0 127.218679,8.97008606 142.327788,23.5526419 L83.999,81.879 L25.6722116,23.5526419 C40.781321,8.97008606 61.3431226,0 84,0 Z" id="Shape"></path>
            </g>
            <circle id="Oval-Copy-2" fill="#FFFFFF" cx="84" cy="84" r="22"></circle>
            <polyline id="Path-5-Copy-4" stroke="#FFFFFF" stroke-width="5" stroke-linecap="round" points="66 42 84 24 102 42"></polyline>
            <polyline id="Path-5-Copy-5" stroke="#FFFFFF" stroke-width="5" stroke-linecap="round" transform="translate(134.000000, 84.000000) rotate(-270.000000) translate(-134.000000, -84.000000) " points="116 93 134 75 152 93"></polyline>
            <polyline id="Path-5-Copy-6" stroke="#FFFFFF" stroke-width="5" stroke-linecap="round" transform="translate(84.000000, 135.000000) rotate(-180.000000) translate(-84.000000, -135.000000) " points="66 144 84 126 102 144"></polyline>
            <polyline id="Path-5-Copy-7" stroke="#FFFFFF" stroke-width="5" stroke-linecap="round" transform="translate(32.000000, 84.000000) rotate(-90.000000) translate(-32.000000, -84.000000) " points="14 93 32 75 50 93"></polyline>
        </g>
    </g>
</svg>