<?xml version="1.0" encoding="UTF-8"?>
<svg width="386px" height="277px" viewBox="0 0 386 277" version="1.1" xmlns="http://www.w3.org/2000/svg" xmlns:xlink="http://www.w3.org/1999/xlink">
    <!-- Generator: sketchtool 63.1 (101010) - https://sketch.com -->
    <title>AF5C5C02-42A4-4B79-8B1A-01612BCE76F7</title>
    <desc>Created with sketchtool.</desc>
    <g id="Dashboard-Launch-Version-v2" stroke="none" stroke-width="1" fill="none" fill-rule="evenodd" opacity="0.6">
        <g id="Line-up-ruler" transform="translate(-620.000000, -311.000000)" fill-rule="nonzero">
            <g id="graph" transform="translate(619.000000, 311.000000)">
                <path d="M25,5.59 C23.2,10 23.33,15.2 23.17,19.9 C23,25.22 22.78,30.54 22.66,35.9 C22.43,46.55 22.29,57.2 22.11,67.84 C21.74,89.12 21.67,110.43 21.66,131.71 C21.66,174.26 20.66,216.94 21.95,259.46 C22.11,264.89 30.22,264.9 30.38,259.46 C31.7,216.94 30.69,174.26 30.67,131.71 C30.67,110.43 30.59,89.12 30.22,67.84 C30.04,57.2 29.9,46.55 29.67,35.9 C29.56,30.58 29.34,25.26 29.16,19.9 C29,15.2 29.16,10.01 27.39,5.59 C27.2212462,5.0584211 26.7277221,4.69729833 26.17,4.69729833 C25.6122779,4.69729833 25.1187538,5.0584211 24.95,5.59 L25,5.59 Z" id="Path" fill="#F1F1F2"></path>
                <path d="M27,6 L27.5,6 C27.62,6 27.62,5.82 27.5,5.81 L27,5.81 C26.82,5.81 26.81,6.11 27,6.09 L27.5,6.09 C27.62,6.09 27.62,5.89 27.5,5.9 L27,5.9 C26.94,5.9 26.94,5.98 27,5.99 L27,6 Z" id="Path" fill="#F1F1F2"></path>
                <path d="M27,8.29 C99.46,11.77 172,13.75 244.54,12.34 C254.54,12.1466667 264.516667,11.9166667 274.47,11.65 C285.03,11.37 295.92,11.65 306.4,10.27 C311.45,9.62 311.71,2.59 306.4,2.21 C297.5,1.58 288.4,2.21 279.46,2.41 C270.15,2.57 260.84,2.73 251.52,2.84 C233.56,3.06 215.596667,3.24666667 197.63,3.4 C161.39,3.66 125.09,3.85 88.85,3.34 C68.23,3.05333333 47.6133333,2.64 27,2.1 C23,2 23,8.1 27,8.29 L27,8.29 Z" id="Path" fill="#F1F1F2"></path>
                <path d="M308.22,7.63 C313.76,8.63 319.49,8.37 325.1,8.36 C331.1,8.36 338.25,7.36 344.1,8.83 C351.17,10.64 351.57,-1.46 344.1,0.15 C338.1,1.43 331.21,0.47 325.1,0.88 C319.49,1.25 313.56,1.64 308.22,3.47 C306.39,4.1 305.96,7.23 308.22,7.63 Z" id="Path" fill="#F1F1F2"></path>
                <path d="M346.12,3.5 C344.47,19.23 346,35.57 345.82,51.39 C345.626667,67.69 345.356667,83.9866667 345.01,100.28 C344.66,116.28 344.42,132.21 344.01,148.17 C343.81,156.17 343.593333,164.15 343.36,172.11 C343.12,180.23 341.86,189 342.63,197.05 C343.17,202.8 352.72,205.33 353.68,198.55 C354.79,190.55 354.09,182.15 354.14,174.11 C354.2,165.796667 354.233333,157.483333 354.24,149.17 C354.24,132.87 354.24,116.57 354.03,100.28 C353.82,83.99 353.46,67.69 353.03,51.39 C352.62,35.33 353.7,18.69 351.51,2.77 C351.05,-0.56 346.37,0.67 346.08,3.5 L346.12,3.5 Z" id="Path" fill="#F1F1F2"></path>
                <path d="M5.94,275.64 C15.23,267.9 23.94,259.83 34.15,253.29 C44.3337197,246.851732 55.0852111,241.358832 66.27,236.88 C89.59,227.43 114.06,221.1 138.78,216.6 C166.493253,211.573664 194.615359,209.146459 222.78,209.35 C250.49,209.54 278.35,213.48 305.99,210.13 C334.83,206.64 360.9,193.85 384.72,177.74 C390.01,174.16 384.93,165.48 379.72,169.16 C357.84,184.58 334.11,197.34 307.27,201.05 C279.27,204.91 250.88,200.8 222.79,200.64 C194.815408,200.510342 166.885964,202.899991 139.34,207.78 C114.28,212.21 89.1,218.34 65.53,228.07 C53.1876132,233.074754 41.3673831,239.281296 30.24,246.6 C19.71,253.6 8.94,261.85 1.52,272.23 C-0.48,275 3.66,277.53 5.94,275.64 L5.94,275.64 Z" id="Path" fill="#F1F1F2"></path>
                <path d="M33.07,13.19 L34.57,16.72 L29,9.47 C25.67,12.47 27.13,17.87 31.13,19.47 C36.06,21.42 39.64,17.12 40.84,12.83 C41.56,10.21 39.94,6.83 37.12,6.27 C34.78,5.82 32.44,5.4 30.12,4.78 C23.55,3 19.27,12.52 25.43,15.9 C32.0772766,19.6964296 40.2200915,19.764602 46.93,16.08 L40.77,5.53 L28.53,13.22 C22.9,16.75 26.43,26.8 33.24,24.41 L47.15,19.53 L42.42,8.31 L32.94,14.12 C27.17,17.64 30.86,27.83 37.7,25.43 L49.63,21.23 L44.81,9.79 L33.81,18.3 C27.43,23.21 32.67,32.85 40.21,29.3 L63.71,18 L57.14,6.8 C49.5666667,12.1333333 41.8,17.1333333 33.84,21.8 C26.5,26.13 33,36.94 40.46,33.16 L64.44,21 L57.82,9.71 L34.47,22 C28,25.36 32.54,36.86 39.54,34 L63,24.44 L57.9,12.36 C50.5339999,18.0059634 42.763076,23.1030211 34.65,27.61 C27.05,31.82 33.72,42.61 41.35,39.07 L74.51,23.83 L67.77,12.3 C56.034377,20.1458844 43.7455157,27.1308504 31,33.2 C23.18,36.92 30,48.48 37.79,44.81 L85,22.57 L78.17,10.86 C65.3578746,19.5096705 51.9962929,27.3161746 38.17,34.23 C30.29,38.16 37.17,49.95 45.07,46.03 L89.77,23.77 L82.77,11.86 C73.5846481,17.5245072 63.9330216,22.395484 53.92,26.42 L61.75,36.62 C63.9118243,32.3649108 66.748553,28.4880482 70.15,25.14 C74.9,20.46 70.1,11.14 63.38,13.51 C54.456322,16.6249023 45.8341946,20.5443554 37.62,25.22 C29.62,29.81 36.62,40.69 44.68,37.29 L86.83,19.48 L79.72,7.31 C62.5733333,16.8233333 45.45,26.3433333 28.35,35.87 C20.24,40.38 27.35,51.97 35.52,48.14 C55.84,38.6133333 76.5266667,30.0166667 97.58,22.35 L92.06,9.26 C73.3933333,19.26 54.7266667,29.2166667 36.06,39.13 C27.72,43.58 35.06,55.45 43.37,51.63 C62.0633333,43.0366667 80.7666667,34.4566667 99.48,25.89 L92.07,13.21 C76.6103922,23.8126002 60.293904,33.1081148 43.29,41 C39.61,42.7 38.77,47.93 40.62,51.18 C42.8,55 47.14,55.41 50.8,53.81 L108.64,28.53 L101,15.47 L38.84,49.06 C30.07,53.8 37.84,66.75 46.6,62.35 L95.12,38.05 L87.25,24.59 L46.31,48 C37.51,53 45.41,66.59 54.31,61.61 C68.7566667,53.47 83.4933333,45.87 98.52,38.81 L90.52,25.04 L45,51.74 C35.82,57.13 43.86,69.74 53.14,65.67 L102.14,44.3 L93.88,30.21 L49.41,62.13 C40.92,68.22 48.28,81.66 57.74,76.38 C75.0733333,66.72 92.7066667,57.67 110.64,49.23 L102.18,34.76 L46.25,73.05 C37.25,79.18 45.43,93.67 54.87,87.79 C72.5564108,76.7204851 91.1853637,67.2336732 110.54,59.44 L103.85,43.56 L36.92,94.76 L47.69,108.71 C66.598356,92.8515651 87.5568145,79.6125196 110,69.35 L99,55 C82.1866667,69.5133333 65.4366667,84.0733333 48.75,98.68 C40.87,105.54 51.19,119 60,113.22 C83.5157163,97.6920704 107.799921,83.3605182 132.76,70.28 L121.36,55.51 C96.49,75.23 71.74,95.05 46.81,114.65 C38.26,121.37 49.41,135.73 58.46,129.74 C84.7333333,112.366667 110.946667,94.91 137.1,77.37 L125,61.72 L55.83,116.3 C46.83,123.39 58.51,138.3 68.05,132.14 L123.19,96.58 L110.86,80.58 C85.28,103.6 59.6966667,126.623333 34.11,149.65 C25.53,157.37 36.95,172.65 46.61,165.85 C59.2307238,157.002522 71.1464359,147.18978 82.25,136.5 C91.85,127.21 77.19,112.57 67.6,121.85 C57.8147606,131.36296 47.3175965,140.115054 36.2,148.03 L48.7,164.24 C74.2333333,141.173333 99.75,118.093333 125.25,95 C133.76,87.3 122.64,72.71 112.92,79 L57.92,114.71 L70.14,130.55 L139.14,75.8 C147.96,68.8 136.42,53.86 127.07,60.15 C100.93,77.75 74.8333333,95.4166667 48.78,113.15 L60.4,128.24 C85.05,108.31 109.87,88.61 134.62,68.81 C143.27,61.89 132.25,49.26 123.22,54.04 C98.3088146,67.2097622 74.0780084,81.6280931 50.62,97.24 L61.84,111.77 C78.5066667,97.1566667 95.1733333,82.54 111.84,67.92 C115.21,64.92 115.21,59.28 112.55,55.92 C109.55,52.17 105.01,51.59 100.77,53.57 C77.0809872,64.7581441 55.0033196,79.0797023 35.13,96.15 C27.55,102.61 37.88,116.3 45.9,110.1 L112.62,58.56 C116.05,55.91 118.07,52.02 116.17,47.71 C114.6,44.13 109.99,41.03 105.92,42.71 C85.1734064,51.0421436 65.2054175,61.1951314 46.25,73.05 L54.87,87.79 L110.64,49.23 C119.55,43.07 111.94,30.11 102.18,34.76 C84.28,43.28 66.69,52.4033333 49.41,62.13 L57.74,76.38 L102.11,44.3 C110.7,38.09 103.49,25.98 93.88,30.21 L45,51.74 L53.14,65.67 L98.48,38.83 C107.48,33.53 99.59,20.72 90.48,25.06 C75.4933333,32.1733333 60.77,39.82 46.31,48 L54.31,61.61 L95.12,38.05 C103.87,33.05 96.12,20.05 87.25,24.59 L38.84,49.06 L46.6,62.35 L108.6,28.53 C117.33,23.77 109.66,11.64 100.97,15.47 L43.29,41 L50.8,53.81 C67.7730352,45.8697577 84.0558854,36.5308674 99.48,25.89 C107.32,20.48 100.64,9.25 92.07,13.21 L36,39.13 L43.31,51.63 C61.9766667,41.63 80.6433333,31.63 99.31,21.63 C106.31,17.87 101.52,5.72 93.79,8.54 C71.5766667,16.66 49.7633333,25.77 28.35,35.87 L35.52,48.14 L86.83,19.48 C94.98,14.93 87.83,3.87 79.72,7.31 L37.62,25.22 L44.68,37.29 C51.8186715,33.1676572 59.3159472,29.7001672 67.08,26.93 L60.31,15.3 C56.0527489,19.4745584 52.4940429,24.3061603 49.77,29.61 C47.31,34.41 51.53,42.24 57.6,39.81 C68.7529252,35.4023383 79.5087333,30.0495256 89.75,23.81 C97.36,19.13 90.69,7.94 82.75,11.9 L38.15,34.23 L45.05,46 C58.8640202,39.0707684 72.2092625,31.2440093 85,22.57 C92.27,17.64 86,7.12 78.15,10.86 L31,33.2 L37.8,44.81 C50.5288766,38.7078612 62.7978097,31.6894032 74.51,23.81 C81.72,18.96 75.51,8.69 67.77,12.28 L34.65,27.61 L41.35,39.07 C49.4644106,34.5502912 57.2353766,29.4398366 64.6,23.78 C67.25,21.78 68.7,18.78 67.31,15.52 C66.16,12.78 62.56,10.44 59.51,11.69 L36,21.3 L41.07,33.3 L64.44,21 C72,17.1 65.33,5.92 57.82,9.71 L33.82,21.82 L40.44,33.16 C48.44,28.46 56.17,23.44 63.69,18.03 C70.44,13.17 64.69,3.03 57.12,6.8 L33.78,18.3 L41.46,28.3 L52.4,19.62 C57.28,15.76 52,7.08 46.3,9.16 L34.41,13.5 L39.18,24.8 C42.32,22.8 45.4633333,20.8366667 48.61,18.91 C54.28,15.38 50.69,5.28 43.88,7.69 L30,12.6 L34.72,23.79 L46.94,16.08 C53.61,11.87 47.75,1.88 40.78,5.53 C37.9057853,7.10907979 34.4111497,7.05204004 31.59,5.38 L28.51,16.73 C30.9,16.6 33.28,16.68 35.68,16.73 L30.35,11.4 L30.28,11.48 L33.78,10 L36.28,12 L35.08,16.54 L35.5,16 C38.44,12.25 34.66,5.55 29.91,8.75 C23.14,13.33 28.54,23.75 36.14,20.47 C40.41,18.61 37.28,12.19 33.07,13.19 Z" id="Path" fill="#F1F1F2"></path>
                <path d="M44.81,45.82 C38.5567785,46.6201572 32.7318909,49.4273319 28.21,53.82 L34.87,59 L36.08,57.56 L30.84,50.74 C28.65,55.15 26.53,59.63 24.53,64.13 C22.53,68.63 25.83,72.8 30.68,72.13 C33.7990557,71.7048002 36.7826171,70.5838287 39.41,68.85 L30.41,63.7 C30.0726761,69.1018179 29.2221773,74.4592901 27.87,79.7 C26.48,84.92 32.73,90.7 37.66,87.22 C41.13,84.75 44.6,82.29 48.04,79.78 L37.68,71.78 L32.82,85.51 C30.28,92.66 40.15,97.59 45.12,92.67 C47.3533333,90.4566667 49.5766667,88.25 51.79,86.05 L39.18,78.7 C37.6872539,82.3783616 35.7852849,85.8770453 33.51,89.13 L47.73,95.13 L50.32,83.74 C52.59,73.74 37.59,69.53 34.94,79.5 C31.4872424,92.7967245 29.0436267,106.335225 27.63,120 C26.83,127.34 37.15,130.72 41.81,125.87 C46.23,121.29 50.81,116.87 55.23,112.28 L40.73,103.84 L27.26,141.64 C23.79,151.36 38.35,156.78 43.47,148.47 C48.4129506,140.486303 54.6595483,133.387896 61.95,127.47 L47,118.8 L35.44,161.4 C32.81,171.14 47.03,177.57 51.99,168.4 C58.6091075,156.102548 67.4245432,145.121383 78,136 L63.65,124.91 C54.649428,144.714171 43.5384682,163.48948 30.51,180.91 L46.56,190.29 C54.1720895,172.637684 66.3710122,157.345007 81.89,146 L69,133.13 C56.881547,149.155867 43.415902,164.116951 28.75,177.85 L44.61,187.08 C49.1192192,173.64717 55.6582969,160.983819 64,149.53 L47.66,140 C45.5260459,143.909877 43.1061253,147.656743 40.42,151.21 C37.78,154.62 33.84,157.57 31.67,161.28 C29.2,165.51 30.17,172.43 30.01,177.21 L29.49,192.16 C29.2,200.43 39.65,204 45.26,198.7 C61.9733333,182.9 78.75,167.163333 95.59,151.49 L80.13,147.41 C79.96,146.98 80.96,146.5 80.07,147.87 C79.4648864,148.706827 78.7962439,149.495825 78.07,150.23 C76.07,152.45 74.07,154.64 71.99,156.85 L59.16,170.85 L34.16,198.08 L47.35,211.27 C60.4050795,195.058706 75.4808295,180.584507 92.21,168.2 L79.35,155.3 C65.107117,175.299188 48.8668639,193.797731 30.88,210.51 L44.34,224 C55.5558848,210.542743 68.4974496,198.623323 82.83,188.55 L69.83,175.55 L39.65,223.88 L56.08,233.48 C57.9333333,229.153333 59.78,224.82 61.62,220.48 C66.35,209.37 52.3,200.57 45.19,210.87 C39.1659725,219.651263 31.7798548,227.415463 23.31,233.87 L36.31,246.82 C51.2575052,226.94296 69.5871732,209.852194 90.46,196.33 L77.61,183.51 C71.9233333,194.383333 65.72,204.963333 59,215.25 L75.06,224.63 L83.64,209.89 C89.64,199.6 73.75,190.34 67.64,200.57 L59,215.25 C52.86,225.63 68.51,234.56 75.06,224.63 C81.84,214.39 88.08,203.846667 93.78,193 C97.92,185.14 89.24,174.84 80.97,180.19 C57.403478,195.466986 36.7305456,214.799191 19.91,237.29 C14.33,244.72 25.44,255.82 32.91,250.29 C44.039196,242.001294 53.7488466,231.960671 61.66,220.56 L45.23,210.95 C43.3833333,215.29 41.5366667,219.623333 39.69,223.95 C37.69,228.67 38.28,234.14 43.1,236.95 C47.646761,239.500716 53.3970562,237.987946 56.1,233.53 L86.25,185.1 C91.1,177.32 81.15,166.55 73.25,172.1 C57.506068,182.993523 43.2667559,195.914816 30.9,210.53 C23.1,219.81 35.27,232.47 44.36,223.99 C63.4406092,206.084311 80.6247499,186.25955 95.64,164.83 C100.93,157.33 90.28,146.39 82.75,151.94 C64.6627445,165.183944 48.349553,180.693911 34.21,198.09 C31.05,202.01 30.38,207.45 34.21,211.28 C37.65,214.73 43.99,215.02 47.4,211.28 L77.73,178.09 C82.62,172.74 87.73,167.52 92.41,162 C97.09,156.48 100.88,149.67 97.98,142.51 C95.4,136.12 87.98,133.28 82.53,138.43 C65.7566667,154.143333 48.9766667,169.876667 32.19,185.63 L48,192.16 L49.08,166 L46.34,172.6 C53.2251602,165.728473 59.1640801,157.970213 64,149.53 C70.17,138.75 54.73,130.4 47.69,140 C38.388964,152.783919 31.1696707,166.95925 26.3,182 C23.23,191.36 35.59,197.45 42.16,191.23 C57.8947834,176.286781 72.317732,160.020398 85.27,142.61 C90.86,135.15 79.83,124.32 72.37,129.71 C54.15,142.9 39.5,160.29 30.51,181 C25.72,192 39.38,200.09 46.56,190.38 C59.5165811,172.89206 70.5408724,154.05219 79.44,134.19 C83.64,124.84 73.22,115.99 65.08,123.11 C53.3999515,133.336296 43.6694516,145.594286 36.36,159.29 L52.9,166.29 L64.25,123.64 C66.7,114.44 55.89,109.46 49.25,114.92 C40.8676599,121.894745 33.7238137,130.235431 28.12,139.59 L44.34,146.42 L57.44,108.55 C60.32,100.22 48.74,93.9 43,100 C38.63,104.64 34.46,109.46 30.1,114.11 L44.25,120 C45.4766317,107.783485 47.5043294,95.6607262 50.32,83.71 L34.94,79.5 L32.73,91 C31.09,99.5 42.07,104.73 46.94,97 C49.730092,92.5144328 52.0108744,87.7314979 53.74,82.74 C56.26,75.57 46.12,70.05 41.12,75.39 C38.98,77.6766667 36.8466667,79.9733333 34.72,82.28 L47,89.42 L51.3,75.49 C53.56,68.13 44.58,64.59 39.52,68.63 C36.19,71.28 32.9,74 29.6,76.68 L40.74,83.16 C42.1053607,76.7550235 42.6530621,70.2027678 42.37,63.66 C42.05,58.28 36.17,56.06 32.18,59.43 C30.9074288,60.483976 29.4028567,61.2208394 27.79,61.58 L34.49,68.28 C36.2,63.66 37.81,58.96 39.33,54.28 C40.61,50.28 35.9,47.12 32.51,49.03 C29.8890511,50.4303968 27.9426026,52.8274121 27.11,55.68 C25.79,59.52 31.59,63.19 34.21,59.81 C37.401881,55.5134964 41.6489212,52.1137975 46.54,49.94 C49.1,48.84 47.07,45.51 44.81,45.83 L44.81,45.82 Z" id="Path" fill="#F1F1F2"></path>
                <path d="M77.26,17.73 C76.55,18.29 76.52,18.4 77.18,18.06 C77.741989,17.7727029 78.3696347,17.6382074 79,17.67 C80.3371289,17.6321506 81.6750872,17.7057383 83,17.89 C84.43,17.98 85.86,18.06 87.29,18.16 L89.01,18.27 C91.15,18.95 91.54,17.75 90.2,14.66 C85.64,18.66 90.51,25.92 95.91,24.47 L116.33,19 L111.55,7.63 C105.252311,11.3267763 99.4578255,15.8205275 94.31,21 C89.82,25.59 94.31,33.72 100.65,31.89 C112.871613,28.3899568 124.847852,24.0838557 136.5,19 L130.37,8.49 C120.55,15.57 110.12,21.98 99.91,28.49 C93.91,32.29 97.66,43.19 104.97,40.49 C120.68,34.7 136.19,28.36 151.77,22.23 L146.37,9.43 C129.343333,20.0033333 112.286667,30.5266667 95.2,41 C87.76,45.56 92.75,56.33 100.96,54.67 C115.31,51.79 128,44.49 141,38 C147.25489,34.7265659 153.786997,32.0126627 160.52,29.89 C167.28,27.89 174.62,27.73 180.95,24.64 C184.5,22.92 183.77,18.05 180.95,16.14 C174.57,11.85 166.24,13.14 159.09,14.74 C151.94,16.34 144.84,19.4 138.14,22.58 C124.56,29 111.79,37 97,40.25 L102.77,53.92 C119.643333,43.08 136.54,32.28 153.46,21.52 C159.79,17.52 155.75,5.6 148.07,8.73 C132,15.26 115.82,21.6 99.91,28.48 L106.54,39.82 C116.4,32.76 126.25,25.46 136.54,18.98 C142.09,15.47 138.61,5.4 131.86,7.87 C120.46,12.05 108.86,15.95 97.23,19.31 L103.57,30.2 C107.864004,25.718906 112.658798,21.7461728 117.86,18.36 C123.56,14.68 120,4.88 113,7 L92.78,13.15 L98.49,23 C101.780301,19.7811486 101.969401,14.547933 98.92,11.1 C95.37,6.91 89.54,7.75 84.7,8 C80.56,8.23 74.82,7.83 72.55,12.14 C71.2,14.73 72.31,18.3 75.42,18.75 C76.2141406,18.9391603 77.0188763,18.4799361 77.26,17.7 L77.26,17.73 Z" id="Path" fill="#F1F1F2"></path>
                <path d="M185,7.56 L138.52,27.19 C130.78,30.46 136.41,44.19 144.31,40.91 C159.21,34.83 174,28.52 188.79,22.15 L180.57,8.09 L118.57,43.21 C108.75,48.78 117.37,62.43 127.24,58.03 C151.08,47.4233333 174.866667,36.7466667 198.6,26 L189.65,10.68 L110.44,52.27 L119.52,67.8 C142.228788,55.0227433 165.572225,43.4077648 189.46,33 L180.28,17.28 C158.28,32.0333333 136.28,46.7833333 114.28,61.53 C104.28,68.23 112.87,82.23 123.57,77.42 L228.57,30.16 L219.21,14.16 C183.45,35.7 147.69,57.2766667 111.93,78.89 C101.56,85.16 110.63,100.04 121.31,94.89 L189.62,62.3 L222.88,46.4 C233.2,41.47 244.14,34.72 255.88,34.56 L251.25,17.44 C190.25,52.49 129.18,87.6 74.65,132.36 C66.09,139.36 77.11,153.04 86.34,147.51 C129.606667,121.603333 172.826667,95.63 216,69.59 L206.14,52.72 C180.786667,69.5733333 155.406667,86.3966667 130,103.19 C106.55,118.72 81.18,133.19 61.38,153.44 C53.74,161.24 63.65,175.03 73.29,168.89 C125.29,135.77 177.81,102.16 235.53,79.72 L227.81,61.42 C168.79,98.78 108.19,135.08 56,182 C47.54,189.61 58.69,204.41 68.29,197.92 C123.16,160.83 178.66,123.1 240.29,98.05 L232.43,79.4 C202.88,98.07 173.18,116.53 144.04,135.83 C129.77,145.29 115.65,154.98 101.82,165.07 C89.36,174.2 71.47,183.88 71,201.35 C70.8,208.54 80.14,214.96 86.46,210.22 C126.172705,180.489795 167.52818,153.019637 210.33,127.94 L197.85,111.77 C157.47,144.4 110.78,169.07 74.85,207.15 C67.17,215.3 77.2,229.87 87.25,223.22 C140.08,188.22 193.11,153.22 250.06,125.27 L239.8,107.72 C197.14,138.24 154.42,168.9 115.27,203.91 C106.82,211.46 118.07,226.51 127.54,219.82 C173.973216,186.987344 222.248947,156.841305 272.13,129.53 L262,112.11 C243.013333,123.916667 224.143333,135.916667 205.39,148.11 C188.09,159.38 168.71,170.06 155.25,186.04 C148.15,194.47 157,207.76 167.44,201.84 L296.59,128.52 L286.47,111.21 L181,188.5 C176.65,191.69 174.49,197.17 177.41,202.18 C180.04,206.66 186.55,208.73 191.09,205.76 C231.28,179.5 271.56,153.26 314.09,130.83 L302,115.18 C274.538155,136.314221 245.140845,154.8064 214.2,170.41 L226.2,186.02 C250.04,157.46 273.81,128.72 294.62,97.84 C300.52,89.09 289.31,80.48 281.22,84.45 C261.155516,94.2874986 241.760264,105.434925 223.16,117.82 L233.04,134.71 C256.04,117.65 278.163333,99.5033333 299.41,80.27 C303.01,77 303.09,70.99 300.18,67.33 C296.98,63.33 292.02,62.6 287.48,64.8 L215.04,99.8 L225.04,116.92 C248.032718,100.642746 270.159528,83.1756173 291.33,64.59 C300.03,56.94 288.89,43.5 279.23,48.91 L243.88,68.73 L254,86 C274.14603,72.7015371 292.906689,57.4149502 310,40.37 C316.8,33.6 310,20.81 300.4,23.87 L254,38.76 L263.43,55 L286.1,31.76 C292.46,25.24 286.1,12.37 276.74,15.68 C257.36,22.4866667 238.28,30.0666667 219.5,38.42 L229,54.72 L262.3,31.29 C270.72,25.36 265.83,11.65 255.13,14.29 L223.33,22 L234.66,28.44 C232.39,16.85 220.66,7.91 208.84,9.28 L213.49,26.44 C219.927652,23.3473965 226.978042,21.7411517 234.12,21.74 L226.12,7.83 C222.863191,13.526132 218.890938,18.7821419 214.3,23.47 C207.3,30.64 214.66,40.24 223.3,38.97 C244.62,35.82 265.12,29.2 285.54,22.48 L278.35,5.37 L202,47.79 C195.88,51.18 195.79,60.79 202,64.16 C211.76,69.46 221.79,63.31 231,59.61 L258.65,48.61 C277.71,40.99 296.71,33.24 315.74,25.55 L308.43,8.23 L213.77,64.23 C206.77,68.34 208.43,78.79 215.97,81.09 C227.67,84.65 238.88,77.09 248.97,72.09 C260.52,66.3 272,60.49 283.54,54.69 C306.266667,43.23 329.05,31.8966667 351.89,20.69 L343.32,6 C313.47,24.11 283.68,42.47 256.9,65 C250.5,70.39 257.33,82.12 265.19,79.23 C293.71,68.77 322.32,56.4 352.09,49.94 L342.21,40.06 C340.99,44.5 335.21,47.14 331.67,49.5 C325.89,53.39 320.2,57.41 314.36,61.19 C302.68,68.76 291.22,76.67 279.66,84.43 C272.86,89 278.66,98.83 286.04,95.35 C309.25,84.35 332.64,73.8 356.1,63.35 L350.2,53.25 C320.51,71.33 291,89.64 264,111.75 C259.27,115.64 264.34,124.12 270,122.08 C297.053333,112.34 324.116667,102.646667 351.19,93 L345.9,80.47 C319.233333,97.0766667 292.623333,113.743333 266.07,130.47 C259.07,134.88 263.47,147.52 271.97,144.47 L338.82,120.31 L332.56,105.47 C306.43,120.91 280.24,136.23 254.22,151.86 C244.58,157.66 253.01,171.38 262.92,166.73 L339.7,130.73 L331.09,116 L259.52,163.07 C255.85,165.48 253.87,170.64 256.52,174.64 C263.43,185.21 276.07,176.43 284.52,172.64 C294.7,168.06 304.82,163.32 314.96,158.64 L306.77,144.64 C290.603333,155.073333 274.426667,165.486667 258.24,175.88 C250.08,181.12 257.61,194.17 265.88,188.94 C278.32,181.07 290.69,173.07 303.2,165.31 C310.1,161.03 305.66,150.2 297.68,152.2 C269.74,159.2 242.68,169.27 217.76,183.79 C210.03,188.29 215.11,201.4 223.97,198.52 C249.91,190.08 275.603333,180.95 301.05,171.13 L294.86,156.45 C279.1,166.15 263.32,175.81 247.62,185.61 C238.73,191.16 246.47,203.24 255.62,199.3 L330.25,167.17 L322.81,154.44 C306.806398,166.714504 290.181029,178.156337 273,188.72 C266.41,192.72 270.69,204.84 278.5,201.77 L327.86,182.35 L320.74,170.11 L293.51,192.43 C289.34,195.85 291.51,203.93 296.8,204.87 C304.1,206.17 310.3,204.51 316.86,201.25 C322.14,198.62 327.53,194.47 333.65,194.3 L328.28,181.36 C324.395088,186.113096 320.231078,190.631064 315.81,194.89 C310.44,200.07 315.92,210.2 323.28,207.73 L352.34,198 C358.17,196 360.76,186.72 354.22,183.64 C350.208795,181.674373 345.66796,181.063782 341.28,181.9 L350.22,193.54 C354.92,186.36 357.49,176.68 351.92,169.22 C347.38,163.12 338.19,160.27 331.67,165.05 L342.32,175.7 L350.25,163 C353.97,157.09 347.85,150.23 341.57,151.71 L330.84,154.24 L339.45,165.43 C342.78,160.43 346.08,155.33 349.45,150.32 C353.45,144.43 346.9,138.18 340.98,139.32 C334.57,140.54 328.17,141.79 321.76,143.02 L329,155.44 C334.988183,149.813109 340.212714,143.42533 344.54,136.44 C347.83,131.14 342.34,123.67 336.26,125.67 C327.56,128.52 318.87,131.41 310.16,134.23 C301.45,137.05 305.16,151.02 314,148.15 C322.71,145.33 331.44,142.59 340.16,139.81 L331.86,129 C328.117555,134.867547 323.6189,140.216844 318.48,144.91 C312.6,150.33 318.93,158.57 325.7,157.32 C332.12,156.14 338.55,154.97 344.96,153.76 L336.49,142.76 C333.12,147.76 329.69,152.76 326.29,157.76 C322.29,163.6 328.85,170.3 334.89,168.95 L345.66,166.56 L337,155.27 L328.9,167.81 C324.83,174.12 333.15,183.03 339.54,178.46 C339.1,178.78 339.4,177.72 339.32,178.67 C339.1,181.36 338.06,183.23 336.56,185.51 C332.51,191.69 339.17,198.45 345.51,197.15 C345.742453,196.958965 346.077547,196.958965 346.31,197.15 L348.19,182.79 L319.19,192.88 L326.66,205.72 C331.039429,201.421342 335.16,196.866675 339,192.08 C342.79,187.34 340.8,178.86 333.64,179.08 C326.97,179.34 321.1,181.79 315.33,184.98 C311.22,187.25 305.75,191.32 300.74,190.47 L304,203 L331,180.47 C336.47,175.92 330.6,165.53 323.88,168.23 L274.66,188 L280.16,201.05 C297.27,190.41 314.02,179.16 330.16,167.15 C333.16,164.94 334.71,161.58 333.16,157.95 C331.88,154.95 327.86,152.27 324.46,153.68 L249.4,184.79 L255.51,199.28 C271.34,189.7 287.09,179.99 302.85,170.28 C310.27,165.73 305.48,152.21 296.67,155.6 C271.256667,165.426667 245.58,174.56 219.64,183 L225.85,197.72 C249.56,183.95 274.78,172.72 301.44,166.05 L295.91,152.95 C283.41,160.71 270.76,168.24 258.19,175.95 L265.83,189.01 C282.17,178.89 298.53,168.793333 314.91,158.72 C324.03,153.11 316.08,140.63 306.72,144.72 L285,154.09 C281.38,155.67 277.76,157.25 274.16,158.86 L269.65,160.86 L266.95,162.07 C264.66,162.73 264.53,163.07 266.56,163 L271.61,166.89 L271.09,166.08 L268.09,177.65 L339.74,130.72 C349.04,124.62 341.01,111.36 331.13,115.98 L254.26,151.87 L262.96,166.74 C288.96,151.16 314.87,135.28 340.8,119.5 C348.34,114.92 343.46,101.31 334.54,104.67 L267.94,129.73 L273.83,143.73 C300.21,126.636667 326.543333,109.503333 352.83,92.33 C358.96,88.33 355.19,76.89 347.54,79.79 C320.64,89.9966667 293.71,100.126667 266.75,110.18 L272.75,120.5 C298.59,98.75 327.44,81 356.1,63.34 C362.63,59.34 356.94,50.18 350.2,53.24 C326.76,63.85 303.33,74.38 279.66,84.45 L286,95.37 C299.53,87.07 312.94,78.47 326.62,70.45 C333.12,66.64 339.72,62.74 345.97,58.53 C351.39,54.88 355.63,50.7 357.66,44.35 C359.69,38 353.43,33.48 347.78,34.47 C317.71,39.72 289.14,52.35 260.62,62.83 L268.9,77.06 C294.54,55.46 323.28,38.06 351.85,20.64 C361.28,14.9 353.02,1.18 343.28,5.97 C322.226667,16.3433333 301.113333,26.6133333 279.94,36.78 C269.5,41.78 259.03,46.78 248.63,51.78 L233.47,59.19 C229.91,60.93 224.98,64.47 220.87,63.19 L223.08,80.05 L318,24.55 C326.9,19.33 320.95,3.19 310.72,7.28 C293.513333,14.1533333 276.306667,21.0233333 259.1,27.89 C250.49,31.34 241.91,34.83 233.31,38.29 L220.42,43.49 C218.58,44.24 216.74,44.99 214.89,45.72 C213.8,46.18 212.69,46.61 211.57,47.02 C209.57,47.38 209.57,47.63 211.57,47.79 L211.57,64.16 L287.8,21.54 C296.91,16.45 290.8,1.03 280.59,4.43 C260.19,11.2 239.71,17.88 218.4,21.08 L227.4,36.58 C233.092267,30.750061 238.030813,24.2291648 242.1,17.17 C245.55,11.17 241.19,3.17 234.1,3.25924733 C223.702711,3.41340351 213.473271,5.90497114 204.17,10.55 C196.27,14.42 199.74,28.78 208.82,27.71 C213.2,27.19 216.04,28.98 216.82,33.34 C217.82,38.34 223.63,40.85 228.16,39.78 L260.03,32.22 L252.85,15.22 L219.5,38.42 C209.35,45.42 217.98,59.53 229.02,54.72 C246.353333,47.1866667 263.963333,40.36 281.85,34.24 L272.49,18.15 L249.68,41.26 C243.04,47.98 249.68,60.47 259.14,57.51 L305.65,42.93 L296,26.43 C280.015332,42.1759619 262.547613,56.3416927 243.84,68.73 C233.2,75.8 242.65,92.4 254,86 L289.4,66.1 L277.3,50.42 C257.448005,67.9367052 236.692959,84.4025531 215.12,99.75 C204.74,107.12 213.55,122.48 225.12,116.87 L297.49,81.79 L285.56,66.34 C265.63,84.5 244.87,101.73 223.23,117.82 C219,120.97 216.85,126.28 219.72,131.2 C222.27,135.56 228.72,137.66 233.11,134.71 C251.685578,122.285452 271.087309,111.142905 291.18,101.36 L277.78,88 C257.78,117.45 234.99,144.72 212.22,172 C205.06,180.59 213.86,192.89 224.22,187.61 C255.884423,171.564101 285.96437,152.566593 314.06,130.87 C318.31,127.58 320.6,122.3 317.63,117.24 C314.806966,112.554247 308.775995,110.952478 304,113.62 C261.5,136.03 221.2,162.26 181,188.5 L191.09,205.76 L296.5,128.53 C300.86,125.34 303.03,119.83 300.09,114.82 C297.246696,110.108306 291.171315,108.51302 286.38,111.22 L157.24,184.47 L169.43,200.27 C182.23,185.08 200.68,175.15 217.14,164.46 C235.353333,152.62 253.686667,140.976667 272.14,129.53 C283.14,122.68 273.39,105.86 261.96,112.11 C212.064789,139.393511 163.775493,169.51631 117.33,202.33 L129.6,218.23 C167.49,184.38 208.79,154.78 250.07,125.23 C260.67,117.66 251.68,101.85 239.81,107.68 C182.81,135.68 129.81,170.59 76.93,205.51 L89.33,221.58 C125.19,183.58 172.01,158.86 212.38,126.29 C221.63,118.83 209.77,104.35 199.9,110.12 C157.081674,135.191985 115.730946,162.690136 76.05,192.48 L91.51,201.35 C91.64,196.75 99.01,192.63 102.31,190.15 C108.376667,185.57 114.513333,181.073333 120.72,176.66 C133.88,167.26 147.28,158.2 160.8,149.32 C187.89,131.52 215.4,114.32 242.8,97.01 C247.1703,94.3962186 248.959039,88.9703764 247,84.27 C245.15,80.07 239.73,76.41 234.95,78.36 C171.51,104.18 114.59,142.17 58.11,180.36 L70.4,196.28 C121.21,150.54 180.5,115.38 238,78.71 C242.241917,76.1065146 243.942411,70.7924704 242,66.21 C240.17,62.05 234.9,58.56 230.19,60.41 C170.85,83.77 116.9,117.71 63.36,151.91 L75.27,167.35 C94.38,147.83 119,134 141.55,119 C166.363333,102.506667 191.18,86.0366667 216,69.59 C226.4,62.7 217,46.18 206.14,52.72 C162.926667,78.72 119.743333,104.766667 76.59,130.86 L88.3,146 C141.3,102.13 201.09,67.47 260.53,33.29 C268.38,28.78 265.02,16.05 255.89,16.17 C242.89,16.35 231.41,21.98 219.89,27.48 L183.89,44.61 L111.89,78.88 L121.27,94.88 C157.09,73.3533333 192.87,51.77 228.61,30.13 C239.04,23.83 229.93,9.29 219.25,14.13 L114.25,61.52 L123.54,77.41 C145.54,62.61 167.5,47.8033333 189.42,32.99 C199.31,26.32 190.83,12.62 180.24,17.27 C156.38399,27.7500019 133.074126,39.4316348 110.4,52.27 C100.34,58 109.3,73.2 119.52,67.8 L198.6,26 C202.83,23.76 204.13,17.87 201.78,13.86 C199.16,9.38 194.02,8.69 189.65,10.68 C165.93,21.4733333 142.236667,32.3133333 118.57,43.2 L127.24,58 L188.79,22.12 C198.05,16.72 189.94,3.89 180.57,8.06 C166.5,14.32 152.46,20.63 138.57,27.16 L146.15,40.16 L191.29,18.32 C198.64,14.77 192.2,4.51 185,7.56 Z" id="Path" fill="#F1F1F2"></path>
                <path d="M342.27,20 C324.89,26.07 308.44,35.15 291.84,43.1 C287.3,45.28 290.63,51.85 295.13,50.89 C305.8,48.59 316.4,46 327,43.45 C336.92,41.08 347.47,37.17 357.77,38.32 L355.86,31.32 C330.93,46.68 304.86,60.38 279.34,74.78 C273.17,78.27 277.34,87.84 284.12,86.1 C305.7,80.57 327.12,74.51 348.65,68.61 L340.19,60.15 C338.06,65.47 329.82,69.27 325.5,72.37 C319.073333,76.9966667 312.643333,81.6366667 306.21,86.29 C298.53,91.83 303.11,103.29 312.62,101.5 C323.93,99.4 335.18,96.94 346.44,94.63 L338.15,80.39 C333.64,84.75 329.08,89.06 324.54,93.39 C320.41,97.33 321.6,104.25 326.3,107.09 C328.41,108.36 330.53,109.63 332.65,110.88 L329.51,98.88 C326.09,103.34 322.51,107.7 318.9,111.98 C315.1,116.45 311.12,120.54 308.74,125.98 C305.93,132.36 311.82,139.54 318.61,135.86 C329.46,129.98 337.26,117.38 344.61,107.75 C347.51,103.98 345.15,97.92 341.47,95.75 C339.35,94.5 337.21,93.27 335.08,92.04 L336.84,105.74 C341.28,101.31 345.7,96.86 350.17,92.46 C356.51,86.23 349.92,76.46 341.88,78.21 C330.64,80.61 319.36,82.86 308.17,85.47 L316.27,99.38 C323.72,93.48 331.27,87.65 338.61,81.65 C344.94,76.49 350.45,71.65 353.43,63.83 C355.33,58.83 349.66,54 344.96,55.36 C323.56,61.56 302.09,67.61 280.79,74.17 L285.57,85.5 C310.18,69.59 334.44,52.83 359.65,37.86 C362.19,36.35 362.11,31.47 358.74,30.96 C348.17,29.34 337.87,32.33 327.61,34.65 C316,37.27 304.36,39.81 292.81,42.71 L296.09,50.5 C312.14,42.09 329.01,34.5 344.03,24.32 C346.1,22.92 344.88,19.11 342.22,20.04 L342.27,20 Z" id="Path" fill="#F1F1F2"></path>
                <path d="M70.26,52.06 C69.9,46.71 62.7,46.97 60.64,51.06 C57.46,57.48 64.3,63.64 70.43,63 C76.86,62.37 81.14,55 78.32,49.12 C77.04,46.45 74.24,44.19 71.12,44.9 C68,45.61 66,49 67.91,51.76 C68.71,52.89 71.06,53.06 71.31,51.31 C71.5,50.01 72.44,49.4 73.42,50.38 C74.1457156,51.2394183 74.4760346,52.3646809 74.33,53.48 C74.1745076,55.9578682 72.2243736,57.9463236 69.75,58.15 C67.48,58.28 65,57 64.33,54.7 C63.99,53.5 64.07,51.9 65.24,51.17 C65.8698955,50.7470356 66.6508755,50.6143529 67.3851144,50.8055609 C68.1193532,50.9967689 68.7364167,51.4935255 69.08,52.17 C69.32,52.74 70.31,52.76 70.26,52.01 L70.26,52.06 Z" id="Path" fill="#FF8D95"></path>
                <path d="M82.65,56.57 C81.5832817,57.4252566 81.1142175,58.8246314 81.45,60.15 C81.8895319,61.5939905 83.3881421,62.4358568 84.85,62.06 C85.5430074,61.8818347 86.134513,61.430992 86.49,60.81 C86.7124368,60.3860429 86.8387627,59.9182956 86.86,59.44 L86.54,60.61 C86.9045625,59.9626886 87.0048826,59.1995389 86.82,58.48 C86.5385122,57.4924714 85.6266452,56.8188399 84.6,56.84 C83.8167733,56.8656372 83.1206791,57.346333 82.8192768,58.0696987 C82.5178744,58.7930643 82.6667011,59.6258105 83.2,60.2 L83,59.87 L82.8,59.39 C82.8044757,59.4164789 82.8044757,59.4435211 82.8,59.47 L82.73,58.92 L82.73,58.92 L82.8,58.37 L82.8,58.37 L83.01,57.87 C83.0155206,57.8930068 83.0155206,57.9169932 83.01,57.94 L83.34,57.51 L83.28,57.57 L83.72,57.23 L83.6,57.31 L84.13,57.08 L83.99,57.13 L85.22,57.13 L85.11,57.13 L85.69,57.38 C85.2259387,57.1209279 84.7013822,56.9897888 84.17,57 L84.85,57.09 C84.8172647,57.0989293 84.7827353,57.0989293 84.75,57.09 L85.37,57.35 C85.0927151,57.2220946 84.8090031,57.1086098 84.52,57.01 L85.12,57.26 L85,57.16 L85.49,57.54 C85.4292715,57.4907788 85.3754538,57.4335975 85.33,57.37 L85.69,57.84 C85.6495559,57.7754817 85.6128294,57.7087063 85.58,57.64 L85.8,58.16 C85.7255486,57.9772903 85.6751274,57.7856897 85.65,57.59 L85.72,58.09 L85.72,57.83 C85.7079356,57.1198701 85.2816659,56.4824209 84.63,56.2 C83.9676453,55.9231539 83.2039653,56.0688042 82.69,56.57 L82.65,56.57 Z" id="Path" fill="#FF8D95"></path>
                <path d="M91.28,44.27 C90.68,46.89 91.28,49.93 91.76,52.54 C92.24,55.15 92.9,58.8 95,60.72 C96.5,62.09 99.46,61.24 99.3,58.94 C99.11,56.28 97.44,54.08 96.37,51.68 C95.3,49.28 94.63,46.35 93.28,44 C93.0495935,43.6328508 92.6265483,43.4334086 92.1967074,43.4892879 C91.7668665,43.5451672 91.4088758,43.8461441 91.28,44.26 L91.28,44.27 Z" id="Path" fill="#FF8D95"></path>
                <path d="M118.15,49.51 C117.016001,48.0200611 115.178866,47.2405803 113.319421,47.4604264 C111.459975,47.6802724 109.855272,48.8666888 109.1,50.58 C108.270309,52.3295951 108.299865,54.3652299 109.18,56.09 C109.706312,57.1066094 110.488745,57.968319 111.45,58.59 C112.85,59.53 117.71,59.99 111.45,60.59 L112.1,65.38 C115.992681,64.3896263 119.770195,62.9919126 123.37,61.21 C126,60 129.6,58.54 131,55.87 C133.16,51.8 129,47.56 124.79,48.78 C120.06,50.17 119.79,56.55 122.71,59.78 C127.47,64.9 135.63,62.06 140.05,58.09 C141.58,56.71 139.98,53.88 138,54.57 C136.02,55.26 134,56.57 131.85,57.15 C130.389919,57.6579762 128.805111,57.6825197 127.33,57.22 C126.563333,55.3266667 125.563333,55.0666667 124.33,56.44 C121.98,56.94 119.69,58.93 117.28,59.61 C115.126311,60.1020005 112.946018,60.469278 110.75,60.71 C108.06,61.14 108.66,65.71 111.4,65.5 C114.75,65.2 120.86,64.14 120.22,59.5 C119.87947,57.9095644 118.870054,56.5430272 117.45,55.75 C116.59,55.22 115.18,55.27 114.45,54.69 C111.96,52.76 114.45,50.58 117.02,51 C117.74,51.11 118.65,50.34 118.1,49.59 L118.15,49.51 Z" id="Path" fill="#FF8D95"></path>
                <path d="M148.34,46.61 C142.53,44.13 135.75,47.61 136.5,54.45 C137.44,63.06 148.42,64.05 153.5,58.19 C154.288606,57.3680086 154.430644,56.1203635 153.846982,55.1421466 C153.263321,54.1639298 152.097903,53.6963896 151,54 C148.36,54.39 143.62,57.56 141.94,53.94 C140.41,50.62 144.56,47.82 147.5,48.57 C148.62,48.86 149.5,47.11 148.32,46.57 L148.34,46.61 Z" id="Path" fill="#FF8D95"></path>
                <path d="M68.56,100.84 C66.9136664,99.8872196 64.9238229,99.7333219 63.1505653,100.421626 C61.3773077,101.10993 60.0123879,102.566005 59.44,104.38 C57.98,109.38 61.86,113.92 66.81,114.27 C71.76,114.62 76.72,110.42 75.48,105.27 C74.97,103.15 73.54,100.36 71.71,99.08 C69.71,97.66 66.62,98.01 65.51,100.42 C64.7616543,101.698539 65.191461,103.341654 66.4700001,104.09 C67.7485392,104.838346 69.3916541,104.408539 70.14,103.13 C68.74,103.19 68.38,103.56 69.07,104.25 C69.3267569,104.635869 69.5604973,105.036566 69.77,105.45 C70.11,106.18 70.42,106.84 69.94,107.58 C69.09,108.86 66.87,109.02 65.58,108.58 C61.37,107.05 63.58,100.74 67.91,102.42 C68.81,102.77 69.37,101.34 68.56,100.87 L68.56,100.84 Z" id="Path" fill="#FF8D95"></path>
                <path d="M81.72,109.68 C81.6931539,110.127535 81.7543072,110.575993 81.9,111 C81.9927575,111.262046 82.106458,111.5162 82.24,111.76 C82.2809441,111.827357 82.3277952,111.89094 82.38,111.95 L82.67,112.34 L82.51,112.14 C82.51,112.28 82.95,112.75 83.02,112.83 C83.2179903,113.064082 83.4506926,113.266432 83.71,113.43 C84.6492492,113.968041 85.8126763,113.925382 86.71,113.32 C87.5118064,112.734646 87.8057702,111.674721 87.42,110.76 C87.1997672,110.211196 86.7669573,109.77478 86.22,109.55 C86.0502964,109.450365 85.8567848,109.398532 85.66,109.4 C85.31,109.4 85.27,109.4 85.54,109.4 C85.81,109.4 85.64,109.4 85.54,109.4 C85.237347,109.300048 84.9161205,109.269292 84.6,109.31 C84.41,109.31 85,109.4 84.81,109.31 C84.62,109.22 85.04,109.43 85.09,109.47 C85.31,109.6 85.09,109.47 85.09,109.42 C85.09,109.37 84.94,109.18 85.03,109.42 C85.12,109.66 85.03,109.42 85.03,109.35 C85.03,109.28 85.15,109.71 85.03,109.35 C84.8101964,108.559888 84.040529,108.053611 83.2279639,108.164645 C82.4153989,108.275679 81.8097725,108.969884 81.81,109.79 L81.72,109.68 Z" id="Path" fill="#FF8D95"></path>
                <path d="M96.36,98.35 C96.59,98.93 101.84,97.14 102.36,97.43 C104.07,98.49 101.96,100.9 101.16,102.01 C99.55,104.25 96.68,106.82 97.33,109.88 C98.67,116.21 110.48,112.39 113.77,110.23 C115.064708,109.423434 115.483366,107.733558 114.714935,106.415859 C113.946503,105.098161 112.269566,104.630357 110.93,105.36 C109.650216,106.037128 108.311336,106.59611 106.93,107.03 C105.99,107.28 103.83,107.03 103.17,107.53 C102.303333,107.35 102.193333,107.8 102.84,108.88 C103.18,108.3 103.55,107.73 103.95,107.17 C104.53,106.32 105.17,105.52 105.74,104.66 C107.61,101.87 109.49,97.66 107.32,94.53 C104.1,89.84 88.75,94.53 93.71,99.94 C94.77,101.1 97.08,99.94 96.46,98.35 L96.36,98.35 Z" id="Path" fill="#FF8D95"></path>
                <path d="M136.58,98.06 C133.99,94.82 129.16,90.99 125.35,95.14 C121.15,99.73 127.03,104.39 128.78,108.32 C127.55,105.56 123.7,107.65 124.18,110.26 C125.18,115.64 132.69,114.26 133.63,109.52 C134.15,106.9 132.88,104.52 131.29,102.52 C130.22,101.19 128.05,99.59 129.12,97.91 C130.47,95.78 133.84,98.3 135.19,99.4 C135.587152,99.6717551 136.121539,99.6220981 136.461819,99.2818186 C136.802098,98.9415392 136.851755,98.4071516 136.58,98.01 L136.58,98.06 Z" id="Path" fill="#FF8D95"></path>
                <path d="M139.82,108.43 C142.95,108.02 150.01,106.07 148.66,101.58 C147.43,97.48 141.66,97.58 139,100.04 C135.32,103.37 136.49,109.04 140,112.04 C144,115.44 151.72,115.31 155.28,111.28 C156.7,109.67 155.92,106.13 153.28,106.47 C150.1,106.87 144.71,109.93 142.55,105.76 C142.02,104.76 142.71,101.84 144.47,102.35 L145.23,103.41 C144.69287,103.982871 144.092347,104.492813 143.44,104.93 C142.248128,105.665979 140.928561,106.171417 139.55,106.42 C138.42,106.67 138.65,108.62 139.82,108.47 L139.82,108.43 Z" id="Path" fill="#FF8D95"></path>
                <path d="M166.17,99.22 C165.321252,96.6305557 162.894903,94.8876284 160.17,94.91 C156.42,95.06 154.07,98.64 153.89,102.1 C153.43,110.64 165.71,116.51 171.89,110.35 C173.16,109.08 172.32,106.24 170.28,106.47 C166.9,106.87 161.84,107.09 159.82,103.63 C158.90641,102.241322 159.059162,100.408309 160.19,99.19 C161.55,97.96 163.95,98.11 164.72,99.86 C165.09,100.7 166.55,100.09 166.22,99.22 L166.17,99.22 Z" id="Path" fill="#FF8D95"></path>
                <path d="M73.36,156.22 C70.7173586,155.740549 68.0259218,156.759213 66.3629827,158.868255 C64.7000435,160.977298 64.3373206,163.832108 65.42,166.29 C68.64,173.57 77.42,171.29 82.08,166.97 C84.619633,164.839216 84.9968013,161.07197 82.93,158.48 C80.61,155.48 76.63,155.18 73.11,155.53 C70.03,155.84 66.69,157.53 67.11,161.14 C67.42,164.14 70.65,166.32 73.38,164.59 C76.11,162.86 74.21,159.38 71.38,159.84 C71.86,161.59 72.73,162.22 73.98,161.75 L74.98,161.66 C75.37,161.66 78.05,161.38 78.18,162.1 C78.41,163.42 74.03,165.26 73.18,165.41 C68.1,166.41 68.08,158.53 73.18,157.94 C74.06,157.84 74.48,156.38 73.41,156.22 L73.36,156.22 Z" id="Path" fill="#FF8D95"></path>
                <path d="M89.19,165.12 C87.8174313,165.992182 87.1095287,167.608536 87.3992798,169.208752 C87.6890308,170.808968 88.9187521,172.074476 90.51,172.41 C91.8142119,172.706151 93.1801414,172.330895 94.15,171.41 C94.973558,170.584184 95.1377825,169.307339 94.55,168.3 C94.3154786,167.926098 94.0013445,167.60855 93.63,167.37 C93.025472,167.017763 92.3044941,166.924036 91.63,167.11 C91.5501009,167.148797 91.4662942,167.178967 91.38,167.2 C91.86,167.2 91.96,167.2 91.68,167.2 L91.27,167.2 C90.78,167.2 91.92,167.33 91.45,167.2 C91.19,167.12 91.27,167.16 91.69,167.32 C91.52,167.22 91.53,167.24 91.69,167.32 C91.85,167.4 91.89,167.48 91.75,167.32 C91.99,167.65 92.04,167.71 91.91,167.49 L92.05,167.82 C91.99,167.57 91.99,167.65 92.05,168.05 L92.05,167.77 L92.05,168.12 C92.12,167.89 92.05,167.94 91.97,168.27 C92.0107533,168.193067 92.0575679,168.119501 92.11,168.05 C92.6914434,167.192524 92.5821789,166.042977 91.8496008,165.310399 C91.1170226,164.577821 89.967476,164.468557 89.11,165.05 L89.19,165.12 Z" id="Path" fill="#FF8D95"></path>
                <path d="M101.29,158.72 C102.2,158.08 103.12,157.43 104.09,156.87 C105.06,156.31 107.24,155.75 107.73,155.25 L107.27,153.66 L106.58,155.5 C105.859442,156.879583 104.893689,158.116424 103.73,159.15 C101.84,160.94 103.73,164.74 106.39,163.72 C106.96,163.5 118.39,160.19 117.86,162.65 C117.67,163.58 114.38,164.81 113.7,165 C111.950043,165.381624 110.148792,165.46949 108.37,165.26 C105.78,165.08 105.37,169.04 107.77,169.72 C112.42,171.03 122.54,168.85 122.56,162.56 C122.56,154.56 109.27,156.9 104.93,158.45 L107.59,163.02 C110.28,160.48 115.28,154.02 111.66,150.42 C108.04,146.82 100.79,152.2 98,154.5 C95.67,156.43 98.76,160.5 101.26,158.72 L101.29,158.72 Z" id="Path" fill="#FF8D95"></path>
                <path d="M147.48,159.13 C145.14,154.38 138.77,153.53 134.58,156.29 C133.934078,156.682101 133.502151,157.347288 133.406751,158.096859 C133.311351,158.846431 133.562886,159.598604 134.09,160.14 C136.36,162.32 138.76,164.35 141.09,166.43 C141.604602,166.976353 142.170539,167.471966 142.78,167.91 L143.46,168.51 C144.04,167.263333 144.01,166.873333 143.37,167.34 C142.736311,167.478359 142.1218,167.69327 141.54,167.98 L141.66,168.13 C141.403534,168.331847 141.18656,168.579332 141.02,168.86 C143.56,168.15 143.17,163.72 140.37,164.08 C139.005179,164.196752 137.775582,164.950986 137.052952,166.114676 C136.330323,167.278366 136.199487,168.71491 136.7,169.99 C137.85,173.39 141.79,173.75 144.7,172.51 C147.61,171.27 150.29,168.22 147.55,165.21 C146.123901,163.823278 144.618002,162.521059 143.04,161.31 C141.22,159.74 139.41,158.16 137.52,156.68 L137.52,160.14 C139.78,158.29 143.28,159.02 145.38,160.72 C145.850627,161.172114 146.581004,161.212451 147.098555,160.814911 C147.616106,160.417372 147.765469,159.701293 147.45,159.13 L147.48,159.13 Z" id="Path" fill="#FF8D95"></path>
                <path d="M151.1,165.25 C155.15,166.12 161.18,166.02 161.49,160.49 C161.77,155.49 155.49,154.59 152.39,157.31 C148.9,160.36 146.63,167.17 151.23,170.31 C156.06,173.58 164.23,172.62 168.72,169.31 C170.9,167.74 169.72,163.85 166.78,164.72 C163.84,165.59 157.15,167.91 154.57,165.27 C153.73,164.41 153.95,163.94 154.35,162.82 C154.61,162.09 155.8,159.37 157.09,159.82 L157.77,161.08 C157.334025,162.188489 156.315122,162.960385 155.13,163.08 C153.8894,163.273347 152.629141,163.306953 151.38,163.18 C151.022734,163.129983 150.665924,163.274364 150.443975,163.558756 C150.222026,163.843149 150.168658,164.224347 150.303975,164.558756 C150.439291,164.893166 150.742734,165.129983 151.1,165.18 L151.1,165.25 Z" id="Path" fill="#FF8D95"></path>
                <path d="M175.23,155.68 C170.75,156.28 164.05,158.68 165.79,164.61 C167.61,170.82 177.04,169.36 181.03,166.61 C182.078767,165.89711 182.395662,164.493432 181.754891,163.399112 C181.114121,162.304791 179.734922,161.894247 178.6,162.46 C177.129017,163.096401 175.566148,163.494713 173.97,163.64 C173.04,163.72 170.86,163.96 170.14,163.07 C169.42,162.18 170.14,160.54 170.8,159.84 C171.96,158.57 173.91,158.01 175.47,157.47 C176.36,157.16 176.3,155.55 175.23,155.69 L175.23,155.68 Z" id="Path" fill="#FF8D95"></path>
                <path d="M58.7,77.48 L300.94,77.48 C301.768427,77.48 302.44,76.8084271 302.44,75.98 C302.44,75.1515729 301.768427,74.48 300.94,74.48 L58.7,74.48 C57.8715729,74.48 57.2,75.1515729 57.2,75.98 C57.2,76.8084271 57.8715729,77.48 58.7,77.48 Z" id="Path" fill="#929497"></path>
                <path d="M303.8,73.91 L302.08,73.91 C301.881292,73.8955853 301.682808,73.9408536 301.51,74.04 C301.140412,74.1733161 300.847954,74.4621182 300.71,74.83 C300.621397,75.0103282 300.576844,75.2091052 300.58,75.41 C300.586642,75.8064078 300.743966,76.1854152 301.02,76.47 C301.305691,76.744347 301.684006,76.9013831 302.08,76.91 L303.8,76.91 C304.000817,76.9124056 304.199422,76.8678907 304.38,76.78 C304.561951,76.715443 304.726315,76.6092916 304.86,76.47 C305.001519,76.334205 305.107907,76.1660438 305.17,75.98 C305.26349,75.8050306 305.308381,75.6082031 305.3,75.41 C305.295392,75.0131717 305.137768,74.6334411 304.86,74.35 C304.574309,74.075653 304.195994,73.9186169 303.8,73.91 L303.8,73.91 Z" id="Path" fill="#929497"></path>
                <path d="M184,32.56 L184,198.24 C184,199.068427 184.671573,199.74 185.5,199.74 C186.328427,199.74 187,199.068427 187,198.24 L187,32.56 C187,31.7315729 186.328427,31.06 185.5,31.06 C184.671573,31.06 184,31.7315729 184,32.56 Z" id="Path" fill="#929497"></path>
                <path d="M56.41,134 L328.41,134 C329.238427,134 329.91,133.328427 329.91,132.5 C329.91,131.671573 329.238427,131 328.41,131 L56.41,131 C55.5815729,131 54.91,131.671573 54.91,132.5 C54.91,133.328427 55.5815729,134 56.41,134 Z" id="Path" fill="#929497"></path>
                <path d="M228.73,43.15 C229.73,40.8 235.82,37.4 237.89,39.86 C239.39,41.63 235.28,44.58 234.69,46.55 C234.021453,48.3084605 234.506675,50.2970763 235.91,51.55 C237.8,53.06 240.27,52.35 242.23,51.41 C242.64252,51.1598517 242.894458,50.7124382 242.894458,50.23 C242.894458,49.7475618 242.64252,49.3001483 242.23,49.05 C241.616471,48.5823497 240.871179,48.3199229 240.1,48.3 C239.83,48.3 238.54,48.53 238.29,48.3 C237.69,47.61 240.94,44.61 241.29,44.08 C242.139751,42.9786766 242.503797,41.5785275 242.298095,40.2027813 C242.092394,38.8270352 241.334726,37.5946046 240.2,36.79 C237.72,34.98 234.57,35.33 232.01,36.79 C229.86,38.03 226.44,40.34 227.14,43.16 C227.35,44.02 228.44,43.85 228.72,43.16 L228.73,43.15 Z" id="Path" fill="#6D6E70"></path>
                <path d="M237.86,60.35 C235.76,60.91 237.03,64.22 237.86,65.3 C238.579042,66.1569505 239.619805,66.6792517 240.736606,66.7436097 C241.853406,66.8079677 242.947277,66.4086793 243.76,65.64 C244.96,64.54 243.76,62.19 242.11,62.8 C241.316785,62.9980652 240.476592,62.8130006 239.84,62.3 C239.09,61.8 239.21,59.98 237.84,60.35 L237.86,60.35 Z" id="Path" fill="#6D6E70"></path>
                <path d="M271.32,54.65 C272.605169,54.2240214 273.678585,53.322352 274.32,52.13 C274.587239,51.6484644 274.586267,51.06293 274.317431,50.5822841 C274.048596,50.1016382 273.550183,49.7943335 273,49.77 C266.92,49.48 260.74,55.77 263.38,62 C266.38,69 275.61,66.63 279.45,61.91 C280.17874,61.269841 280.285374,60.1739053 279.693711,59.4052707 C279.102047,58.6366362 278.015308,58.4593114 277.21,59 C274.77,60.29 270.21,63.58 267.63,60.66 C264.63,57.26 269.89,53.04 272.98,52.87 L271.46,51.72 C271.795482,52.4652304 271.531078,53.3437344 270.84,53.78 C270.49,54.1 270.84,54.78 271.32,54.61 L271.32,54.65 Z" id="Path" fill="#6D6E70"></path>
                <path d="M281.86,51.64 C281.064464,55.5053738 281.348157,59.5151397 282.68,63.23 C282.976724,64.178641 283.797623,64.8684148 284.783203,64.9972487 C285.768782,65.1260826 286.739402,64.6704945 287.27,63.83 L293.54,55.43 L290.9,56.5 C290.82,56.5 291.71,60.13 292.46,60.87 C293.697844,62.0758341 295.562204,62.3685186 297.11,61.6 C298.79,60.81 300.66,55.74 301.94,55.83 C302.02,55.83 303.81,65.48 304.43,66.69 C305.43,68.56 308.12,67.56 308.2,65.69 C308.36,62.06 307.04,57.63 305.65,54.29 C304.75,52.15 303.21,51.11 300.83,51.61 C297.75,52.25 298.03,54.93 296,56.46 C295.19,57.07 295.88,56.72 295.38,55.72 C295.16,55.29 295.09,54.72 294.85,54.33 C294.419245,53.3917845 293.651955,52.649476 292.7,52.25 C291.779972,51.7354841 290.63191,51.8815274 289.87,52.61 L283.33,60.81 L287.27,61.31 C286.055443,58.1748552 285.092401,54.9479954 284.39,51.66 C284.22324,51.1005374 283.708787,50.717061 283.125,50.717061 C282.541213,50.717061 282.02676,51.1005374 281.86,51.66 L281.86,51.64 Z" id="Path" fill="#6D6E70"></path>
            </g>
        </g>
    </g>
</svg>