<?xml version="1.0" encoding="UTF-8"?>
<svg width="43px" height="43px" viewBox="0 0 43 43" version="1.1" xmlns="http://www.w3.org/2000/svg" xmlns:xlink="http://www.w3.org/1999/xlink">
    <!-- Generator: Sketch 53.2 (72643) - https://sketchapp.com -->
    <title>settings icon</title>
    <desc>Created with Sketch.</desc>
    <g id="Dashboard-Launch-Version-v2" stroke="none" stroke-width="1" fill="none" fill-rule="evenodd">
        <g id="Dashboard-w/-Navbar" transform="translate(-131.000000, -156.000000)">
            <g id="settings-icon" transform="translate(131.000000, 156.000000)">
                <circle id="Oval" fill="#0091FF" cx="21.5" cy="21.5" r="21.5"></circle>
                <path d="M31.2530871,21 C31.2530871,21.3942857 31.2178372,21.7885714 31.1649625,22.1657143 L33.7734518,24.1542857 C34.0025758,24.3428571 34.0730755,24.6685714 33.9144512,24.9257143 L31.4469613,29.0742857 C31.2883369,29.3314286 30.9710882,29.4342857 30.6890894,29.3314286 L27.622352,28.1314286 C26.9878546,28.6114286 26.2828575,29.0057143 25.5426105,29.3142857 L25.0843624,32.4857143 C25.0314876,32.7771429 24.7671137,33 24.4674899,33 L19.5325101,33 C19.2328863,33 18.9685124,32.7771429 18.9156376,32.5028571 L18.4573895,29.3314286 C17.6995176,29.0228571 17.0121454,28.6285714 16.377648,28.1485714 L13.3109106,29.3485714 C13.0289118,29.4514286 12.7116631,29.3485714 12.5530387,29.0914286 L10.0855488,24.9428571 C9.92692446,24.6857143 9.99742417,24.36 10.2265482,24.1714286 L12.8350375,22.1828571 C12.7821628,21.7885714 12.7469129,21.3942857 12.7469129,21 C12.7469129,20.6057143 12.7821628,20.2114286 12.8350375,19.8342857 L10.2265482,17.8457143 C9.99742417,17.6571429 9.92692446,17.3314286 10.0855488,17.0742857 L12.5530387,12.9257143 C12.7116631,12.6685714 13.0289118,12.5657143 13.3109106,12.6685714 L16.377648,13.8685714 C17.0121454,13.3885714 17.7171425,12.9942857 18.4573895,12.6857143 L18.9156376,9.51428571 C18.9685124,9.22285714 19.2328863,9 19.5325101,9 L24.4674899,9 C24.7671137,9 25.0314876,9.22285714 25.0843624,9.49714286 L25.5426105,12.6685714 C26.3004824,12.9771429 26.9878546,13.3714286 27.622352,13.8514286 L30.6890894,12.6514286 C30.9710882,12.5485714 31.2883369,12.6514286 31.4469613,12.9085714 L33.9144512,17.0571429 C34.0730755,17.3142857 34.0025758,17.64 33.7734518,17.8285714 L31.1649625,19.8171429 C31.2178372,20.2114286 31.2530871,20.6057143 31.2530871,21 Z M22,18 C20.35,18 19,19.35 19,21 C19,22.65 20.35,24 22,24 C23.65,24 25,22.65 25,21 C25,19.35 23.65,18 22,18 Z" id="Combined-Shape" fill="#FFFFFF"></path>
            </g>
        </g>
    </g>
</svg>