<?xml version="1.0" encoding="UTF-8"?>
<svg width="11px" height="14px" viewBox="0 0 11 14" version="1.1" xmlns="http://www.w3.org/2000/svg" xmlns:xlink="http://www.w3.org/1999/xlink">
    <!-- Generator: sketchtool 63.1 (101010) - https://sketch.com -->
    <title>69FA93A7-8E1F-4C89-9A6A-907567A98437</title>
    <desc>Created with sketchtool.</desc>
    <g id="Dashboard-Launch-Version-v2" stroke="none" stroke-width="1" fill="none" fill-rule="evenodd">
        <g id="v2-wifi-dropdown" transform="translate(-833.000000, -486.000000)">
            <g id="popup-copy" transform="translate(370.000000, 93.000000)">
                <g id="network-box-copy" transform="translate(127.000000, 316.000000)">
                    <g id="lock-24px-copy-2" transform="translate(334.000000, 76.000000)">
                        <polygon id="Path" points="0 0 16 0 16 16 0 16"></polygon>
                        <path d="M11.625,5.66666667 L10.9375,5.66666667 L10.9375,4.33333333 C10.9375,2.49333333 9.3975,1 7.5,1 C5.6025,1 4.0625,2.49333333 4.0625,4.33333333 L4.0625,5.66666667 L3.375,5.66666667 C2.61875,5.66666667 2,6.26666667 2,7 L2,13.6666667 C2,14.4 2.61875,15 3.375,15 L11.625,15 C12.38125,15 13,14.4 13,13.6666667 L13,7 C13,6.26666667 12.38125,5.66666667 11.625,5.66666667 Z M7.5,11.6666667 C6.74375,11.6666667 6.125,11.0666667 6.125,10.3333333 C6.125,9.6 6.74375,9 7.5,9 C8.25625,9 8.875,9.6 8.875,10.3333333 C8.875,11.0666667 8.25625,11.6666667 7.5,11.6666667 Z M9.63125,5.66666667 L5.36875,5.66666667 L5.36875,4.33333333 C5.36875,3.19333333 6.324375,2.26666667 7.5,2.26666667 C8.675625,2.26666667 9.63125,3.19333333 9.63125,4.33333333 L9.63125,5.66666667 Z" id="Shape" fill="#B4B4B4" fill-rule="nonzero"></path>
                    </g>
                </g>
            </g>
        </g>
    </g>
</svg>