<?xml version="1.0" encoding="UTF-8"?>
<svg width="85px" height="85px" viewBox="0 0 85 85" version="1.1" xmlns="http://www.w3.org/2000/svg" xmlns:xlink="http://www.w3.org/1999/xlink">
    <!-- Generator: Sketch 61.2 (89653) - https://sketch.com -->
    <title>spinner</title>
    <desc>Created with Sketch.</desc>
    <g id="Dashboard-Launch-Version-v2" stroke="none" stroke-width="1" fill="none" fill-rule="evenodd">
        <g id="Dashboard,-Jupyter-not-ready" transform="translate(-798.000000, -265.000000)" fill="#FFFFFF">
            <g id="main-panels" transform="translate(378.000000, 194.500000)">
                <g id="spinner" transform="translate(420.000000, 70.500000)">
                    <path d="M42.5,0 C65.9721019,0 85,19.0278981 85,42.5 C85,48.5645271 83.7297748,54.3323772 81.4408616,59.552013 C79.9912659,57.6887943 77.8787686,56.3230911 75.4356392,55.7704214 C77.0896793,51.6717179 78,47.1921674 78,42.5 C78,22.8938914 62.1061086,7 42.5,7 C22.8938914,7 7,22.8938914 7,42.5 C7,62.1061086 22.8938914,78 42.5,78 C50.6009905,78 58.0682181,75.2865384 64.0423782,70.7189198 C65.3504315,72.7528946 67.4029812,74.3074032 69.839002,75.0389016 C62.4502243,81.2555501 52.9123937,85 42.5,85 C19.0278981,85 0,65.9721019 0,42.5 C0,19.0278981 19.0278981,0 42.5,0 Z" id="Combined-Shape" fill-rule="nonzero"></path>
                    <ellipse id="Oval" cx="73" cy="65.5" rx="5.5" ry="6"></ellipse>
                </g>
            </g>
        </g>
    </g>
</svg>