<?xml version="1.0" encoding="UTF-8"?>
<svg width="170px" height="128px" viewBox="0 0 170 128" version="1.1" xmlns="http://www.w3.org/2000/svg" xmlns:xlink="http://www.w3.org/1999/xlink">
    <!-- Generator: Sketch 53.2 (72643) - https://sketchapp.com -->
    <title>learn copy 6</title>
    <desc>Created with Sketch.</desc>
    <defs>
        <polygon id="path-1" points="0 0.243346008 170 0.243346008 170 127.756654 0 127.756654"></polygon>
    </defs>
    <g id="Dashboard-Launch-Version-v2" stroke="none" stroke-width="1" fill="none" fill-rule="evenodd">
        <g id="No-users,-create-account" transform="translate(-398.000000, -393.000000)">
            <g id="learn-copy-6" transform="translate(398.000000, 393.000000)">
                <g id="learn_bg">
                    <mask id="mask-2" fill="white">
                        <use xlink:href="#path-1"></use>
                    </mask>
                    <g id="Clip-2"></g>
                    <path d="M167.003205,22.6132866 C165.809936,15.3698823 160.417885,9.50859264 153.239744,7.71854353 C140.511538,4.54313798 117.308718,0.243346008 85,0.243346008 C52.6122756,0.243346008 29.3751282,4.56421009 16.6665385,7.74177689 C9.51400641,9.53020507 4.10887821,15.3493505 2.9150641,22.5679005 C1.49185897,31.1685651 0,44.7730463 0,64 C0,83.2820653 1.50057692,96.90978 2.92705128,105.506662 C4.11977564,112.696036 9.48349359,118.510318 16.6027885,120.312794 C29.1326603,123.484418 52.1120833,127.756654 85,127.756654 C117.769135,127.756654 140.701154,123.515756 153.260449,120.347374 C160.388462,118.549221 165.758718,112.718729 166.941635,105.52017 C168.40516,96.6120688 170,82.5818228 170,63.7298447 C170,45.1409979 168.44984,31.3944149 167.003205,22.6132866" id="Fill-1" fill="#000000" opacity="0.2" mask="url(#mask-2)"></path>
                </g>
            </g>
        </g>
    </g>
</svg>