<?xml version="1.0" encoding="UTF-8"?>
<svg width="198px" height="150px" viewBox="0 0 198 150" version="1.1" xmlns="http://www.w3.org/2000/svg" xmlns:xlink="http://www.w3.org/1999/xlink">
    <!-- Generator: Sketch 63.1 (92452) - https://sketch.com -->
    <title>xx eyes</title>
    <desc>Created with Sketch.</desc>
    <defs>
        <polygon id="path-1" points="0 0.000190384615 198 0.000190384615 198 149.769231 0 149.769231"></polygon>
    </defs>
    <g id="Dashboard-Launch-Version-v2" stroke="none" stroke-width="1" fill="none" fill-rule="evenodd">
        <g id="cam-not-connected" transform="translate(-574.000000, -324.000000)">
            <g id="xx-eyes" transform="translate(574.000000, 324.000000)">
                <g id="Group-3">
                    <mask id="mask-2" fill="white">
                        <use xlink:href="#path-1"></use>
                    </mask>
                    <g id="Clip-2"></g>
                    <path d="M194.509615,26.2745365 C193.119808,17.7668827 186.839654,10.882575 178.479231,8.78009423 C163.654615,5.05045962 136.630154,0.000190384615 99,0.000190384615 C61.2778269,0.000190384615 34.2133846,5.07520962 19.4116154,8.80738269 C11.0810192,10.9079596 4.78563462,17.7427673 3.39519231,26.2212288 C1.73757692,36.3230365 0,52.3020173 0,74.8848058 C0,97.532325 1.74773077,113.538594 3.40915385,123.63596 C4.79832692,132.080152 11.0454808,138.909248 19.3373654,141.026325 C33.9309808,144.751517 60.69525,149.769421 99,149.769421 C137.166404,149.769421 163.875462,144.788325 178.503346,141.06694 C186.805385,138.95494 193.060154,132.106806 194.437904,123.651825 C196.142481,113.188921 198,96.7098635 198,74.5674981 C198,52.7341904 196.194519,36.5883058 194.509615,26.2745365" id="Fill-1" fill="#000000" mask="url(#mask-2)"></path>
                </g>
                <g id="Group-12" transform="translate(28.557692, 50.769231)" fill="#FFFFFF">
                    <path d="M49.5592096,8.69004231 L8.42788269,49.8213692 C6.86355577,51.3856962 4.30288269,51.3856962 2.73855577,49.8213692 L1.49978654,48.5819654 C-0.065175,47.0176385 -0.065175,44.4569654 1.49978654,42.8932731 L42.6311135,1.76131154 C44.1954404,0.196984615 46.7554788,0.196984615 48.3204404,1.76131154 L49.5592096,3.00071538 C51.1241712,4.56504231 51.1241712,7.12571538 49.5592096,8.69004231" id="Fill-4"></path>
                    <path d="M42.6307962,49.8210519 L1.49946923,8.689725 C-0.0648576923,7.12539808 -0.0648576923,4.564725 1.49946923,3.00039808 L2.73887308,1.76162885 C4.3032,0.196667308 6.86323846,0.196667308 8.42756538,1.76162885 L49.5588923,42.8929558 C51.1238538,44.4572827 51.1238538,47.0173212 49.5588923,48.5822827 L48.3201231,49.8210519 C46.7557962,51.3860135 44.1951231,51.3860135 42.6307962,49.8210519" id="Fill-6"></path>
                    <path d="M140.309463,8.69004231 L99.1781365,49.8213692 C97.6138096,51.3856962 95.0531365,51.3856962 93.4888096,49.8213692 L92.2494058,48.5819654 C90.6850788,47.0176385 90.6850788,44.4569654 92.2494058,42.8932731 L133.380733,1.76131154 C134.945694,0.196984615 137.505733,0.196984615 139.07006,1.76131154 L140.309463,3.00071538 C141.87379,4.56504231 141.87379,7.12571538 140.309463,8.69004231" id="Fill-8"></path>
                    <path d="M133.380796,49.8210519 L92.2494692,8.689725 C90.6851423,7.12539808 90.6851423,4.564725 92.2494692,3.00039808 L93.4888731,1.76162885 C95.0525654,0.196667308 97.6138731,0.196667308 99.1775654,1.76162885 L140.309527,42.8929558 C141.873854,44.4572827 141.873854,47.0173212 140.309527,48.5822827 L139.070123,49.8210519 C137.505796,51.3860135 134.945758,51.3860135 133.380796,49.8210519" id="Fill-10"></path>
                </g>
            </g>
        </g>
    </g>
</svg>