<?xml version="1.0" encoding="UTF-8" standalone="no"?>
<!-- Created with Inkscape (http://www.inkscape.org/) -->
<svg
   xmlns:dc="http://purl.org/dc/elements/1.1/"
   xmlns:cc="http://creativecommons.org/ns#"
   xmlns:rdf="http://www.w3.org/1999/02/22-rdf-syntax-ns#"
   xmlns:svg="http://www.w3.org/2000/svg"
   xmlns="http://www.w3.org/2000/svg"
   xmlns:sodipodi="http://sodipodi.sourceforge.net/DTD/sodipodi-0.dtd"
   xmlns:inkscape="http://www.inkscape.org/namespaces/inkscape"
   width="210mm"
   height="297mm"
   id="svg2"
   sodipodi:version="0.32"
   inkscape:version="0.46"
   sodipodi:docname="ticket-icon.svg"
   inkscape:output_extension="org.inkscape.output.svg.inkscape">
  <defs
     id="defs4">
    <inkscape:perspective
       sodipodi:type="inkscape:persp3d"
       inkscape:vp_x="0 : 526.18109 : 1"
       inkscape:vp_y="0 : 1000 : 0"
       inkscape:vp_z="744.09448 : 526.18109 : 1"
       inkscape:persp3d-origin="372.04724 : 350.78739 : 1"
       id="perspective10" />
  </defs>
  <sodipodi:namedview
     id="base"
     pagecolor="#ffffff"
     bordercolor="#666666"
     borderopacity="1.0"
     inkscape:pageopacity="0.0"
     inkscape:pageshadow="2"
     inkscape:zoom="1.4142136"
     inkscape:cx="217.85714"
     inkscape:cy="805.71429"
     inkscape:document-units="px"
     inkscape:current-layer="layer1"
     showgrid="false"
     inkscape:window-width="1255"
     inkscape:window-height="1163"
     inkscape:window-x="0"
     inkscape:window-y="15" />
  <metadata
     id="metadata7">
    <rdf:RDF>
      <cc:Work
         rdf:about="">
        <dc:format>image/svg+xml</dc:format>
        <dc:type
           rdf:resource="http://purl.org/dc/dcmitype/StillImage" />
      </cc:Work>
    </rdf:RDF>
  </metadata>
  <g
     inkscape:label="Calque 1"
     inkscape:groupmode="layer"
     id="layer1">
    <rect
       style="fill:#213357;fill-opacity:1;stroke:#213357;stroke-width:16.60000038;stroke-miterlimit:4;stroke-dasharray:none;stroke-opacity:1"
       id="rect2383"
       width="160"
       height="337.14285"
       x="280.50708"
       y="-40.02993"
       transform="matrix(0.8660254,0.5,-0.5,0.8660254,0,0)" />
    <g
       id="g3172"
       transform="matrix(0.8660254,0.5,-0.5,0.8660254,247.60858,-47.856519)">
      <path
         d="M 92.857142,119.86218 A 10.357142,10.357142 0 1 1 72.142858,119.86218 A 10.357142,10.357142 0 1 1 92.857142,119.86218 z"
         sodipodi:ry="10.357142"
         sodipodi:rx="10.357142"
         sodipodi:cy="119.86218"
         sodipodi:cx="82.5"
         id="path3160"
         style="fill:#ffffff;fill-opacity:1;stroke:none;stroke-width:16.60000038;stroke-miterlimit:4;stroke-dasharray:none;stroke-opacity:1"
         sodipodi:type="arc" />
      <path
         transform="translate(36.500003,-0.3571432)"
         d="M 92.857142,119.86218 A 10.357142,10.357142 0 1 1 72.142858,119.86218 A 10.357142,10.357142 0 1 1 92.857142,119.86218 z"
         sodipodi:ry="10.357142"
         sodipodi:rx="10.357142"
         sodipodi:cy="119.86218"
         sodipodi:cx="82.5"
         id="path3162"
         style="fill:#ffffff;fill-opacity:1;stroke:none;stroke-width:16.60000038;stroke-miterlimit:4;stroke-dasharray:none;stroke-opacity:1"
         sodipodi:type="arc" />
      <path
         transform="translate(70.678575,-0.3571432)"
         d="M 92.857142,119.86218 A 10.357142,10.357142 0 1 1 72.142858,119.86218 A 10.357142,10.357142 0 1 1 92.857142,119.86218 z"
         sodipodi:ry="10.357142"
         sodipodi:rx="10.357142"
         sodipodi:cy="119.86218"
         sodipodi:cx="82.5"
         id="path3164"
         style="fill:#ffffff;fill-opacity:1;stroke:none;stroke-width:16.60000038;stroke-miterlimit:4;stroke-dasharray:none;stroke-opacity:1"
         sodipodi:type="arc" />
      <path
         transform="translate(104.85715,-0.3571432)"
         d="M 92.857142,119.86218 A 10.357142,10.357142 0 1 1 72.142858,119.86218 A 10.357142,10.357142 0 1 1 92.857142,119.86218 z"
         sodipodi:ry="10.357142"
         sodipodi:rx="10.357142"
         sodipodi:cy="119.86218"
         sodipodi:cx="82.5"
         id="path3166"
         style="fill:#ffffff;fill-opacity:1;stroke:none;stroke-width:16.60000038;stroke-miterlimit:4;stroke-dasharray:none;stroke-opacity:1"
         sodipodi:type="arc" />
      <path
         transform="translate(139.03572,-0.3571432)"
         d="M 92.857142,119.86218 A 10.357142,10.357142 0 1 1 72.142858,119.86218 A 10.357142,10.357142 0 1 1 92.857142,119.86218 z"
         sodipodi:ry="10.357142"
         sodipodi:rx="10.357142"
         sodipodi:cy="119.86218"
         sodipodi:cx="82.5"
         id="path3168"
         style="fill:#ffffff;fill-opacity:1;stroke:none;stroke-width:16.60000038;stroke-miterlimit:4;stroke-dasharray:none;stroke-opacity:1"
         sodipodi:type="arc" />
      <path
         transform="translate(173.21429,-0.3571432)"
         d="M 92.857142,119.86218 A 10.357142,10.357142 0 1 1 72.142858,119.86218 A 10.357142,10.357142 0 1 1 92.857142,119.86218 z"
         sodipodi:ry="10.357142"
         sodipodi:rx="10.357142"
         sodipodi:cy="119.86218"
         sodipodi:cx="82.5"
         id="path3170"
         style="fill:#ffffff;fill-opacity:1;stroke:none;stroke-width:16.60000038;stroke-miterlimit:4;stroke-dasharray:none;stroke-opacity:1"
         sodipodi:type="arc" />
    </g>
    <g
       id="g3775"
       transform="matrix(0.8660254,0.5,-0.5,0.8660254,72.676433,257.0167)">
      <path
         d="M 92.857142,119.86218 A 10.357142,10.357142 0 1 1 72.142858,119.86218 A 10.357142,10.357142 0 1 1 92.857142,119.86218 z"
         sodipodi:ry="10.357142"
         sodipodi:rx="10.357142"
         sodipodi:cy="119.86218"
         sodipodi:cx="82.5"
         id="path3777"
         style="fill:#ffffff;fill-opacity:1;stroke:none;stroke-width:16.60000038;stroke-miterlimit:4;stroke-dasharray:none;stroke-opacity:1"
         sodipodi:type="arc" />
      <path
         transform="translate(36.500003,-0.3571432)"
         d="M 92.857142,119.86218 A 10.357142,10.357142 0 1 1 72.142858,119.86218 A 10.357142,10.357142 0 1 1 92.857142,119.86218 z"
         sodipodi:ry="10.357142"
         sodipodi:rx="10.357142"
         sodipodi:cy="119.86218"
         sodipodi:cx="82.5"
         id="path3779"
         style="fill:#ffffff;fill-opacity:1;stroke:none;stroke-width:16.60000038;stroke-miterlimit:4;stroke-dasharray:none;stroke-opacity:1"
         sodipodi:type="arc" />
      <path
         transform="translate(70.678575,-0.3571432)"
         d="M 92.857142,119.86218 A 10.357142,10.357142 0 1 1 72.142858,119.86218 A 10.357142,10.357142 0 1 1 92.857142,119.86218 z"
         sodipodi:ry="10.357142"
         sodipodi:rx="10.357142"
         sodipodi:cy="119.86218"
         sodipodi:cx="82.5"
         id="path3781"
         style="fill:#ffffff;fill-opacity:1;stroke:none;stroke-width:16.60000038;stroke-miterlimit:4;stroke-dasharray:none;stroke-opacity:1"
         sodipodi:type="arc" />
      <path
         transform="translate(104.85715,-0.3571432)"
         d="M 92.857142,119.86218 A 10.357142,10.357142 0 1 1 72.142858,119.86218 A 10.357142,10.357142 0 1 1 92.857142,119.86218 z"
         sodipodi:ry="10.357142"
         sodipodi:rx="10.357142"
         sodipodi:cy="119.86218"
         sodipodi:cx="82.5"
         id="path3783"
         style="fill:#ffffff;fill-opacity:1;stroke:none;stroke-width:16.60000038;stroke-miterlimit:4;stroke-dasharray:none;stroke-opacity:1"
         sodipodi:type="arc" />
      <path
         transform="translate(139.03572,-0.3571432)"
         d="M 92.857142,119.86218 A 10.357142,10.357142 0 1 1 72.142858,119.86218 A 10.357142,10.357142 0 1 1 92.857142,119.86218 z"
         sodipodi:ry="10.357142"
         sodipodi:rx="10.357142"
         sodipodi:cy="119.86218"
         sodipodi:cx="82.5"
         id="path3785"
         style="fill:#ffffff;fill-opacity:1;stroke:none;stroke-width:16.60000038;stroke-miterlimit:4;stroke-dasharray:none;stroke-opacity:1"
         sodipodi:type="arc" />
      <path
         transform="translate(173.21429,-0.3571432)"
         d="M 92.857142,119.86218 A 10.357142,10.357142 0 1 1 72.142858,119.86218 A 10.357142,10.357142 0 1 1 92.857142,119.86218 z"
         sodipodi:ry="10.357142"
         sodipodi:rx="10.357142"
         sodipodi:cy="119.86218"
         sodipodi:cx="82.5"
         id="path3787"
         style="fill:#ffffff;fill-opacity:1;stroke:none;stroke-width:16.60000038;stroke-miterlimit:4;stroke-dasharray:none;stroke-opacity:1"
         sodipodi:type="arc" />
    </g>
    <path
       sodipodi:type="arc"
       style="fill:none;fill-opacity:1;stroke:#213357;stroke-width:28.94799995;stroke-miterlimit:4;stroke-dasharray:none;stroke-opacity:1"
       id="path3789"
       sodipodi:cx="376.78571"
       sodipodi:cy="145.93361"
       sodipodi:rx="126.78571"
       sodipodi:ry="129.28572"
       d="M 503.57142,145.93361 A 126.78571,129.28572 0 1 1 249.99999,145.93361 A 126.78571,129.28572 0 1 1 503.57142,145.93361 z"
       transform="matrix(1.1071326,0,0,1.1071326,-114.88545,34.971309)" />
    <text
       xml:space="preserve"
       style="font-size:40px;font-style:normal;font-variant:normal;font-weight:bold;font-stretch:normal;text-align:start;line-height:125%;writing-mode:lr-tb;text-anchor:start;fill:#ffffff;fill-opacity:1;stroke:none;stroke-width:1px;stroke-linecap:butt;stroke-linejoin:miter;stroke-opacity:1;font-family:Bitstream Vera Sans Mono;-inkscape-font-specification:Bitstream Vera Sans Mono Bold"
       x="295.2869"
       y="38.059719"
       id="text3791"
       sodipodi:linespacing="125%"
       transform="matrix(0.8660254,0.5,-0.5,0.8660254,0,0)"><tspan
         sodipodi:role="line"
         id="tspan3793"
         x="295.2869"
         y="38.059719">ADMIT</tspan></text>
  </g>
</svg>
