<?xml version="1.0" encoding="UTF-8"?>
<svg width="48px" height="48px" viewBox="0 0 48 48" version="1.1" xmlns="http://www.w3.org/2000/svg" xmlns:xlink="http://www.w3.org/1999/xlink">
    <title>Artboard</title>
    <g id="Artboard" stroke="none" stroke-width="1" fill="none" fill-rule="evenodd">
        <g id="案例" transform="translate(0.000000, 4.000000)" fill="#000000" fill-rule="nonzero">
            <path d="M21.3503039,31.7881234 L21.4494732,32.3097355 L46.7437934,26.8986202 L46.646159,26.3914806 L21.3503039,31.7881234 L21.3503039,31.7881234 Z M21.4494184,33.3666646 L21.5334026,33.8037443 L46.8290933,28.3924097 L46.7437386,27.9555493 L21.4494184,33.3666646 L21.4494184,33.3666646 Z M21.5195332,35.1426125 L21.6034626,35.5796373 L46.8992629,30.1677546 L46.8153335,29.7307298 L21.5195332,35.1426125 Z M47.8997274,24.9258138 L20.1529809,30.7174893 C19.4333042,33.0570962 19.4758993,35.3256016 20.377359,37.5942714 L47.5337493,31.2528612 L47.913542,32.9861591 L20.0676809,39.4969631 L19.2502055,39.3559113 L0.930411482,27.588694 C-0.0838676786,25.2072047 -0.408676071,22.7975379 0.930411482,20.3175919 L2.71940652,20.0354883 L2.71940652,20.6555022 L26.1972668,26.0956172 C26.8468287,24.4462486 27.2541959,22.3324452 26.3664961,20.4159937 L2.53778796,15.4417937 L2.76205645,13.7366732 L2.8749308,13.6940232 L2.90387577,13.6940232 L4.326783,13.2432386 L4.38324761,11.7211619 L26.2123971,17.1887966 C26.7891033,15.5263261 27.1413216,13.8770123 26.3816264,11.9469106 L4.32683786,6.9155333 L4.32683786,4.60492618 L21.6889269,0.0387512143 L41.7978257,4.26641282 C42.8546999,6.31004668 42.5877267,8.21197088 41.7978257,10.0580884 L40.3473439,10.9319736 L43.023984,11.3544711 C44.1799728,13.496452 43.8841094,15.5683182 43.023984,17.6120068 L38.5995186,20.4442808 L47.9563016,23.0795867 L47.8997274,24.9258138 L47.8997274,24.9258138 Z" id="Shape"></path>
        </g>
    </g>
</svg>