<svg xmlns="http://www.w3.org/2000/svg" viewBox="0 0 200 200"><defs><linearGradient id="linear-gradient" y1="200" x2="1" y2="200" gradientTransform="matrix(123.46 0 0 160.08 35.69 -31916.25)" gradientUnits="userSpaceOnUse"><stop offset="0"/><stop offset=".5"/><stop offset="1"/></linearGradient><style>.cls-1{fill:#000}</style></defs><g id="Layer_2" data-name="Layer 2"><g id="Layer_1-2" data-name="Layer 1"><path class="cls-1" d="M200 200H0V0h200zM5 196h191V4H5z"/><path class="cls-1" d="M191 192H9V7h182zm-179.95-2H189V9H11v181z"/><path d="M149.75 103.4a51.6 51.6 0 01-23.4 19.2l32.8 57.4H128.5l-46.29-80 23.74.2a25.39 25.39 0 0018.6-7.8 25.39 25.39 0 008-19 24.84 24.84 0 00-8-18.6A25.39 25.39 0 00106 47H52.62l-3-3-13.93-24H106a51.35 51.35 0 0137.6 15.6c10.4 10.6 15.6 23 15.6 37.6a50.56 50.56 0 01-9.45 30.2z" fill="url(#linear-gradient)"/></g></g></svg>