<?xml version="1.0" encoding="UTF-8"?>
<svg width="206px" height="158px" viewBox="0 0 206 158" version="1.1" xmlns="http://www.w3.org/2000/svg" xmlns:xlink="http://www.w3.org/1999/xlink">
    <!-- Generator: Sketch 57.1 (83088) - https://sketch.com -->
    <title>orange-canvas</title>
    <desc>Created with Sketch.</desc>
    <defs>
        <linearGradient x1="50.0229522%" y1="100.3616%" x2="50.0229522%" y2="0.123452249%" id="linearGradient-1">
            <stop stop-color="#5B90C9" offset="13%"></stop>
            <stop stop-color="#5B90C9" offset="36%"></stop>
            <stop stop-color="#445EA6" offset="95%"></stop>
        </linearGradient>
        <linearGradient x1="49.9970397%" y1="100.00322%" x2="49.9970397%" y2="-0.0258519102%" id="linearGradient-2">
            <stop stop-color="#5B90C9" offset="13%"></stop>
            <stop stop-color="#5B90C9" offset="63%"></stop>
            <stop stop-color="#445EA6" offset="100%"></stop>
        </linearGradient>
        <linearGradient x1="-0.00793969849%" y1="49.9944978%" x2="100.014975%" y2="49.9944978%" id="linearGradient-3">
            <stop stop-color="#1F368E" stop-opacity="0.08" offset="13%"></stop>
            <stop stop-color="#1F368E" stop-opacity="0" offset="84.86%"></stop>
            <stop stop-color="#1F368E" stop-opacity="0" offset="100%"></stop>
        </linearGradient>
        <linearGradient x1="50.0343284%" y1="-0.193976222%" x2="50.0343284%" y2="100.030897%" id="linearGradient-4">
            <stop stop-color="#EEEEEE" offset="13%"></stop>
            <stop stop-color="#D0E1F3" offset="95%"></stop>
        </linearGradient>
        <linearGradient x1="50.0027433%" y1="99.9594746%" x2="50.0027433%" y2="0.122064357%" id="linearGradient-5">
            <stop stop-color="#5B90C9" offset="2%"></stop>
            <stop stop-color="#5B90C9" offset="44%"></stop>
            <stop stop-color="#445EA6" offset="95%"></stop>
        </linearGradient>
        <linearGradient x1="49.9437418%" y1="100.159195%" x2="49.9437418%" y2="0.189171001%" id="linearGradient-6">
            <stop stop-color="#445EA6" offset="0%"></stop>
            <stop stop-color="#5B90C9" offset="13%"></stop>
            <stop stop-color="#5B90C9" offset="63%"></stop>
            <stop stop-color="#6882C1" offset="100%"></stop>
        </linearGradient>
        <linearGradient x1="49.8571387%" y1="100.033325%" x2="49.8571387%" y2="0.0351813837%" id="linearGradient-7">
            <stop stop-color="#445EA6" offset="0%"></stop>
            <stop stop-color="#5B90C9" offset="13%"></stop>
            <stop stop-color="#5B90C9" offset="63%"></stop>
            <stop stop-color="#6882C1" offset="100%"></stop>
        </linearGradient>
        <linearGradient x1="49.925%" y1="99.525%" x2="49.925%" y2="-0.143181818%" id="linearGradient-8">
            <stop stop-color="#445EA6" offset="0%"></stop>
            <stop stop-color="#5B90C9" offset="13%"></stop>
            <stop stop-color="#5B90C9" offset="63%"></stop>
            <stop stop-color="#6882C1" offset="100%"></stop>
        </linearGradient>
        <linearGradient x1="49.6140625%" y1="98.728125%" x2="49.6140625%" y2="0.0578125%" id="linearGradient-9">
            <stop stop-color="#445EA6" offset="0%"></stop>
            <stop stop-color="#5B90C9" offset="13%"></stop>
            <stop stop-color="#5B90C9" offset="63%"></stop>
            <stop stop-color="#6882C1" offset="100%"></stop>
        </linearGradient>
    </defs>
    <g id="Page-1" stroke="none" stroke-width="1" fill="none" fill-rule="evenodd">
        <g id="orange-canvas">
            <path d="M15.5122061,151 C13.2986054,151 11.7626375,150.674419 10.9494781,150.069767 C10.3170207,149.55814 10.000792,148.767442 10.000792,147.837209 C9.95561652,145.465116 11.8529886,142.348837 13.1179033,141.139535 C14.0214138,140.348837 14.1569404,137.418605 14.0214138,135.697674 C14.0214138,135.511628 14.0665893,135.325581 14.2021159,135.186047 C14.3376425,135.046512 14.5183446,135 14.6538711,135 L15.2863285,135 C15.331504,135 15.331504,135 15.4218551,135 C15.9187858,135.139535 16.5512432,135.186047 17.4095782,135.372093 C22.7402901,136.348837 32.8144322,138.116279 34.6666287,141.976744 C35.118384,142.953488 35.118384,143.930233 34.6214532,145 C34.6214532,145 34.6214532,145.046512 34.5762777,145.046512 C32.0012728,148.674419 21.4301999,151 15.5122061,151 L15.5122061,151 Z" id="Path" fill="#212752" fill-rule="nonzero"></path>
            <path d="M14.8883238,136 C14.8883238,136 15.2401828,140.443012 13.8327469,141.687055 C12.425311,142.931098 9.74238625,147.64069 11.6776106,149.240174 C14.6684119,151.41725 30.8099426,148.618153 33.6687968,144.619442 C36.5716333,138.932388 19.5504553,136.799742 15.4600946,136" id="Path" fill="url(#linearGradient-1)" fill-rule="nonzero"></path>
            <g id="Group" transform="translate(0.000000, 27.000000)" fill-rule="nonzero">
                <path d="M78.262203,129.821918 C76.2600432,129.821918 74.2578834,129.777397 72.300216,129.688356 C52.5455724,129.510274 36.3058315,118.914384 36.1278618,118.780822 C36.0833693,118.736301 34.9265659,117.979452 32.924406,116.510274 C32.6574514,116.465753 32.4794816,116.243151 32.2570194,116.020548 C28.2526998,115.441781 16.1507559,113.260274 10.9006479,105.558219 C8.49805616,102.041096 7.96414687,97.9006849 9.07645788,93.1815068 C8.32008639,91.6678082 3.91533477,82.4520548 1.73520518,70.4315068 C-0.533909287,58.2328767 -0.889848812,40.5582192 9.69935205,25.3767123 C17.0406048,14.9143836 27.362851,7.30136986 40.3991361,2.98287671 C46.5390929,1.15753425 53.1239741,0.22260274 60.0203024,0.22260274 C68.7853132,0.22260274 77.8617711,1.78082192 85.736933,4.63013699 C112.12095,14.1575342 123.911447,38.6438356 131.742117,54.8047945 C135.123542,61.8390411 137.837581,67.4041096 140.507127,69.1849315 C142.01987,69.8527397 143.532613,70.2089041 145.134341,70.2089041 C150.02851,70.2089041 153.988337,67.1369863 155.545572,65.7568493 C157.236285,62.9965753 153.899352,59.5684932 153.85486,59.4794521 C153.543413,59.1232877 147.314471,51.3321918 148.604752,41.1815068 C149.4946,34.2808219 153.543413,28.0924658 160.706695,22.6609589 C160.840173,22.6164384 160.97365,22.5273973 161.062635,22.5273973 C161.196112,22.5273973 161.32959,22.5719178 161.418575,22.6609589 C161.685529,22.8390411 161.730022,23.1506849 161.596544,23.4178082 C159.282937,28.5821918 165.689849,35.1267123 166.223758,35.6609589 C166.891145,36.1506849 173.698488,40.9143836 175.389201,45.9452055 C177.346868,45.1438356 179.482505,44.7431507 181.707127,44.7431507 C184.510151,44.7431507 186.957235,45.3664384 187.980562,45.6335616 C188.158531,45.6780822 188.292009,45.6780822 188.336501,45.7671233 C188.380994,45.7671233 188.469978,45.7671233 188.469978,45.8116438 C190.87257,47.0136986 193.275162,47.5479452 195.855724,47.5479452 C201.105832,47.5479452 204.932181,45.0547945 204.932181,45.0547945 C205.065659,45.010274 205.199136,44.9212329 205.288121,44.9212329 C205.421598,44.9212329 205.466091,44.9212329 205.599568,44.9657534 C205.777538,45.0993151 205.911015,45.2773973 205.911015,45.5445205 C205.911015,46.1232877 206.266955,59.9246575 198.747732,67.0479452 C191.584449,73.8150685 177.836285,74.5719178 174.988769,74.6164384 C174.054428,77.8664384 168.047948,97.7671233 154.789201,108.674658 C139.750756,121.09589 114.879482,125.503425 114.612527,125.503425 C114.790497,125.280822 96.9935205,129.821918 78.262203,129.821918 Z" id="Path" fill="#212752"></path>
                <path d="M9.83282937,93.0034247 C9.83282937,93.0034247 -10.0552916,54.6267123 10.3222462,25.6438356 C16.4177106,17.0068493 25.850108,8.45890411 40.7105832,3.51712329 C56.6833693,-1.29109589 73.8574514,0.890410959 85.6034557,5.07534247 C123.466523,18.7431507 131.163715,63.6643836 140.329158,69.5410959 C146.914039,72.4794521 153.053996,68.6506849 156.123974,65.890411 C158.170626,62.6849315 154.433261,58.8116438 154.433261,58.8116438 C154.433261,58.8116438 138.949892,39.6678082 161.196112,22.9280822 C158.571058,28.7157534 165.956803,35.9280822 165.956803,35.9280822 C165.956803,35.9280822 173.92095,41.4041096 175.033261,46.5684932 C180.861771,43.7636986 187.179698,45.9006849 188.336501,46.1232877 C197.412959,50.7089041 205.510583,45.3664384 205.510583,45.3664384 C205.510583,45.3664384 206,59.3458904 198.569762,66.380137 C190.87257,73.6369863 174.766307,73.7705479 174.766307,73.7705479 C174.766307,73.7705479 168.982289,96.0753425 154.700216,107.962329 C139.617279,120.472603 114.790497,124.657534 114.790497,124.657534 C114.790497,124.657534 93.2116631,130.133562 72.300216,128.976027 C52.5010799,128.797945 36.4393089,118.113014 36.4393089,118.113014 C36.4393089,118.113014 35.238013,117.311644 33.1913607,115.797945 C33.1468683,115.797945 32.8799136,115.664384 32.5239741,115.219178 C27.8522678,114.684932 5.20561555,110.811644 9.83282937,93.0034247 Z" id="Path" fill="url(#linearGradient-2)"></path>
                <path d="M148.827214,112.503425 C167.692009,101.150685 174.632829,75.3732877 175.077754,74.1712329 C175.122246,74.0376712 191.184017,74.0376712 198.88121,66.7808219 C206.266955,59.7465753 205.510583,46.0787671 205.510583,46.0787671 C205.510583,46.0787671 203.063499,56.8527397 196.256156,63.8424658 C190.605616,69.3184932 184.465659,70.2534247 173.075594,71.5445205 C168.492873,84.2773973 165.422894,98.880137 145.757235,114.195205" id="Path" fill="#222752" opacity="0.1"></path>
            </g>
            <path d="M84.3256281,32 C84.3256281,32 91.0788945,37.9822747 97.3849246,51.2319055 C97.8768844,52.4726736 102.483417,60.6706056 104.361809,68.1595273 C104.853769,73.9645495 103.467337,80.5228951 103.422613,84.3338257 C103.154271,101.084195 106.687437,104.806499 106.687437,104.806499 C106.687437,104.806499 109.81809,114.909897 105.61407,123.107829 C99.0396985,132.413589 82,135.293944 82,135.293944 C82,135.293944 88.2165829,137.288035 93.359799,140.212703 C96.7140704,142.029542 98.9502513,144.200886 103.735678,144.644018 C112.233166,145.751846 108.20804,151.335303 111.025628,152 C123.190452,149.872969 131.374874,146.549483 143.360804,141.807976 C156.330653,132.502216 164.20201,123.462334 171,103.654357 C167.466834,99.267356 156.151759,93.6838996 154.675879,93.9054653 C151.321608,96.3870015 146.312563,98.4697194 140.990452,96.6971935 C138.798995,95.633678 137.188945,93.1521418 135.713065,90.8478582 C131.866834,84.5997046 127.796985,72.3249631 115.98995,55.6632201 C100.828643,35.5450517 84.3256281,32 84.3256281,32 Z" id="Path" fill="url(#linearGradient-3)" fill-rule="nonzero"></path>
            <path d="M78.594258,158 C74.082507,158 69.7047684,157.732252 65.8184086,157.330629 C45.85056,155.501014 31.3325493,143.809331 31.1985369,143.675456 C31.0198537,143.496957 30.9305121,143.184584 31.0645245,143.006085 C31.1985369,142.738337 31.3772201,142.649087 31.6452449,142.649087 L31.6899157,142.649087 C32.4939902,142.693712 33.3427354,142.827586 34.1914806,142.916836 C38.3458653,143.363083 43.0809703,143.853955 48.4861374,143.853955 C60.0558751,143.853955 70.687526,141.533469 81.1404938,136.669371 C82.2572638,136.223124 83.4187047,136 84.7141579,136 C88.2431513,136 91.9954987,137.69574 95.9712001,139.436105 C98.696119,140.640974 101.376367,141.845842 104.101286,142.515213 C106.513509,142.559838 112.410055,144.032454 118.21726,145.415822 C123.399073,146.665314 128.670227,147.914807 130.367718,147.914807 C130.680413,147.914807 130.948438,148.182556 130.993109,148.40568 C131.03778,148.718053 130.859097,149.030426 130.635743,149.075051 C123.533085,151.395538 116.921806,152.957404 113.392813,153.849899 C112.14203,154.162272 111.069931,154.43002 110.891248,154.474645 C109.059745,155.144016 94.0503556,158 78.594258,158 Z" id="Path" fill="#212752" fill-rule="nonzero"></path>
            <path d="M32,143.408334 C42.8593397,144.436906 60.2342831,147.094049 81.3767526,137.622619 C87.7593849,135.008333 95.9149706,141.351191 103.848937,143.279763 C108.148349,143.279763 126.454093,148.551192 130,148.465478 C119.894166,151.679764 110.852103,153.436907 110.275893,153.651193 C108.591588,154.29405 85.9864315,158.66548 65.9520579,156.308336 C46.804161,154.636908 32.5762099,143.879763 32,143.408334 Z" id="Path" fill="url(#linearGradient-4)" fill-rule="nonzero"></path>
            <path d="M128,132 C129.810345,134.108108 134.336207,142.320946 136.060345,144.560811 L136.232759,145 C136.793103,144.736486 137.267241,144.560811 138,144.253378 C138,144.209459 137.827586,143.989865 137.827586,143.945946 C136.706897,141.925676 134.982759,137.226351 128,132 Z" id="Path" fill="#222752" fill-rule="nonzero" opacity="0.15"></path>
            <path d="M131.267578,150 C126.49187,150 120.03582,148.808824 116.586698,148.191176 C115.967624,148.058824 115.392771,147.926471 114.950575,147.882353 C112.076307,147.397059 106.416208,145.102941 104.38211,143.294118 C104.337891,143.294118 104.337891,143.25 104.337891,143.161765 C102.348012,140.470588 102.922866,136.058824 103.851476,134.647059 C104.603208,133.544118 112.385843,129 119.991601,129 C123.086967,129 125.828577,129.75 128.083773,131.294118 L128.127992,131.338235 C130.692724,133.720588 132.196188,136.323529 133.920749,139.367647 C134.982018,141.220588 136.087506,143.161765 137.590969,145.279412 C137.590969,145.323529 137.635189,145.323529 137.635189,145.411765 C138.121604,146.514706 138.121604,147.441176 137.635189,148.191176 C136.750799,149.382353 134.672481,150 131.267578,150 Z" id="Path" fill="#212752" fill-rule="nonzero"></path>
            <path d="M103.757684,134.445986 C104.648748,133.108009 118.549345,125.258542 127.281772,131.190241 C131.380666,134.981177 132.761815,139.4857 136.682496,145.149804 C139.756667,152.062687 119.618622,147.73656 114.584111,146.844575 C111.688153,146.353984 106.163556,144.079422 104.247769,142.384651 C102.465641,139.976292 102.86662,135.783963 103.757684,134.445986 Z" id="Path" fill="url(#linearGradient-5)" fill-rule="nonzero"></path>
            <g id="Group" transform="translate(63.000000, 103.000000)" fill-rule="nonzero">
                <ellipse id="Oval" fill="#040000" cx="8.63421053" cy="9.04285714" rx="8.32105263" ry="8.82857143"></ellipse>
                <ellipse id="Oval" fill="#FFFFFF" cx="10.1552632" cy="6.04285714" rx="2.72894737" ry="2.91428571"></ellipse>
            </g>
            <path d="M45.07536,141 C44.6335522,141 44.280106,140.955497 43.9708405,140.82199 C39.1993164,138.997382 36.3275657,129.028796 36.0183003,127.91623 C35.9741195,127.73822 36.0183003,127.560209 36.0624811,127.426702 C36.1950234,127.293194 36.3275657,127.159686 36.5042888,127.159686 C36.5042888,127.159686 36.5484696,127.159686 36.6368312,127.159686 C36.681012,127.159686 36.8135543,127.159686 36.9902774,127.204188 C37.2553621,127.248691 37.6088083,127.248691 38.0506161,127.248691 C38.669147,127.248691 39.2876779,127.115183 39.7736665,126.937173 C40.7014629,126.581152 40.9665475,125.513089 41.0990899,124.890052 C41.1432706,124.623037 41.1432706,124.534031 41.275813,124.311518 L41.3199938,124.267016 C41.4525361,124.089005 41.6292592,124 41.8059823,124 C42.071067,124 42.2477901,124.133508 42.3803325,124.311518 C42.5128748,124.489529 43.4848519,126.180628 45.3846254,126.937173 C45.7380717,127.070681 46.1356987,127.204188 46.4449641,127.204188 C47.5053028,127.204188 48.1680145,126.625654 48.3005568,126.581152 C48.47728,126.447644 48.6098223,126.403141 48.7423646,126.269634 C48.7865454,126.269634 48.7865454,126.269634 48.874907,126.269634 C49.1399916,126.314136 49.3608955,126.536649 49.3608955,126.759162 C49.5376187,127.782723 51.3490306,136.683246 47.9471106,139.97644 C47.1960374,140.554974 46.0915179,141 45.07536,141 Z" id="Path" fill="#212752" fill-rule="nonzero"></path>
            <path d="M37,127.207608 C37.0453688,127.478674 40.0850784,138.095405 44.8034337,139.857331 C45.8469161,140.218752 47.2987177,139.857331 48.0699873,139.179667 C51.4726473,135.881704 49.3403137,126.394412 49.3403137,126.258879 L49.3403137,126.258879 C49.2949449,126.304057 47.8885121,127.840094 45.7108097,126.936543 C43.6238449,126.123346 42.4442561,124.18071 42.3081497,124 L42.3081497,124 C42.1266744,124.316243 42.1266744,126.304057 40.5387664,126.936543 C38.9054896,127.614206 37.2722128,127.207608 37,127.207608 Z" id="Path" fill="#DA6A7F" fill-rule="nonzero"></path>
            <path d="M49.895671,124.656785 C49.8502663,124.612007 49.8048615,124.612007 49.7594567,124.612007 C49.5778376,124.612007 49.4416232,124.746341 49.3054089,124.880675 C49.2600041,124.925453 47.7162416,126.224015 46.6265269,126.224015 C46.2632887,126.224015 45.9454553,126.179237 45.5368122,125.955347 C43.6298115,125.194121 42.5855016,123.492558 42.4492873,123.313446 C42.3130729,123.134334 42.1314538,123 41.8590251,123 C41.677406,123 41.4957869,123.044778 41.3595726,123.268668 L41.3141678,123.313446 C41.268763,123.44778 41.1779535,123.626892 41.1325487,123.89556 C40.9963343,124.522451 40.7693105,125.597123 39.7704053,125.955347 C39.2709527,126.134459 38.6806906,126.268793 37.9996189,126.268793 C37.5455711,126.268793 37.1823329,126.224015 36.9099042,126.224015 C36.7282851,126.224015 36.2742373,126.179237 35.7747848,126.044903 C35.6839752,126.000125 35.6385704,126.000125 35.5931656,126.000125 C35.3661417,125.910569 35.1391178,125.865791 35.0029035,126.179237 C34.9574987,126.671795 35.4569513,126.716573 35.6385704,126.76135 C36.2742373,126.940462 38.4082619,127.253908 39.9066196,126.627017 C41.4957869,126.000125 41.5865965,124.029894 41.677406,123.716448 L41.677406,123.716448 C41.8136204,123.89556 42.9033351,125.776235 45.0827645,126.627017 C47.3075986,127.522576 49.3054089,125.821013 49.3508137,125.731457 C49.487028,125.597123 49.6232424,125.462789 49.7140519,125.373233 C49.9410758,125.059787 50.1226949,124.835897 49.895671,124.656785 Z" id="Path" fill="#212752" fill-rule="nonzero"></path>
            <path d="M50,132.859358 C49.8642534,134.954379 49.3665158,136.918461 48.0995475,138.140557 C47.3303167,138.882543 45.7918552,139.188067 44.7963801,138.882543 C42.8959276,138.227849 41.3122172,136.132828 40,133.819576 L40,133.819576 C41.2669683,132.815712 43.1221719,132.161017 45.2488688,132.030079 C46.9683258,131.89914 48.5520362,132.204664 49.8190045,132.772065 C49.9095023,132.772065 49.9547511,132.859358 50,132.859358 Z" id="Path" fill="#E88899" fill-rule="nonzero"></path>
            <g id="Group" transform="translate(9.000000, 111.000000)" fill="#000000" fill-rule="nonzero">
                <path d="M15.8926829,5.95833333 C9.57073171,3.94166667 8.64878049,3.89583333 1.8,3.575 C1.0097561,3.4375 0.482926829,2.6125 0.614634146,1.7875 L0.614634146,1.7875 C0.746341463,0.870833333 1.49268293,0.320833333 2.28292683,0.4125 C6.67317073,0.0458333333 12.8634146,1.32916667 16.3756098,2.79583333 C17.1658537,2.93333333 17.6926829,3.75833333 17.5609756,4.58333333 L17.5609756,4.58333333 C17.4292683,5.5 16.6829268,6.05 15.8926829,5.95833333 Z" id="Path" opacity="0.9"></path>
                <path d="M16.5512195,5.86666667 C9.70243902,7.24166667 8.7804878,7.5625 2.06341463,10.6333333 C1.27317073,10.9083333 0.395121951,10.45 0.131707317,9.57916667 L0.131707317,9.57916667 C-0.131707317,8.75416667 0.307317073,7.8375 1.14146341,7.5625 C5.09268293,5.0875 11.5902439,3.1625 15.6292683,2.79583333 C16.4195122,2.52083333 17.297561,2.97916667 17.5609756,3.85 L17.5609756,3.85 C17.8243902,4.72083333 17.3853659,5.6375 16.5512195,5.86666667 Z" id="Path"></path>
            </g>
            <path d="M39.417575,39.1299157 C26.9129509,44.4896069 17.8917579,54.3005671 13.0685457,65.4287395 C12.4433145,66.3371617 11.2375115,66.064635 10.4783022,65.2924761 L10.4783022,65.2924761 C9.71909285,64.5203172 9.98704908,63.7481583 10.4336428,62.6580517 C16.7306142,49.5313503 24.635323,42.491078 36.782672,36.3592279 C37.8544969,35.8595957 38.6583656,35.8595957 39.3729156,36.4954913 L39.3729156,36.4954913 C40.1321249,37.2676502 40.266103,38.6302835 39.417575,39.1299157 Z" id="Path" fill="#75A1D0" fill-rule="nonzero"></path>
            <path d="M9.88545675,78.1274026 C8.57757747,80.5115681 7.92363783,83.0660312 7.83021789,85.6630686 C7.78350791,86.812577 6.52233861,87.1531721 5.4480092,86.9403002 L5.4480092,86.9403002 C4.37367979,86.6848539 4,85.6630686 4,84.8541553 C4,82.3422666 4.60722966,79.8729523 6.05523887,77.3184893 C6.52233861,76.4670016 7.36311814,75.8283858 8.43744755,76.0412577 L8.43744755,76.0412577 C9.51177696,76.2541297 10.3058465,77.2333405 9.88545675,78.1274026 Z" id="Path" fill="#82AFD1" fill-rule="nonzero"></path>
            <g id="Group" transform="translate(40.000000, 0.000000)">
                <path d="M17.3913043,21.6964286 C16.7391304,21.6964286 16.6086957,21.3839286 16.4782609,21.1607143 C16.4782609,21.1160714 16.4347826,21.1160714 16.4347826,21.0714286 C16.4347826,21.0714286 16.4347826,21.0267857 16.3913043,21.0267857 C16.1304348,20.2678571 16.3913043,15.625 18.5652174,12.4107143 C19.8695652,10.4910714 21.6521739,9.50892857 23.7391304,9.50892857 C24.3043478,9.50892857 24.9565217,9.59821429 25.5652174,9.73214286 C28.826087,10.3125 30.1304348,12.8571429 29.9565217,15 C29.826087,16.8303571 28.5217391,18.6607143 26,18.6607143 L24.5217391,18.6607143 C23.0869565,18.6607143 21.5652174,18.7053571 20.6086957,19.1517857 C19.6086957,19.6428571 19.0869565,20.2678571 18.6521739,20.7589286 C18.3043478,21.1607143 18.0434783,21.5178571 17.6086957,21.6517857 C17.5652174,21.6964286 17.4782609,21.6964286 17.3913043,21.6964286 Z" id="Path" fill="#328EB2"></path>
                <path d="M16.6521739,20.9375 C16.2173913,19.7321429 17.3478261,7.94642857 25.6086957,9.91071429 C31.3478261,10.9375 31,18.3928571 26.0869565,18.4375 C24.0434783,18.4375 21.9130435,18.3482143 20.6086957,18.9285714 C18.7826087,19.7767857 18.4782609,21.1607143 17.6086957,21.4285714 C16.826087,21.5625 16.7826087,21.1607143 16.6521739,20.9375 Z" id="Path" fill="url(#linearGradient-6)"></path>
                <path d="M14.6956522,19.3303571 C14.6521739,19.3303571 14.6086957,19.3303571 14.6086957,19.3303571 C14.4782609,19.2857143 14.3913043,19.1071429 14.2173913,18.75 C13.826087,17.8125 13,15.8482143 10.7391304,15.8482143 C10.7391304,15.8482143 10.4347826,15.8482143 10.3043478,15.8482143 C8.7826087,15.8482143 8,15.9821429 7.30434783,16.1160714 C6.73913043,16.2053571 6.2173913,16.3392857 5.39130435,16.3392857 L5.2173913,16.3392857 C4.13043478,16.3392857 0.217391304,14.9553571 0.0434782609,10.625 C0.52173913,6.02678571 3.91304348,5.53571429 5.2173913,5.40178571 C5.73913043,5.35714286 6.2173913,5.3125 6.69565217,5.3125 C9.2173913,5.3125 10.9565217,6.16071429 12.826087,7.45535714 C16.1304348,10.5357143 15.4347826,17.4107143 15.3913043,17.6785714 C15.1304348,19.3303571 14.826087,19.3303571 14.6956522,19.3303571 C14.6956522,19.3303571 14.6956522,19.3303571 14.6956522,19.3303571 Z" id="Path" fill="#328EB2"></path>
                <path d="M15.173913,17.5892857 C15.173913,17.5892857 15.9130435,10.5803571 12.6956522,7.58928571 C10.3913043,5.98214286 8.43478261,5.22321429 5.2173913,5.58035714 C3.73913043,5.75892857 0.695652174,6.29464286 0.260869565,10.5803571 C0.434782609,14.7767857 4.17391304,16.0714286 5.2173913,16.0714286 C7.2173913,16.1160714 7.47826087,15.5357143 10.6956522,15.5803571 C13.826087,15.5357143 14.3913043,19.0178571 14.6521739,19.1071429 C14.9130435,19.1964286 15.173913,17.5892857 15.173913,17.5892857 Z" id="Path" fill="url(#linearGradient-7)"></path>
                <path d="M21.826087,0.178571429 C22.8695652,0.178571429 23.7391304,1.07142857 23.7391304,2.14285714 C23.7391304,3.21428571 22.8695652,4.10714286 21.826087,4.10714286 C20.7826087,4.10714286 19.9130435,3.21428571 19.9130435,2.14285714 C19.9130435,1.07142857 20.7826087,0.178571429 21.826087,0.178571429 Z" id="Path" fill="url(#linearGradient-8)"></path>
                <path d="M13.826087,22.0982143 C14.5652174,22.0982143 15.2173913,22.7232143 15.2173913,23.5267857 C15.2173913,24.2857143 14.6086957,24.9553571 13.826087,24.9553571 C13.0434783,24.9553571 12.4347826,24.3303571 12.4347826,23.5267857 C12.4347826,22.7232143 13.0434783,22.0982143 13.826087,22.0982143 Z" id="Path" fill="url(#linearGradient-9)"></path>
            </g>
        </g>
    </g>
</svg>