<?xml version="1.0" encoding="UTF-8" standalone="no"?>
<!-- Created with Inkscape (http://www.inkscape.org/) -->

<svg
   xmlns:dc="http://purl.org/dc/elements/1.1/"
   xmlns:cc="http://creativecommons.org/ns#"
   xmlns:rdf="http://www.w3.org/1999/02/22-rdf-syntax-ns#"
   xmlns:svg="http://www.w3.org/2000/svg"
   xmlns="http://www.w3.org/2000/svg"
   xmlns:sodipodi="http://sodipodi.sourceforge.net/DTD/sodipodi-0.dtd"
   xmlns:inkscape="http://www.inkscape.org/namespaces/inkscape"
   width="256"
   height="256"
   viewBox="0 0 67.733334 67.733334"
   version="1.1"
   id="svg8"
   inkscape:version=""
   sodipodi:docname="gem.svg"
   inkscape:export-filename="gem.png"
   inkscape:export-xdpi="96"
   inkscape:export-ydpi="96">
  <title
     id="title5141">Logo GEM</title>
  <defs
     id="defs2" />
  <sodipodi:namedview
     id="base"
     pagecolor="#ffffff"
     bordercolor="#666666"
     borderopacity="1.0"
     inkscape:pageopacity="0.0"
     inkscape:pageshadow="2"
     inkscape:zoom="2.8284271"
     inkscape:cx="210.48543"
     inkscape:cy="153.79594"
     inkscape:document-units="px"
     inkscape:current-layer="layer3"
     showgrid="true"
     fit-margin-top="0"
     fit-margin-left="0"
     fit-margin-right="0"
     fit-margin-bottom="0"
     units="px"
     showguides="false">
    <inkscape:grid
       type="xygrid"
       id="grid1011"
       enabled="false" />
  </sodipodi:namedview>
  <metadata
     id="metadata5">
    <rdf:RDF>
      <cc:Work
         rdf:about="">
        <dc:format>image/svg+xml</dc:format>
        <dc:type
           rdf:resource="http://purl.org/dc/dcmitype/StillImage" />
        <dc:title>Logo GEM</dc:title>
        <dc:date>2019-02-27</dc:date>
        <dc:creator>
          <cc:Agent>
            <dc:title>PacMiam</dc:title>
          </cc:Agent>
        </dc:creator>
        <dc:rights>
          <cc:Agent>
            <dc:title>License Art Libre</dc:title>
          </cc:Agent>
        </dc:rights>
        <cc:license
           rdf:resource="http://artlibre.org/licence/lal" />
      </cc:Work>
      <cc:License
         rdf:about="http://artlibre.org/licence/lal">
        <cc:permits
           rdf:resource="http://creativecommons.org/ns#Reproduction" />
        <cc:permits
           rdf:resource="http://creativecommons.org/ns#Distribution" />
        <cc:permits
           rdf:resource="http://creativecommons.org/ns#DerivativeWorks" />
        <cc:requires
           rdf:resource="http://creativecommons.org/ns#ShareAlike" />
        <cc:requires
           rdf:resource="http://creativecommons.org/ns#Notice" />
        <cc:requires
           rdf:resource="http://creativecommons.org/ns#Attribution" />
      </cc:License>
    </rdf:RDF>
  </metadata>
  <g
     inkscape:groupmode="layer"
     id="layer3"
     inkscape:label="furniture"
     transform="translate(0,59.266668)">
    <rect
       style="opacity:1;fill:#895a43;fill-opacity:1;fill-rule:evenodd;stroke:none;stroke-width:3.17499995;stroke-linecap:round;stroke-linejoin:round;stroke-miterlimit:4;stroke-dasharray:none;stroke-opacity:1"
       id="rect4948"
       width="10.583333"
       height="10.583333"
       x="2.1166666"
       y="-6.3500071" />
    <rect
       style="opacity:1;fill:#765240;fill-opacity:1;fill-rule:evenodd;stroke:none;stroke-width:3.17499995;stroke-linecap:round;stroke-linejoin:round;stroke-miterlimit:4;stroke-dasharray:none;stroke-opacity:1"
       id="rect4950"
       width="10.583333"
       height="2.1166666"
       x="2.1166666"
       y="-8.4666719" />
    <path
       style="opacity:1;fill:#6e442e;fill-opacity:1;fill-rule:evenodd;stroke:none;stroke-width:3.17499995;stroke-linecap:round;stroke-linejoin:round;stroke-miterlimit:4;stroke-dasharray:none;stroke-opacity:1"
       d="M 0,-10.583336 V -8.46667 6.3499969 H 2.1166666 12.699999 14.816666 V -8.46667 h 2.116667 v -2.116666 z M 2.1166666,-8.46667 H 12.699999 V 4.2333302 H 2.1166666 Z"
       id="rect4952"
       inkscape:connector-curvature="0" />
    <path
       style="opacity:1;fill:#1a1a1a;fill-opacity:1;fill-rule:evenodd;stroke:none;stroke-width:3.17499995;stroke-linecap:round;stroke-linejoin:round;stroke-miterlimit:4;stroke-dasharray:none;stroke-opacity:1"
       d="m 8.4666667,-42.333337 v 2.116666 h 2.1166663 v -2.116666 z m 0,2.116666 H 6.35 v 2.116667 H 8.4666667 Z M 6.35,-38.100004 H 4.2333333 v 2.116667 H 6.35 Z m -2.1166667,2.116667 H 2.1166666 V -14.81667 H 4.2333333 6.35 v 2.116666 H 2.1166666 v 2.116668 H 12.699999 v -2.116668 H 8.4666667 v -2.116666 -2.116667 H 4.2333333 Z"
       id="rect4961"
       inkscape:connector-curvature="0" />
    <rect
       style="opacity:1;fill:#e2e2e2;fill-opacity:1;fill-rule:evenodd;stroke:none;stroke-width:3.17499995;stroke-linecap:round;stroke-linejoin:round;stroke-miterlimit:4;stroke-dasharray:none;stroke-opacity:1"
       id="rect4976"
       width="2.1166666"
       height="27.516666"
       x="10.583333"
       y="-42.33334" />
    <rect
       style="opacity:1;fill:#333333;fill-opacity:1;fill-rule:evenodd;stroke:none;stroke-width:3.17499995;stroke-linecap:round;stroke-linejoin:round;stroke-miterlimit:4;stroke-dasharray:none;stroke-opacity:1"
       id="rect4978"
       width="2.1166666"
       height="25.4"
       x="8.4666662"
       y="-40.216675" />
    <path
       style="opacity:1;fill:#262626;fill-opacity:1;fill-rule:evenodd;stroke:none;stroke-width:3.17499995;stroke-linecap:round;stroke-linejoin:round;stroke-miterlimit:4;stroke-dasharray:none;stroke-opacity:1"
       d="m 6.35,-38.100004 v 2.116667 H 4.2333333 v 19.05 H 6.35 8.4666667 v -21.166667 z"
       id="rect4980"
       inkscape:connector-curvature="0" />
    <rect
       style="opacity:1;fill:#e65c5c;fill-opacity:1;fill-rule:evenodd;stroke:none;stroke-width:3.17499995;stroke-linecap:round;stroke-linejoin:round;stroke-miterlimit:4;stroke-dasharray:none;stroke-opacity:1"
       id="rect4985"
       width="2.1166666"
       height="2.1166666"
       x="14.816667"
       y="-8.5533711e-06" />
    <path
       style="opacity:1;fill:#cccccc;fill-opacity:1;fill-rule:evenodd;stroke:none;stroke-width:3.17499995;stroke-linecap:round;stroke-linejoin:round;stroke-miterlimit:4;stroke-dasharray:none;stroke-opacity:1"
       d="M 16.933333,-3.1875e-6 V 2.1166635 h 2.116666 V -3.1875e-6 Z m 4.233333,0 V 2.1166635 h 2.116667 V -3.1875e-6 Z"
       id="rect4987"
       inkscape:connector-curvature="0" />
    <rect
       style="opacity:1;fill:#1a1a1a;fill-opacity:1;fill-rule:evenodd;stroke:none;stroke-width:3.17499995;stroke-linecap:round;stroke-linejoin:round;stroke-miterlimit:4;stroke-dasharray:none;stroke-opacity:1"
       id="rect4991"
       width="2.1166666"
       height="6.3499999"
       x="19.049999"
       y="-8.5533711e-06" />
    <path
       style="opacity:1;fill:#333333;fill-opacity:1;fill-rule:evenodd;stroke:none;stroke-width:3.17499995;stroke-linecap:round;stroke-linejoin:round;stroke-miterlimit:4;stroke-dasharray:none;stroke-opacity:1"
       d="m 14.816666,4.2333302 v 2.1166667 h 4.233333 V 4.2333302 Z m 6.35,0 v 2.1166667 h 2.116667 V 4.2333302 Z"
       id="rect4993"
       inkscape:connector-curvature="0" />
    <path
       style="opacity:1;fill:#4d4d4d;fill-opacity:1;fill-rule:evenodd;stroke:none;stroke-width:3.17499995;stroke-linecap:round;stroke-linejoin:round;stroke-miterlimit:4;stroke-dasharray:none;stroke-opacity:1"
       d="m 14.816666,2.1166635 v 2.1166667 h 4.233333 V 2.1166635 Z m 6.35,0 v 2.1166667 h 2.116667 V 2.1166635 Z"
       id="rect4997"
       inkscape:connector-curvature="0" />
  </g>
  <g
     inkscape:groupmode="layer"
     id="layer5"
     inkscape:label="body"
     transform="translate(0,59.266668)">
    <path
       style="opacity:1;fill:#1a1a1a;fill-opacity:1;fill-rule:evenodd;stroke:none;stroke-width:3.17500019;stroke-linecap:round;stroke-linejoin:round;stroke-miterlimit:4;stroke-dasharray:none;stroke-opacity:1"
       d="m 44.450001,-21.166669 v 2.116667 h 10.583334 v -2.116667 z m 10.583334,2.116667 v 4.233333 h 2.116667 v -4.233333 z m 2.116667,4.233333 v 6.3500008 h 2.116667 v -6.3500008 z m 2.116667,6.3500008 V -9.875e-7 h 2.116667 V -2.1166678 h 2.116666 v -2.1166668 h -2.116666 v -4.2333336 z m 4.233333,6.3500004 v 4.2333335 h 2.116667 v -4.2333335 z m 0,4.2333335 h -4.233333 v 2.1166668 h 4.233333 z M 59.266669,4.2333325 H 44.450001 42.333335 v 2.1166668 h 16.933334 z m -16.933334,0 V 2.1166657 H 40.216668 V 4.2333325 Z M 40.216668,2.1166657 V -9.875e-7 -8.4666682 H 38.100001 V -9.875e-7 2.1166657 Z m 0,-10.5833339 h 2.116667 v -6.3500008 h -2.116667 z m 2.116667,-6.3500008 h 2.116666 v -4.233333 h -2.116666 z"
       id="rect5061"
       inkscape:connector-curvature="0" />
    <path
       style="opacity:1;fill:#333333;fill-opacity:1;fill-rule:evenodd;stroke:none;stroke-width:3.17499995;stroke-linecap:round;stroke-linejoin:round;stroke-miterlimit:4;stroke-dasharray:none;stroke-opacity:1"
       d="m 44.45,-19.050004 v 4.233334 h -2.116667 v 6.35 H 40.216666 V -3.1875e-6 h 2.116667 V 2.1166635 H 44.45 V 4.2333302 H 55.033333 57.15 59.266667 V 2.1166635 H 63.5 V -3.1875e-6 -2.1166699 H 61.383333 V -3.1875e-6 H 59.266667 V -8.46667 H 57.15 v -6.35 h -2.116667 v -4.233334 z"
       id="rect5088"
       inkscape:connector-curvature="0" />
    <path
       style="opacity:1;fill:#e2e2e2;fill-opacity:1;fill-rule:evenodd;stroke:none;stroke-width:3.17499995;stroke-linecap:round;stroke-linejoin:round;stroke-miterlimit:4;stroke-dasharray:none;stroke-opacity:1"
       d="m 44.45,-19.050004 v 4.233334 h -2.116667 v 6.35 H 40.216666 V -3.1875e-6 l 2e-6,2.1166687875 2.116665,-2.1e-6 2e-6,2.1166688 2.116665,-2.1e-6 h 2.116666 2.116667 V 2.1166635 H 50.8 V -10.583336 h -2.116667 v -4.233334 h -2.116667 v -4.233334 z"
       id="rect5103"
       inkscape:connector-curvature="0"
       sodipodi:nodetypes="cccccccccccccccccccc" />
  </g>
  <g
     inkscape:groupmode="layer"
     id="layer6"
     inkscape:label="legs"
     style="display:inline"
     transform="translate(0,59.266668)">
    <path
       style="opacity:1;fill:#e69d5c;fill-opacity:1;fill-rule:evenodd;stroke:none;stroke-width:3.17499995;stroke-linecap:round;stroke-linejoin:round;stroke-miterlimit:4;stroke-dasharray:none;stroke-opacity:1"
       d="m 33.866666,-4.2333366 v 2.1166667 H 38.1 V -4.2333366 Z M 38.1,-2.1166699 V -3.1875e-6 h 2.116666 V -2.1166699 Z M 40.216666,-3.1875e-6 V 2.1166635 h 2.116667 V -3.1875e-6 Z M 42.333333,2.1166635 V 4.2333302 H 44.45 V 2.1166635 Z m 0,2.1166667 h -6.35 v 2.1166667 h 6.35 z m -6.35,0 V 2.1166635 H 33.866666 V 4.2333302 Z M 33.866666,2.1166635 V -2.1166699 H 31.75 v 4.2333334 z"
       id="rect5115"
       inkscape:connector-curvature="0" />
    <path
       style="opacity:1;fill:#ffaf66;fill-opacity:1;fill-rule:evenodd;stroke:none;stroke-width:3.17499995;stroke-linecap:round;stroke-linejoin:round;stroke-miterlimit:4;stroke-dasharray:none;stroke-opacity:1"
       d="m 33.866666,-2.1166699 v 4.2333334 h 2.116667 v 2.1166667 h 4.233333 2.116667 V 2.1166635 H 40.216666 V -3.1875e-6 H 38.1 V -2.1166699 Z"
       id="rect5130"
       inkscape:connector-curvature="0" />
  </g>
  <g
     inkscape:groupmode="layer"
     id="layer4"
     inkscape:label="arms"
     style="display:inline"
     transform="translate(0,59.266668)">
    <rect
       style="opacity:1;fill:#666666;fill-opacity:1;fill-rule:evenodd;stroke:none;stroke-width:3.17499995;stroke-linecap:round;stroke-linejoin:round;stroke-miterlimit:4;stroke-dasharray:none;stroke-opacity:1"
       id="rect5058"
       width="6.3499999"
       height="6.3499999"
       x="29.633333"
       y="-12.700006" />
    <path
       style="opacity:1;fill:#1a1a1a;fill-opacity:1;fill-rule:evenodd;stroke:none;stroke-width:3.17499995;stroke-linecap:round;stroke-linejoin:round;stroke-miterlimit:4;stroke-dasharray:none;stroke-opacity:1"
       d="m 46.566666,-16.933337 v 6.350001 H 44.45 v 2.116666 h 2.116666 2.116667 v -8.466667 z M 44.45,-10.583336 v -2.116668 h -2.116667 v 2.116668 z m -2.116667,-2.116668 V -14.81667 H 38.1 v 2.116666 z m -4.233333,0 h -2.116667 v 2.116668 h -2.116667 v 2.116666 2.1166667 h 2.116667 V -8.46667 H 38.1 40.216666 v -2.116666 H 38.1 Z m -2.116667,6.3500007 v 2.1166667 h 6.35 v -2.1166667 z m 6.35,2.1166667 v 2.1166667 H 50.8 v -2.1166667 z m 8.466667,0 h 2.116667 V -6.3500033 H 50.8 Z m 2.116667,-2.1166667 h 2.116666 V -14.81667 h -2.116666 z"
       id="rect5005"
       inkscape:connector-curvature="0" />
    <path
       style="opacity:1;fill:#333333;fill-opacity:1;fill-rule:evenodd;stroke:none;stroke-width:3.17499995;stroke-linecap:round;stroke-linejoin:round;stroke-miterlimit:4;stroke-dasharray:none;stroke-opacity:1"
       d="M 48.683333,-16.933337 V -8.46667 H 44.45 v -2.116666 h -2.116667 v -2.116668 H 38.1 v 2.116668 h 2.116666 v 2.116666 h -4.233333 v 2.1166667 h 6.35 v 2.1166667 H 50.8 v -2.1166667 h 2.116667 V -8.46667 -16.933337 Z"
       id="rect5028"
       inkscape:connector-curvature="0" />
    <rect
       style="opacity:1;fill:#262626;fill-opacity:1;fill-rule:evenodd;stroke:none;stroke-width:3.17499995;stroke-linecap:round;stroke-linejoin:round;stroke-miterlimit:4;stroke-dasharray:none;stroke-opacity:1"
       id="rect5039"
       width="4.2333331"
       height="2.1166666"
       x="33.866665"
       y="-14.816674" />
    <path
       style="opacity:1;fill:#999999;fill-opacity:1;fill-rule:evenodd;stroke:none;stroke-width:3.17499995;stroke-linecap:round;stroke-linejoin:round;stroke-miterlimit:4;stroke-dasharray:none;stroke-opacity:1"
       d="m 31.75,-10.583336 v 2.116666 h 2.116666 v -2.116666 z"
       id="rect5045"
       inkscape:connector-curvature="0" />
    <path
       style="opacity:1;fill:#262626;fill-opacity:1;fill-rule:evenodd;stroke:none;stroke-width:3.17499995;stroke-linecap:round;stroke-linejoin:round;stroke-miterlimit:4;stroke-dasharray:none;stroke-opacity:1"
       d="m 27.516666,-10.583336 v 2.116666 l 2.116667,-4.2e-6 v -2.1166668 z m 0,2.116666 h -2.116667 v 4.2333334 h 2.116667 z m 0,4.2333334 v 6.3500001 h 2.116667 v -6.3500001 z m 0,6.3500001 h -6.35 v 2.1166667 h 6.35 z"
       id="rect5047"
       inkscape:connector-curvature="0"
       sodipodi:nodetypes="cccccccccccccccccccc" />
    <path
       inkscape:connector-curvature="0"
       id="path5137"
       d="m 29.633333,-10.58334 v 2.1166669 H 31.75 V -10.58334 Z"
       style="opacity:1;fill:#333333;fill-opacity:1;fill-rule:evenodd;stroke:none;stroke-width:3.17499995;stroke-linecap:round;stroke-linejoin:round;stroke-miterlimit:4;stroke-dasharray:none;stroke-opacity:1" />
  </g>
  <g
     inkscape:groupmode="layer"
     id="layer2"
     inkscape:label="head"
     style="display:inline"
     transform="translate(0,59.266668)">
    <path
       style="opacity:1;fill:#1a1a1a;fill-opacity:1;fill-rule:evenodd;stroke:none;stroke-width:3.17499995;stroke-linecap:round;stroke-linejoin:round;stroke-miterlimit:4;stroke-dasharray:none;stroke-opacity:1"
       d="m 42.333333,-52.916671 v 2.116667 H 44.45 46.566666 48.683333 50.8 v -2.116667 H 48.683333 46.566666 44.45 Z M 50.8,-50.800004 v 2.116667 h 2.116667 v -2.116667 z m 2.116667,2.116667 v 2.116666 h 2.116666 v -2.116666 z m 2.116666,2.116666 v 2.116667 2.116667 2.116666 H 57.15 v -2.116666 H 59.266667 61.383333 63.5 v -2.116667 H 61.383333 59.266667 57.15 v -2.116667 z M 63.5,-42.333337 v 2.116666 h 2.116667 v -2.116666 z m 2.116667,2.116666 v 2.116667 2.116667 H 63.5 v 2.116666 h 2.116667 v 2.116667 h 2.116666 v -2.116667 -2.116666 -2.116667 -2.116667 z M 63.5,-35.983337 v -2.116667 h -2.116667 -2.116666 v 2.116667 H 57.15 v 2.116666 h 2.116667 v 2.116667 2.116667 2.116667 2.116666 h 2.116666 v -2.116666 -2.116667 -2.116667 -2.116667 -2.116666 z m -4.233333,10.583333 H 57.15 v 2.116667 h 2.116667 z M 57.15,-23.283337 h -2.116667 v 2.116667 H 57.15 Z m -2.116667,2.116667 h -2.116666 v 2.116666 h 2.116666 z m -12.7,-29.633334 h -2.116667 v 2.116667 h 2.116667 z m -2.116667,2.116667 H 38.1 v 2.116666 2.116667 H 40.216666 42.333333 44.45 v -2.116667 H 42.333333 40.216666 Z M 44.45,-44.450004 v 2.116667 h 2.116666 v -2.116667 z m 2.116666,2.116667 v 2.116666 h 2.116667 v -2.116666 z M 38.1,-44.450004 h -2.116667 -2.116667 v 2.116667 H 35.983333 38.1 Z m -4.233334,2.116667 H 31.75 v 2.116666 2.116667 2.116667 h 2.116666 2.116667 v -2.116667 h -2.116667 v -2.116667 z m 2.116667,4.233333 H 38.1 40.216666 v -2.116667 H 38.1 35.983333 Z m 4.233333,0 v 2.116667 H 38.1 v 2.116666 2.116667 2.116667 2.116667 2.116666 h 2.116666 v -2.116666 -2.116667 -2.116667 -2.116667 h 2.116667 v -2.116666 H 44.45 v -2.116667 h -2.116667 z m 0,12.7 v 2.116667 h 2.116667 v -2.116667 z m 2.116667,2.116667 v 2.116667 H 44.45 v -2.116667 z M 44.45,-21.16667 v 2.116666 h 2.116666 v -2.116666 z"
       id="rect1009"
       inkscape:connector-curvature="0" />
    <path
       style="opacity:1;fill:#333333;fill-opacity:1;fill-rule:evenodd;stroke:none;stroke-width:3.17499995;stroke-linecap:round;stroke-linejoin:round;stroke-miterlimit:4;stroke-dasharray:none;stroke-opacity:1"
       d="m 42.333333,-50.800004 v 2.116667 h -2.116667 v 2.116666 H 44.45 v 2.116667 h 2.116666 v 2.116667 h 2.116667 v 2.116666 h -2.116667 v -2.116666 H 44.45 v -2.116667 H 38.1 v 2.116667 h -4.233334 v 2.116666 2.116667 h 2.116667 v -2.116667 h 4.233333 v 2.116667 H 44.45 v 2.116667 h -2.116667 v 2.116666 h -2.116667 v 4.233334 h 2.116667 v 6.35 H 44.45 v 2.116667 h 2.116666 v 2.116666 h 6.350001 v -2.116666 h 2.116666 v -2.116667 H 57.15 v -2.116667 h 2.116667 v -8.466667 H 57.15 v -2.116666 h 2.116667 v -2.116667 H 63.5 v 2.116667 h 2.116667 v -4.233334 H 63.5 v -2.116666 h -6.35 v 2.116666 h -2.116667 v -6.35 h -2.116666 v -2.116666 H 50.8 v -2.116667 z"
       id="rect4896"
       inkscape:connector-curvature="0" />
    <rect
       style="opacity:1;fill:#333333;fill-opacity:1;fill-rule:evenodd;stroke:none;stroke-width:3.17499995;stroke-linecap:round;stroke-linejoin:round;stroke-miterlimit:4;stroke-dasharray:none;stroke-opacity:1"
       id="rect4938"
       width="2.1166666"
       height="4.2333331"
       x="40.216667"
       y="-29.633341" />
    <path
       style="opacity:1;fill:#e69d5c;fill-opacity:1;fill-rule:evenodd;stroke:none;stroke-width:3.17499995;stroke-linecap:round;stroke-linejoin:round;stroke-miterlimit:4;stroke-dasharray:none;stroke-opacity:1"
       d="m 38.099999,-29.633337 v 2.116666 h 2.116666 2.116667 v -2.116666 h -2.116667 z m 4.233333,2.116666 v 2.116668 2.116666 h 2.116667 v -2.116666 -2.116668 z m 0,4.233334 h -2.116667 -2.116666 -2.116667 -2.116667 v 2.116667 h 2.116667 2.116667 2.116666 2.116667 z m -8.466667,0 v -2.116666 h -2.116667 v 2.116666 z m 0,-2.116666 h 2.116667 2.116667 v -2.116668 h -2.116667 -2.116667 z"
       id="rect4829"
       inkscape:connector-curvature="0" />
    <path
       style="opacity:1;fill:#ffaf66;fill-opacity:1;fill-rule:evenodd;stroke:none;stroke-width:3.17499995;stroke-linecap:round;stroke-linejoin:round;stroke-miterlimit:4;stroke-dasharray:none;stroke-opacity:1"
       d="m 38.099999,-27.516671 v 2.116668 h -2.116667 -2.116667 v 2.116666 h 2.116667 2.116667 2.116666 2.116667 v -2.116666 -2.116668 h -2.116667 z"
       id="rect4853"
       inkscape:connector-curvature="0" />
    <rect
       style="opacity:1;fill:#1a1a1a;fill-opacity:1;fill-rule:evenodd;stroke:none;stroke-width:3.17499995;stroke-linecap:round;stroke-linejoin:round;stroke-miterlimit:4;stroke-dasharray:none;stroke-opacity:1"
       id="rect4889"
       width="2.1166666"
       height="4.2333331"
       x="42.333332"
       y="-31.750008" />
    <path
       style="opacity:1;fill:#e2e2e2;fill-opacity:1;fill-rule:evenodd;stroke:none;stroke-width:3.17499995;stroke-linecap:round;stroke-linejoin:round;stroke-miterlimit:4;stroke-dasharray:none;stroke-opacity:1"
       d="m 42.333335,-33.866671 v 2.116667 h 2.116666 v 4.233333 h 2.116667 v -4.233333 -2.116667 z"
       id="rect4891"
       inkscape:connector-curvature="0" />
  </g>
</svg>
