<?xml version="1.0" encoding="utf-8"?>
<!-- Generator: Adobe Illustrator 24.1.2, SVG Export Plug-In . SVG Version: 6.00 Build 0)  -->
<svg version="1.1" id="Layer_1" xmlns="http://www.w3.org/2000/svg" xmlns:xlink="http://www.w3.org/1999/xlink" x="0px" y="0px"
	 viewBox="0 0 121.9 121.9" style="enable-background:new 0 0 121.9 121.9;" xml:space="preserve">
<style type="text/css">
	.st0{fill:#3E67B1;stroke:#FFFFFF;stroke-miterlimit:10;}
	.st1{fill:#7C1115;}
	.st2{fill:#21763A;}
	.st3{fill:none;stroke:#FFFFFF;stroke-width:0.75;stroke-linecap:round;stroke-linejoin:round;}
	.st4{fill:#FEDB4A;}
	.st5{fill:#FDF1B6;}
	.st6{fill:#FCB921;}
</style>
<polygon class="st0" points="112.9,90.9 112.9,30.9 60.9,0.9 9,30.9 9,90.9 60.9,120.9 "/>
<polygon class="st1" points="60.9,60.9 9,30.9 9,90.9 60.9,120.9 112.9,90.9 112.9,30.9 "/>
<polygon class="st2" points="9,30.9 9,90.9 60.9,120.9 60.9,60.9 "/>
<g>
	<line class="st3" x1="79.3" y1="50.4" x2="76.1" y2="40.4"/>
	<line class="st3" x1="87.3" y1="45.8" x2="76.1" y2="40.4"/>
	<line class="st3" x1="72.3" y1="54.4" x2="112.9" y2="30.9"/>
	<line class="st3" x1="105.3" y1="35.3" x2="60.9" y2="0.9"/>
	<line class="st3" x1="56.4" y1="16.2" x2="60.9" y2="0.9"/>
	<line class="st3" x1="9" y1="30.9" x2="56.4" y2="16.2"/>
	<line class="st3" x1="45.2" y1="26.1" x2="9" y2="30.9"/>
	<line class="st3" x1="44.1" y1="34.8" x2="9" y2="30.9"/>
	<line class="st3" x1="48.4" y1="44.1" x2="49.6" y2="54.4"/>
	<line class="st3" x1="9" y1="30.9" x2="48.4" y2="44.1"/>
	<line class="st3" x1="49.6" y1="54.4" x2="9" y2="30.9"/>
	<line class="st3" x1="60.9" y1="0.9" x2="69.3" y2="17.8"/>
	<line class="st3" x1="105.3" y1="35.3" x2="69.3" y2="17.8"/>
	<line class="st3" x1="77.5" y1="28.5" x2="105.3" y2="35.3"/>
	<line class="st3" x1="87.3" y1="45.8" x2="77.5" y2="28.5"/>
	<line class="st3" x1="95.9" y1="40.8" x2="77.5" y2="28.5"/>
	<line class="st3" x1="60.9" y1="113.2" x2="67.4" y2="117.2"/>
	<line class="st3" x1="68.1" y1="107.6" x2="60.9" y2="113.2"/>
	<line class="st3" x1="60.9" y1="103.5" x2="68.1" y2="107.6"/>
	<line class="st3" x1="60.9" y1="93.3" x2="70.6" y2="98.9"/>
	<line class="st3" x1="60.9" y1="103.5" x2="70.6" y2="98.9"/>
	<line class="st3" x1="60.9" y1="84.1" x2="68.1" y2="90.1"/>
	<line class="st3" x1="60.9" y1="93.3" x2="68.1" y2="90.1"/>
	<line class="st3" x1="60.9" y1="84.1" x2="68.4" y2="78.3"/>
	<line class="st3" x1="60.9" y1="74.1" x2="68.4" y2="78.3"/>
	<line class="st3" x1="68.1" y1="90.1" x2="68.4" y2="78.3"/>
	<line class="st3" x1="74.7" y1="88.3" x2="68.1" y2="90.1"/>
	<line class="st3" x1="70.6" y1="98.9" x2="68.1" y2="90.1"/>
	<line class="st3" x1="74.7" y1="88.3" x2="70.6" y2="98.9"/>
	<line class="st3" x1="68.1" y1="107.6" x2="70.6" y2="98.9"/>
	<line class="st3" x1="67.4" y1="117.2" x2="68.1" y2="107.6"/>
	<line class="st3" x1="75.7" y1="112.4" x2="68.1" y2="107.6"/>
	<line class="st3" x1="70.6" y1="98.9" x2="76.9" y2="104"/>
	<line class="st3" x1="68.1" y1="107.6" x2="76.9" y2="104"/>
	<line class="st3" x1="75.7" y1="112.4" x2="76.9" y2="104"/>
	<line class="st3" x1="85.5" y1="106.8" x2="76.9" y2="104"/>
	<line class="st3" x1="88" y1="99.4" x2="85.5" y2="106.8"/>
	<line class="st3" x1="95.2" y1="101.2" x2="88" y2="99.4"/>
	<line class="st3" x1="97.1" y1="95" x2="95.2" y2="101.2"/>
	<line class="st3" x1="102.1" y1="97.2" x2="97.1" y2="95"/>
	<line class="st3" x1="88" y1="99.4" x2="97.1" y2="95"/>
	<line class="st3" x1="76.9" y1="104" x2="88" y2="99.4"/>
	<line class="st3" x1="78" y1="96.1" x2="76.9" y2="104"/>
	<line class="st3" x1="70.6" y1="98.9" x2="78" y2="96.1"/>
	<line class="st3" x1="74.7" y1="88.3" x2="78" y2="96.1"/>
	<line class="st3" x1="82.4" y1="91.7" x2="78" y2="96.1"/>
	<line class="st3" x1="88" y1="99.4" x2="78" y2="96.1"/>
	<line class="st3" x1="82.4" y1="91.7" x2="88" y2="99.4"/>
	<line class="st3" x1="90.5" y1="91.4" x2="88" y2="99.4"/>
	<line class="st3" x1="97.1" y1="95" x2="90.5" y2="91.4"/>
	<line class="st3" x1="104.6" y1="89.2" x2="102.1" y2="97.2"/>
	<line class="st3" x1="112.9" y1="90.9" x2="104.6" y2="89.2"/>
	<line class="st3" x1="97.1" y1="95" x2="104.6" y2="89.2"/>
	<line class="st3" x1="97.8" y1="86.9" x2="97.1" y2="95"/>
	<line class="st3" x1="104.6" y1="89.2" x2="97.8" y2="86.9"/>
	<line class="st3" x1="112.9" y1="82.5" x2="104.6" y2="89.2"/>
	<line class="st3" x1="101.4" y1="81.2" x2="104.6" y2="89.2"/>
	<line class="st3" x1="112.9" y1="82.5" x2="101.4" y2="81.2"/>
	<line class="st3" x1="107.1" y1="75.5" x2="112.9" y2="82.5"/>
	<line class="st3" x1="101.4" y1="81.2" x2="107.1" y2="75.5"/>
	<line class="st3" x1="102" y1="71.2" x2="107.1" y2="75.5"/>
	<line class="st3" x1="112.9" y1="72.3" x2="107.1" y2="75.5"/>
	<line class="st3" x1="107.1" y1="63.9" x2="107.1" y2="75.5"/>
	<line class="st3" x1="112.9" y1="72.3" x2="107.1" y2="63.9"/>
	<line class="st3" x1="112.9" y1="62" x2="107.1" y2="63.9"/>
	<line class="st3" x1="102" y1="71.2" x2="107.1" y2="63.9"/>
	<line class="st3" x1="98.3" y1="63.9" x2="107.1" y2="63.9"/>
	<line class="st3" x1="107.1" y1="56.7" x2="112.9" y2="62"/>
	<line class="st3" x1="107.1" y1="63.9" x2="107.1" y2="56.7"/>
	<line class="st3" x1="101.2" y1="59.3" x2="107.1" y2="63.9"/>
	<line class="st3" x1="98.3" y1="63.9" x2="101.2" y2="59.3"/>
	<line class="st3" x1="107.1" y1="56.7" x2="101.2" y2="59.3"/>
	<line class="st3" x1="112.9" y1="50.4" x2="107.1" y2="56.7"/>
	<line class="st3" x1="105.9" y1="44.8" x2="112.9" y2="50.4"/>
	<line class="st3" x1="105.3" y1="35.3" x2="112.9" y2="40.5"/>
	<line class="st3" x1="105.9" y1="44.8" x2="112.9" y2="40.5"/>
	<line class="st3" x1="105.3" y1="35.3" x2="105.9" y2="44.8"/>
	<line class="st3" x1="95.9" y1="40.8" x2="105.9" y2="44.8"/>
	<line class="st3" x1="107.1" y1="56.7" x2="105.9" y2="44.8"/>
	<line class="st3" x1="99.7" y1="50.7" x2="105.9" y2="44.8"/>
	<line class="st3" x1="107.1" y1="56.7" x2="99.7" y2="50.7"/>
	<line class="st3" x1="95.9" y1="40.8" x2="99.7" y2="50.7"/>
	<line class="st3" x1="101.2" y1="59.3" x2="99.7" y2="50.7"/>
	<line class="st3" x1="92.6" y1="59.7" x2="101.2" y2="59.3"/>
	<line class="st3" x1="99.7" y1="50.7" x2="92.6" y2="59.7"/>
	<line class="st3" x1="92.1" y1="50" x2="92.6" y2="59.7"/>
	<line class="st3" x1="99.7" y1="50.7" x2="92.1" y2="50"/>
	<line class="st3" x1="95.9" y1="40.8" x2="92.1" y2="50"/>
	<line class="st3" x1="87.3" y1="45.8" x2="92.1" y2="50"/>
	<line class="st3" x1="83.9" y1="53.1" x2="92.1" y2="50"/>
	<line class="st3" x1="87.3" y1="45.8" x2="83.9" y2="53.1"/>
	<line class="st3" x1="92.6" y1="59.7" x2="83.9" y2="53.1"/>
	<line class="st3" x1="81" y1="58.7" x2="83.9" y2="53.1"/>
	<line class="st3" x1="79.3" y1="50.4" x2="83.9" y2="53.1"/>
	<line class="st3" x1="81" y1="58.7" x2="79.3" y2="50.4"/>
	<line class="st3" x1="75" y1="57.2" x2="79.3" y2="50.4"/>
</g>
<path class="st4" d="M49.6,54.4c-1.9,3.3-5.7,5-9.4,4.1v0c-9.2-2.1-18.3,3.7-20.3,12.9s3.7,18.3,12.9,20.3c8.6,1.9,17.3-3.1,20-11.5
	l0,0c1.1-3.6,4.5-6.1,8.3-6.1V60.9L49.6,54.4z"/>
<path class="st5" d="M72.3,54.4c-1.9-3.3-1.4-7.5,1.1-10.3l0,0c6.4-6.9,5.9-17.7-1-24s-17.7-5.9-24,1c-6,6.5-6,16.6,0,23.1l0,0
	c2.6,2.8,3,7,1.1,10.3l11.4,6.6L72.3,54.4z"/>
<path class="st6" d="M60.9,74.1c3.8,0,7.2,2.5,8.3,6.1l0,0c2.8,9,12.3,14,21.3,11.2s14-12.3,11.2-21.3c-2.6-8.5-11.3-13.5-20-11.5v0
	c-3.7,0.8-7.6-0.8-9.5-4.1l-11.4,6.6V74.1z"/>
</svg>
