<?xml version="1.0" encoding="utf-8"?>
<!-- Generator: Adobe Illustrator 24.2.3, SVG Export Plug-In . SVG Version: 6.00 Build 0)  -->
<svg version="1.1" id="Layer_1" xmlns="http://www.w3.org/2000/svg" xmlns:xlink="http://www.w3.org/1999/xlink" x="0px" y="0px"
	 viewBox="0 0 488 122" style="enable-background:new 0 0 488 122;" xml:space="preserve">
<style type="text/css">
	.st0{fill:#3E67B1;stroke:#FFFFFF;stroke-miterlimit:10;}
	.st1{fill:#7C1115;}
	.st2{fill:#21763A;}
	.st3{fill:none;stroke:#FFFFFF;stroke-width:0.75;stroke-linecap:round;stroke-linejoin:round;}
	.st4{fill:#FEDB4A;}
	.st5{fill:#FDF1B6;}
	.st6{fill:#FCB921;}
</style>
<polygon class="st0" points="112.9,90.9 112.9,30.9 60.9,0.9 9,30.9 9,90.9 60.9,120.9 "/>
<polygon class="st1" points="60.9,61 9,30.9 9,90.9 60.9,120.9 112.9,90.9 112.9,30.9 "/>
<polygon class="st2" points="9,30.9 9,90.9 60.9,120.9 60.9,61 "/>
<g>
	<line class="st3" x1="79.3" y1="50.5" x2="76.1" y2="40.5"/>
	<line class="st3" x1="87.3" y1="45.8" x2="76.1" y2="40.5"/>
	<line class="st3" x1="72.3" y1="54.5" x2="112.9" y2="30.9"/>
	<line class="st3" x1="105.3" y1="35.3" x2="60.9" y2="0.9"/>
	<line class="st3" x1="56.4" y1="16.3" x2="60.9" y2="0.9"/>
	<line class="st3" x1="9" y1="30.9" x2="56.4" y2="16.3"/>
	<line class="st3" x1="45.2" y1="26.1" x2="9" y2="30.9"/>
	<line class="st3" x1="44.1" y1="34.8" x2="9" y2="30.9"/>
	<line class="st3" x1="48.4" y1="44.1" x2="49.6" y2="54.5"/>
	<line class="st3" x1="9" y1="30.9" x2="48.4" y2="44.1"/>
	<line class="st3" x1="49.6" y1="54.5" x2="9" y2="30.9"/>
	<line class="st3" x1="60.9" y1="0.9" x2="69.3" y2="17.8"/>
	<line class="st3" x1="105.3" y1="35.3" x2="69.3" y2="17.8"/>
	<line class="st3" x1="77.5" y1="28.5" x2="105.3" y2="35.3"/>
	<line class="st3" x1="87.3" y1="45.8" x2="77.5" y2="28.5"/>
	<line class="st3" x1="95.9" y1="40.8" x2="77.5" y2="28.5"/>
	<line class="st3" x1="60.9" y1="113.3" x2="67.4" y2="117.3"/>
	<line class="st3" x1="68.1" y1="107.6" x2="60.9" y2="113.3"/>
	<line class="st3" x1="60.9" y1="103.6" x2="68.1" y2="107.6"/>
	<line class="st3" x1="60.9" y1="93.4" x2="70.6" y2="98.9"/>
	<line class="st3" x1="60.9" y1="103.6" x2="70.6" y2="98.9"/>
	<line class="st3" x1="60.9" y1="84.1" x2="68.1" y2="90.1"/>
	<line class="st3" x1="60.9" y1="93.4" x2="68.1" y2="90.1"/>
	<line class="st3" x1="60.9" y1="84.1" x2="68.4" y2="78.4"/>
	<line class="st3" x1="60.9" y1="74.1" x2="68.4" y2="78.4"/>
	<line class="st3" x1="68.1" y1="90.1" x2="68.4" y2="78.4"/>
	<line class="st3" x1="74.7" y1="88.4" x2="68.1" y2="90.1"/>
	<line class="st3" x1="70.6" y1="98.9" x2="68.1" y2="90.1"/>
	<line class="st3" x1="74.7" y1="88.4" x2="70.6" y2="98.9"/>
	<line class="st3" x1="68.1" y1="107.6" x2="70.6" y2="98.9"/>
	<line class="st3" x1="67.4" y1="117.3" x2="68.1" y2="107.6"/>
	<line class="st3" x1="75.7" y1="112.4" x2="68.1" y2="107.6"/>
	<line class="st3" x1="70.6" y1="98.9" x2="76.9" y2="104.1"/>
	<line class="st3" x1="68.1" y1="107.6" x2="76.9" y2="104.1"/>
	<line class="st3" x1="75.7" y1="112.4" x2="76.9" y2="104.1"/>
	<line class="st3" x1="85.5" y1="106.9" x2="76.9" y2="104.1"/>
	<line class="st3" x1="88" y1="99.4" x2="85.5" y2="106.9"/>
	<line class="st3" x1="95.2" y1="101.3" x2="88" y2="99.4"/>
	<line class="st3" x1="97.1" y1="95.1" x2="95.2" y2="101.3"/>
	<line class="st3" x1="102.1" y1="97.3" x2="97.1" y2="95.1"/>
	<line class="st3" x1="88" y1="99.4" x2="97.1" y2="95.1"/>
	<line class="st3" x1="76.9" y1="104.1" x2="88" y2="99.4"/>
	<line class="st3" x1="78" y1="96.1" x2="76.9" y2="104.1"/>
	<line class="st3" x1="70.6" y1="98.9" x2="78" y2="96.1"/>
	<line class="st3" x1="74.7" y1="88.4" x2="78" y2="96.1"/>
	<line class="st3" x1="82.4" y1="91.8" x2="78" y2="96.1"/>
	<line class="st3" x1="88" y1="99.4" x2="78" y2="96.1"/>
	<line class="st3" x1="82.4" y1="91.8" x2="88" y2="99.4"/>
	<line class="st3" x1="90.5" y1="91.4" x2="88" y2="99.4"/>
	<line class="st3" x1="97.1" y1="95.1" x2="90.5" y2="91.4"/>
	<line class="st3" x1="104.6" y1="89.3" x2="102.1" y2="97.3"/>
	<line class="st3" x1="112.9" y1="90.9" x2="104.6" y2="89.3"/>
	<line class="st3" x1="97.1" y1="95.1" x2="104.6" y2="89.3"/>
	<line class="st3" x1="97.8" y1="86.9" x2="97.1" y2="95.1"/>
	<line class="st3" x1="104.6" y1="89.3" x2="97.8" y2="86.9"/>
	<line class="st3" x1="112.9" y1="82.6" x2="104.6" y2="89.3"/>
	<line class="st3" x1="101.4" y1="81.3" x2="104.6" y2="89.3"/>
	<line class="st3" x1="112.9" y1="82.6" x2="101.4" y2="81.3"/>
	<line class="st3" x1="107.1" y1="75.6" x2="112.9" y2="82.6"/>
	<line class="st3" x1="101.4" y1="81.3" x2="107.1" y2="75.6"/>
	<line class="st3" x1="102" y1="71.3" x2="107.1" y2="75.6"/>
	<line class="st3" x1="112.9" y1="72.4" x2="107.1" y2="75.6"/>
	<line class="st3" x1="107.1" y1="64" x2="107.1" y2="75.6"/>
	<line class="st3" x1="112.9" y1="72.4" x2="107.1" y2="64"/>
	<line class="st3" x1="112.9" y1="62" x2="107.1" y2="64"/>
	<line class="st3" x1="102" y1="71.3" x2="107.1" y2="64"/>
	<line class="st3" x1="98.3" y1="64" x2="107.1" y2="64"/>
	<line class="st3" x1="107.1" y1="56.8" x2="112.9" y2="62"/>
	<line class="st3" x1="107.1" y1="64" x2="107.1" y2="56.8"/>
	<line class="st3" x1="101.2" y1="59.3" x2="107.1" y2="64"/>
	<line class="st3" x1="98.3" y1="64" x2="101.2" y2="59.3"/>
	<line class="st3" x1="107.1" y1="56.8" x2="101.2" y2="59.3"/>
	<line class="st3" x1="112.9" y1="50.5" x2="107.1" y2="56.8"/>
	<line class="st3" x1="105.9" y1="44.8" x2="112.9" y2="50.5"/>
	<line class="st3" x1="105.3" y1="35.3" x2="112.9" y2="40.5"/>
	<line class="st3" x1="105.9" y1="44.8" x2="112.9" y2="40.5"/>
	<line class="st3" x1="105.3" y1="35.3" x2="105.9" y2="44.8"/>
	<line class="st3" x1="95.9" y1="40.8" x2="105.9" y2="44.8"/>
	<line class="st3" x1="107.1" y1="56.8" x2="105.9" y2="44.8"/>
	<line class="st3" x1="99.7" y1="50.8" x2="105.9" y2="44.8"/>
	<line class="st3" x1="107.1" y1="56.8" x2="99.7" y2="50.8"/>
	<line class="st3" x1="95.9" y1="40.8" x2="99.7" y2="50.8"/>
	<line class="st3" x1="101.2" y1="59.3" x2="99.7" y2="50.8"/>
	<line class="st3" x1="92.6" y1="59.8" x2="101.2" y2="59.3"/>
	<line class="st3" x1="99.7" y1="50.8" x2="92.6" y2="59.8"/>
	<line class="st3" x1="92.1" y1="50" x2="92.6" y2="59.8"/>
	<line class="st3" x1="99.7" y1="50.8" x2="92.1" y2="50"/>
	<line class="st3" x1="95.9" y1="40.8" x2="92.1" y2="50"/>
	<line class="st3" x1="87.3" y1="45.8" x2="92.1" y2="50"/>
	<line class="st3" x1="83.9" y1="53.1" x2="92.1" y2="50"/>
	<line class="st3" x1="87.3" y1="45.8" x2="83.9" y2="53.1"/>
	<line class="st3" x1="92.6" y1="59.8" x2="83.9" y2="53.1"/>
	<line class="st3" x1="81" y1="58.8" x2="83.9" y2="53.1"/>
	<line class="st3" x1="79.3" y1="50.5" x2="83.9" y2="53.1"/>
	<line class="st3" x1="81" y1="58.8" x2="79.3" y2="50.5"/>
	<line class="st3" x1="75" y1="57.3" x2="79.3" y2="50.5"/>
</g>
<path class="st4" d="M49.6,54.5c-1.9,3.3-5.7,5-9.4,4.1l0,0c-9.2-2.1-18.3,3.7-20.3,12.9c-2,9.2,3.7,18.3,12.9,20.3
	c8.6,1.9,17.3-3.1,20-11.5l0,0c1.1-3.6,4.5-6.1,8.3-6.1V61L49.6,54.5z"/>
<path class="st5" d="M72.3,54.5c-1.9-3.3-1.4-7.5,1.1-10.3l0,0c6.4-6.9,5.9-17.7-1-24s-17.7-5.9-24,1c-6,6.5-6,16.6,0,23.1l0,0
	c2.6,2.8,3,7,1.1,10.3l11.4,6.6L72.3,54.5z"/>
<path class="st6" d="M60.9,74.1c3.8,0,7.2,2.5,8.3,6.1l0,0c2.8,9,12.3,14,21.3,11.2s14-12.3,11.2-21.3c-2.6-8.5-11.3-13.5-20-11.5
	l0,0c-3.7,0.8-7.6-0.8-9.5-4.1l-11.4,6.6v13H60.9z"/>
<g>
	<path class="st6" d="M128.2,86.2V35.8h16c4.9,0,8.7,1.1,11.6,3.2c2.8,2.1,4.3,4.9,4.3,8.3c0,2.9-0.8,5.3-2.4,7.5s-3.9,3.6-6.7,4.5
		v0.1c3.5,0.4,6.2,1.7,8.3,3.8c2.1,2.2,3.1,5,3.1,8.5c0,4.3-1.7,7.8-5.1,10.5s-7.7,4-12.9,4H128.2z M136.6,42.5v14.3h5.4
		c2.9,0,5.2-0.7,6.8-2.1s2.5-3.3,2.5-5.8c0-4.3-2.9-6.5-8.6-6.5H136.6z M136.6,63.6v16h7.1c3.1,0,5.5-0.7,7.2-2.2s2.5-3.4,2.5-6
		c0-5.2-3.6-7.8-10.9-7.8H136.6z"/>
	<path class="st6" d="M213.1,86.2h-9.2l-4.5-12.8h-19.8l-4.4,12.8h-9.1L185,35.8h9.4L213.1,86.2z M197.2,66.5l-7-20.1
		c-0.2-0.7-0.4-1.7-0.7-3.2h-0.1c-0.2,1.3-0.4,2.4-0.7,3.2l-6.9,20.1H197.2z"/>
	<path class="st6" d="M217.7,84.2v-8.6c0.8,0.7,1.7,1.3,2.8,1.9s2.2,1,3.4,1.4s2.4,0.7,3.6,0.9s2.3,0.3,3.3,0.3
		c3.5,0,6.1-0.6,7.9-1.8s2.6-2.9,2.6-5.1c0-1.2-0.3-2.2-0.9-3.1s-1.4-1.7-2.4-2.4s-2.2-1.4-3.6-2.1s-2.9-1.4-4.5-2.1
		c-1.7-0.9-3.3-1.8-4.8-2.8c-1.5-0.9-2.8-2-3.8-3.1c-1.1-1.1-1.9-2.4-2.6-3.8c-0.6-1.4-0.9-3.1-0.9-5c0-2.4,0.5-4.4,1.6-6.2
		c1.1-1.7,2.5-3.2,4.2-4.3c1.7-1.1,3.7-2,6-2.5c2.2-0.6,4.5-0.8,6.8-0.8c5.3,0,9.1,0.6,11.5,1.8V45c-2.9-2.1-6.5-3.1-11-3.1
		c-1.2,0-2.5,0.1-3.7,0.4c-1.2,0.2-2.3,0.6-3.3,1.2c-1,0.5-1.8,1.2-2.4,2.1s-0.9,1.9-0.9,3.1c0,1.1,0.2,2.1,0.7,2.9
		c0.5,0.8,1.2,1.6,2.1,2.3c0.9,0.7,2,1.3,3.3,2c1.3,0.6,2.8,1.3,4.5,2.1c1.8,0.9,3.4,1.9,5,2.9c1.6,1,2.9,2.1,4.1,3.3
		c1.2,1.2,2.1,2.6,2.8,4.1s1,3.2,1,5.1c0,2.6-0.5,4.7-1.5,6.5s-2.4,3.2-4.2,4.3s-3.8,1.9-6,2.4s-4.7,0.7-7.2,0.7
		c-0.8,0-1.9-0.1-3.1-0.2s-2.5-0.3-3.8-0.6s-2.5-0.5-3.7-0.9S218.4,84.6,217.7,84.2z"/>
	<path class="st6" d="M287.6,86.2h-28.3V35.8h27.2v7.1h-18.8v14.3h17.3v7.1h-17.3v14.9h19.9V86.2z"/>
	<path class="st6" d="M341.3,86.2V65c0-2.2-0.2-4-0.5-5.5c-0.3-1.5-0.8-2.7-1.5-3.6c-0.7-0.9-1.6-1.6-2.6-2s-2.3-0.6-3.8-0.6
		c-1.3,0-2.6,0.3-3.7,0.9c-1.2,0.6-2.2,1.5-3.1,2.6s-1.6,2.4-2.1,3.8s-0.8,3.1-0.8,4.8v20.8h-4.5V64.6c0-7.5-2.9-11.3-8.7-11.3
		c-1.3,0-2.6,0.3-3.7,0.9s-2.2,1.4-3,2.5c-0.9,1.1-1.5,2.4-2,3.9s-0.7,3.2-0.7,5v20.6h-4.5v-36h4.5V56h0.1c2.5-4.5,6.2-6.7,11.1-6.7
		c1.3,0,2.5,0.2,3.6,0.6s2.1,0.9,3,1.6c0.9,0.7,1.7,1.5,2.3,2.5c0.6,1,1.1,2,1.5,3.2c1.3-2.6,2.9-4.5,4.9-5.8s4.3-2,6.9-2
		c7.9,0,11.8,4.9,11.8,14.6v22.2H341.3z"/>
	<path class="st6" d="M358.8,69c0,2.2,0.3,4.2,0.9,5.9s1.4,3.2,2.4,4.5s2.3,2.2,3.8,2.8s3.2,1,5.1,1c4.1,0,7.9-1.4,11.5-4.3v4.4
		c-3.4,2.5-7.6,3.7-12.5,3.7c-2.4,0-4.6-0.4-6.6-1.3s-3.6-2.1-5-3.7s-2.4-3.6-3.2-5.9s-1.1-5-1.1-8c0-2.7,0.4-5.2,1.2-7.5
		s2-4.3,3.4-6c1.5-1.7,3.2-3,5.2-3.9s4.2-1.4,6.5-1.4c2.3,0,4.4,0.4,6.2,1.2s3.3,2,4.5,3.5c1.2,1.5,2.1,3.3,2.8,5.5
		c0.6,2.2,0.9,4.6,0.9,7.2V69H358.8z M380.2,65.1c-0.1-3.7-1-6.7-2.7-8.7c-1.7-2.1-4.1-3.1-7.1-3.1c-1.5,0-2.9,0.3-4.2,0.8
		c-1.3,0.5-2.4,1.3-3.4,2.3s-1.8,2.3-2.4,3.7c-0.6,1.5-1.1,3.1-1.4,4.9H380.2z"/>
	<path class="st6" d="M391.6,79.7c0.7,0.5,1.4,1,2.2,1.4s1.6,0.8,2.5,1.1s1.7,0.5,2.5,0.7s1.7,0.2,2.4,0.2c5.3,0,8-2,8-6
		c0-0.9-0.2-1.7-0.6-2.4s-0.9-1.3-1.6-1.8s-1.5-1.1-2.5-1.5s-2.1-1-3.3-1.5c-1.7-0.7-3.1-1.4-4.3-2.1s-2.2-1.5-3-2.3
		s-1.3-1.7-1.7-2.7s-0.6-2.1-0.6-3.4c0-1.6,0.3-3,1-4.3c0.7-1.2,1.6-2.3,2.8-3.2c1.2-0.9,2.5-1.5,4.1-2s3.1-0.7,4.8-0.7
		c3.1,0,5.8,0.6,8.2,1.8v4.7c-2.7-1.7-5.6-2.6-8.7-2.6c-1.1,0-2.2,0.1-3.1,0.4s-1.7,0.7-2.4,1.2c-0.7,0.5-1.2,1.1-1.5,1.8
		c-0.4,0.7-0.5,1.5-0.5,2.4c0,0.9,0.1,1.7,0.4,2.3s0.7,1.3,1.3,1.8s1.4,1.1,2.3,1.5s2.1,1,3.5,1.6c1.7,0.7,3.2,1.4,4.5,2.1
		s2.3,1.4,3.1,2.3s1.4,1.7,1.8,2.7s0.6,2.2,0.6,3.5c0,1.6-0.3,3.1-1,4.3s-1.6,2.3-2.8,3.2s-2.6,1.5-4.2,2s-3.3,0.7-5.2,0.7
		c-3.6,0-6.7-0.8-9.2-2.3V79.7z"/>
	<path class="st6" d="M447.2,86.2V65c0-4-0.7-7-2.2-8.9c-1.5-1.9-3.7-2.9-6.8-2.9c-1.5,0-2.8,0.3-4.1,0.9c-1.3,0.6-2.5,1.4-3.4,2.5
		c-1,1.1-1.8,2.4-2.4,4s-0.9,3.4-0.9,5.4v20.1h-4.5V32.9h4.5v23.5h0.1c2.8-4.7,6.8-7.1,12.1-7.1c4,0,7,1.2,9,3.7s3,6.1,3,10.9v22.3
		H447.2z"/>
</g>
</svg>
