<?xml version="1.0" encoding="UTF-8"?>
<svg width="48px" height="48px" viewBox="0 0 48 48" version="1.1" xmlns="http://www.w3.org/2000/svg" xmlns:xlink="http://www.w3.org/1999/xlink">
    <title>Artboard</title>
    <g id="Artboard" stroke="none" stroke-width="1" fill="none" fill-rule="evenodd">
        <g id="鲸鱼-OK" transform="translate(0.000000, 8.000000)" fill="#000000" fill-rule="nonzero">
            <path d="M33.2481429,10.6474762 C33.2481429,10.6474762 33.1324286,12.5680952 31.7209048,14.5003333 C31.7209048,14.5003333 32.3688095,15.6804762 32.3919524,15.8540476 C32.3919524,15.8540476 34.1274762,13.308619 34.3125714,10.2541429 C34.312619,10.2541429 33.4217143,10.6359048 33.2481429,10.6474762 L33.2481429,10.6474762 Z M35.1340952,9.907 L36.3836667,9.32847619 C36.3836667,9.32847619 36.1522857,14.3614762 33.155619,18.0639048 L32.7506667,16.6870476 C32.7506667,16.6870476 34.8217143,14.2804762 35.1340952,9.907 Z" id="Shape"></path>
            <path d="M37.2051429,8.93509524 L38.6167615,8.28719048 C38.6167615,8.28719048 38.6861429,15.252381 33.5027619,20.3200952 L33.317619,18.9779524 C33.317619,18.9779524 36.5571905,16.3168095 37.2051429,8.93509524 L37.2051429,8.93509524 Z" id="Path"></path>
            <path d="M39.3802857,7.94009524 L41.3703333,7.19961905 C41.3703333,7.19961905 40.4215714,9.05080952 40.1670476,10.3466667 C40.1670476,10.3466667 39.5422857,15.414381 37.9224762,18.0523333 C37.9224762,18.0523333 36.7423333,20.3894762 33.5258571,23.0737619 L33.5721429,21.2919524 C33.5721429,21.2919524 38.9175238,17.335 39.3802857,7.94009524 L39.3802857,7.94009524 Z" id="Path"></path>
            <path d="M42.4116667,6.91033333 L43.7306667,6.84090476 C43.7306667,6.84090476 42.5158095,8.9582381 42.134,11.1796667 C42.134,11.1796667 41.1968095,16.5597619 39.2877619,19.7878095 C39.2877619,19.7878095 37.6216667,22.877 33.1440476,25.6538571 L33.387,24.126619 C33.387,24.126619 37.2745238,22.1828571 39.7736667,15.7961429 C39.7736667,15.7961429 40.4678571,13.5746667 40.7108571,11.7003333 C40.7108571,11.700381 41.0232381,9.2012381 42.4116667,6.91033333 Z" id="Path"></path>
            <path d="M44.6331429,6.84095238 L45.7091429,6.87566667 C45.7091429,6.87566667 44.529,8.43761905 44.216619,10.312 C44.216619,10.312 43.0364762,16.5598571 41.8910476,18.7118571 C41.8910476,18.7118571 39.1142381,25.2720952 32.5887143,27.8059524 L32.8316667,26.7993333 C32.8316667,26.7993333 39.5654762,23.8489524 41.8563333,15.5879048 C41.8563333,15.5879048 43.2100476,8.85409524 44.0430952,7.74338095 L44.6331429,6.84095238 Z" id="Path"></path>
            <path d="M46.611619,6.91033333 L47.930619,6.9797619 C47.930619,6.9797619 45.535619,10.381381 45.7091429,14.0259524 C45.7091429,14.0259524 45.4661905,22.3217143 44.9455238,24.4043333 C44.9455238,24.4043333 43.9042381,31.1034286 36.5109524,31.034 C36.5109524,31.034 38.1770476,28.7778571 38.3852857,26.7299524 C38.3852857,26.7299524 36.0597143,29.1249524 32.0333333,29.6803333 L32.2762857,28.7431429 C32.2762857,28.7431429 38.732381,27.0423333 42.7587619,18.7812857 C42.7587619,18.7812857 44.0083333,15.4490952 44.7025238,11.8392381 C44.7025238,11.8391905 45.1190476,8.43761905 46.611619,6.91033333 L46.611619,6.91033333 Z M39.1951905,0.0492857143 C39.1951905,0.0492857143 35.0068095,-0.41352381 31.0498571,2.15504762 C31.0498571,2.15504762 28.2499048,4.14509524 25.4499524,7.61614286 C22.65,11.0871905 19.3485238,16.5160476 13.0005238,13.864 C13.0005238,13.864 15.9393333,14.0028571 18.0450952,13.1466667 C18.0450952,13.1466667 15.7079524,11.9896667 16.9806667,9.55995238 C16.9806667,9.55995238 17.6285714,8.2872381 20.0814286,7.31538095 C20.0814286,7.31538095 23.9689524,6.20466667 24.570619,5.48728571 C24.570619,5.48728571 26.3524286,3.93690476 26.2367143,1.50719048 C26.2367143,1.50719048 18.3921905,-0.135761905 15.8699048,1.73857143 C15.8699048,1.73857143 13.903,3.3352381 13.1856667,5.02447619 C13.1856667,5.02447619 11.195619,2.50219048 10.5939524,1.96995238 C10.5939524,1.96995238 9.3212381,0.74352381 5.318,0.951809524 L1.70814286,1.22947619 L0.042047619,1.50714286 C0.042047619,1.50714286 -0.605857143,5.53352381 4.5312381,6.99138095 C4.5312381,6.99138095 8.81219048,7.82442857 9.99233333,9.4442381 C9.99233333,9.4442381 10.8716667,10.5549524 10.825381,13.0078095 C10.825381,13.0078095 10.9179524,25.7349048 23.0665238,29.5067619 C23.0665238,29.5067619 23.1590952,18.3994762 26.8615238,16.4788571 C26.8615238,16.4788571 25.0797143,19.209381 24.5706667,24.2770952 C24.5706667,24.2770952 24.3392857,27.8175238 24.4318095,30.4786667 C24.4318095,30.4786667 24.3160952,33.1398095 22.0946667,35.1298571 C22.0252381,35.1761429 29.4995238,34.8984762 31.6978571,26.406 C31.6978571,26.406 33.1556667,20.065619 31.2581905,13.8871905 C31.2581905,13.8871905 32.3689048,12.2210952 32.484619,10.7632857 L30.3557143,10.6707143 C30.3557143,10.6707143 29.6435714,11.6452381 28.7261905,11.0882381 C28.7261905,11.0882381 27.8334286,10.7111905 28.0764286,9.46161905 C28.0764286,9.46161905 28.5797143,8.12528571 29.9160952,8.75004762 C29.9160952,8.75004762 30.662381,9.09714286 30.662381,9.93019048 C30.662381,9.93019048 31.4091429,10.1770952 32.3988571,10.1210476 C33.9424762,9.94752381 35.2734286,9.02595238 36.098,8.56538095 C40.5547619,5.73019048 42.6664286,5.76652381 43.5581429,5.68933333 C44.7668095,5.58471429 46.2094762,5.50428571 47.132381,5.60295238 C47.132381,5.60295238 45.0496667,0.326952381 39.1951905,0.0492857143 Z M14.992619,22.5825238 C14.6159524,22.5825238 14.3105714,22.2771905 14.3105714,21.9004762 C14.3105714,21.5238095 14.6159048,21.2184286 14.992619,21.2184286 C15.3692857,21.2184286 15.6746667,21.5237619 15.6746667,21.9004762 C15.674619,22.2771905 15.3692857,22.5825238 14.992619,22.5825238 Z M16.7301429,24.953381 C16.3534762,24.953381 16.0480952,24.6480476 16.0480952,24.2713333 C16.0480952,23.8946667 16.3534286,23.5892857 16.7301429,23.5892857 C17.1068571,23.5892857 17.4121905,23.894619 17.4121905,24.2713333 C17.4121905,24.6480476 17.1068095,24.953381 16.7301429,24.953381 Z M17.7207143,23.021 C17.3440476,23.021 17.0386667,22.7156667 17.0386667,22.3389524 C17.0386667,21.9622857 17.344,21.6569048 17.7207143,21.6569048 C18.097381,21.6569048 18.4027619,21.9622381 18.4027619,22.3389524 C18.4027143,22.715619 18.097381,23.021 17.7207143,23.021 Z M19.0522857,26.8858095 C18.675619,26.8858095 18.3702381,26.5804762 18.3702381,26.2037619 C18.3702381,25.8270952 18.6755714,25.5217143 19.0522857,25.5217143 C19.4289524,25.5217143 19.7343333,25.8270476 19.7343333,26.2037619 C19.7342857,26.5804286 19.4289524,26.8858095 19.0522857,26.8858095 Z M19.263381,24.5636667 C18.8867143,24.5636667 18.5813333,24.2583333 18.5813333,23.881619 C18.5813333,23.5049524 18.8866667,23.1995714 19.263381,23.1995714 C19.6400476,23.1995714 19.9454286,23.5049048 19.9454286,23.881619 C19.9454286,24.2582857 19.6400476,24.5636667 19.263381,24.5636667 Z M19.7505238,21.9492381 C19.7505238,21.5725714 20.0558571,21.2671905 20.4325714,21.2671905 C20.8092381,21.2671905 21.114619,21.5725238 21.114619,21.9492381 C21.114619,22.3259048 20.8092857,22.6312857 20.4325714,22.6312857 C20.0559048,22.6312381 19.7505238,22.3259048 19.7505238,21.9492381 Z M21.4069048,24.5961429 C21.7835714,24.5961429 22.0889524,24.9014762 22.0889524,25.2781905 C22.0889524,25.6548571 21.783619,25.9602381 21.4069048,25.9602381 C21.0302381,25.9602381 20.7248571,25.6549048 20.7248571,25.2781905 C20.7248571,24.9014762 21.0302381,24.5961429 21.4069048,24.5961429 Z M21.5692857,28.233619 C21.192619,28.233619 20.8872381,27.9282857 20.8872381,27.5515714 C20.8872381,27.1749048 21.1925714,26.8695238 21.5692857,26.8695238 C21.9459524,26.8695238 22.2513333,27.1748571 22.2513333,27.5515714 C22.2512857,27.9282381 21.9459524,28.233619 21.5692857,28.233619 Z M22.1700952,23.9790476 C21.7934286,23.9790476 21.4880476,23.6737143 21.4880476,23.297 C21.4880476,22.9203333 21.793381,22.6149524 22.1700952,22.6149524 C22.5467619,22.6149524 22.8521429,22.9202857 22.8521429,23.297 C22.8521429,23.6737143 22.5468095,23.9790476 22.1700952,23.9790476 Z M22.9495714,21.4458095 C22.5729048,21.4458095 22.2675238,21.1404762 22.2675238,20.7637619 C22.2675238,20.3870952 22.5728571,20.0817143 22.9495714,20.0817143 C23.3262381,20.0817143 23.631619,20.3870476 23.631619,20.7637619 C23.631619,21.1404762 23.3262381,21.4458095 22.9495714,21.4458095 Z" id="Shape"></path>
        </g>
    </g>
</svg>