<?xml version="1.0" encoding="UTF-8"?>
<svg width="48px" height="48px" viewBox="0 0 48 48" version="1.1" xmlns="http://www.w3.org/2000/svg" xmlns:xlink="http://www.w3.org/1999/xlink">
    <title>Artboard</title>
    <g id="Artboard" stroke="none" stroke-width="1" fill="none" fill-rule="evenodd">
        <g id="云数据-(1)" transform="translate(0.000000, 8.000000)" fill="#000000" fill-rule="nonzero">
            <path d="M45.0228099,16.1070069 L45.0228099,19.2422241 C45.5658684,20.3829263 45.8733223,21.6866221 45.8733223,23.0555663 C45.8733223,27.1555438 43.115885,30.6253805 39.5955253,30.953399 L39.2997501,30.9808185 L8.35658579,30.9808185 L8.06182612,30.9541607 C4.54095868,30.626396 1.78326744,27.1563055 1.78326744,23.056074 C1.78326744,18.9553349 4.54095868,15.486006 8.06106446,15.159003 L8.67038678,15.1305679 L9.64581025,15.1305679 L9.55009587,14.1599683 C9.52191471,13.8710479 9.50592,13.5780655 9.50592,13.2825441 C9.50592,8.17946975 13.6569283,4.02846149 18.759241,4.02846149 C19.4500602,4.02846149 20.1251385,4.10513455 20.7768595,4.24883306 L20.7768595,2.44904727 C20.1205686,2.32845223 19.4475213,2.25964959 18.7600026,2.25964959 C12.683282,2.25964959 7.73913917,7.20353851 7.73913917,13.2812747 C7.73913917,13.3081864 7.73913917,13.3350982 7.74015471,13.3620099 L7.09655802,13.3620099 L7.09655802,13.5163716 C3.06639868,14.3326096 0.015978843,18.3579451 0.015978843,23.0548046 C0.015978843,27.7516641 3.06639868,31.7772536 7.09554248,32.5942532 L7.09554248,32.7166255 L7.9795676,32.7478532 L40.5602856,32.7478532 L40.5602856,32.5942532 C44.5896833,31.7780152 47.6401031,27.7516641 47.6401031,23.0548046 C47.6401031,20.3727709 46.6458922,17.8887669 45.0228099,16.1070069 Z" id="Path"></path>
            <path d="M22.4007035,17.9146631 C22.4007035,17.9146631 26.7352701,20.6144688 32.4451279,20.6144688 C39.5051425,20.6660073 43.4241005,17.9146631 43.4241005,17.9146631 L43.4241005,21.5741514 C43.4241005,21.5741514 40.1279207,24.0403835 32.159762,24.0403835 C26.3460655,24.0403835 22.4007035,21.548763 22.4007035,21.548763 L22.4007035,17.9146631 Z" id="Path"></path>
            <path d="M22.4007035,13.0093646 C22.4007035,13.0093646 26.7352701,15.7086625 32.4451279,15.7086625 C39.5051425,15.7607088 43.4241005,13.0093646 43.4241005,13.0093646 L43.4241005,16.6688529 C43.4241005,16.6688529 40.1279207,19.1343233 32.159762,19.1343233 C26.3460655,19.1343233 22.4007035,16.6429567 22.4007035,16.6429567 L22.4007035,13.0093646 Z" id="Path"></path>
            <path d="M22.4007035,8.12970843 C22.4007035,8.12970843 26.7352701,10.8292602 32.4451279,10.8292602 C39.5048886,10.8813064 43.4241005,8.12970843 43.4241005,8.12970843 L43.4241005,11.7894506 C43.4241005,11.7894506 40.1276668,14.2551749 32.159762,14.2551749 C26.3460655,14.2551749 22.4007035,11.7635544 22.4007035,11.7635544 L22.4007035,8.12970843 Z" id="Path"></path>
            <path d="M22.4007035,6.7800595 L22.4007035,2.9255881 C22.4007035,2.9255881 23.4685408,0.00566479339 32.912275,0.00566479339 C42.3562631,0.00566479339 43.4241005,2.84764562 43.4241005,2.84764562 L43.4241005,6.7800595 C43.4241005,6.7800595 42.2783207,9.27168 32.912275,9.27168 C23.4741263,9.27168 22.4007035,6.7800595 22.4007035,6.7800595 Z M33.1681904,0.823172231 C28.7173448,0.823172231 25.109395,1.61630678 25.109395,2.59477686 C25.109395,3.57324694 28.7173448,4.3661276 33.1681904,4.3661276 C37.619036,4.3661276 41.2272397,3.57299306 41.2272397,2.59477686 C41.2272397,1.61656066 37.619036,0.823172231 33.1681904,0.823172231 Z" id="Shape"></path>
        </g>
    </g>
</svg>